G04 #@! TF.GenerationSoftware,KiCad,Pcbnew,7.0.9*
G04 #@! TF.CreationDate,2024-01-08T22:46:21+03:00*
G04 #@! TF.ProjectId,SofleKeyboardTopPlate,536f666c-654b-4657-9962-6f617264546f,rev?*
G04 #@! TF.SameCoordinates,Original*
G04 #@! TF.FileFunction,Legend,Bot*
G04 #@! TF.FilePolarity,Positive*
%FSLAX46Y46*%
G04 Gerber Fmt 4.6, Leading zero omitted, Abs format (unit mm)*
G04 Created by KiCad (PCBNEW 7.0.9) date 2024-01-08 22:46:21*
%MOMM*%
%LPD*%
G01*
G04 APERTURE LIST*
%ADD10C,4.700000*%
G04 APERTURE END LIST*
G36*
X86162523Y-113982668D02*
G01*
X86164665Y-114094496D01*
X86170033Y-114426755D01*
X86175198Y-114816653D01*
X86180004Y-115248158D01*
X86184295Y-115705240D01*
X86187916Y-116171869D01*
X86190711Y-116632015D01*
X86192523Y-117069647D01*
X86198212Y-118956627D01*
X86605329Y-119409647D01*
X86671639Y-119483453D01*
X86815147Y-119643311D01*
X86939740Y-119782268D01*
X87033892Y-119887465D01*
X87086074Y-119946039D01*
X87119063Y-119987718D01*
X87133035Y-120031243D01*
X87122845Y-120092619D01*
X87085325Y-120190086D01*
X87017305Y-120341882D01*
X86874906Y-120654354D01*
X87166559Y-121138511D01*
X87204420Y-121201592D01*
X87304275Y-121370372D01*
X87384827Y-121510063D01*
X87438624Y-121607595D01*
X87458212Y-121649900D01*
X87449543Y-121664946D01*
X87397002Y-121731404D01*
X87304794Y-121839816D01*
X87182127Y-121979443D01*
X87038212Y-122139549D01*
X86951763Y-122233944D01*
X86816211Y-122378529D01*
X86704815Y-122493034D01*
X86627276Y-122567587D01*
X86593294Y-122592316D01*
X86578058Y-122584229D01*
X86502470Y-122535146D01*
X86375833Y-122447847D01*
X86205881Y-122327991D01*
X86000349Y-122181241D01*
X85766971Y-122013255D01*
X85513480Y-121829693D01*
X85247612Y-121636217D01*
X84977100Y-121438485D01*
X84709679Y-121242158D01*
X84453083Y-121052897D01*
X84215046Y-120876361D01*
X84003302Y-120718211D01*
X83825586Y-120584106D01*
X83689632Y-120479707D01*
X83603174Y-120410674D01*
X83573946Y-120382668D01*
X83579509Y-120366307D01*
X83608261Y-120281286D01*
X83659818Y-120128652D01*
X83732441Y-119913560D01*
X83824389Y-119641161D01*
X83933926Y-119316610D01*
X84059310Y-118945059D01*
X84198804Y-118531661D01*
X84350667Y-118081570D01*
X84513162Y-117599939D01*
X84684549Y-117091920D01*
X84863090Y-116562668D01*
X86138212Y-112782668D01*
X86162523Y-113982668D01*
G37*
G36*
X90266180Y-116600325D02*
G01*
X90431517Y-117090580D01*
X90623289Y-117659926D01*
X90791762Y-118161241D01*
X90938308Y-118598874D01*
X91064301Y-118977174D01*
X91171111Y-119300491D01*
X91260113Y-119573173D01*
X91332678Y-119799572D01*
X91390179Y-119984035D01*
X91433988Y-120130912D01*
X91465478Y-120244553D01*
X91486022Y-120329307D01*
X91496991Y-120389524D01*
X91499759Y-120429552D01*
X91495698Y-120453741D01*
X91486180Y-120466441D01*
X91460307Y-120485044D01*
X91373038Y-120547992D01*
X91232737Y-120649287D01*
X91046332Y-120783923D01*
X90820749Y-120946896D01*
X90562917Y-121133203D01*
X90279762Y-121337837D01*
X89978212Y-121555796D01*
X89756465Y-121715945D01*
X89471352Y-121921423D01*
X89211272Y-122108366D01*
X88982849Y-122272041D01*
X88792707Y-122407712D01*
X88647470Y-122510644D01*
X88553764Y-122576103D01*
X88518212Y-122599353D01*
X88504606Y-122590157D01*
X88446036Y-122533720D01*
X88352551Y-122436518D01*
X88235315Y-122310876D01*
X88105489Y-122169117D01*
X87974236Y-122023565D01*
X87852720Y-121886543D01*
X87752102Y-121770376D01*
X87683545Y-121687387D01*
X87658212Y-121649900D01*
X87660677Y-121642274D01*
X87693000Y-121579292D01*
X87756942Y-121465625D01*
X87845048Y-121314342D01*
X87949866Y-121138511D01*
X88241519Y-120654354D01*
X88099303Y-120342282D01*
X88037877Y-120205442D01*
X87997029Y-120102028D01*
X87983917Y-120036760D01*
X87995229Y-119991389D01*
X88027650Y-119947667D01*
X88044781Y-119927981D01*
X88116411Y-119847263D01*
X88225151Y-119725787D01*
X88359564Y-119576309D01*
X88508212Y-119411588D01*
X88918212Y-118958051D01*
X88923902Y-117070359D01*
X88924493Y-116900492D01*
X88926713Y-116451965D01*
X88929853Y-115987298D01*
X88933757Y-115522513D01*
X88938270Y-115073634D01*
X88943235Y-114656684D01*
X88948498Y-114287688D01*
X88953902Y-113982668D01*
X88978212Y-112782668D01*
X90266180Y-116600325D01*
G37*
%LPC*%
D10*
X99242768Y-116567265D03*
X125967768Y-56692265D03*
X202017768Y-100642265D03*
X125967768Y-56692265D03*
X99242768Y-116567265D03*
X99242768Y-116567265D03*
X125967768Y-94992265D03*
X125967768Y-56692265D03*
X201866904Y-62179465D03*
X201853077Y-62277855D03*
X201866904Y-62179465D03*
X125967768Y-94992265D03*
X99242768Y-116567265D03*
X202017768Y-100642265D03*
X201853077Y-62277855D03*
X125967768Y-56692265D03*
%LPD*%
M02*
