G04 #@! TF.GenerationSoftware,KiCad,Pcbnew,7.0.9*
G04 #@! TF.CreationDate,2024-01-08T22:46:21+03:00*
G04 #@! TF.ProjectId,SofleKeyboardTopPlate,536f666c-654b-4657-9962-6f617264546f,rev?*
G04 #@! TF.SameCoordinates,Original*
G04 #@! TF.FileFunction,Copper,L2,Bot*
G04 #@! TF.FilePolarity,Positive*
%FSLAX46Y46*%
G04 Gerber Fmt 4.6, Leading zero omitted, Abs format (unit mm)*
G04 Created by KiCad (PCBNEW 7.0.9) date 2024-01-08 22:46:21*
%MOMM*%
%LPD*%
G01*
G04 APERTURE LIST*
G04 #@! TA.AperFunction,ComponentPad*
%ADD10C,4.700000*%
G04 #@! TD*
G04 APERTURE END LIST*
D10*
X99242768Y-116567265D03*
X125967768Y-56692265D03*
X202017768Y-100642265D03*
X125967768Y-56692265D03*
X99242768Y-116567265D03*
X99242768Y-116567265D03*
X125967768Y-94992265D03*
X125967768Y-56692265D03*
X201866904Y-62179465D03*
X201853077Y-62277855D03*
X201866904Y-62179465D03*
X125967768Y-94992265D03*
X99242768Y-116567265D03*
X202017768Y-100642265D03*
X201853077Y-62277855D03*
X125967768Y-56692265D03*
G04 #@! TA.AperFunction,NonConductor*
G36*
X151038987Y-33537705D02*
G01*
X154238794Y-33585921D01*
X157437858Y-33670031D01*
X160635777Y-33790022D01*
X163832149Y-33945880D01*
X167026571Y-34137585D01*
X170218642Y-34365113D01*
X173407960Y-34628436D01*
X176594123Y-34927520D01*
X179776730Y-35262328D01*
X182955381Y-35632818D01*
X186129676Y-36038943D01*
X189299215Y-36480651D01*
X192463600Y-36957888D01*
X195622432Y-37470592D01*
X198726328Y-38010184D01*
X198726432Y-38010223D01*
X198765970Y-38017077D01*
X198770546Y-38017872D01*
X198775314Y-38018701D01*
X198775314Y-38018700D01*
X198776338Y-38018878D01*
X198799460Y-38023031D01*
X198799460Y-38023030D01*
X198817809Y-38026326D01*
X198819322Y-38026351D01*
X198832856Y-38028703D01*
X198833079Y-38028707D01*
X218547428Y-41445776D01*
X219407244Y-41594807D01*
X219429596Y-41600840D01*
X219664889Y-41688236D01*
X219671558Y-41691163D01*
X219905211Y-41810254D01*
X219911483Y-41813922D01*
X220081330Y-41926931D01*
X220129826Y-41959198D01*
X220135652Y-41963581D01*
X220335742Y-42133084D01*
X220341020Y-42138107D01*
X220520204Y-42329584D01*
X220524871Y-42335189D01*
X220680746Y-42546075D01*
X220684734Y-42552181D01*
X220815215Y-42779653D01*
X220818467Y-42786169D01*
X220843259Y-42843988D01*
X220921812Y-43027194D01*
X220924293Y-43034052D01*
X220999113Y-43285393D01*
X221000786Y-43292491D01*
X221046083Y-43550785D01*
X221046925Y-43558030D01*
X221062171Y-43821184D01*
X221062277Y-43824862D01*
X221012301Y-139030783D01*
X221011200Y-139038464D01*
X221012251Y-139073689D01*
X221012242Y-139077743D01*
X221003898Y-139319320D01*
X221003097Y-139327395D01*
X220964138Y-139563874D01*
X220962307Y-139571778D01*
X220893307Y-139801307D01*
X220890476Y-139808911D01*
X220792579Y-140027680D01*
X220788795Y-140034858D01*
X220663623Y-140239241D01*
X220658949Y-140245873D01*
X220508568Y-140432499D01*
X220503082Y-140438476D01*
X220329991Y-140604245D01*
X220323782Y-140609469D01*
X220130827Y-140751652D01*
X220124003Y-140756032D01*
X219976228Y-140837976D01*
X219914408Y-140872256D01*
X219907074Y-140875726D01*
X219684270Y-140964085D01*
X219676551Y-140966585D01*
X219444265Y-141025602D01*
X219436289Y-141027090D01*
X219198340Y-141055797D01*
X219190238Y-141056248D01*
X218991403Y-141054521D01*
X218987799Y-141053870D01*
X218968487Y-141053870D01*
X218946071Y-141053870D01*
X218941476Y-141053702D01*
X218931743Y-141052990D01*
X218916683Y-141051888D01*
X218900325Y-141053870D01*
X204914979Y-141053870D01*
X203056645Y-141017735D01*
X201199200Y-140945760D01*
X199343488Y-140837976D01*
X197490201Y-140694422D01*
X195640027Y-140515151D01*
X193793654Y-140300231D01*
X191951770Y-140049742D01*
X190115059Y-139763776D01*
X188284205Y-139442440D01*
X186459889Y-139085854D01*
X184642790Y-138694150D01*
X182833583Y-138267473D01*
X181032941Y-137805983D01*
X179241535Y-137309852D01*
X178369031Y-137049992D01*
X177501425Y-136791591D01*
X177499363Y-136790614D01*
X177460070Y-136779275D01*
X177460030Y-136779263D01*
X177460029Y-136779263D01*
X177460011Y-136779257D01*
X177458475Y-136778796D01*
X177421865Y-136767509D01*
X177417074Y-136766867D01*
X176510795Y-136505350D01*
X175034266Y-136109580D01*
X185409289Y-136109580D01*
X185410999Y-136119278D01*
X185412163Y-136132591D01*
X185413662Y-136141091D01*
X185417120Y-136154000D01*
X185418831Y-136163702D01*
X185422348Y-136169794D01*
X185426865Y-136175177D01*
X185435395Y-136180102D01*
X185453385Y-136192699D01*
X185460931Y-136199031D01*
X185460932Y-136199031D01*
X185460933Y-136199032D01*
X185460934Y-136199032D01*
X185467536Y-136201435D01*
X185474460Y-136202656D01*
X185474460Y-136202655D01*
X185474461Y-136202656D01*
X185484159Y-136200945D01*
X185506038Y-136199032D01*
X199442883Y-136199032D01*
X199464763Y-136200946D01*
X199474460Y-136202656D01*
X199474460Y-136202655D01*
X199474461Y-136202656D01*
X199484159Y-136200945D01*
X199497480Y-136199780D01*
X199501723Y-136199032D01*
X199501725Y-136199032D01*
X199501726Y-136199031D01*
X199505989Y-136198280D01*
X199518886Y-136194822D01*
X199528585Y-136193113D01*
X199528586Y-136193111D01*
X199534673Y-136189596D01*
X199540054Y-136185081D01*
X199540058Y-136185080D01*
X199544982Y-136176550D01*
X199557578Y-136158560D01*
X199563913Y-136151012D01*
X199563913Y-136151011D01*
X199566315Y-136144411D01*
X199567535Y-136137487D01*
X199567537Y-136137484D01*
X199565827Y-136127785D01*
X199564260Y-136109869D01*
X204458152Y-136109869D01*
X204459862Y-136119567D01*
X204461026Y-136132880D01*
X204462525Y-136141380D01*
X204465983Y-136154289D01*
X204467694Y-136163991D01*
X204471211Y-136170083D01*
X204475728Y-136175466D01*
X204484258Y-136180391D01*
X204502248Y-136192988D01*
X204509794Y-136199320D01*
X204509795Y-136199320D01*
X204509796Y-136199321D01*
X204509797Y-136199321D01*
X204516399Y-136201724D01*
X204523323Y-136202945D01*
X204523323Y-136202944D01*
X204523324Y-136202945D01*
X204533022Y-136201234D01*
X204554901Y-136199321D01*
X218491746Y-136199321D01*
X218513626Y-136201235D01*
X218523323Y-136202945D01*
X218523323Y-136202944D01*
X218523324Y-136202945D01*
X218533022Y-136201234D01*
X218546343Y-136200069D01*
X218550586Y-136199321D01*
X218550588Y-136199321D01*
X218550589Y-136199320D01*
X218554852Y-136198569D01*
X218567749Y-136195111D01*
X218577448Y-136193402D01*
X218577449Y-136193400D01*
X218583536Y-136189885D01*
X218588917Y-136185370D01*
X218588921Y-136185369D01*
X218593845Y-136176839D01*
X218606441Y-136158849D01*
X218612776Y-136151301D01*
X218612776Y-136151300D01*
X218615178Y-136144700D01*
X218616398Y-136137776D01*
X218616400Y-136137773D01*
X218614690Y-136128074D01*
X218612776Y-136106195D01*
X218612776Y-122169350D01*
X218614690Y-122147469D01*
X218616398Y-122137776D01*
X218616400Y-122137773D01*
X218614690Y-122128074D01*
X218613525Y-122114761D01*
X218612776Y-122110513D01*
X218612776Y-122110509D01*
X218612774Y-122110504D01*
X218612024Y-122106249D01*
X218608566Y-122093343D01*
X218606857Y-122083650D01*
X218606857Y-122083649D01*
X218606855Y-122083648D01*
X218603338Y-122077556D01*
X218598825Y-122072176D01*
X218590292Y-122067250D01*
X218572301Y-122054652D01*
X218564755Y-122048320D01*
X218558157Y-122045918D01*
X218551228Y-122044696D01*
X218541530Y-122046407D01*
X218519651Y-122048321D01*
X204582806Y-122048321D01*
X204560926Y-122046407D01*
X204551228Y-122044696D01*
X204541530Y-122046407D01*
X204528214Y-122047571D01*
X204519729Y-122049067D01*
X204506815Y-122052527D01*
X204497103Y-122054240D01*
X204491013Y-122057755D01*
X204485630Y-122062273D01*
X204480702Y-122070808D01*
X204468111Y-122088790D01*
X204461775Y-122096340D01*
X204459373Y-122102940D01*
X204458152Y-122109869D01*
X204459862Y-122119567D01*
X204461776Y-122141445D01*
X204461776Y-136078290D01*
X204459863Y-136100164D01*
X204458152Y-136109869D01*
X199564260Y-136109869D01*
X199563913Y-136105906D01*
X199563913Y-122169061D01*
X199565827Y-122147180D01*
X199567535Y-122137487D01*
X199567537Y-122137484D01*
X199565827Y-122127785D01*
X199564662Y-122114472D01*
X199563913Y-122110224D01*
X199563913Y-122110220D01*
X199563911Y-122110215D01*
X199563161Y-122105960D01*
X199559703Y-122093054D01*
X199557994Y-122083361D01*
X199557994Y-122083360D01*
X199557992Y-122083359D01*
X199554475Y-122077267D01*
X199549962Y-122071887D01*
X199541429Y-122066961D01*
X199523438Y-122054363D01*
X199515892Y-122048031D01*
X199509294Y-122045629D01*
X199502365Y-122044407D01*
X199492667Y-122046118D01*
X199470788Y-122048032D01*
X185533943Y-122048032D01*
X185512063Y-122046118D01*
X185502365Y-122044407D01*
X185492667Y-122046118D01*
X185479351Y-122047282D01*
X185470866Y-122048778D01*
X185457952Y-122052238D01*
X185448240Y-122053951D01*
X185442150Y-122057466D01*
X185436767Y-122061984D01*
X185431839Y-122070519D01*
X185419248Y-122088501D01*
X185412912Y-122096051D01*
X185410510Y-122102651D01*
X185409289Y-122109580D01*
X185410999Y-122119278D01*
X185412913Y-122141156D01*
X185412913Y-136078001D01*
X185411000Y-136099875D01*
X185409289Y-136109580D01*
X175034266Y-136109580D01*
X174604887Y-135994489D01*
X172689592Y-135520031D01*
X170765606Y-135082149D01*
X168833626Y-134681000D01*
X166894355Y-134316731D01*
X164948496Y-133989474D01*
X162996756Y-133699347D01*
X161039842Y-133446457D01*
X159078465Y-133230894D01*
X157113338Y-133052738D01*
X155145174Y-132912052D01*
X153174686Y-132808887D01*
X151202590Y-132743282D01*
X149229603Y-132715260D01*
X147256440Y-132724831D01*
X145283817Y-132771992D01*
X143312451Y-132856725D01*
X141343056Y-132979001D01*
X139376349Y-133138773D01*
X137413043Y-133335985D01*
X135453850Y-133570565D01*
X134477312Y-133706400D01*
X133222551Y-133858378D01*
X130716470Y-134199772D01*
X128215741Y-134578383D01*
X125720916Y-134994127D01*
X123232548Y-135446913D01*
X120751185Y-135936639D01*
X118277377Y-136463197D01*
X115811670Y-137026473D01*
X113354608Y-137626340D01*
X110906735Y-138262666D01*
X108468593Y-138935311D01*
X106040718Y-139644127D01*
X103623650Y-140388955D01*
X101217920Y-141169632D01*
X98824062Y-141985986D01*
X96442603Y-142837836D01*
X94074071Y-143724993D01*
X91718989Y-144647261D01*
X89377877Y-145604438D01*
X87051253Y-146596310D01*
X84739630Y-147622660D01*
X82443520Y-148683260D01*
X80163431Y-149777875D01*
X77899865Y-150906264D01*
X75653324Y-152068178D01*
X73424303Y-153263360D01*
X72356307Y-153856607D01*
X72350144Y-153858947D01*
X72318578Y-153877545D01*
X72315611Y-153879187D01*
X72040675Y-154021825D01*
X72034484Y-154024625D01*
X71747383Y-154136233D01*
X71740927Y-154138350D01*
X71443473Y-154218418D01*
X71436827Y-154219828D01*
X71132484Y-154267423D01*
X71125724Y-154268109D01*
X70818027Y-154282678D01*
X70811233Y-154282633D01*
X70771650Y-154280235D01*
X70503756Y-154264007D01*
X70497012Y-154263232D01*
X70193333Y-154211629D01*
X70186706Y-154210132D01*
X69890323Y-154126144D01*
X69883912Y-154123948D01*
X69599552Y-154009067D01*
X69598290Y-154008557D01*
X69592138Y-154005676D01*
X69320603Y-153860227D01*
X69314795Y-153856701D01*
X69060482Y-153682870D01*
X69055088Y-153678739D01*
X68820965Y-153478561D01*
X68816046Y-153473874D01*
X68813633Y-153471313D01*
X68604818Y-153249658D01*
X68600432Y-153244469D01*
X68414562Y-152998831D01*
X68410761Y-152993201D01*
X68367916Y-152921717D01*
X68251220Y-152727018D01*
X68249572Y-152724092D01*
X68239163Y-152704388D01*
X68239162Y-152704387D01*
X68232410Y-152691605D01*
X68228827Y-152686934D01*
X67208171Y-150855665D01*
X63307265Y-143856625D01*
X60415033Y-138667356D01*
X63820326Y-138667356D01*
X63821545Y-138674273D01*
X63823951Y-138680881D01*
X63830281Y-138688425D01*
X63842877Y-138706415D01*
X70811301Y-150776080D01*
X70820580Y-150795978D01*
X70823950Y-150805236D01*
X70830284Y-150812785D01*
X70837954Y-150823738D01*
X70843501Y-150830349D01*
X70852947Y-150839795D01*
X70859276Y-150847338D01*
X70865372Y-150850857D01*
X70871969Y-150853258D01*
X70871970Y-150853258D01*
X70871971Y-150853259D01*
X70881817Y-150853258D01*
X70903699Y-150855172D01*
X70913403Y-150856884D01*
X70913405Y-150856883D01*
X70920313Y-150855665D01*
X70926926Y-150853258D01*
X70926930Y-150853258D01*
X70934475Y-150846926D01*
X70952460Y-150834333D01*
X83022134Y-143865904D01*
X83042033Y-143856625D01*
X83051282Y-143853258D01*
X83051286Y-143853258D01*
X83058824Y-143846931D01*
X83069780Y-143839261D01*
X83076391Y-143833714D01*
X83085845Y-143824259D01*
X83093387Y-143817932D01*
X83093387Y-143817928D01*
X83096902Y-143811841D01*
X83099303Y-143805242D01*
X83099307Y-143805239D01*
X83099306Y-143795387D01*
X83101220Y-143773508D01*
X83102932Y-143763807D01*
X83102930Y-143763804D01*
X83102931Y-143763804D01*
X83101713Y-143756895D01*
X83099306Y-143750279D01*
X83092978Y-143742738D01*
X83080382Y-143724749D01*
X82076507Y-141985986D01*
X76111951Y-131655072D01*
X76102669Y-131635167D01*
X76099306Y-131625926D01*
X76099306Y-131625924D01*
X76099304Y-131625922D01*
X76099304Y-131625921D01*
X76092975Y-131618378D01*
X76085302Y-131607420D01*
X76079770Y-131600827D01*
X76070309Y-131591366D01*
X76064326Y-131584236D01*
X76063980Y-131583823D01*
X76063979Y-131583822D01*
X76063978Y-131583821D01*
X76057887Y-131580304D01*
X76051288Y-131577903D01*
X76051287Y-131577903D01*
X76041438Y-131577903D01*
X76019558Y-131575989D01*
X76009855Y-131574278D01*
X76002937Y-131575497D01*
X75996326Y-131577903D01*
X75988779Y-131584236D01*
X75970797Y-131596826D01*
X63901123Y-138565256D01*
X63881222Y-138574537D01*
X63871971Y-138577904D01*
X63864416Y-138584243D01*
X63853453Y-138591920D01*
X63846880Y-138597435D01*
X63837423Y-138606891D01*
X63829871Y-138613227D01*
X63826351Y-138619324D01*
X63823951Y-138625922D01*
X63823951Y-138635772D01*
X63822037Y-138657650D01*
X63820326Y-138667352D01*
X63820326Y-138667353D01*
X63820326Y-138667355D01*
X63820326Y-138667356D01*
X60415033Y-138667356D01*
X59697227Y-137379463D01*
X59694907Y-137374869D01*
X59547257Y-137049990D01*
X59545014Y-137044346D01*
X59503759Y-136923960D01*
X59429309Y-136706709D01*
X59427627Y-136700904D01*
X59344959Y-136353664D01*
X59343842Y-136347708D01*
X59294992Y-135994149D01*
X59294454Y-135988136D01*
X59279869Y-135631500D01*
X59279914Y-135625430D01*
X59299730Y-135269074D01*
X59300357Y-135263044D01*
X59354393Y-134910225D01*
X59355593Y-134904310D01*
X59443348Y-134558319D01*
X59445116Y-134552537D01*
X59565770Y-134216610D01*
X59568083Y-134211032D01*
X59720518Y-133888285D01*
X59723355Y-133882958D01*
X59906164Y-133576369D01*
X59909498Y-133571345D01*
X60120974Y-133283779D01*
X60124776Y-133279100D01*
X60362947Y-133013240D01*
X60367187Y-133008943D01*
X60629848Y-132767245D01*
X60634488Y-132763371D01*
X60886179Y-132573052D01*
X60894152Y-132568809D01*
X60905146Y-132559915D01*
X60905148Y-132559916D01*
X60922170Y-132546147D01*
X60926233Y-132543124D01*
X60941875Y-132532442D01*
X60941875Y-132532440D01*
X60945433Y-132530011D01*
X60957933Y-132517222D01*
X66653943Y-127910314D01*
X83735382Y-127910314D01*
X83736604Y-127917246D01*
X83736604Y-127917247D01*
X83741527Y-127925774D01*
X83750806Y-127945673D01*
X87507634Y-138267473D01*
X88485242Y-140953430D01*
X88517491Y-141042032D01*
X88523175Y-141063243D01*
X88524885Y-141072942D01*
X88524886Y-141072943D01*
X88524886Y-141072944D01*
X88529812Y-141081477D01*
X88535466Y-141093600D01*
X88539774Y-141101061D01*
X88547439Y-141112008D01*
X88552365Y-141120540D01*
X88552367Y-141120540D01*
X88557756Y-141125063D01*
X88563834Y-141128573D01*
X88563836Y-141128573D01*
X88563837Y-141128574D01*
X88573533Y-141130283D01*
X88594749Y-141135968D01*
X88604010Y-141139339D01*
X88604013Y-141139338D01*
X88611030Y-141139338D01*
X88617959Y-141138116D01*
X88617961Y-141138117D01*
X88617963Y-141138116D01*
X88626482Y-141133197D01*
X88646394Y-141123911D01*
X88655656Y-141120540D01*
X101742751Y-136357226D01*
X101763964Y-136351543D01*
X101773653Y-136349834D01*
X101773658Y-136349835D01*
X101782178Y-136344916D01*
X101794303Y-136339261D01*
X101798036Y-136337105D01*
X101798038Y-136337105D01*
X101798039Y-136337103D01*
X101801782Y-136334943D01*
X101812731Y-136327276D01*
X101821254Y-136322356D01*
X101821254Y-136322354D01*
X101825773Y-136316968D01*
X101829284Y-136310886D01*
X101829288Y-136310884D01*
X101830999Y-136301181D01*
X101836685Y-136279960D01*
X101840052Y-136270710D01*
X101840052Y-136263689D01*
X101838830Y-136256762D01*
X101838831Y-136256760D01*
X101833904Y-136248226D01*
X101824624Y-136228324D01*
X101815282Y-136202656D01*
X97057940Y-123131966D01*
X97052255Y-123110748D01*
X97050548Y-123101068D01*
X97050549Y-123101063D01*
X97045623Y-123092531D01*
X97039972Y-123080411D01*
X97035659Y-123072942D01*
X97027991Y-123061991D01*
X97023070Y-123053467D01*
X97023068Y-123053466D01*
X97017676Y-123048942D01*
X97011598Y-123045432D01*
X97001887Y-123043720D01*
X96980683Y-123038038D01*
X96971424Y-123034668D01*
X96964398Y-123034668D01*
X96957475Y-123035889D01*
X96948941Y-123040816D01*
X96929042Y-123050094D01*
X83832683Y-127816778D01*
X83811472Y-127822462D01*
X83801777Y-127824171D01*
X83793236Y-127829102D01*
X83781111Y-127834757D01*
X83773667Y-127839055D01*
X83762714Y-127846724D01*
X83754181Y-127851650D01*
X83749658Y-127857039D01*
X83746147Y-127863122D01*
X83744436Y-127872825D01*
X83738753Y-127894033D01*
X83735382Y-127903295D01*
X83735382Y-127910314D01*
X66653943Y-127910314D01*
X75418923Y-120821237D01*
X105317433Y-120821237D01*
X105320801Y-120830491D01*
X105326485Y-120851704D01*
X107746592Y-134576814D01*
X107748506Y-134598686D01*
X107748506Y-134608545D01*
X107751877Y-134617806D01*
X107755338Y-134630718D01*
X107758286Y-134638818D01*
X107763931Y-134650923D01*
X107767303Y-134660186D01*
X107767304Y-134660188D01*
X107767305Y-134660188D01*
X107771825Y-134665576D01*
X107777205Y-134670091D01*
X107777206Y-134670091D01*
X107777207Y-134670092D01*
X107786462Y-134673460D01*
X107806365Y-134682741D01*
X107814900Y-134687669D01*
X107814902Y-134687668D01*
X107821818Y-134688888D01*
X107828850Y-134688888D01*
X107828851Y-134688887D01*
X107828852Y-134688888D01*
X107838107Y-134685519D01*
X107859304Y-134679838D01*
X121584436Y-132259727D01*
X121606316Y-132257814D01*
X121616161Y-132257814D01*
X121625406Y-132254448D01*
X121638327Y-132250986D01*
X121646445Y-132248032D01*
X121658555Y-132242384D01*
X121667805Y-132239018D01*
X121667806Y-132239016D01*
X121673192Y-132234497D01*
X121677707Y-132229116D01*
X121677709Y-132229115D01*
X121681076Y-132219861D01*
X121690361Y-132199950D01*
X121695286Y-132191422D01*
X121695285Y-132191419D01*
X121696504Y-132184507D01*
X121696504Y-132177472D01*
X121696505Y-132177470D01*
X121693136Y-132168215D01*
X121687454Y-132147008D01*
X121151825Y-129109306D01*
X128259429Y-129109306D01*
X128261139Y-129119004D01*
X128262303Y-129132317D01*
X128263802Y-129140817D01*
X128267260Y-129153726D01*
X128268971Y-129163428D01*
X128272488Y-129169520D01*
X128277005Y-129174903D01*
X128285535Y-129179828D01*
X128303525Y-129192425D01*
X128311071Y-129198757D01*
X128311072Y-129198757D01*
X128311073Y-129198758D01*
X128311074Y-129198758D01*
X128317676Y-129201161D01*
X128324600Y-129202382D01*
X128324600Y-129202381D01*
X128324601Y-129202382D01*
X128334299Y-129200671D01*
X128356178Y-129198758D01*
X142293023Y-129198758D01*
X142314903Y-129200672D01*
X142324600Y-129202382D01*
X142324600Y-129202381D01*
X142324601Y-129202382D01*
X142334299Y-129200671D01*
X142347620Y-129199506D01*
X142351863Y-129198758D01*
X142351865Y-129198758D01*
X142351866Y-129198757D01*
X142356129Y-129198006D01*
X142369026Y-129194548D01*
X142378725Y-129192839D01*
X142378726Y-129192837D01*
X142384813Y-129189322D01*
X142390194Y-129184807D01*
X142390198Y-129184806D01*
X142395122Y-129176276D01*
X142407718Y-129158286D01*
X142414053Y-129150738D01*
X142414053Y-129150737D01*
X142416455Y-129144137D01*
X142417675Y-129137213D01*
X142417677Y-129137210D01*
X142415967Y-129127511D01*
X142414382Y-129109388D01*
X166358127Y-129109388D01*
X166359837Y-129119086D01*
X166361001Y-129132399D01*
X166362500Y-129140899D01*
X166365958Y-129153808D01*
X166367669Y-129163510D01*
X166371186Y-129169602D01*
X166375703Y-129174985D01*
X166384233Y-129179910D01*
X166402223Y-129192507D01*
X166409769Y-129198839D01*
X166409770Y-129198839D01*
X166409771Y-129198840D01*
X166409772Y-129198840D01*
X166416374Y-129201243D01*
X166423298Y-129202464D01*
X166423298Y-129202463D01*
X166423299Y-129202464D01*
X166432997Y-129200753D01*
X166454876Y-129198840D01*
X180391721Y-129198840D01*
X180413601Y-129200754D01*
X180423298Y-129202464D01*
X180423298Y-129202463D01*
X180423299Y-129202464D01*
X180432997Y-129200753D01*
X180446318Y-129199588D01*
X180450561Y-129198840D01*
X180450563Y-129198840D01*
X180450564Y-129198839D01*
X180454827Y-129198088D01*
X180467724Y-129194630D01*
X180477423Y-129192921D01*
X180477424Y-129192919D01*
X180483511Y-129189404D01*
X180488892Y-129184889D01*
X180488896Y-129184888D01*
X180493820Y-129176358D01*
X180506416Y-129158368D01*
X180512751Y-129150820D01*
X180512751Y-129150819D01*
X180515153Y-129144219D01*
X180516373Y-129137295D01*
X180516375Y-129137292D01*
X180514665Y-129127593D01*
X180512751Y-129105714D01*
X180512751Y-117059580D01*
X185409289Y-117059580D01*
X185410999Y-117069278D01*
X185412163Y-117082591D01*
X185413662Y-117091091D01*
X185417120Y-117104000D01*
X185418831Y-117113702D01*
X185422348Y-117119794D01*
X185426865Y-117125177D01*
X185435395Y-117130102D01*
X185453385Y-117142699D01*
X185460931Y-117149031D01*
X185460932Y-117149031D01*
X185460933Y-117149032D01*
X185460934Y-117149032D01*
X185467536Y-117151435D01*
X185474460Y-117152656D01*
X185474460Y-117152655D01*
X185474461Y-117152656D01*
X185484159Y-117150945D01*
X185506038Y-117149032D01*
X199442883Y-117149032D01*
X199464763Y-117150946D01*
X199474460Y-117152656D01*
X199474460Y-117152655D01*
X199474461Y-117152656D01*
X199484159Y-117150945D01*
X199497480Y-117149780D01*
X199501723Y-117149032D01*
X199501725Y-117149032D01*
X199501726Y-117149031D01*
X199505989Y-117148280D01*
X199518886Y-117144822D01*
X199528585Y-117143113D01*
X199528586Y-117143111D01*
X199534673Y-117139596D01*
X199540054Y-117135081D01*
X199540058Y-117135080D01*
X199544982Y-117126550D01*
X199557578Y-117108560D01*
X199563913Y-117101012D01*
X199563913Y-117101011D01*
X199566315Y-117094411D01*
X199567535Y-117087487D01*
X199567537Y-117087484D01*
X199565827Y-117077785D01*
X199564260Y-117059869D01*
X204458152Y-117059869D01*
X204459862Y-117069567D01*
X204461026Y-117082880D01*
X204462525Y-117091380D01*
X204465983Y-117104289D01*
X204467694Y-117113991D01*
X204471211Y-117120083D01*
X204475728Y-117125466D01*
X204484258Y-117130391D01*
X204502248Y-117142988D01*
X204509794Y-117149320D01*
X204509795Y-117149320D01*
X204509796Y-117149321D01*
X204509797Y-117149321D01*
X204516399Y-117151724D01*
X204523323Y-117152945D01*
X204523323Y-117152944D01*
X204523324Y-117152945D01*
X204533022Y-117151234D01*
X204554901Y-117149321D01*
X218491746Y-117149321D01*
X218513626Y-117151235D01*
X218523323Y-117152945D01*
X218523323Y-117152944D01*
X218523324Y-117152945D01*
X218533022Y-117151234D01*
X218546343Y-117150069D01*
X218550586Y-117149321D01*
X218550588Y-117149321D01*
X218550589Y-117149320D01*
X218554852Y-117148569D01*
X218567749Y-117145111D01*
X218577448Y-117143402D01*
X218577449Y-117143400D01*
X218583536Y-117139885D01*
X218588917Y-117135370D01*
X218588921Y-117135369D01*
X218593845Y-117126839D01*
X218606441Y-117108849D01*
X218612776Y-117101301D01*
X218612776Y-117101300D01*
X218615178Y-117094700D01*
X218616398Y-117087776D01*
X218616400Y-117087773D01*
X218614690Y-117078074D01*
X218612776Y-117056195D01*
X218612776Y-103119350D01*
X218614690Y-103097469D01*
X218616398Y-103087776D01*
X218616400Y-103087773D01*
X218614690Y-103078074D01*
X218613525Y-103064761D01*
X218612776Y-103060513D01*
X218612776Y-103060509D01*
X218612774Y-103060504D01*
X218612024Y-103056249D01*
X218608566Y-103043343D01*
X218606857Y-103033650D01*
X218606857Y-103033649D01*
X218606855Y-103033648D01*
X218603338Y-103027556D01*
X218598825Y-103022176D01*
X218590292Y-103017250D01*
X218572301Y-103004652D01*
X218564755Y-102998320D01*
X218558157Y-102995918D01*
X218551228Y-102994696D01*
X218541530Y-102996407D01*
X218519651Y-102998321D01*
X204582806Y-102998321D01*
X204560926Y-102996407D01*
X204551228Y-102994696D01*
X204541530Y-102996407D01*
X204528214Y-102997571D01*
X204519729Y-102999067D01*
X204506815Y-103002527D01*
X204497103Y-103004240D01*
X204491013Y-103007755D01*
X204485630Y-103012273D01*
X204480702Y-103020808D01*
X204468111Y-103038790D01*
X204461775Y-103046340D01*
X204459373Y-103052940D01*
X204458152Y-103059869D01*
X204459862Y-103069567D01*
X204461776Y-103091445D01*
X204461776Y-117028290D01*
X204459863Y-117050164D01*
X204458152Y-117059869D01*
X199564260Y-117059869D01*
X199563913Y-117055906D01*
X199563913Y-103119061D01*
X199565827Y-103097180D01*
X199567535Y-103087487D01*
X199567537Y-103087484D01*
X199565827Y-103077785D01*
X199564662Y-103064472D01*
X199563913Y-103060224D01*
X199563913Y-103060220D01*
X199563911Y-103060215D01*
X199563161Y-103055960D01*
X199559703Y-103043054D01*
X199557994Y-103033361D01*
X199557994Y-103033360D01*
X199557992Y-103033359D01*
X199554475Y-103027267D01*
X199549962Y-103021887D01*
X199541429Y-103016961D01*
X199523438Y-103004363D01*
X199515892Y-102998031D01*
X199509294Y-102995629D01*
X199502365Y-102994407D01*
X199492667Y-102996118D01*
X199470788Y-102998032D01*
X185533943Y-102998032D01*
X185512063Y-102996118D01*
X185502365Y-102994407D01*
X185492667Y-102996118D01*
X185479351Y-102997282D01*
X185470866Y-102998778D01*
X185457952Y-103002238D01*
X185448240Y-103003951D01*
X185442150Y-103007466D01*
X185436767Y-103011984D01*
X185431839Y-103020519D01*
X185419248Y-103038501D01*
X185412912Y-103046051D01*
X185410510Y-103052651D01*
X185409289Y-103059580D01*
X185410999Y-103069278D01*
X185412913Y-103091156D01*
X185412913Y-117028001D01*
X185411000Y-117049875D01*
X185409289Y-117059580D01*
X180512751Y-117059580D01*
X180512751Y-115168869D01*
X180514665Y-115146988D01*
X180516373Y-115137295D01*
X180516375Y-115137292D01*
X180514665Y-115127593D01*
X180513500Y-115114280D01*
X180512751Y-115110032D01*
X180512751Y-115110028D01*
X180512749Y-115110023D01*
X180511999Y-115105768D01*
X180508541Y-115092862D01*
X180506832Y-115083169D01*
X180506832Y-115083168D01*
X180506830Y-115083167D01*
X180503313Y-115077075D01*
X180498800Y-115071695D01*
X180490267Y-115066769D01*
X180472276Y-115054171D01*
X180464730Y-115047839D01*
X180458132Y-115045437D01*
X180451203Y-115044215D01*
X180441505Y-115045926D01*
X180419626Y-115047840D01*
X166482781Y-115047840D01*
X166460901Y-115045926D01*
X166451203Y-115044215D01*
X166441505Y-115045926D01*
X166428189Y-115047090D01*
X166419704Y-115048586D01*
X166406790Y-115052046D01*
X166397078Y-115053759D01*
X166390988Y-115057274D01*
X166385605Y-115061792D01*
X166380677Y-115070327D01*
X166368086Y-115088309D01*
X166361750Y-115095859D01*
X166359348Y-115102459D01*
X166358127Y-115109388D01*
X166359837Y-115119086D01*
X166361751Y-115140964D01*
X166361751Y-129077809D01*
X166359838Y-129099683D01*
X166358127Y-129109388D01*
X142414382Y-129109388D01*
X142414053Y-129105632D01*
X142414053Y-126659844D01*
X147308013Y-126659844D01*
X147309723Y-126669542D01*
X147310887Y-126682855D01*
X147312386Y-126691355D01*
X147315844Y-126704264D01*
X147317555Y-126713966D01*
X147321072Y-126720058D01*
X147325589Y-126725441D01*
X147334119Y-126730366D01*
X147352109Y-126742963D01*
X147359655Y-126749295D01*
X147359656Y-126749295D01*
X147359657Y-126749296D01*
X147359658Y-126749296D01*
X147366260Y-126751699D01*
X147373184Y-126752920D01*
X147373184Y-126752919D01*
X147373185Y-126752920D01*
X147382883Y-126751209D01*
X147404762Y-126749296D01*
X161341607Y-126749296D01*
X161363487Y-126751210D01*
X161373184Y-126752920D01*
X161373184Y-126752919D01*
X161373185Y-126752920D01*
X161382883Y-126751209D01*
X161396204Y-126750044D01*
X161400447Y-126749296D01*
X161400449Y-126749296D01*
X161400450Y-126749295D01*
X161404713Y-126748544D01*
X161417610Y-126745086D01*
X161427309Y-126743377D01*
X161427310Y-126743375D01*
X161433397Y-126739860D01*
X161438778Y-126735345D01*
X161438782Y-126735344D01*
X161443706Y-126726814D01*
X161456302Y-126708824D01*
X161462637Y-126701276D01*
X161462637Y-126701275D01*
X161465039Y-126694675D01*
X161466259Y-126687751D01*
X161466261Y-126687748D01*
X161464551Y-126678049D01*
X161462637Y-126656170D01*
X161462637Y-112719325D01*
X161464551Y-112697444D01*
X161466259Y-112687751D01*
X161466261Y-112687748D01*
X161464551Y-112678049D01*
X161463386Y-112664736D01*
X161462637Y-112660488D01*
X161462637Y-112660484D01*
X161462635Y-112660479D01*
X161461885Y-112656224D01*
X161458427Y-112643318D01*
X161456718Y-112633625D01*
X161456718Y-112633624D01*
X161456716Y-112633623D01*
X161453199Y-112627531D01*
X161448686Y-112622151D01*
X161440153Y-112617225D01*
X161422162Y-112604627D01*
X161414616Y-112598295D01*
X161408018Y-112595893D01*
X161401089Y-112594671D01*
X161391391Y-112596382D01*
X161369512Y-112598296D01*
X147432667Y-112598296D01*
X147410787Y-112596382D01*
X147401089Y-112594671D01*
X147391391Y-112596382D01*
X147378075Y-112597546D01*
X147369590Y-112599042D01*
X147356676Y-112602502D01*
X147346964Y-112604215D01*
X147340874Y-112607730D01*
X147335491Y-112612248D01*
X147330563Y-112620783D01*
X147317972Y-112638765D01*
X147311636Y-112646315D01*
X147309234Y-112652915D01*
X147308013Y-112659844D01*
X147309723Y-112669542D01*
X147311637Y-112691420D01*
X147311637Y-126628265D01*
X147309724Y-126650139D01*
X147308013Y-126659844D01*
X142414053Y-126659844D01*
X142414053Y-115168787D01*
X142415967Y-115146906D01*
X142417675Y-115137213D01*
X142417677Y-115137210D01*
X142415967Y-115127511D01*
X142414802Y-115114198D01*
X142414053Y-115109950D01*
X142414053Y-115109946D01*
X142414051Y-115109941D01*
X142413301Y-115105686D01*
X142409843Y-115092780D01*
X142409040Y-115088227D01*
X142408134Y-115083086D01*
X142408132Y-115083085D01*
X142404615Y-115076993D01*
X142400102Y-115071613D01*
X142391569Y-115066687D01*
X142373578Y-115054089D01*
X142366032Y-115047757D01*
X142359434Y-115045355D01*
X142352505Y-115044133D01*
X142342807Y-115045844D01*
X142320928Y-115047758D01*
X128384083Y-115047758D01*
X128362203Y-115045844D01*
X128352505Y-115044133D01*
X128342807Y-115045844D01*
X128329491Y-115047008D01*
X128321006Y-115048504D01*
X128308092Y-115051964D01*
X128298380Y-115053677D01*
X128292290Y-115057192D01*
X128286907Y-115061710D01*
X128281979Y-115070245D01*
X128269388Y-115088227D01*
X128263052Y-115095777D01*
X128260650Y-115102377D01*
X128259429Y-115109306D01*
X128261139Y-115119004D01*
X128263053Y-115140882D01*
X128263053Y-129077727D01*
X128261140Y-129099601D01*
X128259429Y-129109306D01*
X121151825Y-129109306D01*
X119267344Y-118421883D01*
X119265431Y-118400002D01*
X119265431Y-118390163D01*
X119265432Y-118390161D01*
X119262061Y-118380900D01*
X119258606Y-118368005D01*
X119257128Y-118363946D01*
X119257128Y-118363941D01*
X119257125Y-118363936D01*
X119255649Y-118359880D01*
X119250004Y-118347772D01*
X119246636Y-118338517D01*
X119246634Y-118338515D01*
X119242117Y-118333132D01*
X119236730Y-118328611D01*
X119227476Y-118325243D01*
X119207574Y-118315962D01*
X119199042Y-118311036D01*
X119192125Y-118309816D01*
X119185087Y-118309816D01*
X119175832Y-118313184D01*
X119154622Y-118318867D01*
X105429504Y-120738977D01*
X105407624Y-120740891D01*
X105397777Y-120740891D01*
X105388511Y-120744263D01*
X105375612Y-120747719D01*
X105367515Y-120750666D01*
X105355402Y-120756313D01*
X105346134Y-120759686D01*
X105340744Y-120764209D01*
X105336230Y-120769589D01*
X105332859Y-120778851D01*
X105323579Y-120798751D01*
X105318652Y-120807285D01*
X105317433Y-120814197D01*
X105317433Y-120821237D01*
X75418923Y-120821237D01*
X80678560Y-116567266D01*
X96587423Y-116567266D01*
X96606782Y-116887328D01*
X96606783Y-116887331D01*
X96664579Y-117202718D01*
X96664582Y-117202732D01*
X96759978Y-117508867D01*
X96891571Y-117801254D01*
X96891574Y-117801260D01*
X96891576Y-117801264D01*
X96891577Y-117801265D01*
X97057462Y-118075673D01*
X97250035Y-118321474D01*
X97255215Y-118328085D01*
X97255220Y-118328091D01*
X97481941Y-118554812D01*
X97481947Y-118554817D01*
X97481949Y-118554819D01*
X97734360Y-118752571D01*
X98008768Y-118918456D01*
X98008770Y-118918457D01*
X98008772Y-118918458D01*
X98008778Y-118918461D01*
X98301165Y-119050054D01*
X98301166Y-119050054D01*
X98301170Y-119050056D01*
X98607302Y-119145451D01*
X98922702Y-119203250D01*
X99136079Y-119216156D01*
X99242767Y-119222610D01*
X99242768Y-119222610D01*
X99242769Y-119222610D01*
X99322784Y-119217770D01*
X99562834Y-119203250D01*
X99878234Y-119145451D01*
X100184366Y-119050056D01*
X100476768Y-118918456D01*
X100751176Y-118752571D01*
X101003587Y-118554819D01*
X101230322Y-118328084D01*
X101428074Y-118075673D01*
X101593959Y-117801265D01*
X101725559Y-117508863D01*
X101820954Y-117202731D01*
X101878753Y-116887331D01*
X101898113Y-116567265D01*
X101878753Y-116247199D01*
X101820954Y-115931799D01*
X101725559Y-115625667D01*
X101593959Y-115333265D01*
X101428074Y-115058857D01*
X101230322Y-114806446D01*
X101230320Y-114806444D01*
X101230315Y-114806438D01*
X101003594Y-114579717D01*
X101003588Y-114579712D01*
X100751175Y-114381958D01*
X100476763Y-114216071D01*
X100476757Y-114216068D01*
X100184370Y-114084475D01*
X99878235Y-113989079D01*
X99878221Y-113989076D01*
X99562834Y-113931280D01*
X99562831Y-113931279D01*
X99242769Y-113911920D01*
X99242767Y-113911920D01*
X98922704Y-113931279D01*
X98922701Y-113931280D01*
X98607314Y-113989076D01*
X98607300Y-113989079D01*
X98301165Y-114084475D01*
X98008778Y-114216068D01*
X98008772Y-114216071D01*
X97734360Y-114381958D01*
X97481947Y-114579712D01*
X97481941Y-114579717D01*
X97255220Y-114806438D01*
X97255215Y-114806444D01*
X97057461Y-115058857D01*
X96891574Y-115333269D01*
X96891571Y-115333275D01*
X96759978Y-115625662D01*
X96664582Y-115931797D01*
X96664579Y-115931811D01*
X96606783Y-116247198D01*
X96606782Y-116247201D01*
X96587423Y-116567263D01*
X96587423Y-116567266D01*
X80678560Y-116567266D01*
X83075591Y-114628558D01*
X83094147Y-114616518D01*
X83095136Y-114615528D01*
X83095139Y-114615528D01*
X83107335Y-114603331D01*
X83112239Y-114598918D01*
X83116928Y-114595127D01*
X83116931Y-114595120D01*
X83124686Y-114586210D01*
X83127651Y-114583031D01*
X83219331Y-114491353D01*
X83411031Y-114257764D01*
X83578913Y-114006510D01*
X83721358Y-113740011D01*
X83836996Y-113460832D01*
X83924713Y-113171664D01*
X83983664Y-112875290D01*
X84001772Y-112691420D01*
X84013279Y-112574581D01*
X84013279Y-112574574D01*
X84013280Y-112574564D01*
X84013279Y-112473496D01*
X84013300Y-112473376D01*
X84013287Y-112443080D01*
X84013279Y-112423474D01*
X84013278Y-112409512D01*
X109208850Y-112409512D01*
X109210560Y-112419210D01*
X109211724Y-112432523D01*
X109213223Y-112441023D01*
X109216681Y-112453932D01*
X109218392Y-112463634D01*
X109221909Y-112469726D01*
X109226426Y-112475109D01*
X109234956Y-112480034D01*
X109252946Y-112492631D01*
X109260492Y-112498963D01*
X109260493Y-112498963D01*
X109260494Y-112498964D01*
X109260495Y-112498964D01*
X109267097Y-112501367D01*
X109274021Y-112502588D01*
X109274021Y-112502587D01*
X109274022Y-112502588D01*
X109283720Y-112500877D01*
X109305599Y-112498964D01*
X123242444Y-112498964D01*
X123264324Y-112500878D01*
X123274021Y-112502588D01*
X123274021Y-112502587D01*
X123274022Y-112502588D01*
X123283720Y-112500877D01*
X123297041Y-112499712D01*
X123301284Y-112498964D01*
X123301286Y-112498964D01*
X123301287Y-112498963D01*
X123305550Y-112498212D01*
X123318447Y-112494754D01*
X123328146Y-112493045D01*
X123328147Y-112493043D01*
X123334234Y-112489528D01*
X123339615Y-112485013D01*
X123339619Y-112485012D01*
X123344543Y-112476482D01*
X123357139Y-112458492D01*
X123363474Y-112450944D01*
X123363474Y-112450943D01*
X123365876Y-112444343D01*
X123367096Y-112437419D01*
X123367098Y-112437416D01*
X123365388Y-112427717D01*
X123363474Y-112405838D01*
X123363474Y-98468993D01*
X123365388Y-98447112D01*
X123367096Y-98437419D01*
X123367098Y-98437416D01*
X123365388Y-98427717D01*
X123364223Y-98414404D01*
X123363474Y-98410156D01*
X123363474Y-98410152D01*
X123363472Y-98410147D01*
X123362722Y-98405892D01*
X123359264Y-98392986D01*
X123357555Y-98383293D01*
X123357555Y-98383292D01*
X123357553Y-98383291D01*
X123354036Y-98377199D01*
X123349523Y-98371819D01*
X123340990Y-98366893D01*
X123322999Y-98354295D01*
X123315453Y-98347963D01*
X123308855Y-98345561D01*
X123301926Y-98344339D01*
X123292228Y-98346050D01*
X123270349Y-98347964D01*
X109333504Y-98347964D01*
X109311624Y-98346050D01*
X109301926Y-98344339D01*
X109292228Y-98346050D01*
X109278912Y-98347214D01*
X109270427Y-98348710D01*
X109257513Y-98352170D01*
X109247801Y-98353883D01*
X109241711Y-98357398D01*
X109236328Y-98361916D01*
X109231400Y-98370451D01*
X109218809Y-98388433D01*
X109212473Y-98395983D01*
X109210071Y-98402583D01*
X109208850Y-98409512D01*
X109210560Y-98419210D01*
X109212474Y-98441088D01*
X109212474Y-112377933D01*
X109210561Y-112399807D01*
X109208850Y-112409512D01*
X84013278Y-112409512D01*
X84013278Y-112398943D01*
X84013277Y-112398942D01*
X84013277Y-112379357D01*
X84013259Y-112379243D01*
X84012569Y-110817736D01*
X86535662Y-110817736D01*
X86537372Y-110827434D01*
X86538536Y-110840747D01*
X86540035Y-110849247D01*
X86543493Y-110862156D01*
X86545204Y-110871858D01*
X86548721Y-110877950D01*
X86553238Y-110883333D01*
X86561768Y-110888258D01*
X86579758Y-110900855D01*
X86587304Y-110907187D01*
X86587305Y-110907187D01*
X86587306Y-110907188D01*
X86587307Y-110907188D01*
X86593909Y-110909591D01*
X86600833Y-110910812D01*
X86600833Y-110910811D01*
X86600834Y-110910812D01*
X86610532Y-110909101D01*
X86632411Y-110907188D01*
X104048307Y-110907188D01*
X104070187Y-110909102D01*
X104079884Y-110910812D01*
X104079884Y-110910811D01*
X104079885Y-110910812D01*
X104089583Y-110909101D01*
X104102904Y-110907936D01*
X104107147Y-110907188D01*
X104107149Y-110907188D01*
X104107150Y-110907187D01*
X104111413Y-110906436D01*
X104124310Y-110902978D01*
X104134009Y-110901269D01*
X104134010Y-110901267D01*
X104140097Y-110897752D01*
X104145478Y-110893237D01*
X104145482Y-110893236D01*
X104150406Y-110884706D01*
X104163002Y-110866716D01*
X104169337Y-110859168D01*
X104169337Y-110859167D01*
X104171739Y-110852567D01*
X104172959Y-110845643D01*
X104172961Y-110845640D01*
X104171251Y-110835941D01*
X104169337Y-110814062D01*
X104169337Y-96747810D01*
X104171251Y-96725929D01*
X104172959Y-96716236D01*
X104172961Y-96716233D01*
X104171251Y-96706534D01*
X104170086Y-96693221D01*
X104169337Y-96688973D01*
X104169337Y-96688969D01*
X104169335Y-96688964D01*
X104168585Y-96684709D01*
X104165127Y-96671803D01*
X104163418Y-96662110D01*
X104163418Y-96662109D01*
X104163416Y-96662108D01*
X104159899Y-96656016D01*
X104155386Y-96650636D01*
X104146853Y-96645710D01*
X104128862Y-96633112D01*
X104121316Y-96626780D01*
X104114718Y-96624378D01*
X104107789Y-96623156D01*
X104098091Y-96624867D01*
X104076212Y-96626781D01*
X86660316Y-96626781D01*
X86638436Y-96624867D01*
X86628738Y-96623156D01*
X86619040Y-96624867D01*
X86605724Y-96626031D01*
X86597239Y-96627527D01*
X86584325Y-96630987D01*
X86574613Y-96632700D01*
X86568523Y-96636215D01*
X86563140Y-96640733D01*
X86558212Y-96649268D01*
X86545621Y-96667250D01*
X86539285Y-96674800D01*
X86536883Y-96681400D01*
X86535662Y-96688329D01*
X86537372Y-96698027D01*
X86539286Y-96719905D01*
X86539286Y-110786157D01*
X86537373Y-110808031D01*
X86535662Y-110817736D01*
X84012569Y-110817736D01*
X84006715Y-97570431D01*
X84006802Y-97567134D01*
X84008154Y-97541341D01*
X84022907Y-97259826D01*
X84023596Y-97253279D01*
X84051487Y-97077179D01*
X84071479Y-96950951D01*
X84072851Y-96944500D01*
X84124139Y-96753091D01*
X84152074Y-96648832D01*
X84154105Y-96642581D01*
X84263808Y-96356794D01*
X84266476Y-96350801D01*
X84405450Y-96078049D01*
X84408735Y-96072356D01*
X84575458Y-95815625D01*
X84579322Y-95810306D01*
X84771958Y-95572419D01*
X84776363Y-95567526D01*
X84992816Y-95351072D01*
X84997695Y-95346678D01*
X85235605Y-95154021D01*
X85240913Y-95150166D01*
X85484054Y-94992266D01*
X123312423Y-94992266D01*
X123331782Y-95312328D01*
X123331783Y-95312331D01*
X123389579Y-95627718D01*
X123389582Y-95627732D01*
X123484978Y-95933867D01*
X123616571Y-96226254D01*
X123616574Y-96226260D01*
X123747334Y-96442565D01*
X123782462Y-96500673D01*
X123958939Y-96725929D01*
X123980215Y-96753085D01*
X123980220Y-96753091D01*
X124206941Y-96979812D01*
X124206947Y-96979817D01*
X124206949Y-96979819D01*
X124459360Y-97177571D01*
X124733768Y-97343456D01*
X124733770Y-97343457D01*
X124733772Y-97343458D01*
X124733778Y-97343461D01*
X125026165Y-97475054D01*
X125026166Y-97475054D01*
X125026170Y-97475056D01*
X125332302Y-97570451D01*
X125647702Y-97628250D01*
X125861079Y-97641156D01*
X125967767Y-97647610D01*
X125967768Y-97647610D01*
X125967769Y-97647610D01*
X126047784Y-97642770D01*
X126287834Y-97628250D01*
X126603234Y-97570451D01*
X126909366Y-97475056D01*
X127201768Y-97343456D01*
X127476176Y-97177571D01*
X127728587Y-96979819D01*
X127955322Y-96753084D01*
X128037868Y-96647721D01*
X128095625Y-96606435D01*
X128166535Y-96602927D01*
X128228084Y-96638312D01*
X128260732Y-96701357D01*
X128263053Y-96725429D01*
X128263053Y-110027727D01*
X128261140Y-110049601D01*
X128259429Y-110059306D01*
X128261139Y-110069004D01*
X128262303Y-110082317D01*
X128263802Y-110090817D01*
X128267260Y-110103726D01*
X128268971Y-110113428D01*
X128272488Y-110119520D01*
X128277005Y-110124903D01*
X128285535Y-110129828D01*
X128303525Y-110142425D01*
X128311071Y-110148757D01*
X128311072Y-110148757D01*
X128311073Y-110148758D01*
X128311074Y-110148758D01*
X128317676Y-110151161D01*
X128324600Y-110152382D01*
X128324600Y-110152381D01*
X128324601Y-110152382D01*
X128334299Y-110150671D01*
X128356178Y-110148758D01*
X142293023Y-110148758D01*
X142314903Y-110150672D01*
X142324600Y-110152382D01*
X142324600Y-110152381D01*
X142324601Y-110152382D01*
X142334299Y-110150671D01*
X142347620Y-110149506D01*
X142351863Y-110148758D01*
X142351865Y-110148758D01*
X142351866Y-110148757D01*
X142356129Y-110148006D01*
X142369026Y-110144548D01*
X142378725Y-110142839D01*
X142378726Y-110142837D01*
X142384813Y-110139322D01*
X142390194Y-110134807D01*
X142390198Y-110134806D01*
X142395122Y-110126276D01*
X142407718Y-110108286D01*
X142414053Y-110100738D01*
X142414053Y-110100737D01*
X142416455Y-110094137D01*
X142417675Y-110087213D01*
X142417677Y-110087210D01*
X142415967Y-110077511D01*
X142414382Y-110059388D01*
X166358127Y-110059388D01*
X166359837Y-110069086D01*
X166361001Y-110082399D01*
X166362500Y-110090899D01*
X166365958Y-110103808D01*
X166367669Y-110113510D01*
X166371186Y-110119602D01*
X166375703Y-110124985D01*
X166384233Y-110129910D01*
X166402223Y-110142507D01*
X166409769Y-110148839D01*
X166409770Y-110148839D01*
X166409771Y-110148840D01*
X166409772Y-110148840D01*
X166416374Y-110151243D01*
X166423298Y-110152464D01*
X166423298Y-110152463D01*
X166423299Y-110152464D01*
X166432997Y-110150753D01*
X166454876Y-110148840D01*
X180391721Y-110148840D01*
X180413601Y-110150754D01*
X180423298Y-110152464D01*
X180423298Y-110152463D01*
X180423299Y-110152464D01*
X180432997Y-110150753D01*
X180446318Y-110149588D01*
X180450561Y-110148840D01*
X180450563Y-110148840D01*
X180450564Y-110148839D01*
X180454827Y-110148088D01*
X180467724Y-110144630D01*
X180477423Y-110142921D01*
X180477424Y-110142919D01*
X180483511Y-110139404D01*
X180488892Y-110134889D01*
X180488896Y-110134888D01*
X180493820Y-110126358D01*
X180506416Y-110108368D01*
X180512751Y-110100820D01*
X180512751Y-110100819D01*
X180515153Y-110094219D01*
X180516373Y-110087295D01*
X180516375Y-110087292D01*
X180514665Y-110077593D01*
X180512751Y-110055714D01*
X180512751Y-100642266D01*
X199362423Y-100642266D01*
X199381782Y-100962328D01*
X199381783Y-100962331D01*
X199439579Y-101277718D01*
X199439582Y-101277732D01*
X199534978Y-101583867D01*
X199666571Y-101876254D01*
X199666574Y-101876260D01*
X199832461Y-102150672D01*
X200030215Y-102403085D01*
X200030220Y-102403091D01*
X200256941Y-102629812D01*
X200256947Y-102629817D01*
X200256949Y-102629819D01*
X200509360Y-102827571D01*
X200783768Y-102993456D01*
X200783770Y-102993457D01*
X200783772Y-102993458D01*
X200783778Y-102993461D01*
X201076165Y-103125054D01*
X201076166Y-103125054D01*
X201076170Y-103125056D01*
X201382302Y-103220451D01*
X201697702Y-103278250D01*
X201911079Y-103291156D01*
X202017767Y-103297610D01*
X202017768Y-103297610D01*
X202017769Y-103297610D01*
X202097784Y-103292770D01*
X202337834Y-103278250D01*
X202653234Y-103220451D01*
X202959366Y-103125056D01*
X203239943Y-102998778D01*
X203251757Y-102993461D01*
X203251757Y-102993460D01*
X203251768Y-102993456D01*
X203526176Y-102827571D01*
X203778587Y-102629819D01*
X204005322Y-102403084D01*
X204203074Y-102150673D01*
X204368959Y-101876265D01*
X204500559Y-101583863D01*
X204595954Y-101277731D01*
X204653753Y-100962331D01*
X204673113Y-100642265D01*
X204653753Y-100322199D01*
X204595954Y-100006799D01*
X204500559Y-99700667D01*
X204368959Y-99408265D01*
X204203074Y-99133857D01*
X204005322Y-98881446D01*
X204005320Y-98881444D01*
X204005315Y-98881438D01*
X203778594Y-98654717D01*
X203778588Y-98654712D01*
X203526175Y-98456958D01*
X203251763Y-98291071D01*
X203251757Y-98291068D01*
X202959370Y-98159475D01*
X202653235Y-98064079D01*
X202653221Y-98064076D01*
X202357419Y-98009869D01*
X204458152Y-98009869D01*
X204459862Y-98019567D01*
X204461026Y-98032880D01*
X204462525Y-98041380D01*
X204465983Y-98054289D01*
X204467694Y-98063991D01*
X204471211Y-98070083D01*
X204475728Y-98075466D01*
X204484258Y-98080391D01*
X204502248Y-98092988D01*
X204509794Y-98099320D01*
X204509795Y-98099320D01*
X204509796Y-98099321D01*
X204509797Y-98099321D01*
X204516399Y-98101724D01*
X204523323Y-98102945D01*
X204523323Y-98102944D01*
X204523324Y-98102945D01*
X204533022Y-98101234D01*
X204554901Y-98099321D01*
X218491746Y-98099321D01*
X218513626Y-98101235D01*
X218523323Y-98102945D01*
X218523323Y-98102944D01*
X218523324Y-98102945D01*
X218533022Y-98101234D01*
X218546343Y-98100069D01*
X218550586Y-98099321D01*
X218550588Y-98099321D01*
X218550589Y-98099320D01*
X218554852Y-98098569D01*
X218567749Y-98095111D01*
X218577448Y-98093402D01*
X218577449Y-98093400D01*
X218583536Y-98089885D01*
X218588917Y-98085370D01*
X218588921Y-98085369D01*
X218593845Y-98076839D01*
X218606441Y-98058849D01*
X218612776Y-98051301D01*
X218612776Y-98051300D01*
X218615178Y-98044700D01*
X218616398Y-98037776D01*
X218616400Y-98037773D01*
X218614690Y-98028074D01*
X218612776Y-98006195D01*
X218612776Y-84069350D01*
X218614690Y-84047469D01*
X218616398Y-84037776D01*
X218616400Y-84037773D01*
X218614690Y-84028074D01*
X218613525Y-84014761D01*
X218612776Y-84010513D01*
X218612776Y-84010509D01*
X218612774Y-84010504D01*
X218612024Y-84006249D01*
X218608566Y-83993343D01*
X218606857Y-83983650D01*
X218606857Y-83983649D01*
X218606855Y-83983648D01*
X218603338Y-83977556D01*
X218598825Y-83972176D01*
X218590292Y-83967250D01*
X218572301Y-83954652D01*
X218564755Y-83948320D01*
X218558157Y-83945918D01*
X218551228Y-83944696D01*
X218541530Y-83946407D01*
X218519651Y-83948321D01*
X204582806Y-83948321D01*
X204560926Y-83946407D01*
X204551228Y-83944696D01*
X204541530Y-83946407D01*
X204528214Y-83947571D01*
X204519729Y-83949067D01*
X204506815Y-83952527D01*
X204497103Y-83954240D01*
X204491013Y-83957755D01*
X204485630Y-83962273D01*
X204480702Y-83970808D01*
X204468111Y-83988790D01*
X204461775Y-83996340D01*
X204459373Y-84002940D01*
X204458152Y-84009869D01*
X204459862Y-84019567D01*
X204461776Y-84041445D01*
X204461776Y-97978290D01*
X204459863Y-98000164D01*
X204458152Y-98009869D01*
X202357419Y-98009869D01*
X202337834Y-98006280D01*
X202337831Y-98006279D01*
X202017769Y-97986920D01*
X202017767Y-97986920D01*
X201697704Y-98006279D01*
X201697701Y-98006280D01*
X201382314Y-98064076D01*
X201382300Y-98064079D01*
X201076165Y-98159475D01*
X200783778Y-98291068D01*
X200783772Y-98291071D01*
X200509360Y-98456958D01*
X200256947Y-98654712D01*
X200256941Y-98654717D01*
X200030220Y-98881438D01*
X200030215Y-98881444D01*
X199832461Y-99133857D01*
X199666574Y-99408269D01*
X199666571Y-99408275D01*
X199534978Y-99700662D01*
X199439582Y-100006797D01*
X199439579Y-100006811D01*
X199381783Y-100322198D01*
X199381782Y-100322201D01*
X199362423Y-100642263D01*
X199362423Y-100642266D01*
X180512751Y-100642266D01*
X180512751Y-98009580D01*
X185409289Y-98009580D01*
X185410999Y-98019278D01*
X185412163Y-98032591D01*
X185413662Y-98041091D01*
X185417120Y-98054000D01*
X185418831Y-98063702D01*
X185422348Y-98069794D01*
X185426865Y-98075177D01*
X185435395Y-98080102D01*
X185453385Y-98092699D01*
X185460931Y-98099031D01*
X185460932Y-98099031D01*
X185460933Y-98099032D01*
X185460934Y-98099032D01*
X185467536Y-98101435D01*
X185474460Y-98102656D01*
X185474460Y-98102655D01*
X185474461Y-98102656D01*
X185484159Y-98100945D01*
X185506038Y-98099032D01*
X199442883Y-98099032D01*
X199464763Y-98100946D01*
X199474460Y-98102656D01*
X199474460Y-98102655D01*
X199474461Y-98102656D01*
X199484159Y-98100945D01*
X199497480Y-98099780D01*
X199501723Y-98099032D01*
X199501725Y-98099032D01*
X199501726Y-98099031D01*
X199505989Y-98098280D01*
X199518886Y-98094822D01*
X199528585Y-98093113D01*
X199528586Y-98093111D01*
X199534673Y-98089596D01*
X199540054Y-98085081D01*
X199540058Y-98085080D01*
X199544982Y-98076550D01*
X199557578Y-98058560D01*
X199563913Y-98051012D01*
X199563913Y-98051011D01*
X199566315Y-98044411D01*
X199567535Y-98037487D01*
X199567537Y-98037484D01*
X199565827Y-98027785D01*
X199563913Y-98005906D01*
X199563913Y-84069061D01*
X199565827Y-84047180D01*
X199567535Y-84037487D01*
X199567537Y-84037484D01*
X199565827Y-84027785D01*
X199564662Y-84014472D01*
X199563913Y-84010224D01*
X199563913Y-84010220D01*
X199563911Y-84010215D01*
X199563161Y-84005960D01*
X199559703Y-83993054D01*
X199557994Y-83983361D01*
X199557994Y-83983360D01*
X199557992Y-83983359D01*
X199554475Y-83977267D01*
X199549962Y-83971887D01*
X199541429Y-83966961D01*
X199523438Y-83954363D01*
X199515892Y-83948031D01*
X199509294Y-83945629D01*
X199502365Y-83944407D01*
X199492667Y-83946118D01*
X199470788Y-83948032D01*
X185533943Y-83948032D01*
X185512063Y-83946118D01*
X185502365Y-83944407D01*
X185492667Y-83946118D01*
X185479351Y-83947282D01*
X185470866Y-83948778D01*
X185457952Y-83952238D01*
X185448240Y-83953951D01*
X185442150Y-83957466D01*
X185436767Y-83961984D01*
X185431839Y-83970519D01*
X185419248Y-83988501D01*
X185412912Y-83996051D01*
X185410510Y-84002651D01*
X185409289Y-84009580D01*
X185410999Y-84019278D01*
X185412913Y-84041156D01*
X185412913Y-97978001D01*
X185411000Y-97999875D01*
X185409289Y-98009580D01*
X180512751Y-98009580D01*
X180512751Y-96118869D01*
X180514665Y-96096988D01*
X180516373Y-96087295D01*
X180516375Y-96087292D01*
X180514665Y-96077593D01*
X180513500Y-96064280D01*
X180512751Y-96060032D01*
X180512751Y-96060028D01*
X180512749Y-96060023D01*
X180511999Y-96055768D01*
X180508541Y-96042862D01*
X180506832Y-96033169D01*
X180506832Y-96033168D01*
X180506830Y-96033167D01*
X180503313Y-96027075D01*
X180498800Y-96021695D01*
X180490267Y-96016769D01*
X180472276Y-96004171D01*
X180464730Y-95997839D01*
X180458132Y-95995437D01*
X180451203Y-95994215D01*
X180441505Y-95995926D01*
X180419626Y-95997840D01*
X166482781Y-95997840D01*
X166460901Y-95995926D01*
X166451203Y-95994215D01*
X166441505Y-95995926D01*
X166428189Y-95997090D01*
X166419704Y-95998586D01*
X166406790Y-96002046D01*
X166397078Y-96003759D01*
X166390988Y-96007274D01*
X166385605Y-96011792D01*
X166380677Y-96020327D01*
X166368086Y-96038309D01*
X166361750Y-96045859D01*
X166359348Y-96052459D01*
X166358127Y-96059388D01*
X166359837Y-96069086D01*
X166361751Y-96090964D01*
X166361751Y-110027809D01*
X166359838Y-110049683D01*
X166358127Y-110059388D01*
X142414382Y-110059388D01*
X142414053Y-110055632D01*
X142414053Y-107609844D01*
X147308013Y-107609844D01*
X147309723Y-107619542D01*
X147310887Y-107632855D01*
X147312386Y-107641355D01*
X147315844Y-107654264D01*
X147317555Y-107663966D01*
X147321072Y-107670058D01*
X147325589Y-107675441D01*
X147334119Y-107680366D01*
X147352109Y-107692963D01*
X147359655Y-107699295D01*
X147359656Y-107699295D01*
X147359657Y-107699296D01*
X147359658Y-107699296D01*
X147366260Y-107701699D01*
X147373184Y-107702920D01*
X147373184Y-107702919D01*
X147373185Y-107702920D01*
X147382883Y-107701209D01*
X147404762Y-107699296D01*
X161341607Y-107699296D01*
X161363487Y-107701210D01*
X161373184Y-107702920D01*
X161373184Y-107702919D01*
X161373185Y-107702920D01*
X161382883Y-107701209D01*
X161396204Y-107700044D01*
X161400447Y-107699296D01*
X161400449Y-107699296D01*
X161400450Y-107699295D01*
X161404713Y-107698544D01*
X161417610Y-107695086D01*
X161427309Y-107693377D01*
X161427310Y-107693375D01*
X161433397Y-107689860D01*
X161438778Y-107685345D01*
X161438782Y-107685344D01*
X161443706Y-107676814D01*
X161456302Y-107658824D01*
X161462637Y-107651276D01*
X161462637Y-107651275D01*
X161465039Y-107644675D01*
X161466259Y-107637751D01*
X161466261Y-107637748D01*
X161464551Y-107628049D01*
X161462637Y-107606170D01*
X161462637Y-93669325D01*
X161464551Y-93647444D01*
X161466259Y-93637751D01*
X161466261Y-93637748D01*
X161464551Y-93628049D01*
X161463386Y-93614736D01*
X161462637Y-93610488D01*
X161462637Y-93610484D01*
X161462635Y-93610479D01*
X161461885Y-93606224D01*
X161458427Y-93593318D01*
X161456718Y-93583625D01*
X161456718Y-93583624D01*
X161456716Y-93583623D01*
X161453199Y-93577531D01*
X161448686Y-93572151D01*
X161440153Y-93567225D01*
X161422162Y-93554627D01*
X161414616Y-93548295D01*
X161408018Y-93545893D01*
X161401089Y-93544671D01*
X161391391Y-93546382D01*
X161369512Y-93548296D01*
X147432667Y-93548296D01*
X147410787Y-93546382D01*
X147401089Y-93544671D01*
X147391391Y-93546382D01*
X147378075Y-93547546D01*
X147369590Y-93549042D01*
X147356676Y-93552502D01*
X147346964Y-93554215D01*
X147340874Y-93557730D01*
X147335491Y-93562248D01*
X147330563Y-93570783D01*
X147317972Y-93588765D01*
X147311636Y-93596315D01*
X147309234Y-93602915D01*
X147308013Y-93609844D01*
X147309723Y-93619542D01*
X147311637Y-93641420D01*
X147311637Y-107578265D01*
X147309724Y-107600139D01*
X147308013Y-107609844D01*
X142414053Y-107609844D01*
X142414053Y-96118787D01*
X142415967Y-96096906D01*
X142417675Y-96087213D01*
X142417677Y-96087210D01*
X142415967Y-96077511D01*
X142414802Y-96064198D01*
X142414053Y-96059950D01*
X142414053Y-96059946D01*
X142414051Y-96059941D01*
X142413301Y-96055686D01*
X142409843Y-96042780D01*
X142409055Y-96038309D01*
X142408134Y-96033086D01*
X142408132Y-96033085D01*
X142404615Y-96026993D01*
X142400102Y-96021613D01*
X142391569Y-96016687D01*
X142373578Y-96004089D01*
X142366032Y-95997757D01*
X142359434Y-95995355D01*
X142352505Y-95994133D01*
X142342807Y-95995844D01*
X142320928Y-95997758D01*
X128601887Y-95997758D01*
X128533766Y-95977756D01*
X128487273Y-95924100D01*
X128477169Y-95853826D01*
X128481589Y-95834283D01*
X128545954Y-95627731D01*
X128603753Y-95312331D01*
X128623113Y-94992265D01*
X128622380Y-94980154D01*
X128603753Y-94672201D01*
X128603753Y-94672199D01*
X128545954Y-94356799D01*
X128450559Y-94050667D01*
X128385149Y-93905332D01*
X128318964Y-93758275D01*
X128318961Y-93758269D01*
X128276903Y-93688697D01*
X128153074Y-93483857D01*
X127955322Y-93231446D01*
X127955320Y-93231444D01*
X127955315Y-93231438D01*
X127728594Y-93004717D01*
X127728588Y-93004712D01*
X127476175Y-92806958D01*
X127201763Y-92641071D01*
X127201757Y-92641068D01*
X126909370Y-92509475D01*
X126603235Y-92414079D01*
X126603221Y-92414076D01*
X126287834Y-92356280D01*
X126287831Y-92356279D01*
X125967769Y-92336920D01*
X125967767Y-92336920D01*
X125647704Y-92356279D01*
X125647701Y-92356280D01*
X125332314Y-92414076D01*
X125332300Y-92414079D01*
X125026165Y-92509475D01*
X124733778Y-92641068D01*
X124733772Y-92641071D01*
X124459360Y-92806958D01*
X124206947Y-93004712D01*
X124206941Y-93004717D01*
X123980220Y-93231438D01*
X123980215Y-93231444D01*
X123782461Y-93483857D01*
X123616574Y-93758269D01*
X123616571Y-93758275D01*
X123484978Y-94050662D01*
X123389582Y-94356797D01*
X123389579Y-94356811D01*
X123331783Y-94672198D01*
X123331782Y-94672201D01*
X123312423Y-94992263D01*
X123312423Y-94992266D01*
X85484054Y-94992266D01*
X85497639Y-94983444D01*
X85503324Y-94980162D01*
X85776077Y-94841187D01*
X85782084Y-94838512D01*
X86067850Y-94728815D01*
X86074117Y-94726778D01*
X86369790Y-94647552D01*
X86376218Y-94646185D01*
X86650114Y-94602802D01*
X86678564Y-94598297D01*
X86685111Y-94597608D01*
X86992171Y-94581514D01*
X86995408Y-94581430D01*
X103418258Y-94590461D01*
X103418403Y-94590484D01*
X103438128Y-94590484D01*
X103438129Y-94590485D01*
X103462660Y-94590486D01*
X103462660Y-94590485D01*
X103475931Y-94590493D01*
X103475932Y-94590492D01*
X103486869Y-94590499D01*
X103487018Y-94590486D01*
X103514247Y-94590487D01*
X103514918Y-94590413D01*
X103624548Y-94590415D01*
X103946552Y-94556575D01*
X104263255Y-94489262D01*
X104571186Y-94389213D01*
X104866973Y-94257525D01*
X105147374Y-94095640D01*
X105409317Y-93905332D01*
X105649933Y-93688686D01*
X105866585Y-93448075D01*
X105930931Y-93359512D01*
X109208850Y-93359512D01*
X109210560Y-93369210D01*
X109211724Y-93382523D01*
X109213223Y-93391023D01*
X109216681Y-93403932D01*
X109218392Y-93413634D01*
X109221909Y-93419726D01*
X109226426Y-93425109D01*
X109234956Y-93430034D01*
X109252946Y-93442631D01*
X109260492Y-93448963D01*
X109260493Y-93448963D01*
X109260494Y-93448964D01*
X109260495Y-93448964D01*
X109267097Y-93451367D01*
X109274021Y-93452588D01*
X109274021Y-93452587D01*
X109274022Y-93452588D01*
X109283720Y-93450877D01*
X109305599Y-93448964D01*
X123242444Y-93448964D01*
X123264324Y-93450878D01*
X123274021Y-93452588D01*
X123274021Y-93452587D01*
X123274022Y-93452588D01*
X123283720Y-93450877D01*
X123297041Y-93449712D01*
X123301284Y-93448964D01*
X123301286Y-93448964D01*
X123301287Y-93448963D01*
X123305550Y-93448212D01*
X123318447Y-93444754D01*
X123328146Y-93443045D01*
X123328147Y-93443043D01*
X123334234Y-93439528D01*
X123339615Y-93435013D01*
X123339619Y-93435012D01*
X123344543Y-93426482D01*
X123357139Y-93408492D01*
X123363474Y-93400944D01*
X123363474Y-93400943D01*
X123365876Y-93394343D01*
X123367096Y-93387419D01*
X123367098Y-93387416D01*
X123365388Y-93377717D01*
X123363474Y-93355838D01*
X123363474Y-91009306D01*
X128259429Y-91009306D01*
X128261139Y-91019004D01*
X128262303Y-91032317D01*
X128263802Y-91040817D01*
X128267260Y-91053726D01*
X128268971Y-91063428D01*
X128272488Y-91069520D01*
X128277005Y-91074903D01*
X128285535Y-91079828D01*
X128303525Y-91092425D01*
X128311071Y-91098757D01*
X128311072Y-91098757D01*
X128311073Y-91098758D01*
X128311074Y-91098758D01*
X128317676Y-91101161D01*
X128324600Y-91102382D01*
X128324600Y-91102381D01*
X128324601Y-91102382D01*
X128334299Y-91100671D01*
X128356178Y-91098758D01*
X142293023Y-91098758D01*
X142314903Y-91100672D01*
X142324600Y-91102382D01*
X142324600Y-91102381D01*
X142324601Y-91102382D01*
X142334299Y-91100671D01*
X142347620Y-91099506D01*
X142351863Y-91098758D01*
X142351865Y-91098758D01*
X142351866Y-91098757D01*
X142356129Y-91098006D01*
X142369026Y-91094548D01*
X142378725Y-91092839D01*
X142378726Y-91092837D01*
X142384813Y-91089322D01*
X142390194Y-91084807D01*
X142390198Y-91084806D01*
X142395122Y-91076276D01*
X142407718Y-91058286D01*
X142414053Y-91050738D01*
X142414053Y-91050737D01*
X142416455Y-91044137D01*
X142417675Y-91037213D01*
X142417677Y-91037210D01*
X142415967Y-91027511D01*
X142414382Y-91009388D01*
X166358127Y-91009388D01*
X166359837Y-91019086D01*
X166361001Y-91032399D01*
X166362500Y-91040899D01*
X166365958Y-91053808D01*
X166367669Y-91063510D01*
X166371186Y-91069602D01*
X166375703Y-91074985D01*
X166384233Y-91079910D01*
X166402223Y-91092507D01*
X166409769Y-91098839D01*
X166409770Y-91098839D01*
X166409771Y-91098840D01*
X166409772Y-91098840D01*
X166416374Y-91101243D01*
X166423298Y-91102464D01*
X166423298Y-91102463D01*
X166423299Y-91102464D01*
X166432997Y-91100753D01*
X166454876Y-91098840D01*
X180391721Y-91098840D01*
X180413601Y-91100754D01*
X180423298Y-91102464D01*
X180423298Y-91102463D01*
X180423299Y-91102464D01*
X180432997Y-91100753D01*
X180446318Y-91099588D01*
X180450561Y-91098840D01*
X180450563Y-91098840D01*
X180450564Y-91098839D01*
X180454827Y-91098088D01*
X180467724Y-91094630D01*
X180477423Y-91092921D01*
X180477424Y-91092919D01*
X180483511Y-91089404D01*
X180488892Y-91084889D01*
X180488896Y-91084888D01*
X180493820Y-91076358D01*
X180506416Y-91058368D01*
X180512751Y-91050820D01*
X180512751Y-91050819D01*
X180515153Y-91044219D01*
X180516373Y-91037295D01*
X180516375Y-91037292D01*
X180514665Y-91027593D01*
X180512751Y-91005714D01*
X180512751Y-78959580D01*
X185409289Y-78959580D01*
X185410999Y-78969278D01*
X185412163Y-78982591D01*
X185413662Y-78991091D01*
X185417120Y-79004000D01*
X185418831Y-79013702D01*
X185422348Y-79019794D01*
X185426865Y-79025177D01*
X185435395Y-79030102D01*
X185453385Y-79042699D01*
X185460931Y-79049031D01*
X185460932Y-79049031D01*
X185460933Y-79049032D01*
X185460934Y-79049032D01*
X185467536Y-79051435D01*
X185474460Y-79052656D01*
X185474460Y-79052655D01*
X185474461Y-79052656D01*
X185484159Y-79050945D01*
X185506038Y-79049032D01*
X199442883Y-79049032D01*
X199464763Y-79050946D01*
X199474460Y-79052656D01*
X199474460Y-79052655D01*
X199474461Y-79052656D01*
X199484159Y-79050945D01*
X199497480Y-79049780D01*
X199501723Y-79049032D01*
X199501725Y-79049032D01*
X199501726Y-79049031D01*
X199505989Y-79048280D01*
X199518886Y-79044822D01*
X199528585Y-79043113D01*
X199528586Y-79043111D01*
X199534673Y-79039596D01*
X199540054Y-79035081D01*
X199540058Y-79035080D01*
X199544982Y-79026550D01*
X199557578Y-79008560D01*
X199563913Y-79001012D01*
X199563913Y-79001011D01*
X199566315Y-78994411D01*
X199567535Y-78987487D01*
X199567537Y-78987484D01*
X199565827Y-78977785D01*
X199564260Y-78959869D01*
X204458152Y-78959869D01*
X204459862Y-78969567D01*
X204461026Y-78982880D01*
X204462525Y-78991380D01*
X204465983Y-79004289D01*
X204467694Y-79013991D01*
X204471211Y-79020083D01*
X204475728Y-79025466D01*
X204484258Y-79030391D01*
X204502248Y-79042988D01*
X204509794Y-79049320D01*
X204509795Y-79049320D01*
X204509796Y-79049321D01*
X204509797Y-79049321D01*
X204516399Y-79051724D01*
X204523323Y-79052945D01*
X204523323Y-79052944D01*
X204523324Y-79052945D01*
X204533022Y-79051234D01*
X204554901Y-79049321D01*
X218491746Y-79049321D01*
X218513626Y-79051235D01*
X218523323Y-79052945D01*
X218523323Y-79052944D01*
X218523324Y-79052945D01*
X218533022Y-79051234D01*
X218546343Y-79050069D01*
X218550586Y-79049321D01*
X218550588Y-79049321D01*
X218550589Y-79049320D01*
X218554852Y-79048569D01*
X218567749Y-79045111D01*
X218577448Y-79043402D01*
X218577449Y-79043400D01*
X218583536Y-79039885D01*
X218588917Y-79035370D01*
X218588921Y-79035369D01*
X218593845Y-79026839D01*
X218606441Y-79008849D01*
X218612776Y-79001301D01*
X218612776Y-79001300D01*
X218615178Y-78994700D01*
X218616398Y-78987776D01*
X218616400Y-78987773D01*
X218614690Y-78978074D01*
X218612776Y-78956195D01*
X218612776Y-65019350D01*
X218614690Y-64997469D01*
X218616398Y-64987776D01*
X218616400Y-64987773D01*
X218614690Y-64978074D01*
X218613525Y-64964761D01*
X218612776Y-64960513D01*
X218612776Y-64960509D01*
X218612774Y-64960504D01*
X218612024Y-64956249D01*
X218608566Y-64943343D01*
X218606857Y-64933650D01*
X218606857Y-64933649D01*
X218606855Y-64933648D01*
X218603338Y-64927556D01*
X218598825Y-64922176D01*
X218590292Y-64917250D01*
X218572301Y-64904652D01*
X218564755Y-64898320D01*
X218558157Y-64895918D01*
X218551228Y-64894696D01*
X218541530Y-64896407D01*
X218519651Y-64898321D01*
X204582806Y-64898321D01*
X204560926Y-64896407D01*
X204551228Y-64894696D01*
X204541530Y-64896407D01*
X204528214Y-64897571D01*
X204519729Y-64899067D01*
X204506815Y-64902527D01*
X204497103Y-64904240D01*
X204491013Y-64907755D01*
X204485630Y-64912273D01*
X204480702Y-64920808D01*
X204468111Y-64938790D01*
X204461775Y-64946340D01*
X204459373Y-64952940D01*
X204458152Y-64959869D01*
X204459862Y-64969567D01*
X204461776Y-64991445D01*
X204461776Y-78928290D01*
X204459863Y-78950164D01*
X204458152Y-78959869D01*
X199564260Y-78959869D01*
X199563913Y-78955906D01*
X199563913Y-65019061D01*
X199565827Y-64997180D01*
X199567535Y-64987487D01*
X199567537Y-64987484D01*
X199565827Y-64977785D01*
X199564662Y-64964472D01*
X199563913Y-64960224D01*
X199563913Y-64960220D01*
X199563911Y-64960215D01*
X199563161Y-64955960D01*
X199559703Y-64943054D01*
X199557994Y-64933361D01*
X199557994Y-64933360D01*
X199557992Y-64933359D01*
X199554475Y-64927267D01*
X199549962Y-64921887D01*
X199541429Y-64916961D01*
X199523438Y-64904363D01*
X199515892Y-64898031D01*
X199509294Y-64895629D01*
X199502365Y-64894407D01*
X199492667Y-64896118D01*
X199470788Y-64898032D01*
X185533943Y-64898032D01*
X185512063Y-64896118D01*
X185502365Y-64894407D01*
X185492667Y-64896118D01*
X185479351Y-64897282D01*
X185470866Y-64898778D01*
X185457952Y-64902238D01*
X185448240Y-64903951D01*
X185442150Y-64907466D01*
X185436767Y-64911984D01*
X185431839Y-64920519D01*
X185419248Y-64938501D01*
X185412912Y-64946051D01*
X185410510Y-64952651D01*
X185409289Y-64959580D01*
X185410999Y-64969278D01*
X185412913Y-64991156D01*
X185412913Y-78928001D01*
X185411000Y-78949875D01*
X185409289Y-78959580D01*
X180512751Y-78959580D01*
X180512751Y-77068869D01*
X180514665Y-77046988D01*
X180516373Y-77037295D01*
X180516375Y-77037292D01*
X180514665Y-77027593D01*
X180513500Y-77014280D01*
X180512751Y-77010032D01*
X180512751Y-77010028D01*
X180512749Y-77010023D01*
X180511999Y-77005768D01*
X180508541Y-76992862D01*
X180506832Y-76983169D01*
X180506832Y-76983168D01*
X180506830Y-76983167D01*
X180503313Y-76977075D01*
X180498800Y-76971695D01*
X180490267Y-76966769D01*
X180472276Y-76954171D01*
X180464730Y-76947839D01*
X180458132Y-76945437D01*
X180451203Y-76944215D01*
X180441505Y-76945926D01*
X180419626Y-76947840D01*
X166482781Y-76947840D01*
X166460901Y-76945926D01*
X166451203Y-76944215D01*
X166441505Y-76945926D01*
X166428189Y-76947090D01*
X166419704Y-76948586D01*
X166406790Y-76952046D01*
X166397078Y-76953759D01*
X166390988Y-76957274D01*
X166385605Y-76961792D01*
X166380677Y-76970327D01*
X166368086Y-76988309D01*
X166361750Y-76995859D01*
X166359348Y-77002459D01*
X166358127Y-77009388D01*
X166359837Y-77019086D01*
X166361751Y-77040964D01*
X166361751Y-90977809D01*
X166359838Y-90999683D01*
X166358127Y-91009388D01*
X142414382Y-91009388D01*
X142414053Y-91005632D01*
X142414053Y-88559844D01*
X147308013Y-88559844D01*
X147309723Y-88569542D01*
X147310887Y-88582855D01*
X147312386Y-88591355D01*
X147315844Y-88604264D01*
X147317555Y-88613966D01*
X147321072Y-88620058D01*
X147325589Y-88625441D01*
X147334119Y-88630366D01*
X147352109Y-88642963D01*
X147359655Y-88649295D01*
X147359656Y-88649295D01*
X147359657Y-88649296D01*
X147359658Y-88649296D01*
X147366260Y-88651699D01*
X147373184Y-88652920D01*
X147373184Y-88652919D01*
X147373185Y-88652920D01*
X147382883Y-88651209D01*
X147404762Y-88649296D01*
X161341607Y-88649296D01*
X161363487Y-88651210D01*
X161373184Y-88652920D01*
X161373184Y-88652919D01*
X161373185Y-88652920D01*
X161382883Y-88651209D01*
X161396204Y-88650044D01*
X161400447Y-88649296D01*
X161400449Y-88649296D01*
X161400450Y-88649295D01*
X161404713Y-88648544D01*
X161417610Y-88645086D01*
X161427309Y-88643377D01*
X161427310Y-88643375D01*
X161433397Y-88639860D01*
X161438778Y-88635345D01*
X161438782Y-88635344D01*
X161443706Y-88626814D01*
X161456302Y-88608824D01*
X161462637Y-88601276D01*
X161462637Y-88601275D01*
X161465039Y-88594675D01*
X161466259Y-88587751D01*
X161466261Y-88587748D01*
X161464551Y-88578049D01*
X161462637Y-88556170D01*
X161462637Y-74619325D01*
X161464551Y-74597444D01*
X161466259Y-74587751D01*
X161466261Y-74587748D01*
X161464551Y-74578049D01*
X161463386Y-74564736D01*
X161462637Y-74560488D01*
X161462637Y-74560484D01*
X161462635Y-74560479D01*
X161461885Y-74556224D01*
X161458427Y-74543318D01*
X161456718Y-74533625D01*
X161456718Y-74533624D01*
X161456716Y-74533623D01*
X161453199Y-74527531D01*
X161448686Y-74522151D01*
X161440153Y-74517225D01*
X161422162Y-74504627D01*
X161414616Y-74498295D01*
X161408018Y-74495893D01*
X161401089Y-74494671D01*
X161391391Y-74496382D01*
X161369512Y-74498296D01*
X147432667Y-74498296D01*
X147410787Y-74496382D01*
X147401089Y-74494671D01*
X147391391Y-74496382D01*
X147378075Y-74497546D01*
X147369590Y-74499042D01*
X147356676Y-74502502D01*
X147346964Y-74504215D01*
X147340874Y-74507730D01*
X147335491Y-74512248D01*
X147330563Y-74520783D01*
X147317972Y-74538765D01*
X147311636Y-74546315D01*
X147309234Y-74552915D01*
X147308013Y-74559844D01*
X147309723Y-74569542D01*
X147311637Y-74591420D01*
X147311637Y-88528265D01*
X147309724Y-88550139D01*
X147308013Y-88559844D01*
X142414053Y-88559844D01*
X142414053Y-77068787D01*
X142415967Y-77046906D01*
X142417675Y-77037213D01*
X142417677Y-77037210D01*
X142415967Y-77027511D01*
X142414802Y-77014198D01*
X142414053Y-77009950D01*
X142414053Y-77009946D01*
X142414051Y-77009941D01*
X142413301Y-77005686D01*
X142409843Y-76992780D01*
X142409040Y-76988227D01*
X142408134Y-76983086D01*
X142408132Y-76983085D01*
X142404615Y-76976993D01*
X142400102Y-76971613D01*
X142391569Y-76966687D01*
X142373578Y-76954089D01*
X142366032Y-76947757D01*
X142359434Y-76945355D01*
X142352505Y-76944133D01*
X142342807Y-76945844D01*
X142320928Y-76947758D01*
X128384083Y-76947758D01*
X128362203Y-76945844D01*
X128352505Y-76944133D01*
X128342807Y-76945844D01*
X128329491Y-76947008D01*
X128321006Y-76948504D01*
X128308092Y-76951964D01*
X128298380Y-76953677D01*
X128292290Y-76957192D01*
X128286907Y-76961710D01*
X128281979Y-76970245D01*
X128269388Y-76988227D01*
X128263052Y-76995777D01*
X128260650Y-77002377D01*
X128259429Y-77009306D01*
X128261139Y-77019004D01*
X128263053Y-77040882D01*
X128263053Y-90977727D01*
X128261140Y-90999601D01*
X128259429Y-91009306D01*
X123363474Y-91009306D01*
X123363474Y-79418993D01*
X123365388Y-79397112D01*
X123367096Y-79387419D01*
X123367098Y-79387416D01*
X123365388Y-79377717D01*
X123364223Y-79364404D01*
X123363474Y-79360156D01*
X123363474Y-79360152D01*
X123363472Y-79360147D01*
X123362722Y-79355892D01*
X123359264Y-79342986D01*
X123357555Y-79333293D01*
X123357555Y-79333292D01*
X123357553Y-79333291D01*
X123354036Y-79327199D01*
X123349523Y-79321819D01*
X123340990Y-79316893D01*
X123322999Y-79304295D01*
X123315453Y-79297963D01*
X123308855Y-79295561D01*
X123301926Y-79294339D01*
X123292228Y-79296050D01*
X123270349Y-79297964D01*
X109333504Y-79297964D01*
X109311624Y-79296050D01*
X109301926Y-79294339D01*
X109292228Y-79296050D01*
X109278912Y-79297214D01*
X109270427Y-79298710D01*
X109257513Y-79302170D01*
X109247801Y-79303883D01*
X109241711Y-79307398D01*
X109236328Y-79311916D01*
X109231400Y-79320451D01*
X109218809Y-79338433D01*
X109212473Y-79345983D01*
X109210071Y-79352583D01*
X109208850Y-79359512D01*
X109210560Y-79369210D01*
X109212474Y-79391088D01*
X109212474Y-93327933D01*
X109210561Y-93349807D01*
X109208850Y-93359512D01*
X105930931Y-93359512D01*
X106056899Y-93186137D01*
X106218791Y-92905739D01*
X106350487Y-92609956D01*
X106450543Y-92302027D01*
X106517863Y-91985326D01*
X106551711Y-91663323D01*
X106551713Y-91501435D01*
X106551713Y-91499141D01*
X106553444Y-74309512D01*
X109208850Y-74309512D01*
X109210560Y-74319210D01*
X109211724Y-74332523D01*
X109213223Y-74341023D01*
X109216681Y-74353932D01*
X109218392Y-74363634D01*
X109221909Y-74369726D01*
X109226426Y-74375109D01*
X109234956Y-74380034D01*
X109252946Y-74392631D01*
X109260492Y-74398963D01*
X109260493Y-74398963D01*
X109260494Y-74398964D01*
X109260495Y-74398964D01*
X109267097Y-74401367D01*
X109274021Y-74402588D01*
X109274021Y-74402587D01*
X109274022Y-74402588D01*
X109283720Y-74400877D01*
X109305599Y-74398964D01*
X123242444Y-74398964D01*
X123264324Y-74400878D01*
X123274021Y-74402588D01*
X123274021Y-74402587D01*
X123274022Y-74402588D01*
X123283720Y-74400877D01*
X123297041Y-74399712D01*
X123301284Y-74398964D01*
X123301286Y-74398964D01*
X123301287Y-74398963D01*
X123305550Y-74398212D01*
X123318447Y-74394754D01*
X123328146Y-74393045D01*
X123328147Y-74393043D01*
X123334234Y-74389528D01*
X123339615Y-74385013D01*
X123339619Y-74385012D01*
X123344543Y-74376482D01*
X123357139Y-74358492D01*
X123363474Y-74350944D01*
X123363474Y-74350943D01*
X123365876Y-74344343D01*
X123367096Y-74337419D01*
X123367098Y-74337416D01*
X123365388Y-74327717D01*
X123363474Y-74305838D01*
X123363474Y-60368993D01*
X123365388Y-60347112D01*
X123367096Y-60337419D01*
X123367098Y-60337416D01*
X123365388Y-60327717D01*
X123364223Y-60314404D01*
X123363474Y-60310156D01*
X123363474Y-60310152D01*
X123363472Y-60310147D01*
X123362722Y-60305892D01*
X123359264Y-60292986D01*
X123357555Y-60283293D01*
X123357555Y-60283292D01*
X123357553Y-60283291D01*
X123354036Y-60277199D01*
X123349523Y-60271819D01*
X123340990Y-60266893D01*
X123322999Y-60254295D01*
X123315453Y-60247963D01*
X123308855Y-60245561D01*
X123301926Y-60244339D01*
X123292228Y-60246050D01*
X123270349Y-60247964D01*
X109333504Y-60247964D01*
X109311624Y-60246050D01*
X109301926Y-60244339D01*
X109292228Y-60246050D01*
X109278912Y-60247214D01*
X109270427Y-60248710D01*
X109257513Y-60252170D01*
X109247801Y-60253883D01*
X109241711Y-60257398D01*
X109236328Y-60261916D01*
X109231400Y-60270451D01*
X109218809Y-60288433D01*
X109212473Y-60295983D01*
X109210071Y-60302583D01*
X109208850Y-60309512D01*
X109210560Y-60319210D01*
X109212474Y-60341088D01*
X109212474Y-74277933D01*
X109210561Y-74299807D01*
X109208850Y-74309512D01*
X106553444Y-74309512D01*
X106555219Y-56692266D01*
X123312423Y-56692266D01*
X123331782Y-57012328D01*
X123331783Y-57012331D01*
X123389579Y-57327718D01*
X123389582Y-57327732D01*
X123484978Y-57633867D01*
X123616571Y-57926254D01*
X123616574Y-57926260D01*
X123782461Y-58200672D01*
X123980215Y-58453085D01*
X123980220Y-58453091D01*
X124206941Y-58679812D01*
X124206947Y-58679817D01*
X124206949Y-58679819D01*
X124459360Y-58877571D01*
X124733768Y-59043456D01*
X124733770Y-59043457D01*
X124733772Y-59043458D01*
X124733778Y-59043461D01*
X125026165Y-59175054D01*
X125026166Y-59175054D01*
X125026170Y-59175056D01*
X125332302Y-59270451D01*
X125647702Y-59328250D01*
X125861079Y-59341156D01*
X125967767Y-59347610D01*
X125967768Y-59347610D01*
X125967769Y-59347610D01*
X126047784Y-59342770D01*
X126287834Y-59328250D01*
X126603234Y-59270451D01*
X126909366Y-59175056D01*
X127201768Y-59043456D01*
X127476176Y-58877571D01*
X127728587Y-58679819D01*
X127955322Y-58453084D01*
X128037915Y-58347661D01*
X128095672Y-58306375D01*
X128166581Y-58302867D01*
X128228131Y-58338252D01*
X128260779Y-58401297D01*
X128263100Y-58425369D01*
X128263100Y-71926882D01*
X128261187Y-71948756D01*
X128259476Y-71958461D01*
X128261186Y-71968159D01*
X128262350Y-71981472D01*
X128263849Y-71989972D01*
X128267307Y-72002881D01*
X128269018Y-72012583D01*
X128272535Y-72018675D01*
X128277052Y-72024058D01*
X128285582Y-72028983D01*
X128303572Y-72041580D01*
X128311118Y-72047912D01*
X128311119Y-72047912D01*
X128311120Y-72047913D01*
X128311121Y-72047913D01*
X128317723Y-72050316D01*
X128324647Y-72051537D01*
X128324647Y-72051536D01*
X128324648Y-72051537D01*
X128334346Y-72049826D01*
X128356225Y-72047913D01*
X142291570Y-72047913D01*
X142313450Y-72049827D01*
X142323147Y-72051537D01*
X142323147Y-72051536D01*
X142323148Y-72051537D01*
X142332846Y-72049826D01*
X142346167Y-72048661D01*
X142350410Y-72047913D01*
X142350412Y-72047913D01*
X142350413Y-72047912D01*
X142354676Y-72047161D01*
X142367573Y-72043703D01*
X142377272Y-72041994D01*
X142377273Y-72041992D01*
X142383360Y-72038477D01*
X142388741Y-72033962D01*
X142388745Y-72033961D01*
X142393669Y-72025431D01*
X142406265Y-72007441D01*
X142412600Y-71999893D01*
X142412600Y-71999892D01*
X142415002Y-71993292D01*
X142416222Y-71986368D01*
X142416224Y-71986365D01*
X142414514Y-71976666D01*
X142413003Y-71959388D01*
X166358127Y-71959388D01*
X166359837Y-71969086D01*
X166361001Y-71982399D01*
X166362500Y-71990899D01*
X166365958Y-72003808D01*
X166367669Y-72013510D01*
X166371186Y-72019602D01*
X166375703Y-72024985D01*
X166384233Y-72029910D01*
X166402223Y-72042507D01*
X166409769Y-72048839D01*
X166409770Y-72048839D01*
X166409771Y-72048840D01*
X166409772Y-72048840D01*
X166416374Y-72051243D01*
X166423298Y-72052464D01*
X166423298Y-72052463D01*
X166423299Y-72052464D01*
X166432997Y-72050753D01*
X166454876Y-72048840D01*
X180391721Y-72048840D01*
X180413601Y-72050754D01*
X180423298Y-72052464D01*
X180423298Y-72052463D01*
X180423299Y-72052464D01*
X180432997Y-72050753D01*
X180446318Y-72049588D01*
X180450561Y-72048840D01*
X180450563Y-72048840D01*
X180450564Y-72048839D01*
X180454827Y-72048088D01*
X180467724Y-72044630D01*
X180477423Y-72042921D01*
X180477424Y-72042919D01*
X180483511Y-72039404D01*
X180488892Y-72034889D01*
X180488896Y-72034888D01*
X180493820Y-72026358D01*
X180506416Y-72008368D01*
X180512751Y-72000820D01*
X180512751Y-72000819D01*
X180515153Y-71994219D01*
X180516373Y-71987295D01*
X180516375Y-71987292D01*
X180514665Y-71977593D01*
X180512751Y-71955714D01*
X180512751Y-62277856D01*
X199197732Y-62277856D01*
X199217091Y-62597918D01*
X199217092Y-62597921D01*
X199274888Y-62913308D01*
X199274891Y-62913322D01*
X199370287Y-63219457D01*
X199501880Y-63511844D01*
X199501883Y-63511850D01*
X199667770Y-63786262D01*
X199865524Y-64038675D01*
X199865529Y-64038681D01*
X200092250Y-64265402D01*
X200092256Y-64265407D01*
X200092258Y-64265409D01*
X200344669Y-64463161D01*
X200619077Y-64629046D01*
X200619079Y-64629047D01*
X200619081Y-64629048D01*
X200619087Y-64629051D01*
X200911474Y-64760644D01*
X200911475Y-64760644D01*
X200911479Y-64760646D01*
X201217611Y-64856041D01*
X201533011Y-64913840D01*
X201666047Y-64921887D01*
X201853076Y-64933200D01*
X201853077Y-64933200D01*
X201853078Y-64933200D01*
X201951163Y-64927267D01*
X202173143Y-64913840D01*
X202488543Y-64856041D01*
X202794675Y-64760646D01*
X203087077Y-64629046D01*
X203361485Y-64463161D01*
X203613896Y-64265409D01*
X203840631Y-64038674D01*
X204038383Y-63786263D01*
X204204268Y-63511855D01*
X204335868Y-63219453D01*
X204431263Y-62913321D01*
X204489062Y-62597921D01*
X204490903Y-62567479D01*
X204491818Y-62559938D01*
X204502889Y-62499531D01*
X204522249Y-62179465D01*
X204502889Y-61859399D01*
X204445090Y-61543999D01*
X204349695Y-61237867D01*
X204218095Y-60945465D01*
X204052210Y-60671057D01*
X203854458Y-60418646D01*
X203854456Y-60418644D01*
X203854451Y-60418638D01*
X203627730Y-60191917D01*
X203627724Y-60191912D01*
X203375311Y-59994158D01*
X203235879Y-59909869D01*
X204458152Y-59909869D01*
X204459862Y-59919567D01*
X204461026Y-59932880D01*
X204462525Y-59941380D01*
X204465983Y-59954289D01*
X204467694Y-59963991D01*
X204471211Y-59970083D01*
X204475728Y-59975466D01*
X204484258Y-59980391D01*
X204502248Y-59992988D01*
X204509794Y-59999320D01*
X204509795Y-59999320D01*
X204509796Y-59999321D01*
X204509797Y-59999321D01*
X204516399Y-60001724D01*
X204523323Y-60002945D01*
X204523323Y-60002944D01*
X204523324Y-60002945D01*
X204533022Y-60001234D01*
X204554901Y-59999321D01*
X218491746Y-59999321D01*
X218513626Y-60001235D01*
X218523323Y-60002945D01*
X218523323Y-60002944D01*
X218523324Y-60002945D01*
X218533022Y-60001234D01*
X218546343Y-60000069D01*
X218550586Y-59999321D01*
X218550588Y-59999321D01*
X218550589Y-59999320D01*
X218554852Y-59998569D01*
X218567749Y-59995111D01*
X218577448Y-59993402D01*
X218577449Y-59993400D01*
X218583536Y-59989885D01*
X218588917Y-59985370D01*
X218588921Y-59985369D01*
X218593845Y-59976839D01*
X218606441Y-59958849D01*
X218612776Y-59951301D01*
X218612776Y-59951300D01*
X218615178Y-59944700D01*
X218616398Y-59937776D01*
X218616400Y-59937773D01*
X218614690Y-59928074D01*
X218612776Y-59906195D01*
X218612776Y-45969350D01*
X218614690Y-45947469D01*
X218616398Y-45937776D01*
X218616400Y-45937773D01*
X218614690Y-45928074D01*
X218613525Y-45914761D01*
X218612776Y-45910513D01*
X218612776Y-45910509D01*
X218612774Y-45910504D01*
X218612024Y-45906249D01*
X218608566Y-45893343D01*
X218606857Y-45883650D01*
X218606857Y-45883649D01*
X218606855Y-45883648D01*
X218603338Y-45877556D01*
X218598825Y-45872176D01*
X218590292Y-45867250D01*
X218572301Y-45854652D01*
X218564755Y-45848320D01*
X218558157Y-45845918D01*
X218551228Y-45844696D01*
X218541530Y-45846407D01*
X218519651Y-45848321D01*
X204582806Y-45848321D01*
X204560926Y-45846407D01*
X204551228Y-45844696D01*
X204541530Y-45846407D01*
X204528214Y-45847571D01*
X204519729Y-45849067D01*
X204506815Y-45852527D01*
X204497103Y-45854240D01*
X204491013Y-45857755D01*
X204485630Y-45862273D01*
X204480702Y-45870808D01*
X204468111Y-45888790D01*
X204461775Y-45896340D01*
X204459373Y-45902940D01*
X204458152Y-45909869D01*
X204459862Y-45919567D01*
X204461776Y-45941445D01*
X204461776Y-59878290D01*
X204459863Y-59900164D01*
X204458152Y-59909869D01*
X203235879Y-59909869D01*
X203100899Y-59828271D01*
X203100893Y-59828268D01*
X202808506Y-59696675D01*
X202502371Y-59601279D01*
X202502357Y-59601276D01*
X202186970Y-59543480D01*
X202186967Y-59543479D01*
X201866905Y-59524120D01*
X201866903Y-59524120D01*
X201546840Y-59543479D01*
X201546837Y-59543480D01*
X201231450Y-59601276D01*
X201231436Y-59601279D01*
X200925301Y-59696675D01*
X200632914Y-59828268D01*
X200632908Y-59828271D01*
X200358496Y-59994158D01*
X200106083Y-60191912D01*
X200106077Y-60191917D01*
X199879356Y-60418638D01*
X199879351Y-60418644D01*
X199681597Y-60671057D01*
X199515710Y-60945469D01*
X199515707Y-60945475D01*
X199384114Y-61237862D01*
X199288718Y-61543997D01*
X199288715Y-61544011D01*
X199230918Y-61859399D01*
X199229077Y-61889836D01*
X199228159Y-61897393D01*
X199217093Y-61957777D01*
X199217092Y-61957785D01*
X199197732Y-62277853D01*
X199197732Y-62277856D01*
X180512751Y-62277856D01*
X180512751Y-59909580D01*
X185409289Y-59909580D01*
X185410999Y-59919278D01*
X185412163Y-59932591D01*
X185413662Y-59941091D01*
X185417120Y-59954000D01*
X185418831Y-59963702D01*
X185422348Y-59969794D01*
X185426865Y-59975177D01*
X185435395Y-59980102D01*
X185453385Y-59992699D01*
X185460931Y-59999031D01*
X185460932Y-59999031D01*
X185460933Y-59999032D01*
X185460934Y-59999032D01*
X185467536Y-60001435D01*
X185474460Y-60002656D01*
X185474460Y-60002655D01*
X185474461Y-60002656D01*
X185484159Y-60000945D01*
X185506038Y-59999032D01*
X199442883Y-59999032D01*
X199464763Y-60000946D01*
X199474460Y-60002656D01*
X199474460Y-60002655D01*
X199474461Y-60002656D01*
X199484159Y-60000945D01*
X199497480Y-59999780D01*
X199501723Y-59999032D01*
X199501725Y-59999032D01*
X199501726Y-59999031D01*
X199505989Y-59998280D01*
X199518886Y-59994822D01*
X199528585Y-59993113D01*
X199528586Y-59993111D01*
X199534673Y-59989596D01*
X199540054Y-59985081D01*
X199540058Y-59985080D01*
X199544982Y-59976550D01*
X199557578Y-59958560D01*
X199563913Y-59951012D01*
X199563913Y-59951011D01*
X199566315Y-59944411D01*
X199567535Y-59937487D01*
X199567537Y-59937484D01*
X199565827Y-59927785D01*
X199563913Y-59905906D01*
X199563913Y-45969061D01*
X199565827Y-45947180D01*
X199567535Y-45937487D01*
X199567537Y-45937484D01*
X199565827Y-45927785D01*
X199564662Y-45914472D01*
X199563913Y-45910224D01*
X199563913Y-45910220D01*
X199563911Y-45910215D01*
X199563161Y-45905960D01*
X199559703Y-45893054D01*
X199557994Y-45883361D01*
X199557994Y-45883360D01*
X199557992Y-45883359D01*
X199554475Y-45877267D01*
X199549962Y-45871887D01*
X199541429Y-45866961D01*
X199523438Y-45854363D01*
X199515892Y-45848031D01*
X199509294Y-45845629D01*
X199502365Y-45844407D01*
X199492667Y-45846118D01*
X199470788Y-45848032D01*
X185533943Y-45848032D01*
X185512063Y-45846118D01*
X185502365Y-45844407D01*
X185492667Y-45846118D01*
X185479351Y-45847282D01*
X185470866Y-45848778D01*
X185457952Y-45852238D01*
X185448240Y-45853951D01*
X185442150Y-45857466D01*
X185436767Y-45861984D01*
X185431839Y-45870519D01*
X185419248Y-45888501D01*
X185412912Y-45896051D01*
X185410510Y-45902651D01*
X185409289Y-45909580D01*
X185410999Y-45919278D01*
X185412913Y-45941156D01*
X185412913Y-59878001D01*
X185411000Y-59899875D01*
X185409289Y-59909580D01*
X180512751Y-59909580D01*
X180512751Y-58018869D01*
X180514665Y-57996988D01*
X180516373Y-57987295D01*
X180516375Y-57987292D01*
X180514665Y-57977593D01*
X180513500Y-57964280D01*
X180512751Y-57960032D01*
X180512751Y-57960028D01*
X180512749Y-57960023D01*
X180511999Y-57955768D01*
X180508541Y-57942862D01*
X180506832Y-57933169D01*
X180506832Y-57933168D01*
X180506830Y-57933167D01*
X180503313Y-57927075D01*
X180498800Y-57921695D01*
X180490267Y-57916769D01*
X180472276Y-57904171D01*
X180464730Y-57897839D01*
X180458132Y-57895437D01*
X180451203Y-57894215D01*
X180441505Y-57895926D01*
X180419626Y-57897840D01*
X166482781Y-57897840D01*
X166460901Y-57895926D01*
X166451203Y-57894215D01*
X166441505Y-57895926D01*
X166428189Y-57897090D01*
X166419704Y-57898586D01*
X166406790Y-57902046D01*
X166397078Y-57903759D01*
X166390988Y-57907274D01*
X166385605Y-57911792D01*
X166380677Y-57920327D01*
X166368086Y-57938309D01*
X166361750Y-57945859D01*
X166359348Y-57952459D01*
X166358127Y-57959388D01*
X166359837Y-57969086D01*
X166361751Y-57990964D01*
X166361751Y-71927809D01*
X166359838Y-71949683D01*
X166358127Y-71959388D01*
X142413003Y-71959388D01*
X142412600Y-71954787D01*
X142412600Y-69509844D01*
X147308013Y-69509844D01*
X147309723Y-69519542D01*
X147310887Y-69532855D01*
X147312386Y-69541355D01*
X147315844Y-69554264D01*
X147317555Y-69563966D01*
X147321072Y-69570058D01*
X147325589Y-69575441D01*
X147334119Y-69580366D01*
X147352109Y-69592963D01*
X147359655Y-69599295D01*
X147359656Y-69599295D01*
X147359657Y-69599296D01*
X147359658Y-69599296D01*
X147366260Y-69601699D01*
X147373184Y-69602920D01*
X147373184Y-69602919D01*
X147373185Y-69602920D01*
X147382883Y-69601209D01*
X147404762Y-69599296D01*
X161341607Y-69599296D01*
X161363487Y-69601210D01*
X161373184Y-69602920D01*
X161373184Y-69602919D01*
X161373185Y-69602920D01*
X161382883Y-69601209D01*
X161396204Y-69600044D01*
X161400447Y-69599296D01*
X161400449Y-69599296D01*
X161400450Y-69599295D01*
X161404713Y-69598544D01*
X161417610Y-69595086D01*
X161427309Y-69593377D01*
X161427310Y-69593375D01*
X161433397Y-69589860D01*
X161438778Y-69585345D01*
X161438782Y-69585344D01*
X161443706Y-69576814D01*
X161456302Y-69558824D01*
X161462637Y-69551276D01*
X161462637Y-69551275D01*
X161465039Y-69544675D01*
X161466259Y-69537751D01*
X161466261Y-69537748D01*
X161464551Y-69528049D01*
X161462637Y-69506170D01*
X161462637Y-55569325D01*
X161464551Y-55547444D01*
X161466259Y-55537751D01*
X161466261Y-55537748D01*
X161464551Y-55528049D01*
X161463386Y-55514736D01*
X161462637Y-55510488D01*
X161462637Y-55510484D01*
X161462635Y-55510479D01*
X161461885Y-55506224D01*
X161458427Y-55493318D01*
X161456718Y-55483625D01*
X161456718Y-55483624D01*
X161456716Y-55483623D01*
X161453199Y-55477531D01*
X161448686Y-55472151D01*
X161440153Y-55467225D01*
X161422162Y-55454627D01*
X161414616Y-55448295D01*
X161408018Y-55445893D01*
X161401089Y-55444671D01*
X161391391Y-55446382D01*
X161369512Y-55448296D01*
X147432667Y-55448296D01*
X147410787Y-55446382D01*
X147401089Y-55444671D01*
X147391391Y-55446382D01*
X147378075Y-55447546D01*
X147369590Y-55449042D01*
X147356676Y-55452502D01*
X147346964Y-55454215D01*
X147340874Y-55457730D01*
X147335491Y-55462248D01*
X147330563Y-55470783D01*
X147317972Y-55488765D01*
X147311636Y-55496315D01*
X147309234Y-55502915D01*
X147308013Y-55509844D01*
X147309723Y-55519542D01*
X147311637Y-55541420D01*
X147311637Y-69478265D01*
X147309724Y-69500139D01*
X147308013Y-69509844D01*
X142412600Y-69509844D01*
X142412600Y-58018789D01*
X142414514Y-57996908D01*
X142416222Y-57987215D01*
X142416224Y-57987212D01*
X142414514Y-57977513D01*
X142413349Y-57964200D01*
X142412600Y-57959952D01*
X142412600Y-57959948D01*
X142412598Y-57959943D01*
X142411848Y-57955688D01*
X142408390Y-57942782D01*
X142406681Y-57933088D01*
X142406679Y-57933087D01*
X142403162Y-57926995D01*
X142398649Y-57921615D01*
X142390116Y-57916689D01*
X142372125Y-57904091D01*
X142364579Y-57897759D01*
X142357981Y-57895357D01*
X142351052Y-57894135D01*
X142341354Y-57895846D01*
X142319475Y-57897760D01*
X128526669Y-57897760D01*
X128458548Y-57877758D01*
X128412055Y-57824102D01*
X128401951Y-57753828D01*
X128411769Y-57720050D01*
X128450559Y-57633863D01*
X128545954Y-57327731D01*
X128603753Y-57012331D01*
X128623113Y-56692265D01*
X128603753Y-56372199D01*
X128545954Y-56056799D01*
X128450559Y-55750667D01*
X128450557Y-55750662D01*
X128318964Y-55458275D01*
X128318961Y-55458269D01*
X128318635Y-55457730D01*
X128153074Y-55183857D01*
X127955322Y-54931446D01*
X127955320Y-54931444D01*
X127955315Y-54931438D01*
X127728594Y-54704717D01*
X127728588Y-54704712D01*
X127476175Y-54506958D01*
X127201763Y-54341071D01*
X127201757Y-54341068D01*
X126909370Y-54209475D01*
X126603235Y-54114079D01*
X126603221Y-54114076D01*
X126287834Y-54056280D01*
X126287831Y-54056279D01*
X125967769Y-54036920D01*
X125967767Y-54036920D01*
X125647704Y-54056279D01*
X125647701Y-54056280D01*
X125332314Y-54114076D01*
X125332300Y-54114079D01*
X125026165Y-54209475D01*
X124733778Y-54341068D01*
X124733772Y-54341071D01*
X124459360Y-54506958D01*
X124206947Y-54704712D01*
X124206941Y-54704717D01*
X123980220Y-54931438D01*
X123980215Y-54931444D01*
X123782461Y-55183857D01*
X123616574Y-55458269D01*
X123616571Y-55458275D01*
X123484978Y-55750662D01*
X123389582Y-56056797D01*
X123389579Y-56056811D01*
X123331783Y-56372198D01*
X123331782Y-56372201D01*
X123312423Y-56692263D01*
X123312423Y-56692266D01*
X106555219Y-56692266D01*
X106555363Y-55258857D01*
X109208706Y-55258857D01*
X109210416Y-55268555D01*
X109211580Y-55281868D01*
X109213079Y-55290368D01*
X109216537Y-55303277D01*
X109218248Y-55312979D01*
X109221765Y-55319071D01*
X109226282Y-55324454D01*
X109234812Y-55329379D01*
X109252802Y-55341976D01*
X109260348Y-55348308D01*
X109260349Y-55348308D01*
X109260350Y-55348309D01*
X109260351Y-55348309D01*
X109266953Y-55350712D01*
X109273877Y-55351933D01*
X109273877Y-55351932D01*
X109273878Y-55351933D01*
X109283576Y-55350222D01*
X109305455Y-55348309D01*
X123242300Y-55348309D01*
X123264180Y-55350223D01*
X123273877Y-55351933D01*
X123273877Y-55351932D01*
X123273878Y-55351933D01*
X123283576Y-55350222D01*
X123296897Y-55349057D01*
X123301140Y-55348309D01*
X123301142Y-55348309D01*
X123301143Y-55348308D01*
X123305406Y-55347557D01*
X123318303Y-55344099D01*
X123328002Y-55342390D01*
X123328003Y-55342388D01*
X123334090Y-55338873D01*
X123339471Y-55334358D01*
X123339475Y-55334357D01*
X123344399Y-55325827D01*
X123356995Y-55307837D01*
X123363330Y-55300289D01*
X123363330Y-55300288D01*
X123365732Y-55293688D01*
X123366952Y-55286764D01*
X123366954Y-55286761D01*
X123365244Y-55277062D01*
X123363330Y-55255183D01*
X123363330Y-52909306D01*
X128259429Y-52909306D01*
X128261139Y-52919004D01*
X128262303Y-52932317D01*
X128263802Y-52940817D01*
X128267260Y-52953726D01*
X128268971Y-52963428D01*
X128272488Y-52969520D01*
X128277005Y-52974903D01*
X128285535Y-52979828D01*
X128303525Y-52992425D01*
X128311071Y-52998757D01*
X128311072Y-52998757D01*
X128311073Y-52998758D01*
X128311074Y-52998758D01*
X128317676Y-53001161D01*
X128324600Y-53002382D01*
X128324600Y-53002381D01*
X128324601Y-53002382D01*
X128334299Y-53000671D01*
X128356178Y-52998758D01*
X142293023Y-52998758D01*
X142314903Y-53000672D01*
X142324600Y-53002382D01*
X142324600Y-53002381D01*
X142324601Y-53002382D01*
X142334299Y-53000671D01*
X142347620Y-52999506D01*
X142351863Y-52998758D01*
X142351865Y-52998758D01*
X142351866Y-52998757D01*
X142356129Y-52998006D01*
X142369026Y-52994548D01*
X142378725Y-52992839D01*
X142378726Y-52992837D01*
X142384813Y-52989322D01*
X142390194Y-52984807D01*
X142390198Y-52984806D01*
X142395122Y-52976276D01*
X142407718Y-52958286D01*
X142414053Y-52950738D01*
X142414053Y-52950737D01*
X142416455Y-52944137D01*
X142417675Y-52937213D01*
X142417677Y-52937210D01*
X142415967Y-52927511D01*
X142414382Y-52909388D01*
X166358127Y-52909388D01*
X166359837Y-52919086D01*
X166361001Y-52932399D01*
X166362500Y-52940899D01*
X166365958Y-52953808D01*
X166367669Y-52963510D01*
X166371186Y-52969602D01*
X166375703Y-52974985D01*
X166384233Y-52979910D01*
X166402223Y-52992507D01*
X166409769Y-52998839D01*
X166409770Y-52998839D01*
X166409771Y-52998840D01*
X166409772Y-52998840D01*
X166416374Y-53001243D01*
X166423298Y-53002464D01*
X166423298Y-53002463D01*
X166423299Y-53002464D01*
X166432997Y-53000753D01*
X166454876Y-52998840D01*
X180391721Y-52998840D01*
X180413601Y-53000754D01*
X180423298Y-53002464D01*
X180423298Y-53002463D01*
X180423299Y-53002464D01*
X180432997Y-53000753D01*
X180446318Y-52999588D01*
X180450561Y-52998840D01*
X180450563Y-52998840D01*
X180450564Y-52998839D01*
X180454827Y-52998088D01*
X180467724Y-52994630D01*
X180477423Y-52992921D01*
X180477424Y-52992919D01*
X180483511Y-52989404D01*
X180488892Y-52984889D01*
X180488896Y-52984888D01*
X180493820Y-52976358D01*
X180506416Y-52958368D01*
X180512751Y-52950820D01*
X180512751Y-52950819D01*
X180515153Y-52944219D01*
X180516373Y-52937295D01*
X180516375Y-52937292D01*
X180514665Y-52927593D01*
X180512751Y-52905714D01*
X180512751Y-38968869D01*
X180514665Y-38946988D01*
X180516373Y-38937295D01*
X180516375Y-38937292D01*
X180514665Y-38927593D01*
X180513500Y-38914280D01*
X180512751Y-38910032D01*
X180512751Y-38910028D01*
X180512749Y-38910023D01*
X180511999Y-38905768D01*
X180508541Y-38892862D01*
X180506832Y-38883169D01*
X180506832Y-38883168D01*
X180506830Y-38883167D01*
X180503313Y-38877075D01*
X180498800Y-38871695D01*
X180490267Y-38866769D01*
X180472276Y-38854171D01*
X180464730Y-38847839D01*
X180458132Y-38845437D01*
X180451203Y-38844215D01*
X180441505Y-38845926D01*
X180419626Y-38847840D01*
X166482781Y-38847840D01*
X166460901Y-38845926D01*
X166451203Y-38844215D01*
X166441505Y-38845926D01*
X166428189Y-38847090D01*
X166419704Y-38848586D01*
X166406790Y-38852046D01*
X166397078Y-38853759D01*
X166390988Y-38857274D01*
X166385605Y-38861792D01*
X166380677Y-38870327D01*
X166368086Y-38888309D01*
X166361750Y-38895859D01*
X166359348Y-38902459D01*
X166358127Y-38909388D01*
X166359837Y-38919086D01*
X166361751Y-38940964D01*
X166361751Y-52877809D01*
X166359838Y-52899683D01*
X166358127Y-52909388D01*
X142414382Y-52909388D01*
X142414053Y-52905632D01*
X142414053Y-50459844D01*
X147308013Y-50459844D01*
X147309723Y-50469542D01*
X147310887Y-50482855D01*
X147312386Y-50491355D01*
X147315844Y-50504264D01*
X147317555Y-50513966D01*
X147321072Y-50520058D01*
X147325589Y-50525441D01*
X147334119Y-50530366D01*
X147352109Y-50542963D01*
X147359655Y-50549295D01*
X147359656Y-50549295D01*
X147359657Y-50549296D01*
X147359658Y-50549296D01*
X147366260Y-50551699D01*
X147373184Y-50552920D01*
X147373184Y-50552919D01*
X147373185Y-50552920D01*
X147382883Y-50551209D01*
X147404762Y-50549296D01*
X161341607Y-50549296D01*
X161363487Y-50551210D01*
X161373184Y-50552920D01*
X161373184Y-50552919D01*
X161373185Y-50552920D01*
X161382883Y-50551209D01*
X161396204Y-50550044D01*
X161400447Y-50549296D01*
X161400449Y-50549296D01*
X161400450Y-50549295D01*
X161404713Y-50548544D01*
X161417610Y-50545086D01*
X161427309Y-50543377D01*
X161427310Y-50543375D01*
X161433397Y-50539860D01*
X161438778Y-50535345D01*
X161438782Y-50535344D01*
X161443706Y-50526814D01*
X161456302Y-50508824D01*
X161462637Y-50501276D01*
X161462637Y-50501275D01*
X161465039Y-50494675D01*
X161466259Y-50487751D01*
X161466261Y-50487748D01*
X161464551Y-50478049D01*
X161462637Y-50456170D01*
X161462637Y-36519325D01*
X161464551Y-36497444D01*
X161466259Y-36487751D01*
X161466261Y-36487748D01*
X161464551Y-36478049D01*
X161463386Y-36464736D01*
X161462637Y-36460488D01*
X161462637Y-36460484D01*
X161462635Y-36460479D01*
X161461885Y-36456224D01*
X161458427Y-36443318D01*
X161456718Y-36433625D01*
X161456718Y-36433624D01*
X161456716Y-36433623D01*
X161453199Y-36427531D01*
X161448686Y-36422151D01*
X161440153Y-36417225D01*
X161422162Y-36404627D01*
X161414616Y-36398295D01*
X161408018Y-36395893D01*
X161401089Y-36394671D01*
X161391391Y-36396382D01*
X161369512Y-36398296D01*
X147432667Y-36398296D01*
X147410787Y-36396382D01*
X147401089Y-36394671D01*
X147391391Y-36396382D01*
X147378075Y-36397546D01*
X147369590Y-36399042D01*
X147356676Y-36402502D01*
X147346964Y-36404215D01*
X147340874Y-36407730D01*
X147335491Y-36412248D01*
X147330563Y-36420783D01*
X147317972Y-36438765D01*
X147311636Y-36446315D01*
X147309234Y-36452915D01*
X147308013Y-36459844D01*
X147309723Y-36469542D01*
X147311637Y-36491420D01*
X147311637Y-50428265D01*
X147309724Y-50450139D01*
X147308013Y-50459844D01*
X142414053Y-50459844D01*
X142414053Y-38968787D01*
X142415967Y-38946906D01*
X142417675Y-38937213D01*
X142417677Y-38937210D01*
X142415967Y-38927511D01*
X142414802Y-38914198D01*
X142414053Y-38909950D01*
X142414053Y-38909946D01*
X142414051Y-38909941D01*
X142413301Y-38905686D01*
X142409843Y-38892780D01*
X142409040Y-38888227D01*
X142408134Y-38883086D01*
X142408132Y-38883085D01*
X142404615Y-38876993D01*
X142400102Y-38871613D01*
X142391569Y-38866687D01*
X142373578Y-38854089D01*
X142366032Y-38847757D01*
X142359434Y-38845355D01*
X142352505Y-38844133D01*
X142342807Y-38845844D01*
X142320928Y-38847758D01*
X128384083Y-38847758D01*
X128362203Y-38845844D01*
X128352505Y-38844133D01*
X128342807Y-38845844D01*
X128329491Y-38847008D01*
X128321006Y-38848504D01*
X128308092Y-38851964D01*
X128298380Y-38853677D01*
X128292290Y-38857192D01*
X128286907Y-38861710D01*
X128281979Y-38870245D01*
X128269388Y-38888227D01*
X128263052Y-38895777D01*
X128260650Y-38902377D01*
X128259429Y-38909306D01*
X128261139Y-38919004D01*
X128263053Y-38940882D01*
X128263053Y-52877727D01*
X128261140Y-52899601D01*
X128259429Y-52909306D01*
X123363330Y-52909306D01*
X123363330Y-41318338D01*
X123365244Y-41296457D01*
X123366952Y-41286764D01*
X123366954Y-41286761D01*
X123365244Y-41277062D01*
X123364079Y-41263749D01*
X123363330Y-41259501D01*
X123363330Y-41259497D01*
X123363328Y-41259492D01*
X123362578Y-41255237D01*
X123359120Y-41242331D01*
X123357411Y-41232638D01*
X123357411Y-41232637D01*
X123357409Y-41232636D01*
X123353892Y-41226544D01*
X123349379Y-41221164D01*
X123340846Y-41216238D01*
X123322855Y-41203640D01*
X123315309Y-41197308D01*
X123308711Y-41194906D01*
X123301782Y-41193684D01*
X123292084Y-41195395D01*
X123270205Y-41197309D01*
X109333360Y-41197309D01*
X109311480Y-41195395D01*
X109301782Y-41193684D01*
X109292084Y-41195395D01*
X109278768Y-41196559D01*
X109270283Y-41198055D01*
X109257369Y-41201515D01*
X109247657Y-41203228D01*
X109241567Y-41206743D01*
X109236184Y-41211261D01*
X109231256Y-41219796D01*
X109218665Y-41237778D01*
X109212329Y-41245328D01*
X109209927Y-41251928D01*
X109208706Y-41258857D01*
X109210416Y-41268555D01*
X109212330Y-41290433D01*
X109212330Y-55227278D01*
X109210417Y-55249152D01*
X109208706Y-55258857D01*
X106555363Y-55258857D01*
X106557077Y-38244755D01*
X106557081Y-38244741D01*
X106557082Y-38219696D01*
X106557082Y-38196775D01*
X106557166Y-38193572D01*
X106574744Y-37858235D01*
X106575433Y-37851688D01*
X106627699Y-37521711D01*
X106629067Y-37515272D01*
X106715541Y-37192563D01*
X106717578Y-37186295D01*
X106837306Y-36874401D01*
X106839985Y-36868382D01*
X106991664Y-36570701D01*
X106994956Y-36565001D01*
X107176919Y-36284807D01*
X107180795Y-36279475D01*
X107391049Y-36019836D01*
X107395443Y-36014956D01*
X107631691Y-35778711D01*
X107636573Y-35774315D01*
X107896218Y-35564063D01*
X107901549Y-35560188D01*
X108181757Y-35378222D01*
X108187441Y-35374941D01*
X108485136Y-35223260D01*
X108491129Y-35220592D01*
X108803053Y-35100857D01*
X108809303Y-35098827D01*
X109132019Y-35012357D01*
X109138454Y-35010990D01*
X109468438Y-34958727D01*
X109474980Y-34958039D01*
X109811158Y-34940422D01*
X109811327Y-34940415D01*
X109814521Y-34940332D01*
X109847322Y-34940332D01*
X109857053Y-34938588D01*
X144639578Y-33548962D01*
X147838842Y-33525387D01*
X151038987Y-33537705D01*
G37*
G04 #@! TD.AperFunction*
M02*
