G04 #@! TF.GenerationSoftware,KiCad,Pcbnew,7.0.9*
G04 #@! TF.CreationDate,2024-01-08T22:46:21+03:00*
G04 #@! TF.ProjectId,SofleKeyboardTopPlate,536f666c-654b-4657-9962-6f617264546f,rev?*
G04 #@! TF.SameCoordinates,Original*
G04 #@! TF.FileFunction,Profile,NP*
%FSLAX46Y46*%
G04 Gerber Fmt 4.6, Leading zero omitted, Abs format (unit mm)*
G04 Created by KiCad (PCBNEW 7.0.9) date 2024-01-08 22:46:21*
%MOMM*%
%LPD*%
G01*
G04 APERTURE LIST*
G04 #@! TA.AperFunction,Profile*
%ADD10C,0.100000*%
G04 #@! TD*
G04 #@! TA.AperFunction,Profile*
%ADD11C,0.150000*%
G04 #@! TD*
G04 APERTURE END LIST*
D10*
X134487067Y-133781271D02*
G75*
G03*
X72355458Y-153943446I20446633J-168821429D01*
G01*
X218941007Y-141129370D02*
X204914393Y-141129370D01*
X198788662Y-37944390D02*
G75*
G03*
X144637779Y-33473475I-50447762J-280845710D01*
G01*
X103462661Y-94514913D02*
G75*
G03*
X106476213Y-91501434I39J3013513D01*
G01*
D11*
X128338553Y-38923258D02*
X142338553Y-38923258D01*
X142338553Y-52923258D01*
X128338553Y-52923258D01*
X128338553Y-38923258D01*
X204537276Y-103073821D02*
X218537276Y-103073821D01*
X218537276Y-117073821D01*
X204537276Y-117073821D01*
X204537276Y-103073821D01*
X147387137Y-74573796D02*
X161387137Y-74573796D01*
X161387137Y-88573796D01*
X147387137Y-88573796D01*
X147387137Y-74573796D01*
D10*
X109811915Y-34864883D02*
G75*
G03*
X106481583Y-38195164I-15J-3330317D01*
G01*
D11*
X147387137Y-55523796D02*
X161387137Y-55523796D01*
X161387137Y-69523796D01*
X147387137Y-69523796D01*
X147387137Y-55523796D01*
X128338553Y-115123258D02*
X142338553Y-115123258D01*
X142338553Y-129123258D01*
X128338553Y-129123258D01*
X128338553Y-115123258D01*
X147387137Y-112673796D02*
X161387137Y-112673796D01*
X161387137Y-126673796D01*
X147387137Y-126673796D01*
X147387137Y-112673796D01*
X128338600Y-57973260D02*
X142337100Y-57973260D01*
X142337100Y-71972413D01*
X128338600Y-71972413D01*
X128338600Y-57973260D01*
X101759707Y-136270711D02*
X88604010Y-141058993D01*
X83815728Y-127903296D01*
X96971425Y-123115014D01*
X101759707Y-136270711D01*
D10*
X144637779Y-33473475D02*
X109811915Y-34864832D01*
D11*
X166437251Y-77023340D02*
X180437251Y-77023340D01*
X180437251Y-91023340D01*
X166437251Y-91023340D01*
X166437251Y-77023340D01*
X185488413Y-84023532D02*
X199488413Y-84023532D01*
X199488413Y-98023532D01*
X185488413Y-98023532D01*
X185488413Y-84023532D01*
X204537276Y-84023821D02*
X218537276Y-84023821D01*
X218537276Y-98023821D01*
X204537276Y-98023821D01*
X204537276Y-84023821D01*
D10*
X86994087Y-94505931D02*
X103462661Y-94514986D01*
D11*
X166437251Y-96073340D02*
X180437251Y-96073340D01*
X180437251Y-110073340D01*
X166437251Y-110073340D01*
X166437251Y-96073340D01*
X109287830Y-41272809D02*
X123287830Y-41272809D01*
X123287830Y-55272809D01*
X109287830Y-55272809D01*
X109287830Y-41272809D01*
X109287974Y-60323464D02*
X123287974Y-60323464D01*
X123287974Y-74323464D01*
X109287974Y-74323464D01*
X109287974Y-60323464D01*
X128338553Y-77023258D02*
X142338553Y-77023258D01*
X142338553Y-91023258D01*
X128338553Y-91023258D01*
X128338553Y-77023258D01*
X185488413Y-103073532D02*
X199488413Y-103073532D01*
X199488413Y-117073532D01*
X185488413Y-117073532D01*
X185488413Y-103073532D01*
X204537276Y-122123821D02*
X218537276Y-122123821D01*
X218537276Y-136123821D01*
X204537276Y-136123821D01*
X204537276Y-122123821D01*
X109287974Y-98423464D02*
X123287974Y-98423464D01*
X123287974Y-112423464D01*
X109287974Y-112423464D01*
X109287974Y-98423464D01*
X86614786Y-96702281D02*
X104093837Y-96702281D01*
X104093837Y-110831688D01*
X86614786Y-110831688D01*
X86614786Y-96702281D01*
X121616161Y-132177470D02*
X107828852Y-134608544D01*
X105397778Y-120821236D01*
X119185087Y-118390161D01*
X121616161Y-132177470D01*
X185488413Y-45923532D02*
X199488413Y-45923532D01*
X199488413Y-59923532D01*
X185488413Y-59923532D01*
X185488413Y-45923532D01*
X128338553Y-96073258D02*
X142338553Y-96073258D01*
X142338553Y-110073258D01*
X128338553Y-110073258D01*
X128338553Y-96073258D01*
X166437251Y-115123340D02*
X180437251Y-115123340D01*
X180437251Y-129123340D01*
X166437251Y-129123340D01*
X166437251Y-115123340D01*
X204537276Y-64973821D02*
X218537276Y-64973821D01*
X218537276Y-78973821D01*
X204537276Y-78973821D01*
X204537276Y-64973821D01*
D10*
X83937779Y-112423475D02*
X83931215Y-97568803D01*
D11*
X185488413Y-122123532D02*
X199488413Y-122123532D01*
X199488413Y-136123532D01*
X185488413Y-136123532D01*
X185488413Y-122123532D01*
D10*
X60879026Y-132483918D02*
G75*
G03*
X59629038Y-137412201I2166574J-3172182D01*
G01*
D11*
X166437251Y-57973340D02*
X180437251Y-57973340D01*
X180437251Y-71973340D01*
X166437251Y-71973340D01*
X166437251Y-57973340D01*
X185488413Y-64973532D02*
X199488413Y-64973532D01*
X199488413Y-78973532D01*
X185488413Y-78973532D01*
X185488413Y-64973532D01*
D10*
X177437779Y-136851423D02*
G75*
G03*
X134487067Y-133781271I-28692419J-99429947D01*
G01*
X83059107Y-114544803D02*
G75*
G03*
X83937779Y-112423475I-2121307J2121303D01*
G01*
D11*
X109287974Y-79373464D02*
X123287974Y-79373464D01*
X123287974Y-93373464D01*
X109287974Y-93373464D01*
X109287974Y-79373464D01*
D10*
X60879036Y-132483932D02*
X83059099Y-114544795D01*
D11*
X204537276Y-45923821D02*
X218537276Y-45923821D01*
X218537276Y-59923821D01*
X204537276Y-59923821D01*
X204537276Y-45923821D01*
X147387137Y-36473796D02*
X161387137Y-36473796D01*
X161387137Y-50473796D01*
X147387137Y-50473796D01*
X147387137Y-36473796D01*
D10*
X68183866Y-152761346D02*
X59629038Y-137412201D01*
X221137779Y-43823475D02*
X221087779Y-139073475D01*
X219437779Y-41523475D02*
X198788663Y-37944384D01*
X218941003Y-141129431D02*
G75*
G03*
X221087779Y-139073475I146097J1996231D01*
G01*
D11*
X83023807Y-143777759D02*
X70899451Y-150777759D01*
X63899451Y-138653403D01*
X76023807Y-131653403D01*
X83023807Y-143777759D01*
D10*
X106476213Y-91501434D02*
X106481583Y-38195164D01*
D11*
X166437251Y-38923340D02*
X180437251Y-38923340D01*
X180437251Y-52923340D01*
X166437251Y-52923340D01*
X166437251Y-38923340D01*
D10*
X221137805Y-43823475D02*
G75*
G03*
X219437779Y-41523475I-2405905J-25D01*
G01*
X86994087Y-94505915D02*
G75*
G03*
X83931215Y-97568803I13J-3062885D01*
G01*
D11*
X147387137Y-93623796D02*
X161387137Y-93623796D01*
X161387137Y-107623796D01*
X147387137Y-107623796D01*
X147387137Y-93623796D01*
D10*
X68183893Y-152761332D02*
G75*
G03*
X72355460Y-153943447I2650007J1400032D01*
G01*
X177437783Y-136851411D02*
G75*
G03*
X204914393Y-141129369I28421717J92170111D01*
G01*
M02*
