G04 #@! TF.GenerationSoftware,KiCad,Pcbnew,7.0.9*
G04 #@! TF.CreationDate,2023-12-28T12:40:59+03:00*
G04 #@! TF.ProjectId,SofleKeyboard,536f666c-654b-4657-9962-6f6172642e6b,rev?*
G04 #@! TF.SameCoordinates,Original*
G04 #@! TF.FileFunction,Soldermask,Bot*
G04 #@! TF.FilePolarity,Negative*
%FSLAX46Y46*%
G04 Gerber Fmt 4.6, Leading zero omitted, Abs format (unit mm)*
G04 Created by KiCad (PCBNEW 7.0.9) date 2023-12-28 12:40:59*
%MOMM*%
%LPD*%
G01*
G04 APERTURE LIST*
G04 Aperture macros list*
%AMRoundRect*
0 Rectangle with rounded corners*
0 $1 Rounding radius*
0 $2 $3 $4 $5 $6 $7 $8 $9 X,Y pos of 4 corners*
0 Add a 4 corners polygon primitive as box body*
4,1,4,$2,$3,$4,$5,$6,$7,$8,$9,$2,$3,0*
0 Add four circle primitives for the rounded corners*
1,1,$1+$1,$2,$3*
1,1,$1+$1,$4,$5*
1,1,$1+$1,$6,$7*
1,1,$1+$1,$8,$9*
0 Add four rect primitives between the rounded corners*
20,1,$1+$1,$2,$3,$4,$5,0*
20,1,$1+$1,$4,$5,$6,$7,0*
20,1,$1+$1,$6,$7,$8,$9,0*
20,1,$1+$1,$8,$9,$2,$3,0*%
G04 Aperture macros list end*
%ADD10C,2.200000*%
%ADD11C,1.400000*%
%ADD12C,3.400000*%
%ADD13C,3.800000*%
%ADD14RoundRect,0.200000X0.850000X0.500000X-0.850000X0.500000X-0.850000X-0.500000X0.850000X-0.500000X0*%
%ADD15RoundRect,0.200000X0.800000X1.100000X-0.800000X1.100000X-0.800000X-1.100000X0.800000X-1.100000X0*%
%ADD16C,1.797000*%
%ADD17C,1.600000*%
%ADD18O,2.900000X2.100000*%
%ADD19C,5.100000*%
%ADD20C,1.924000*%
%ADD21C,2.400000*%
%ADD22C,4.400000*%
%ADD23RoundRect,0.200000X-1.600000X-1.000000X1.600000X-1.000000X1.600000X1.000000X-1.600000X1.000000X0*%
%ADD24RoundRect,0.200000X0.486122X0.858013X-0.986122X0.008013X-0.486122X-0.858013X0.986122X-0.008013X0*%
%ADD25RoundRect,0.200000X0.142820X1.352628X-1.242820X0.552628X-0.142820X-1.352628X1.242820X-0.552628X0*%
%ADD26RoundRect,0.200000X0.627729X0.760563X-0.969749X0.179129X-0.627729X-0.760563X0.969749X-0.179129X0*%
%ADD27RoundRect,0.200000X0.375532X1.307278X-1.127976X0.760046X-0.375532X-1.307278X1.127976X-0.760046X0*%
%ADD28RoundRect,0.200000X0.750263X0.640005X-0.923911X0.344803X-0.750263X-0.640005X0.923911X-0.344803X0*%
%ADD29RoundRect,0.200000X0.596833X1.222207X-0.978859X0.944370X-0.596833X-1.222207X0.978859X-0.944370X0*%
%ADD30RoundRect,0.200000X0.571500X-0.317500X0.571500X0.317500X-0.571500X0.317500X-0.571500X-0.317500X0*%
G04 APERTURE END LIST*
D10*
X164250000Y-45000000D03*
D11*
X163970000Y-40800000D03*
D12*
X163750000Y-48700000D03*
X158750000Y-50900000D03*
D13*
X158750000Y-45000000D03*
D12*
X153750000Y-48700000D03*
D11*
X153530000Y-40800000D03*
D10*
X153250000Y-45000000D03*
D14*
X156000000Y-39601000D03*
X156000000Y-41001000D03*
X161500000Y-41001000D03*
X161500000Y-39601000D03*
D15*
X161550000Y-50900000D03*
X150950000Y-48700000D03*
D16*
X95499272Y-80311965D03*
X100579272Y-80311965D03*
X95499272Y-78061965D03*
X100579272Y-78061965D03*
D17*
X89500000Y-87400000D03*
X96500000Y-87400000D03*
X89500000Y-85650000D03*
X96500000Y-85650000D03*
D18*
X98300000Y-89500000D03*
X98300000Y-83550000D03*
X94300000Y-89500000D03*
X94300000Y-83550000D03*
X91300000Y-89500000D03*
X91300000Y-83550000D03*
X99800000Y-87750000D03*
X99800000Y-85300000D03*
D16*
X102700000Y-80300000D03*
X102700000Y-78100000D03*
D19*
X103600000Y-118100000D03*
D20*
X92180000Y-41230000D03*
X108718815Y-42425745D03*
X92180000Y-43770000D03*
X108718815Y-44965745D03*
X92180000Y-46310000D03*
X108718815Y-47505745D03*
X92180000Y-48850000D03*
X108718815Y-50045745D03*
X92180000Y-51390000D03*
X108718815Y-52585745D03*
X92180000Y-53930000D03*
X108718815Y-55125745D03*
X92180000Y-56470000D03*
X108718815Y-57665745D03*
X92180000Y-59010000D03*
X108718815Y-60205745D03*
X92180000Y-61550000D03*
X108718815Y-62745745D03*
X92180000Y-64090000D03*
X108718815Y-65285745D03*
X92180000Y-66630000D03*
X108718815Y-67825745D03*
X92180000Y-69170000D03*
X108718815Y-70365745D03*
X93478815Y-70365745D03*
X107420000Y-69170000D03*
X93478815Y-67825745D03*
X107420000Y-66630000D03*
X93478815Y-65285745D03*
X107420000Y-64090000D03*
X93478815Y-62745745D03*
X107420000Y-61550000D03*
X93478815Y-60205745D03*
X107420000Y-59010000D03*
X93478815Y-57665745D03*
X107420000Y-56470000D03*
X93478815Y-55125745D03*
X107420000Y-53930000D03*
X93478815Y-52585745D03*
X107420000Y-51390000D03*
X93478815Y-50045745D03*
X107420000Y-48850000D03*
X93478815Y-47505745D03*
X107420000Y-46310000D03*
X93478815Y-44965745D03*
X107420000Y-43770000D03*
X93478815Y-42425745D03*
X107420000Y-41230000D03*
D21*
X90000000Y-74250000D03*
X90000000Y-80750000D03*
D22*
X91500000Y-93500000D03*
D16*
X96700000Y-74600000D03*
X99240000Y-74600000D03*
X101780000Y-74600000D03*
X104320000Y-74600000D03*
D22*
X107000000Y-93500000D03*
D21*
X106915822Y-102812306D03*
X106915822Y-107812306D03*
D23*
X99915822Y-110912306D03*
X99915822Y-99712306D03*
D21*
X92415822Y-105312306D03*
X92415822Y-107812306D03*
X92415822Y-102812306D03*
D19*
X206325000Y-64025000D03*
X206375000Y-102175000D03*
X130325000Y-58225000D03*
X130325000Y-96525000D03*
D10*
X221400000Y-92550000D03*
D11*
X221120000Y-88350000D03*
D12*
X220900000Y-96250000D03*
X215900000Y-98450000D03*
D13*
X215900000Y-92550000D03*
D12*
X210900000Y-96250000D03*
D11*
X210680000Y-88350000D03*
D10*
X210400000Y-92550000D03*
D14*
X213150000Y-87151000D03*
X213150000Y-88551000D03*
X218650000Y-88551000D03*
X218650000Y-87151000D03*
D15*
X218700000Y-98450000D03*
X208100000Y-96250000D03*
D10*
X221400000Y-54450000D03*
D11*
X221120000Y-50250000D03*
D12*
X220900000Y-58150000D03*
X215900000Y-60350000D03*
D13*
X215900000Y-54450000D03*
D12*
X210900000Y-58150000D03*
D11*
X210680000Y-50250000D03*
D10*
X210400000Y-54450000D03*
D14*
X213150000Y-49051000D03*
X213150000Y-50451000D03*
X218650000Y-50451000D03*
X218650000Y-49051000D03*
D15*
X218700000Y-60350000D03*
X208100000Y-58150000D03*
D10*
X145200000Y-85550000D03*
D11*
X144920000Y-81350000D03*
D12*
X144700000Y-89250000D03*
X139700000Y-91450000D03*
D13*
X139700000Y-85550000D03*
D12*
X134700000Y-89250000D03*
D11*
X134480000Y-81350000D03*
D10*
X134200000Y-85550000D03*
D14*
X136950000Y-80151000D03*
X136950000Y-81551000D03*
X142450000Y-81551000D03*
X142450000Y-80151000D03*
D15*
X142500000Y-91450000D03*
X131900000Y-89250000D03*
D10*
X202350000Y-111600000D03*
D11*
X202070000Y-107400000D03*
D12*
X201850000Y-115300000D03*
X196850000Y-117500000D03*
D13*
X196850000Y-111600000D03*
D12*
X191850000Y-115300000D03*
D11*
X191630000Y-107400000D03*
D10*
X191350000Y-111600000D03*
D14*
X194100000Y-106201000D03*
X194100000Y-107601000D03*
X199600000Y-107601000D03*
X199600000Y-106201000D03*
D15*
X199650000Y-117500000D03*
X189050000Y-115300000D03*
D10*
X82588269Y-139990450D03*
D11*
X80245782Y-136493143D03*
D12*
X84005256Y-143444744D03*
X80775129Y-147850000D03*
D13*
X77825129Y-142740450D03*
D12*
X75345002Y-148444744D03*
D11*
X71204476Y-141713143D03*
D10*
X73061989Y-145490450D03*
D24*
X72744059Y-139439779D03*
X73444059Y-140652214D03*
X78207199Y-137902214D03*
X77507199Y-136689779D03*
D25*
X83200000Y-146450000D03*
X72920131Y-149844744D03*
D15*
X208100000Y-134350000D03*
X218700000Y-136550000D03*
D14*
X218650000Y-125251000D03*
X218650000Y-126651000D03*
X213150000Y-126651000D03*
X213150000Y-125251000D03*
D10*
X210400000Y-130650000D03*
D11*
X210680000Y-126450000D03*
D12*
X210900000Y-134350000D03*
D13*
X215900000Y-130650000D03*
D12*
X215900000Y-136550000D03*
X220900000Y-134350000D03*
D11*
X221120000Y-126450000D03*
D10*
X221400000Y-130650000D03*
X126150000Y-49799000D03*
D11*
X125870000Y-45599000D03*
D12*
X125650000Y-53499000D03*
X120650000Y-55699000D03*
D13*
X120650000Y-49799000D03*
D12*
X115650000Y-53499000D03*
D11*
X115430000Y-45599000D03*
D10*
X115150000Y-49799000D03*
D14*
X117900000Y-44400000D03*
X117900000Y-45800000D03*
X123400000Y-45800000D03*
X123400000Y-44400000D03*
D15*
X123450000Y-55699000D03*
X112850000Y-53499000D03*
D10*
X145200000Y-47450000D03*
D11*
X144920000Y-43250000D03*
D12*
X144700000Y-51150000D03*
X139700000Y-53350000D03*
D13*
X139700000Y-47450000D03*
D12*
X134700000Y-51150000D03*
D11*
X134480000Y-43250000D03*
D10*
X134200000Y-47450000D03*
D14*
X136950000Y-42051000D03*
X136950000Y-43451000D03*
X142450000Y-43451000D03*
X142450000Y-42051000D03*
D15*
X142500000Y-53350000D03*
X131900000Y-51150000D03*
D10*
X145200000Y-104600000D03*
D11*
X144920000Y-100400000D03*
D12*
X144700000Y-108300000D03*
X139700000Y-110500000D03*
D13*
X139700000Y-104600000D03*
D12*
X134700000Y-108300000D03*
D11*
X134480000Y-100400000D03*
D10*
X134200000Y-104600000D03*
D14*
X136950000Y-99201000D03*
X136950000Y-100601000D03*
X142450000Y-100601000D03*
X142450000Y-99201000D03*
D15*
X142500000Y-110500000D03*
X131900000Y-108300000D03*
D10*
X183300000Y-104600000D03*
D11*
X183020000Y-100400000D03*
D12*
X182800000Y-108300000D03*
X177800000Y-110500000D03*
D13*
X177800000Y-104600000D03*
D12*
X172800000Y-108300000D03*
D11*
X172580000Y-100400000D03*
D10*
X172300000Y-104600000D03*
D14*
X175050000Y-99201000D03*
X175050000Y-100601000D03*
X180550000Y-100601000D03*
X180550000Y-99201000D03*
D15*
X180600000Y-110500000D03*
X170000000Y-108300000D03*
D10*
X221400000Y-111600000D03*
D11*
X221120000Y-107400000D03*
D12*
X220900000Y-115300000D03*
X215900000Y-117500000D03*
D13*
X215900000Y-111600000D03*
D12*
X210900000Y-115300000D03*
D11*
X210680000Y-107400000D03*
D10*
X210400000Y-111600000D03*
D14*
X213150000Y-106201000D03*
X213150000Y-107601000D03*
X218650000Y-107601000D03*
X218650000Y-106201000D03*
D15*
X218700000Y-117500000D03*
X208100000Y-115300000D03*
D10*
X183300000Y-47450000D03*
D11*
X183020000Y-43250000D03*
D12*
X182800000Y-51150000D03*
X177800000Y-53350000D03*
D13*
X177800000Y-47450000D03*
D12*
X172800000Y-51150000D03*
D11*
X172580000Y-43250000D03*
D10*
X172300000Y-47450000D03*
D14*
X175050000Y-42051000D03*
X175050000Y-43451000D03*
X180550000Y-43451000D03*
X180550000Y-42051000D03*
D15*
X180600000Y-53350000D03*
X170000000Y-51150000D03*
D10*
X164250000Y-121200000D03*
D11*
X163970000Y-117000000D03*
D12*
X163750000Y-124900000D03*
X158750000Y-127100000D03*
D13*
X158750000Y-121200000D03*
D12*
X153750000Y-124900000D03*
D11*
X153530000Y-117000000D03*
D10*
X153250000Y-121200000D03*
D14*
X156000000Y-115801000D03*
X156000000Y-117201000D03*
X161500000Y-117201000D03*
X161500000Y-115801000D03*
D15*
X161550000Y-127100000D03*
X150950000Y-124900000D03*
D10*
X126150000Y-106950000D03*
D11*
X125870000Y-102750000D03*
D12*
X125650000Y-110650000D03*
X120650000Y-112850000D03*
D13*
X120650000Y-106950000D03*
D12*
X115650000Y-110650000D03*
D11*
X115430000Y-102750000D03*
D10*
X115150000Y-106950000D03*
D14*
X117900000Y-101551000D03*
X117900000Y-102951000D03*
X123400000Y-102951000D03*
X123400000Y-101551000D03*
D15*
X123450000Y-112850000D03*
X112850000Y-110650000D03*
D10*
X183300000Y-85550000D03*
D11*
X183020000Y-81350000D03*
D12*
X182800000Y-89250000D03*
X177800000Y-91450000D03*
D13*
X177800000Y-85550000D03*
D12*
X172800000Y-89250000D03*
D11*
X172580000Y-81350000D03*
D10*
X172300000Y-85550000D03*
D14*
X175050000Y-80151000D03*
X175050000Y-81551000D03*
X180550000Y-81551000D03*
X180550000Y-80151000D03*
D15*
X180600000Y-91450000D03*
X170000000Y-89250000D03*
D10*
X145200000Y-66499000D03*
D11*
X144920000Y-62299000D03*
D12*
X144700000Y-70199000D03*
X139700000Y-72399000D03*
D13*
X139700000Y-66499000D03*
D12*
X134700000Y-70199000D03*
D11*
X134480000Y-62299000D03*
D10*
X134200000Y-66499000D03*
D14*
X136950000Y-61100000D03*
X136950000Y-62500000D03*
X142450000Y-62500000D03*
X142450000Y-61100000D03*
D15*
X142500000Y-72399000D03*
X131900000Y-70199000D03*
D10*
X126150000Y-68850000D03*
D11*
X125870000Y-64650000D03*
D12*
X125650000Y-72550000D03*
X120650000Y-74750000D03*
D13*
X120650000Y-68850000D03*
D12*
X115650000Y-72550000D03*
D11*
X115430000Y-64650000D03*
D10*
X115150000Y-68850000D03*
D14*
X117900000Y-63451000D03*
X117900000Y-64851000D03*
X123400000Y-64851000D03*
X123400000Y-63451000D03*
D15*
X123450000Y-74750000D03*
X112850000Y-72550000D03*
D10*
X183300000Y-123650000D03*
D11*
X183020000Y-119450000D03*
D12*
X182800000Y-127350000D03*
X177800000Y-129550000D03*
D13*
X177800000Y-123650000D03*
D12*
X172800000Y-127350000D03*
D11*
X172580000Y-119450000D03*
D10*
X172300000Y-123650000D03*
D14*
X175050000Y-118251000D03*
X175050000Y-119651000D03*
X180550000Y-119651000D03*
X180550000Y-118251000D03*
D15*
X180600000Y-129550000D03*
X170000000Y-127350000D03*
D10*
X202350000Y-130650000D03*
D11*
X202070000Y-126450000D03*
D12*
X201850000Y-134350000D03*
X196850000Y-136550000D03*
D13*
X196850000Y-130650000D03*
D12*
X191850000Y-134350000D03*
D11*
X191630000Y-126450000D03*
D10*
X191350000Y-130650000D03*
D14*
X194100000Y-125251000D03*
X194100000Y-126651000D03*
X199600000Y-126651000D03*
X199600000Y-125251000D03*
D15*
X199650000Y-136550000D03*
X189050000Y-134350000D03*
D10*
X164250000Y-83100000D03*
D11*
X163970000Y-78900000D03*
D12*
X163750000Y-86800000D03*
X158750000Y-89000000D03*
D13*
X158750000Y-83100000D03*
D12*
X153750000Y-86800000D03*
D11*
X153530000Y-78900000D03*
D10*
X153250000Y-83100000D03*
D14*
X156000000Y-77701000D03*
X156000000Y-79101000D03*
X161500000Y-79101000D03*
X161500000Y-77701000D03*
D15*
X161550000Y-89000000D03*
X150950000Y-86800000D03*
D10*
X183300000Y-66500000D03*
D11*
X183020000Y-62300000D03*
D12*
X182800000Y-70200000D03*
X177800000Y-72400000D03*
D13*
X177800000Y-66500000D03*
D12*
X172800000Y-70200000D03*
D11*
X172580000Y-62300000D03*
D10*
X172300000Y-66500000D03*
D14*
X175050000Y-61101000D03*
X175050000Y-62501000D03*
X180550000Y-62501000D03*
X180550000Y-61101000D03*
D15*
X180600000Y-72400000D03*
X170000000Y-70200000D03*
D10*
X102319251Y-131732359D03*
D11*
X100619653Y-127881416D03*
D12*
X103114880Y-135380232D03*
X99168861Y-139157656D03*
D13*
X97150942Y-133613470D03*
D12*
X93717953Y-138800433D03*
D11*
X90809262Y-131452106D03*
D10*
X91982633Y-135494581D03*
D26*
X92720221Y-129480625D03*
X93199049Y-130796195D03*
X98367358Y-128915084D03*
X97888530Y-127599514D03*
D27*
X101800000Y-138200000D03*
X91086814Y-139758090D03*
D10*
X202350000Y-73500000D03*
D11*
X202070000Y-69300000D03*
D12*
X201850000Y-77200000D03*
X196850000Y-79400000D03*
D13*
X196850000Y-73500000D03*
D12*
X191850000Y-77200000D03*
D11*
X191630000Y-69300000D03*
D10*
X191350000Y-73500000D03*
D14*
X194100000Y-68101000D03*
X194100000Y-69501000D03*
X199600000Y-69501000D03*
X199600000Y-68101000D03*
D15*
X199650000Y-79400000D03*
X189050000Y-77200000D03*
D10*
X164250000Y-64050000D03*
D11*
X163970000Y-59850000D03*
D12*
X163750000Y-67750000D03*
X158750000Y-69950000D03*
D13*
X158750000Y-64050000D03*
D12*
X153750000Y-67750000D03*
D11*
X153530000Y-59850000D03*
D10*
X153250000Y-64050000D03*
D14*
X156000000Y-58651000D03*
X156000000Y-60051000D03*
X161500000Y-60051000D03*
X161500000Y-58651000D03*
D15*
X161550000Y-69950000D03*
X150950000Y-67750000D03*
D10*
X126150000Y-87900000D03*
D11*
X125870000Y-83700000D03*
D12*
X125650000Y-91600000D03*
X120650000Y-93800000D03*
D13*
X120650000Y-87900000D03*
D12*
X115650000Y-91600000D03*
D11*
X115430000Y-83700000D03*
D10*
X115150000Y-87900000D03*
D14*
X117900000Y-82501000D03*
X117900000Y-83901000D03*
X123400000Y-83901000D03*
X123400000Y-82501000D03*
D15*
X123450000Y-93800000D03*
X112850000Y-91600000D03*
D10*
X202350000Y-92550000D03*
D11*
X202070000Y-88350000D03*
D12*
X201850000Y-96250000D03*
X196850000Y-98450000D03*
D13*
X196850000Y-92550000D03*
D12*
X191850000Y-96250000D03*
D11*
X191630000Y-88350000D03*
D10*
X191350000Y-92550000D03*
D14*
X194100000Y-87151000D03*
X194100000Y-88551000D03*
X199600000Y-88551000D03*
X199600000Y-87151000D03*
D15*
X199650000Y-98450000D03*
X189050000Y-96250000D03*
D10*
X221400000Y-73500000D03*
D11*
X221120000Y-69300000D03*
D12*
X220900000Y-77200000D03*
X215900000Y-79400000D03*
D13*
X215900000Y-73500000D03*
D12*
X210900000Y-77200000D03*
D11*
X210680000Y-69300000D03*
D10*
X210400000Y-73500000D03*
D14*
X213150000Y-68101000D03*
X213150000Y-69501000D03*
X218650000Y-69501000D03*
X218650000Y-68101000D03*
D15*
X218700000Y-79400000D03*
X208100000Y-77200000D03*
D10*
X164250000Y-102150000D03*
D11*
X163970000Y-97950000D03*
D12*
X163750000Y-105850000D03*
X158750000Y-108050000D03*
D13*
X158750000Y-102150000D03*
D12*
X153750000Y-105850000D03*
D11*
X153530000Y-97950000D03*
D10*
X153250000Y-102150000D03*
D14*
X156000000Y-96751000D03*
X156000000Y-98151000D03*
X161500000Y-98151000D03*
X161500000Y-96751000D03*
D15*
X161550000Y-108050000D03*
X150950000Y-105850000D03*
D10*
X123284457Y-127070784D03*
D11*
X122279388Y-122983213D03*
D12*
X123434551Y-130801397D03*
X118892538Y-133836215D03*
D13*
X117868014Y-128025849D03*
D12*
X113586473Y-132537879D03*
D11*
X111997995Y-124796100D03*
D10*
X112451571Y-128980914D03*
D28*
X114222266Y-123186404D03*
X114465374Y-124565135D03*
X119881816Y-123610070D03*
X119638709Y-122231339D03*
D29*
X121650000Y-133350000D03*
X110829012Y-133024093D03*
D10*
X202350000Y-54450000D03*
D11*
X202070000Y-50250000D03*
D12*
X201850000Y-58150000D03*
X196850000Y-60350000D03*
D13*
X196850000Y-54450000D03*
D12*
X191850000Y-58150000D03*
D11*
X191630000Y-50250000D03*
D10*
X191350000Y-54450000D03*
D14*
X194100000Y-49051000D03*
X194100000Y-50451000D03*
X199600000Y-50451000D03*
X199600000Y-49051000D03*
D15*
X199650000Y-60350000D03*
X189050000Y-58150000D03*
D10*
X145200000Y-123650000D03*
D11*
X144920000Y-119450000D03*
D12*
X144700000Y-127350000D03*
X139700000Y-129550000D03*
D13*
X139700000Y-123650000D03*
D12*
X134700000Y-127350000D03*
D11*
X134480000Y-119450000D03*
D10*
X134200000Y-123650000D03*
D14*
X136950000Y-118251000D03*
X136950000Y-119651000D03*
X142450000Y-119651000D03*
X142450000Y-118251000D03*
D15*
X142500000Y-129550000D03*
X131900000Y-127350000D03*
D30*
X101700000Y-69800380D03*
X101700000Y-68799620D03*
X99200000Y-69800380D03*
X99200000Y-68799620D03*
X96700000Y-69800380D03*
X96700000Y-68799620D03*
X104300000Y-69800380D03*
X104300000Y-68799620D03*
M02*
