G04 #@! TF.GenerationSoftware,KiCad,Pcbnew,7.0.9*
G04 #@! TF.CreationDate,2023-12-28T12:40:59+03:00*
G04 #@! TF.ProjectId,SofleKeyboard,536f666c-654b-4657-9962-6f6172642e6b,rev?*
G04 #@! TF.SameCoordinates,Original*
G04 #@! TF.FileFunction,Legend,Bot*
G04 #@! TF.FilePolarity,Positive*
%FSLAX46Y46*%
G04 Gerber Fmt 4.6, Leading zero omitted, Abs format (unit mm)*
G04 Created by KiCad (PCBNEW 7.0.9) date 2023-12-28 12:40:59*
%MOMM*%
%LPD*%
G01*
G04 APERTURE LIST*
G04 Aperture macros list*
%AMRoundRect*
0 Rectangle with rounded corners*
0 $1 Rounding radius*
0 $2 $3 $4 $5 $6 $7 $8 $9 X,Y pos of 4 corners*
0 Add a 4 corners polygon primitive as box body*
4,1,4,$2,$3,$4,$5,$6,$7,$8,$9,$2,$3,0*
0 Add four circle primitives for the rounded corners*
1,1,$1+$1,$2,$3*
1,1,$1+$1,$4,$5*
1,1,$1+$1,$6,$7*
1,1,$1+$1,$8,$9*
0 Add four rect primitives between the rounded corners*
20,1,$1+$1,$2,$3,$4,$5,0*
20,1,$1+$1,$4,$5,$6,$7,0*
20,1,$1+$1,$6,$7,$8,$9,0*
20,1,$1+$1,$8,$9,$2,$3,0*%
G04 Aperture macros list end*
%ADD10C,0.150000*%
%ADD11C,0.120000*%
%ADD12C,0.100000*%
%ADD13C,1.524000*%
%ADD14C,2.200000*%
%ADD15C,1.400000*%
%ADD16C,3.400000*%
%ADD17C,3.800000*%
%ADD18RoundRect,0.200000X0.850000X0.500000X-0.850000X0.500000X-0.850000X-0.500000X0.850000X-0.500000X0*%
%ADD19RoundRect,0.200000X0.800000X1.100000X-0.800000X1.100000X-0.800000X-1.100000X0.800000X-1.100000X0*%
%ADD20C,1.797000*%
%ADD21C,1.600000*%
%ADD22O,2.900000X2.100000*%
%ADD23C,5.100000*%
%ADD24C,1.924000*%
%ADD25C,2.400000*%
%ADD26C,4.400000*%
%ADD27RoundRect,0.200000X-1.600000X-1.000000X1.600000X-1.000000X1.600000X1.000000X-1.600000X1.000000X0*%
%ADD28RoundRect,0.200000X0.486122X0.858013X-0.986122X0.008013X-0.486122X-0.858013X0.986122X-0.008013X0*%
%ADD29RoundRect,0.200000X0.142820X1.352628X-1.242820X0.552628X-0.142820X-1.352628X1.242820X-0.552628X0*%
%ADD30RoundRect,0.200000X0.627729X0.760563X-0.969749X0.179129X-0.627729X-0.760563X0.969749X-0.179129X0*%
%ADD31RoundRect,0.200000X0.375532X1.307278X-1.127976X0.760046X-0.375532X-1.307278X1.127976X-0.760046X0*%
%ADD32RoundRect,0.200000X0.750263X0.640005X-0.923911X0.344803X-0.750263X-0.640005X0.923911X-0.344803X0*%
%ADD33RoundRect,0.200000X0.596833X1.222207X-0.978859X0.944370X-0.596833X-1.222207X0.978859X-0.944370X0*%
%ADD34RoundRect,0.200000X0.571500X-0.317500X0.571500X0.317500X-0.571500X0.317500X-0.571500X-0.317500X0*%
G04 APERTURE END LIST*
D10*
X98172604Y-80662295D02*
X98439271Y-80281342D01*
X98629747Y-80662295D02*
X98629747Y-79862295D01*
X98629747Y-79862295D02*
X98324985Y-79862295D01*
X98324985Y-79862295D02*
X98248795Y-79900390D01*
X98248795Y-79900390D02*
X98210700Y-79938485D01*
X98210700Y-79938485D02*
X98172604Y-80014676D01*
X98172604Y-80014676D02*
X98172604Y-80128961D01*
X98172604Y-80128961D02*
X98210700Y-80205152D01*
X98210700Y-80205152D02*
X98248795Y-80243247D01*
X98248795Y-80243247D02*
X98324985Y-80281342D01*
X98324985Y-80281342D02*
X98629747Y-80281342D01*
X97410700Y-80662295D02*
X97867843Y-80662295D01*
X97639271Y-80662295D02*
X97639271Y-79862295D01*
X97639271Y-79862295D02*
X97715462Y-79976580D01*
X97715462Y-79976580D02*
X97791652Y-80052771D01*
X97791652Y-80052771D02*
X97867843Y-80090866D01*
X98172604Y-78424260D02*
X98439271Y-78043307D01*
X98629747Y-78424260D02*
X98629747Y-77624260D01*
X98629747Y-77624260D02*
X98324985Y-77624260D01*
X98324985Y-77624260D02*
X98248795Y-77662355D01*
X98248795Y-77662355D02*
X98210700Y-77700450D01*
X98210700Y-77700450D02*
X98172604Y-77776641D01*
X98172604Y-77776641D02*
X98172604Y-77890926D01*
X98172604Y-77890926D02*
X98210700Y-77967117D01*
X98210700Y-77967117D02*
X98248795Y-78005212D01*
X98248795Y-78005212D02*
X98324985Y-78043307D01*
X98324985Y-78043307D02*
X98629747Y-78043307D01*
X97867843Y-77700450D02*
X97829747Y-77662355D01*
X97829747Y-77662355D02*
X97753557Y-77624260D01*
X97753557Y-77624260D02*
X97563081Y-77624260D01*
X97563081Y-77624260D02*
X97486890Y-77662355D01*
X97486890Y-77662355D02*
X97448795Y-77700450D01*
X97448795Y-77700450D02*
X97410700Y-77776641D01*
X97410700Y-77776641D02*
X97410700Y-77852831D01*
X97410700Y-77852831D02*
X97448795Y-77967117D01*
X97448795Y-77967117D02*
X97905938Y-78424260D01*
X97905938Y-78424260D02*
X97410700Y-78424260D01*
X93904819Y-84638095D02*
X93904819Y-85209523D01*
X94904819Y-84923809D02*
X93904819Y-84923809D01*
X94904819Y-86114285D02*
X94428628Y-85780952D01*
X94904819Y-85542857D02*
X93904819Y-85542857D01*
X93904819Y-85542857D02*
X93904819Y-85923809D01*
X93904819Y-85923809D02*
X93952438Y-86019047D01*
X93952438Y-86019047D02*
X94000057Y-86066666D01*
X94000057Y-86066666D02*
X94095295Y-86114285D01*
X94095295Y-86114285D02*
X94238152Y-86114285D01*
X94238152Y-86114285D02*
X94333390Y-86066666D01*
X94333390Y-86066666D02*
X94381009Y-86019047D01*
X94381009Y-86019047D02*
X94428628Y-85923809D01*
X94428628Y-85923809D02*
X94428628Y-85542857D01*
X94904819Y-87114285D02*
X94428628Y-86780952D01*
X94904819Y-86542857D02*
X93904819Y-86542857D01*
X93904819Y-86542857D02*
X93904819Y-86923809D01*
X93904819Y-86923809D02*
X93952438Y-87019047D01*
X93952438Y-87019047D02*
X94000057Y-87066666D01*
X94000057Y-87066666D02*
X94095295Y-87114285D01*
X94095295Y-87114285D02*
X94238152Y-87114285D01*
X94238152Y-87114285D02*
X94333390Y-87066666D01*
X94333390Y-87066666D02*
X94381009Y-87019047D01*
X94381009Y-87019047D02*
X94428628Y-86923809D01*
X94428628Y-86923809D02*
X94428628Y-86542857D01*
X94857200Y-87495238D02*
X94904819Y-87638095D01*
X94904819Y-87638095D02*
X94904819Y-87876190D01*
X94904819Y-87876190D02*
X94857200Y-87971428D01*
X94857200Y-87971428D02*
X94809580Y-88019047D01*
X94809580Y-88019047D02*
X94714342Y-88066666D01*
X94714342Y-88066666D02*
X94619104Y-88066666D01*
X94619104Y-88066666D02*
X94523866Y-88019047D01*
X94523866Y-88019047D02*
X94476247Y-87971428D01*
X94476247Y-87971428D02*
X94428628Y-87876190D01*
X94428628Y-87876190D02*
X94381009Y-87685714D01*
X94381009Y-87685714D02*
X94333390Y-87590476D01*
X94333390Y-87590476D02*
X94285771Y-87542857D01*
X94285771Y-87542857D02*
X94190533Y-87495238D01*
X94190533Y-87495238D02*
X94095295Y-87495238D01*
X94095295Y-87495238D02*
X94000057Y-87542857D01*
X94000057Y-87542857D02*
X93952438Y-87590476D01*
X93952438Y-87590476D02*
X93904819Y-87685714D01*
X93904819Y-87685714D02*
X93904819Y-87923809D01*
X93904819Y-87923809D02*
X93952438Y-88066666D01*
X104762295Y-79909524D02*
X103962295Y-79909524D01*
X103962295Y-79909524D02*
X103962295Y-80214286D01*
X103962295Y-80214286D02*
X104000390Y-80290476D01*
X104000390Y-80290476D02*
X104038485Y-80328571D01*
X104038485Y-80328571D02*
X104114676Y-80366667D01*
X104114676Y-80366667D02*
X104228961Y-80366667D01*
X104228961Y-80366667D02*
X104305152Y-80328571D01*
X104305152Y-80328571D02*
X104343247Y-80290476D01*
X104343247Y-80290476D02*
X104381342Y-80214286D01*
X104381342Y-80214286D02*
X104381342Y-79909524D01*
X104762295Y-81128571D02*
X104762295Y-80671428D01*
X104762295Y-80900000D02*
X103962295Y-80900000D01*
X103962295Y-80900000D02*
X104076580Y-80823809D01*
X104076580Y-80823809D02*
X104152771Y-80747619D01*
X104152771Y-80747619D02*
X104190866Y-80671428D01*
X104762295Y-77509524D02*
X103962295Y-77509524D01*
X103962295Y-77509524D02*
X103962295Y-77814286D01*
X103962295Y-77814286D02*
X104000390Y-77890476D01*
X104000390Y-77890476D02*
X104038485Y-77928571D01*
X104038485Y-77928571D02*
X104114676Y-77966667D01*
X104114676Y-77966667D02*
X104228961Y-77966667D01*
X104228961Y-77966667D02*
X104305152Y-77928571D01*
X104305152Y-77928571D02*
X104343247Y-77890476D01*
X104343247Y-77890476D02*
X104381342Y-77814286D01*
X104381342Y-77814286D02*
X104381342Y-77509524D01*
X104038485Y-78271428D02*
X104000390Y-78309524D01*
X104000390Y-78309524D02*
X103962295Y-78385714D01*
X103962295Y-78385714D02*
X103962295Y-78576190D01*
X103962295Y-78576190D02*
X104000390Y-78652381D01*
X104000390Y-78652381D02*
X104038485Y-78690476D01*
X104038485Y-78690476D02*
X104114676Y-78728571D01*
X104114676Y-78728571D02*
X104190866Y-78728571D01*
X104190866Y-78728571D02*
X104305152Y-78690476D01*
X104305152Y-78690476D02*
X104762295Y-78233333D01*
X104762295Y-78233333D02*
X104762295Y-78728571D01*
X90362295Y-76338095D02*
X89981342Y-76071428D01*
X90362295Y-75880952D02*
X89562295Y-75880952D01*
X89562295Y-75880952D02*
X89562295Y-76185714D01*
X89562295Y-76185714D02*
X89600390Y-76261904D01*
X89600390Y-76261904D02*
X89638485Y-76299999D01*
X89638485Y-76299999D02*
X89714676Y-76338095D01*
X89714676Y-76338095D02*
X89828961Y-76338095D01*
X89828961Y-76338095D02*
X89905152Y-76299999D01*
X89905152Y-76299999D02*
X89943247Y-76261904D01*
X89943247Y-76261904D02*
X89981342Y-76185714D01*
X89981342Y-76185714D02*
X89981342Y-75880952D01*
X89943247Y-76680952D02*
X89943247Y-76947618D01*
X90362295Y-77061904D02*
X90362295Y-76680952D01*
X90362295Y-76680952D02*
X89562295Y-76680952D01*
X89562295Y-76680952D02*
X89562295Y-77061904D01*
X90324200Y-77366666D02*
X90362295Y-77480952D01*
X90362295Y-77480952D02*
X90362295Y-77671428D01*
X90362295Y-77671428D02*
X90324200Y-77747619D01*
X90324200Y-77747619D02*
X90286104Y-77785714D01*
X90286104Y-77785714D02*
X90209914Y-77823809D01*
X90209914Y-77823809D02*
X90133723Y-77823809D01*
X90133723Y-77823809D02*
X90057533Y-77785714D01*
X90057533Y-77785714D02*
X90019438Y-77747619D01*
X90019438Y-77747619D02*
X89981342Y-77671428D01*
X89981342Y-77671428D02*
X89943247Y-77519047D01*
X89943247Y-77519047D02*
X89905152Y-77442857D01*
X89905152Y-77442857D02*
X89867057Y-77404762D01*
X89867057Y-77404762D02*
X89790866Y-77366666D01*
X89790866Y-77366666D02*
X89714676Y-77366666D01*
X89714676Y-77366666D02*
X89638485Y-77404762D01*
X89638485Y-77404762D02*
X89600390Y-77442857D01*
X89600390Y-77442857D02*
X89562295Y-77519047D01*
X89562295Y-77519047D02*
X89562295Y-77709524D01*
X89562295Y-77709524D02*
X89600390Y-77823809D01*
X89943247Y-78166667D02*
X89943247Y-78433333D01*
X90362295Y-78547619D02*
X90362295Y-78166667D01*
X90362295Y-78166667D02*
X89562295Y-78166667D01*
X89562295Y-78166667D02*
X89562295Y-78547619D01*
X89562295Y-78776191D02*
X89562295Y-79233334D01*
X90362295Y-79004762D02*
X89562295Y-79004762D01*
D11*
X163150000Y-42651000D02*
X163150000Y-41000000D01*
X162650000Y-37951000D02*
X154850000Y-37951000D01*
D10*
X161050000Y-49575000D02*
X161050000Y-52225000D01*
X160900000Y-52650000D02*
X160900000Y-49100000D01*
X160800000Y-52800000D02*
X160800000Y-49050000D01*
X160700000Y-52900000D02*
X160700000Y-48950000D01*
X160600000Y-53000000D02*
X160600000Y-48800000D01*
X160450000Y-53100000D02*
X160450000Y-48700000D01*
X160300000Y-53150000D02*
X160300000Y-48650000D01*
X160150000Y-53200000D02*
X160150000Y-48650000D01*
X160050000Y-53225000D02*
X157450000Y-53225000D01*
X160050000Y-48575000D02*
X157475000Y-48575000D01*
X160000000Y-53200000D02*
X160000000Y-48600000D01*
X159850000Y-53200000D02*
X159850000Y-48600000D01*
X159700000Y-53200000D02*
X159700000Y-48600000D01*
X159550000Y-53200000D02*
X159550000Y-48600000D01*
X159400000Y-53200000D02*
X159400000Y-48600000D01*
X159250000Y-53200000D02*
X159250000Y-48600000D01*
X159100000Y-53200000D02*
X159100000Y-48600000D01*
X158950000Y-53200000D02*
X158950000Y-48600000D01*
X158800000Y-53200000D02*
X158800000Y-48600000D01*
X158650000Y-53200000D02*
X158650000Y-48600000D01*
X158500000Y-53200000D02*
X158500000Y-48600000D01*
X158350000Y-53200000D02*
X158350000Y-48600000D01*
X158200000Y-53200000D02*
X158200000Y-48600000D01*
X158050000Y-53200000D02*
X158050000Y-48600000D01*
X157900000Y-53200000D02*
X157900000Y-48600000D01*
X157750000Y-53200000D02*
X157750000Y-48600000D01*
X157600000Y-53200000D02*
X157600000Y-48650000D01*
X157450000Y-53200000D02*
X157450000Y-48600000D01*
X157300000Y-53200000D02*
X157300000Y-48600000D01*
X157150000Y-53150000D02*
X157150000Y-48600000D01*
X157000000Y-53050000D02*
X157000000Y-48500000D01*
X156850000Y-52950000D02*
X156850000Y-48450000D01*
X156750000Y-52800000D02*
X156750000Y-48400000D01*
X156650000Y-52550000D02*
X156650000Y-48350000D01*
X156550000Y-52400000D02*
X156550000Y-48250000D01*
X156450000Y-52200000D02*
X156450000Y-48050000D01*
X156350000Y-52050000D02*
X156350000Y-47900000D01*
X156250000Y-51850000D02*
X156250000Y-47400000D01*
X156100000Y-51700000D02*
X156100000Y-47250000D01*
X155950000Y-51550000D02*
X155950000Y-47150000D01*
X155800000Y-51450000D02*
X155800000Y-47050000D01*
X155650000Y-51350000D02*
X155650000Y-46900000D01*
X155500000Y-51250000D02*
X155500000Y-46800000D01*
X155350000Y-51200000D02*
X155350000Y-46650000D01*
X155200000Y-51100000D02*
X155200000Y-46550000D01*
X155050000Y-51050000D02*
X155050000Y-46450000D01*
X155025000Y-46375000D02*
X156300000Y-47400000D01*
X155025000Y-46375000D02*
X152475000Y-46375000D01*
X154900000Y-51050000D02*
X154900000Y-46400000D01*
D11*
X154850000Y-42651000D02*
X163150000Y-42651000D01*
D10*
X154750000Y-51050000D02*
X154750000Y-46400000D01*
X154600000Y-51000000D02*
X154600000Y-46450000D01*
X154450000Y-51025000D02*
X152475000Y-51025000D01*
X154450000Y-51000000D02*
X154450000Y-46400000D01*
X154300000Y-51000000D02*
X154300000Y-46400000D01*
X154150000Y-51000000D02*
X154150000Y-46400000D01*
X154000000Y-51000000D02*
X154000000Y-46400000D01*
X153850000Y-51000000D02*
X153850000Y-46400000D01*
X153700000Y-51000000D02*
X153700000Y-46400000D01*
X153550000Y-51000000D02*
X153550000Y-46400000D01*
X153400000Y-51000000D02*
X153400000Y-46400000D01*
X153250000Y-51000000D02*
X153250000Y-46400000D01*
X153100000Y-51000000D02*
X153100000Y-46400000D01*
X152950000Y-51000000D02*
X152950000Y-46400000D01*
X152800000Y-51000000D02*
X152800000Y-46400000D01*
X152650000Y-51000000D02*
X152650000Y-46400000D01*
X152500000Y-51000000D02*
X152500000Y-46400000D01*
X152350000Y-50850000D02*
X152350000Y-46500000D01*
X152200000Y-50750000D02*
X152200000Y-46650000D01*
X152050000Y-50600000D02*
X152050000Y-46800000D01*
X151900000Y-50450000D02*
X151900000Y-46950000D01*
X151750000Y-50250000D02*
X151750000Y-47100000D01*
X151600000Y-50150000D02*
X151600000Y-47250000D01*
X151450000Y-50000000D02*
X152475000Y-51025000D01*
X151450000Y-47400000D02*
X152475000Y-46375000D01*
X151450000Y-47400000D02*
X151450000Y-50000000D01*
X160050000Y-53225000D02*
G75*
G03*
X161050000Y-52225000I1J999999D01*
G01*
X161050000Y-49575000D02*
G75*
G03*
X160050000Y-48575000I-999999J1D01*
G01*
X156300000Y-47400000D02*
G75*
G03*
X157475000Y-48575000I1175000J0D01*
G01*
X156587798Y-52521905D02*
G75*
G03*
X157449005Y-53223790I900002J225005D01*
G01*
X156587801Y-52521904D02*
G75*
G03*
X154450000Y-51025000I-2137801J-778096D01*
G01*
D12*
X163150000Y-42651000D02*
X162142000Y-42651000D01*
X163150000Y-41635000D01*
X163150000Y-42651000D01*
G36*
X163150000Y-42651000D02*
G01*
X162142000Y-42651000D01*
X163150000Y-41635000D01*
X163150000Y-42651000D01*
G37*
D10*
X96539272Y-79311965D02*
X99539272Y-79311965D01*
X96539272Y-81311965D02*
X96539272Y-79311965D01*
X99539272Y-79311965D02*
X99539272Y-81311965D01*
X99539272Y-81311965D02*
X96539272Y-81311965D01*
X96539272Y-77061965D02*
X99539272Y-77061965D01*
X96539272Y-79061965D02*
X96539272Y-77061965D01*
X99539272Y-77061965D02*
X99539272Y-79061965D01*
X99539272Y-79061965D02*
X96539272Y-79061965D01*
X88000000Y-90400000D02*
X88000000Y-84400000D01*
X100000000Y-90400000D02*
X88000000Y-90400000D01*
X88000000Y-84400000D02*
X100000000Y-84400000D01*
X100000000Y-84400000D02*
X100000000Y-90400000D01*
X103700000Y-79300000D02*
X103700000Y-81300000D01*
X101700000Y-79300000D02*
X103700000Y-79300000D01*
X103700000Y-81300000D02*
X101700000Y-81300000D01*
X101700000Y-81300000D02*
X101700000Y-79300000D01*
X103700000Y-77100000D02*
X103700000Y-79100000D01*
X101700000Y-77100000D02*
X103700000Y-77100000D01*
X103700000Y-79100000D02*
X101700000Y-79100000D01*
X101700000Y-79100000D02*
X101700000Y-77100000D01*
X90910000Y-37420000D02*
X108690000Y-37420000D01*
X90910000Y-39960000D02*
X93450000Y-39960000D01*
X90910000Y-70440000D02*
X90910000Y-37420000D01*
X90910000Y-70440000D02*
X90910000Y-39960000D01*
X93450000Y-39960000D02*
X93450000Y-70440000D01*
X93450000Y-70440000D02*
X90910000Y-70440000D01*
X106150000Y-39960000D02*
X108690000Y-39960000D01*
X106150000Y-70440000D02*
X106150000Y-39960000D01*
X108690000Y-37420000D02*
X108690000Y-70440000D01*
X108690000Y-39960000D02*
X108690000Y-70440000D01*
X108690000Y-70440000D02*
X106150000Y-70440000D01*
X91800000Y-74500000D02*
X91100000Y-74500000D01*
X91800000Y-74500000D02*
X91800000Y-80400000D01*
X91800000Y-74500000D02*
X91800000Y-80500000D01*
X88300000Y-74500000D02*
X88900000Y-74500000D01*
X91800000Y-80500000D02*
X91100000Y-80500000D01*
X88300000Y-80500000D02*
X88300000Y-74500000D01*
X88300000Y-80500000D02*
X88900000Y-80500000D01*
X95430000Y-73330000D02*
X105590000Y-73330000D01*
X95430000Y-75870000D02*
X95430000Y-73330000D01*
X105590000Y-73330000D02*
X105590000Y-75870000D01*
X105590000Y-75870000D02*
X95430000Y-75870000D01*
D11*
X102915822Y-105312306D02*
G75*
G03*
X102915822Y-105312306I-3000000J0D01*
G01*
X106015822Y-111212306D02*
X101915822Y-111212306D01*
X106015822Y-108812306D02*
X106015822Y-111212306D01*
X106015822Y-104012306D02*
X106015822Y-106612306D01*
X106015822Y-99412306D02*
X106015822Y-101812306D01*
X101915822Y-99412306D02*
X106015822Y-99412306D01*
X99915822Y-104812306D02*
X99915822Y-105812306D01*
X99415822Y-105312306D02*
X100415822Y-105312306D01*
X97915822Y-111212306D02*
X93815822Y-111212306D01*
X97915822Y-99412306D02*
X93815822Y-99412306D01*
X93815822Y-99412306D02*
X93815822Y-111212306D01*
X220300000Y-90201000D02*
X220300000Y-88550000D01*
X219800000Y-85501000D02*
X212000000Y-85501000D01*
D10*
X218200000Y-97125000D02*
X218200000Y-99775000D01*
X218050000Y-100200000D02*
X218050000Y-96650000D01*
X217950000Y-100350000D02*
X217950000Y-96600000D01*
X217850000Y-100450000D02*
X217850000Y-96500000D01*
X217750000Y-100550000D02*
X217750000Y-96350000D01*
X217600000Y-100650000D02*
X217600000Y-96250000D01*
X217450000Y-100700000D02*
X217450000Y-96200000D01*
X217300000Y-100750000D02*
X217300000Y-96200000D01*
X217200000Y-100775000D02*
X214600000Y-100775000D01*
X217200000Y-96125000D02*
X214625000Y-96125000D01*
X217150000Y-100750000D02*
X217150000Y-96150000D01*
X217000000Y-100750000D02*
X217000000Y-96150000D01*
X216850000Y-100750000D02*
X216850000Y-96150000D01*
X216700000Y-100750000D02*
X216700000Y-96150000D01*
X216550000Y-100750000D02*
X216550000Y-96150000D01*
X216400000Y-100750000D02*
X216400000Y-96150000D01*
X216250000Y-100750000D02*
X216250000Y-96150000D01*
X216100000Y-100750000D02*
X216100000Y-96150000D01*
X215950000Y-100750000D02*
X215950000Y-96150000D01*
X215800000Y-100750000D02*
X215800000Y-96150000D01*
X215650000Y-100750000D02*
X215650000Y-96150000D01*
X215500000Y-100750000D02*
X215500000Y-96150000D01*
X215350000Y-100750000D02*
X215350000Y-96150000D01*
X215200000Y-100750000D02*
X215200000Y-96150000D01*
X215050000Y-100750000D02*
X215050000Y-96150000D01*
X214900000Y-100750000D02*
X214900000Y-96150000D01*
X214750000Y-100750000D02*
X214750000Y-96200000D01*
X214600000Y-100750000D02*
X214600000Y-96150000D01*
X214450000Y-100750000D02*
X214450000Y-96150000D01*
X214300000Y-100700000D02*
X214300000Y-96150000D01*
X214150000Y-100600000D02*
X214150000Y-96050000D01*
X214000000Y-100500000D02*
X214000000Y-96000000D01*
X213900000Y-100350000D02*
X213900000Y-95950000D01*
X213800000Y-100100000D02*
X213800000Y-95900000D01*
X213700000Y-99950000D02*
X213700000Y-95800000D01*
X213600000Y-99750000D02*
X213600000Y-95600000D01*
X213500000Y-99600000D02*
X213500000Y-95450000D01*
X213400000Y-99400000D02*
X213400000Y-94950000D01*
X213250000Y-99250000D02*
X213250000Y-94800000D01*
X213100000Y-99100000D02*
X213100000Y-94700000D01*
X212950000Y-99000000D02*
X212950000Y-94600000D01*
X212800000Y-98900000D02*
X212800000Y-94450000D01*
X212650000Y-98800000D02*
X212650000Y-94350000D01*
X212500000Y-98750000D02*
X212500000Y-94200000D01*
X212350000Y-98650000D02*
X212350000Y-94100000D01*
X212200000Y-98600000D02*
X212200000Y-94000000D01*
X212175000Y-93925000D02*
X213450000Y-94950000D01*
X212175000Y-93925000D02*
X209625000Y-93925000D01*
X212050000Y-98600000D02*
X212050000Y-93950000D01*
D11*
X212000000Y-90201000D02*
X220300000Y-90201000D01*
D10*
X211900000Y-98600000D02*
X211900000Y-93950000D01*
X211750000Y-98550000D02*
X211750000Y-94000000D01*
X211600000Y-98575000D02*
X209625000Y-98575000D01*
X211600000Y-98550000D02*
X211600000Y-93950000D01*
X211450000Y-98550000D02*
X211450000Y-93950000D01*
X211300000Y-98550000D02*
X211300000Y-93950000D01*
X211150000Y-98550000D02*
X211150000Y-93950000D01*
X211000000Y-98550000D02*
X211000000Y-93950000D01*
X210850000Y-98550000D02*
X210850000Y-93950000D01*
X210700000Y-98550000D02*
X210700000Y-93950000D01*
X210550000Y-98550000D02*
X210550000Y-93950000D01*
X210400000Y-98550000D02*
X210400000Y-93950000D01*
X210250000Y-98550000D02*
X210250000Y-93950000D01*
X210100000Y-98550000D02*
X210100000Y-93950000D01*
X209950000Y-98550000D02*
X209950000Y-93950000D01*
X209800000Y-98550000D02*
X209800000Y-93950000D01*
X209650000Y-98550000D02*
X209650000Y-93950000D01*
X209500000Y-98400000D02*
X209500000Y-94050000D01*
X209350000Y-98300000D02*
X209350000Y-94200000D01*
X209200000Y-98150000D02*
X209200000Y-94350000D01*
X209050000Y-98000000D02*
X209050000Y-94500000D01*
X208900000Y-97800000D02*
X208900000Y-94650000D01*
X208750000Y-97700000D02*
X208750000Y-94800000D01*
X208600000Y-97550000D02*
X209625000Y-98575000D01*
X208600000Y-94950000D02*
X209625000Y-93925000D01*
X208600000Y-94950000D02*
X208600000Y-97550000D01*
X217200000Y-100775000D02*
G75*
G03*
X218200000Y-99775000I1J999999D01*
G01*
X218200000Y-97125000D02*
G75*
G03*
X217200000Y-96125000I-999999J1D01*
G01*
X213450000Y-94950000D02*
G75*
G03*
X214625000Y-96125000I1175000J0D01*
G01*
X213737798Y-100071905D02*
G75*
G03*
X214599005Y-100773790I900002J225005D01*
G01*
X213737801Y-100071904D02*
G75*
G03*
X211600000Y-98575000I-2137801J-778096D01*
G01*
D12*
X220300000Y-90201000D02*
X219292000Y-90201000D01*
X220300000Y-89185000D01*
X220300000Y-90201000D01*
G36*
X220300000Y-90201000D02*
G01*
X219292000Y-90201000D01*
X220300000Y-89185000D01*
X220300000Y-90201000D01*
G37*
D11*
X220300000Y-52101000D02*
X220300000Y-50450000D01*
X219800000Y-47401000D02*
X212000000Y-47401000D01*
D10*
X218200000Y-59025000D02*
X218200000Y-61675000D01*
X218050000Y-62100000D02*
X218050000Y-58550000D01*
X217950000Y-62250000D02*
X217950000Y-58500000D01*
X217850000Y-62350000D02*
X217850000Y-58400000D01*
X217750000Y-62450000D02*
X217750000Y-58250000D01*
X217600000Y-62550000D02*
X217600000Y-58150000D01*
X217450000Y-62600000D02*
X217450000Y-58100000D01*
X217300000Y-62650000D02*
X217300000Y-58100000D01*
X217200000Y-62675000D02*
X214600000Y-62675000D01*
X217200000Y-58025000D02*
X214625000Y-58025000D01*
X217150000Y-62650000D02*
X217150000Y-58050000D01*
X217000000Y-62650000D02*
X217000000Y-58050000D01*
X216850000Y-62650000D02*
X216850000Y-58050000D01*
X216700000Y-62650000D02*
X216700000Y-58050000D01*
X216550000Y-62650000D02*
X216550000Y-58050000D01*
X216400000Y-62650000D02*
X216400000Y-58050000D01*
X216250000Y-62650000D02*
X216250000Y-58050000D01*
X216100000Y-62650000D02*
X216100000Y-58050000D01*
X215950000Y-62650000D02*
X215950000Y-58050000D01*
X215800000Y-62650000D02*
X215800000Y-58050000D01*
X215650000Y-62650000D02*
X215650000Y-58050000D01*
X215500000Y-62650000D02*
X215500000Y-58050000D01*
X215350000Y-62650000D02*
X215350000Y-58050000D01*
X215200000Y-62650000D02*
X215200000Y-58050000D01*
X215050000Y-62650000D02*
X215050000Y-58050000D01*
X214900000Y-62650000D02*
X214900000Y-58050000D01*
X214750000Y-62650000D02*
X214750000Y-58100000D01*
X214600000Y-62650000D02*
X214600000Y-58050000D01*
X214450000Y-62650000D02*
X214450000Y-58050000D01*
X214300000Y-62600000D02*
X214300000Y-58050000D01*
X214150000Y-62500000D02*
X214150000Y-57950000D01*
X214000000Y-62400000D02*
X214000000Y-57900000D01*
X213900000Y-62250000D02*
X213900000Y-57850000D01*
X213800000Y-62000000D02*
X213800000Y-57800000D01*
X213700000Y-61850000D02*
X213700000Y-57700000D01*
X213600000Y-61650000D02*
X213600000Y-57500000D01*
X213500000Y-61500000D02*
X213500000Y-57350000D01*
X213400000Y-61300000D02*
X213400000Y-56850000D01*
X213250000Y-61150000D02*
X213250000Y-56700000D01*
X213100000Y-61000000D02*
X213100000Y-56600000D01*
X212950000Y-60900000D02*
X212950000Y-56500000D01*
X212800000Y-60800000D02*
X212800000Y-56350000D01*
X212650000Y-60700000D02*
X212650000Y-56250000D01*
X212500000Y-60650000D02*
X212500000Y-56100000D01*
X212350000Y-60550000D02*
X212350000Y-56000000D01*
X212200000Y-60500000D02*
X212200000Y-55900000D01*
X212175000Y-55825000D02*
X213450000Y-56850000D01*
X212175000Y-55825000D02*
X209625000Y-55825000D01*
X212050000Y-60500000D02*
X212050000Y-55850000D01*
D11*
X212000000Y-52101000D02*
X220300000Y-52101000D01*
D10*
X211900000Y-60500000D02*
X211900000Y-55850000D01*
X211750000Y-60450000D02*
X211750000Y-55900000D01*
X211600000Y-60475000D02*
X209625000Y-60475000D01*
X211600000Y-60450000D02*
X211600000Y-55850000D01*
X211450000Y-60450000D02*
X211450000Y-55850000D01*
X211300000Y-60450000D02*
X211300000Y-55850000D01*
X211150000Y-60450000D02*
X211150000Y-55850000D01*
X211000000Y-60450000D02*
X211000000Y-55850000D01*
X210850000Y-60450000D02*
X210850000Y-55850000D01*
X210700000Y-60450000D02*
X210700000Y-55850000D01*
X210550000Y-60450000D02*
X210550000Y-55850000D01*
X210400000Y-60450000D02*
X210400000Y-55850000D01*
X210250000Y-60450000D02*
X210250000Y-55850000D01*
X210100000Y-60450000D02*
X210100000Y-55850000D01*
X209950000Y-60450000D02*
X209950000Y-55850000D01*
X209800000Y-60450000D02*
X209800000Y-55850000D01*
X209650000Y-60450000D02*
X209650000Y-55850000D01*
X209500000Y-60300000D02*
X209500000Y-55950000D01*
X209350000Y-60200000D02*
X209350000Y-56100000D01*
X209200000Y-60050000D02*
X209200000Y-56250000D01*
X209050000Y-59900000D02*
X209050000Y-56400000D01*
X208900000Y-59700000D02*
X208900000Y-56550000D01*
X208750000Y-59600000D02*
X208750000Y-56700000D01*
X208600000Y-59450000D02*
X209625000Y-60475000D01*
X208600000Y-56850000D02*
X209625000Y-55825000D01*
X208600000Y-56850000D02*
X208600000Y-59450000D01*
X217200000Y-62675000D02*
G75*
G03*
X218200000Y-61675000I1J999999D01*
G01*
X218200000Y-59025000D02*
G75*
G03*
X217200000Y-58025000I-999999J1D01*
G01*
X213450000Y-56850000D02*
G75*
G03*
X214625000Y-58025000I1175000J0D01*
G01*
X213737798Y-61971905D02*
G75*
G03*
X214599005Y-62673790I900002J225005D01*
G01*
X213737801Y-61971904D02*
G75*
G03*
X211600000Y-60475000I-2137801J-778096D01*
G01*
D12*
X220300000Y-52101000D02*
X219292000Y-52101000D01*
X220300000Y-51085000D01*
X220300000Y-52101000D01*
G36*
X220300000Y-52101000D02*
G01*
X219292000Y-52101000D01*
X220300000Y-51085000D01*
X220300000Y-52101000D01*
G37*
D11*
X144100000Y-83201000D02*
X144100000Y-81550000D01*
X143600000Y-78501000D02*
X135800000Y-78501000D01*
D10*
X142000000Y-90125000D02*
X142000000Y-92775000D01*
X141850000Y-93200000D02*
X141850000Y-89650000D01*
X141750000Y-93350000D02*
X141750000Y-89600000D01*
X141650000Y-93450000D02*
X141650000Y-89500000D01*
X141550000Y-93550000D02*
X141550000Y-89350000D01*
X141400000Y-93650000D02*
X141400000Y-89250000D01*
X141250000Y-93700000D02*
X141250000Y-89200000D01*
X141100000Y-93750000D02*
X141100000Y-89200000D01*
X141000000Y-93775000D02*
X138400000Y-93775000D01*
X141000000Y-89125000D02*
X138425000Y-89125000D01*
X140950000Y-93750000D02*
X140950000Y-89150000D01*
X140800000Y-93750000D02*
X140800000Y-89150000D01*
X140650000Y-93750000D02*
X140650000Y-89150000D01*
X140500000Y-93750000D02*
X140500000Y-89150000D01*
X140350000Y-93750000D02*
X140350000Y-89150000D01*
X140200000Y-93750000D02*
X140200000Y-89150000D01*
X140050000Y-93750000D02*
X140050000Y-89150000D01*
X139900000Y-93750000D02*
X139900000Y-89150000D01*
X139750000Y-93750000D02*
X139750000Y-89150000D01*
X139600000Y-93750000D02*
X139600000Y-89150000D01*
X139450000Y-93750000D02*
X139450000Y-89150000D01*
X139300000Y-93750000D02*
X139300000Y-89150000D01*
X139150000Y-93750000D02*
X139150000Y-89150000D01*
X139000000Y-93750000D02*
X139000000Y-89150000D01*
X138850000Y-93750000D02*
X138850000Y-89150000D01*
X138700000Y-93750000D02*
X138700000Y-89150000D01*
X138550000Y-93750000D02*
X138550000Y-89200000D01*
X138400000Y-93750000D02*
X138400000Y-89150000D01*
X138250000Y-93750000D02*
X138250000Y-89150000D01*
X138100000Y-93700000D02*
X138100000Y-89150000D01*
X137950000Y-93600000D02*
X137950000Y-89050000D01*
X137800000Y-93500000D02*
X137800000Y-89000000D01*
X137700000Y-93350000D02*
X137700000Y-88950000D01*
X137600000Y-93100000D02*
X137600000Y-88900000D01*
X137500000Y-92950000D02*
X137500000Y-88800000D01*
X137400000Y-92750000D02*
X137400000Y-88600000D01*
X137300000Y-92600000D02*
X137300000Y-88450000D01*
X137200000Y-92400000D02*
X137200000Y-87950000D01*
X137050000Y-92250000D02*
X137050000Y-87800000D01*
X136900000Y-92100000D02*
X136900000Y-87700000D01*
X136750000Y-92000000D02*
X136750000Y-87600000D01*
X136600000Y-91900000D02*
X136600000Y-87450000D01*
X136450000Y-91800000D02*
X136450000Y-87350000D01*
X136300000Y-91750000D02*
X136300000Y-87200000D01*
X136150000Y-91650000D02*
X136150000Y-87100000D01*
X136000000Y-91600000D02*
X136000000Y-87000000D01*
X135975000Y-86925000D02*
X137250000Y-87950000D01*
X135975000Y-86925000D02*
X133425000Y-86925000D01*
X135850000Y-91600000D02*
X135850000Y-86950000D01*
D11*
X135800000Y-83201000D02*
X144100000Y-83201000D01*
D10*
X135700000Y-91600000D02*
X135700000Y-86950000D01*
X135550000Y-91550000D02*
X135550000Y-87000000D01*
X135400000Y-91575000D02*
X133425000Y-91575000D01*
X135400000Y-91550000D02*
X135400000Y-86950000D01*
X135250000Y-91550000D02*
X135250000Y-86950000D01*
X135100000Y-91550000D02*
X135100000Y-86950000D01*
X134950000Y-91550000D02*
X134950000Y-86950000D01*
X134800000Y-91550000D02*
X134800000Y-86950000D01*
X134650000Y-91550000D02*
X134650000Y-86950000D01*
X134500000Y-91550000D02*
X134500000Y-86950000D01*
X134350000Y-91550000D02*
X134350000Y-86950000D01*
X134200000Y-91550000D02*
X134200000Y-86950000D01*
X134050000Y-91550000D02*
X134050000Y-86950000D01*
X133900000Y-91550000D02*
X133900000Y-86950000D01*
X133750000Y-91550000D02*
X133750000Y-86950000D01*
X133600000Y-91550000D02*
X133600000Y-86950000D01*
X133450000Y-91550000D02*
X133450000Y-86950000D01*
X133300000Y-91400000D02*
X133300000Y-87050000D01*
X133150000Y-91300000D02*
X133150000Y-87200000D01*
X133000000Y-91150000D02*
X133000000Y-87350000D01*
X132850000Y-91000000D02*
X132850000Y-87500000D01*
X132700000Y-90800000D02*
X132700000Y-87650000D01*
X132550000Y-90700000D02*
X132550000Y-87800000D01*
X132400000Y-90550000D02*
X133425000Y-91575000D01*
X132400000Y-87950000D02*
X133425000Y-86925000D01*
X132400000Y-87950000D02*
X132400000Y-90550000D01*
X141000000Y-93775000D02*
G75*
G03*
X142000000Y-92775000I1J999999D01*
G01*
X142000000Y-90125000D02*
G75*
G03*
X141000000Y-89125000I-999999J1D01*
G01*
X137250000Y-87950000D02*
G75*
G03*
X138425000Y-89125000I1175000J0D01*
G01*
X137537798Y-93071905D02*
G75*
G03*
X138399005Y-93773790I900002J225005D01*
G01*
X137537801Y-93071904D02*
G75*
G03*
X135400000Y-91575000I-2137801J-778096D01*
G01*
D12*
X144100000Y-83201000D02*
X143092000Y-83201000D01*
X144100000Y-82185000D01*
X144100000Y-83201000D01*
G36*
X144100000Y-83201000D02*
G01*
X143092000Y-83201000D01*
X144100000Y-82185000D01*
X144100000Y-83201000D01*
G37*
D11*
X201250000Y-109251000D02*
X201250000Y-107600000D01*
X200750000Y-104551000D02*
X192950000Y-104551000D01*
D10*
X199150000Y-116175000D02*
X199150000Y-118825000D01*
X199000000Y-119250000D02*
X199000000Y-115700000D01*
X198900000Y-119400000D02*
X198900000Y-115650000D01*
X198800000Y-119500000D02*
X198800000Y-115550000D01*
X198700000Y-119600000D02*
X198700000Y-115400000D01*
X198550000Y-119700000D02*
X198550000Y-115300000D01*
X198400000Y-119750000D02*
X198400000Y-115250000D01*
X198250000Y-119800000D02*
X198250000Y-115250000D01*
X198150000Y-119825000D02*
X195550000Y-119825000D01*
X198150000Y-115175000D02*
X195575000Y-115175000D01*
X198100000Y-119800000D02*
X198100000Y-115200000D01*
X197950000Y-119800000D02*
X197950000Y-115200000D01*
X197800000Y-119800000D02*
X197800000Y-115200000D01*
X197650000Y-119800000D02*
X197650000Y-115200000D01*
X197500000Y-119800000D02*
X197500000Y-115200000D01*
X197350000Y-119800000D02*
X197350000Y-115200000D01*
X197200000Y-119800000D02*
X197200000Y-115200000D01*
X197050000Y-119800000D02*
X197050000Y-115200000D01*
X196900000Y-119800000D02*
X196900000Y-115200000D01*
X196750000Y-119800000D02*
X196750000Y-115200000D01*
X196600000Y-119800000D02*
X196600000Y-115200000D01*
X196450000Y-119800000D02*
X196450000Y-115200000D01*
X196300000Y-119800000D02*
X196300000Y-115200000D01*
X196150000Y-119800000D02*
X196150000Y-115200000D01*
X196000000Y-119800000D02*
X196000000Y-115200000D01*
X195850000Y-119800000D02*
X195850000Y-115200000D01*
X195700000Y-119800000D02*
X195700000Y-115250000D01*
X195550000Y-119800000D02*
X195550000Y-115200000D01*
X195400000Y-119800000D02*
X195400000Y-115200000D01*
X195250000Y-119750000D02*
X195250000Y-115200000D01*
X195100000Y-119650000D02*
X195100000Y-115100000D01*
X194950000Y-119550000D02*
X194950000Y-115050000D01*
X194850000Y-119400000D02*
X194850000Y-115000000D01*
X194750000Y-119150000D02*
X194750000Y-114950000D01*
X194650000Y-119000000D02*
X194650000Y-114850000D01*
X194550000Y-118800000D02*
X194550000Y-114650000D01*
X194450000Y-118650000D02*
X194450000Y-114500000D01*
X194350000Y-118450000D02*
X194350000Y-114000000D01*
X194200000Y-118300000D02*
X194200000Y-113850000D01*
X194050000Y-118150000D02*
X194050000Y-113750000D01*
X193900000Y-118050000D02*
X193900000Y-113650000D01*
X193750000Y-117950000D02*
X193750000Y-113500000D01*
X193600000Y-117850000D02*
X193600000Y-113400000D01*
X193450000Y-117800000D02*
X193450000Y-113250000D01*
X193300000Y-117700000D02*
X193300000Y-113150000D01*
X193150000Y-117650000D02*
X193150000Y-113050000D01*
X193125000Y-112975000D02*
X194400000Y-114000000D01*
X193125000Y-112975000D02*
X190575000Y-112975000D01*
X193000000Y-117650000D02*
X193000000Y-113000000D01*
D11*
X192950000Y-109251000D02*
X201250000Y-109251000D01*
D10*
X192850000Y-117650000D02*
X192850000Y-113000000D01*
X192700000Y-117600000D02*
X192700000Y-113050000D01*
X192550000Y-117625000D02*
X190575000Y-117625000D01*
X192550000Y-117600000D02*
X192550000Y-113000000D01*
X192400000Y-117600000D02*
X192400000Y-113000000D01*
X192250000Y-117600000D02*
X192250000Y-113000000D01*
X192100000Y-117600000D02*
X192100000Y-113000000D01*
X191950000Y-117600000D02*
X191950000Y-113000000D01*
X191800000Y-117600000D02*
X191800000Y-113000000D01*
X191650000Y-117600000D02*
X191650000Y-113000000D01*
X191500000Y-117600000D02*
X191500000Y-113000000D01*
X191350000Y-117600000D02*
X191350000Y-113000000D01*
X191200000Y-117600000D02*
X191200000Y-113000000D01*
X191050000Y-117600000D02*
X191050000Y-113000000D01*
X190900000Y-117600000D02*
X190900000Y-113000000D01*
X190750000Y-117600000D02*
X190750000Y-113000000D01*
X190600000Y-117600000D02*
X190600000Y-113000000D01*
X190450000Y-117450000D02*
X190450000Y-113100000D01*
X190300000Y-117350000D02*
X190300000Y-113250000D01*
X190150000Y-117200000D02*
X190150000Y-113400000D01*
X190000000Y-117050000D02*
X190000000Y-113550000D01*
X189850000Y-116850000D02*
X189850000Y-113700000D01*
X189700000Y-116750000D02*
X189700000Y-113850000D01*
X189550000Y-116600000D02*
X190575000Y-117625000D01*
X189550000Y-114000000D02*
X190575000Y-112975000D01*
X189550000Y-114000000D02*
X189550000Y-116600000D01*
X198150000Y-119825000D02*
G75*
G03*
X199150000Y-118825000I1J999999D01*
G01*
X199150000Y-116175000D02*
G75*
G03*
X198150000Y-115175000I-999999J1D01*
G01*
X194400000Y-114000000D02*
G75*
G03*
X195575000Y-115175000I1175000J0D01*
G01*
X194687798Y-119121905D02*
G75*
G03*
X195549005Y-119823790I900002J225005D01*
G01*
X194687801Y-119121904D02*
G75*
G03*
X192550000Y-117625000I-2137801J-778096D01*
G01*
D12*
X201250000Y-109251000D02*
X200242000Y-109251000D01*
X201250000Y-108235000D01*
X201250000Y-109251000D01*
G36*
X201250000Y-109251000D02*
G01*
X200242000Y-109251000D01*
X201250000Y-108235000D01*
X201250000Y-109251000D01*
G37*
D11*
X80461141Y-138506156D02*
X79635641Y-137076348D01*
X77678128Y-134685837D02*
X70923130Y-138585837D01*
D10*
X82104487Y-145552516D02*
X83429487Y-147847484D01*
X83512084Y-148290544D02*
X81737084Y-145216154D01*
X83500481Y-148470448D02*
X81625481Y-145222853D01*
X83463879Y-148607051D02*
X81488879Y-145186250D01*
X83427276Y-148743653D02*
X81327276Y-145106347D01*
X83347372Y-148905256D02*
X81147372Y-145094744D01*
X83242468Y-149023557D02*
X80992468Y-145126443D01*
X83137565Y-149141858D02*
X80862565Y-145201443D01*
X83063462Y-149213509D02*
X80811796Y-150513509D01*
X80738462Y-145186491D02*
X78508447Y-146473991D01*
X83007661Y-149216858D02*
X80707661Y-145233141D01*
X82877757Y-149291858D02*
X80577757Y-145308141D01*
X82747853Y-149366858D02*
X80447853Y-145383141D01*
X82617949Y-149441858D02*
X80317949Y-145458141D01*
X82488046Y-149516858D02*
X80188046Y-145533141D01*
X82358142Y-149591858D02*
X80058142Y-145608141D01*
X82228238Y-149666858D02*
X79928238Y-145683141D01*
X82098334Y-149741858D02*
X79798334Y-145758141D01*
X81968430Y-149816858D02*
X79668430Y-145833141D01*
X81838526Y-149891858D02*
X79538526Y-145908141D01*
X81708623Y-149966858D02*
X79408623Y-145983141D01*
X81578719Y-150041858D02*
X79278719Y-146058141D01*
X81448815Y-150116858D02*
X79148815Y-146133141D01*
X81318911Y-150191858D02*
X79018911Y-146208141D01*
X81189007Y-150266858D02*
X78889007Y-146283141D01*
X81059104Y-150341858D02*
X78759104Y-146358141D01*
X80929200Y-150416858D02*
X78654200Y-146476443D01*
X80799296Y-150491858D02*
X78499296Y-146508141D01*
X80669392Y-150566858D02*
X78369392Y-146583141D01*
X80514488Y-150598557D02*
X78239488Y-146658141D01*
X80334585Y-150586955D02*
X78059585Y-146646539D01*
X80154681Y-150575352D02*
X77904681Y-146678238D01*
X79993078Y-150495448D02*
X77793078Y-146684936D01*
X79781476Y-150328942D02*
X77681476Y-146691635D01*
X79619873Y-150249038D02*
X77544873Y-146655033D01*
X79433271Y-150125833D02*
X77358271Y-146531827D01*
X79271668Y-150045929D02*
X77196668Y-146451924D01*
X79085065Y-149922724D02*
X76860065Y-146068911D01*
X78880162Y-149867820D02*
X76655162Y-146014007D01*
X78675258Y-149812916D02*
X76475258Y-146002405D01*
X78495354Y-149801314D02*
X76295354Y-145990802D01*
X78315450Y-149789711D02*
X76090450Y-145935898D01*
X78135546Y-149778109D02*
X75910546Y-145924296D01*
X77980643Y-149809808D02*
X75705643Y-145869392D01*
X77800739Y-149798205D02*
X75525739Y-145857789D01*
X77645835Y-149829904D02*
X75345835Y-145846187D01*
X75286684Y-145793735D02*
X76903367Y-146043911D01*
X75286684Y-145793735D02*
X73078320Y-147068735D01*
X77515931Y-149904904D02*
X75190931Y-145877886D01*
D11*
X73273130Y-142656156D02*
X80461141Y-138506156D01*
D10*
X77386027Y-149979904D02*
X75061027Y-145952886D01*
X77231124Y-150011602D02*
X74956124Y-146071187D01*
X77113720Y-150108253D02*
X75403320Y-151095753D01*
X77101220Y-150086602D02*
X74801220Y-146102886D01*
X76971316Y-150161602D02*
X74671316Y-146177886D01*
X76841412Y-150236602D02*
X74541412Y-146252886D01*
X76711508Y-150311602D02*
X74411508Y-146327886D01*
X76581605Y-150386602D02*
X74281605Y-146402886D01*
X76451701Y-150461602D02*
X74151701Y-146477886D01*
X76321797Y-150536602D02*
X74021797Y-146552886D01*
X76191893Y-150611602D02*
X73891893Y-146627886D01*
X76061989Y-150686602D02*
X73761989Y-146702886D01*
X75932085Y-150761602D02*
X73632085Y-146777886D01*
X75802182Y-150836602D02*
X73502182Y-146852886D01*
X75672278Y-150911602D02*
X73372278Y-146927886D01*
X75542374Y-150986602D02*
X73242374Y-147002886D01*
X75412470Y-151061602D02*
X73112470Y-147077886D01*
X75207566Y-151006699D02*
X73032566Y-147239488D01*
X75027663Y-150995096D02*
X72977663Y-147444392D01*
X74822759Y-150940192D02*
X72922759Y-147649296D01*
X74617855Y-150885288D02*
X72867855Y-147854200D01*
X74387951Y-150787083D02*
X72812951Y-148059103D01*
X74208047Y-150775481D02*
X72758047Y-148264007D01*
X74003144Y-150720577D02*
X75403320Y-151095753D01*
X72703144Y-148468911D02*
X73078320Y-147068735D01*
X72703144Y-148468911D02*
X74003144Y-150720577D01*
X83063461Y-149213508D02*
G75*
G03*
X83429486Y-147847484I-499998J866024D01*
G01*
X82104486Y-145552517D02*
G75*
G03*
X80738462Y-145186492I-866024J-499998D01*
G01*
X76903367Y-146043911D02*
G75*
G03*
X78508447Y-146473991I1017580J587500D01*
G01*
X79713560Y-150335711D02*
G75*
G03*
X80810330Y-150512958I666922J644860D01*
G01*
X79713561Y-150335710D02*
G75*
G03*
X77113720Y-150108253I-1462341J-1742751D01*
G01*
D12*
X80461141Y-138506156D02*
X79588187Y-139010156D01*
X79953141Y-137626275D01*
X80461141Y-138506156D01*
G36*
X80461141Y-138506156D02*
G01*
X79588187Y-139010156D01*
X79953141Y-137626275D01*
X80461141Y-138506156D01*
G37*
X220300000Y-128301000D02*
X219292000Y-128301000D01*
X220300000Y-127285000D01*
X220300000Y-128301000D01*
G36*
X220300000Y-128301000D02*
G01*
X219292000Y-128301000D01*
X220300000Y-127285000D01*
X220300000Y-128301000D01*
G37*
D10*
X213737801Y-138171904D02*
G75*
G03*
X211600000Y-136675000I-2137801J-778096D01*
G01*
X213737798Y-138171905D02*
G75*
G03*
X214599005Y-138873790I900002J225005D01*
G01*
X213450000Y-133050000D02*
G75*
G03*
X214625000Y-134225000I1175000J0D01*
G01*
X218200000Y-135225000D02*
G75*
G03*
X217200000Y-134225000I-999999J1D01*
G01*
X217200000Y-138875000D02*
G75*
G03*
X218200000Y-137875000I1J999999D01*
G01*
X208600000Y-133050000D02*
X208600000Y-135650000D01*
X208600000Y-133050000D02*
X209625000Y-132025000D01*
X208600000Y-135650000D02*
X209625000Y-136675000D01*
X208750000Y-135800000D02*
X208750000Y-132900000D01*
X208900000Y-135900000D02*
X208900000Y-132750000D01*
X209050000Y-136100000D02*
X209050000Y-132600000D01*
X209200000Y-136250000D02*
X209200000Y-132450000D01*
X209350000Y-136400000D02*
X209350000Y-132300000D01*
X209500000Y-136500000D02*
X209500000Y-132150000D01*
X209650000Y-136650000D02*
X209650000Y-132050000D01*
X209800000Y-136650000D02*
X209800000Y-132050000D01*
X209950000Y-136650000D02*
X209950000Y-132050000D01*
X210100000Y-136650000D02*
X210100000Y-132050000D01*
X210250000Y-136650000D02*
X210250000Y-132050000D01*
X210400000Y-136650000D02*
X210400000Y-132050000D01*
X210550000Y-136650000D02*
X210550000Y-132050000D01*
X210700000Y-136650000D02*
X210700000Y-132050000D01*
X210850000Y-136650000D02*
X210850000Y-132050000D01*
X211000000Y-136650000D02*
X211000000Y-132050000D01*
X211150000Y-136650000D02*
X211150000Y-132050000D01*
X211300000Y-136650000D02*
X211300000Y-132050000D01*
X211450000Y-136650000D02*
X211450000Y-132050000D01*
X211600000Y-136650000D02*
X211600000Y-132050000D01*
X211600000Y-136675000D02*
X209625000Y-136675000D01*
X211750000Y-136650000D02*
X211750000Y-132100000D01*
X211900000Y-136700000D02*
X211900000Y-132050000D01*
D11*
X212000000Y-128301000D02*
X220300000Y-128301000D01*
D10*
X212050000Y-136700000D02*
X212050000Y-132050000D01*
X212175000Y-132025000D02*
X209625000Y-132025000D01*
X212175000Y-132025000D02*
X213450000Y-133050000D01*
X212200000Y-136700000D02*
X212200000Y-132100000D01*
X212350000Y-136750000D02*
X212350000Y-132200000D01*
X212500000Y-136850000D02*
X212500000Y-132300000D01*
X212650000Y-136900000D02*
X212650000Y-132450000D01*
X212800000Y-137000000D02*
X212800000Y-132550000D01*
X212950000Y-137100000D02*
X212950000Y-132700000D01*
X213100000Y-137200000D02*
X213100000Y-132800000D01*
X213250000Y-137350000D02*
X213250000Y-132900000D01*
X213400000Y-137500000D02*
X213400000Y-133050000D01*
X213500000Y-137700000D02*
X213500000Y-133550000D01*
X213600000Y-137850000D02*
X213600000Y-133700000D01*
X213700000Y-138050000D02*
X213700000Y-133900000D01*
X213800000Y-138200000D02*
X213800000Y-134000000D01*
X213900000Y-138450000D02*
X213900000Y-134050000D01*
X214000000Y-138600000D02*
X214000000Y-134100000D01*
X214150000Y-138700000D02*
X214150000Y-134150000D01*
X214300000Y-138800000D02*
X214300000Y-134250000D01*
X214450000Y-138850000D02*
X214450000Y-134250000D01*
X214600000Y-138850000D02*
X214600000Y-134250000D01*
X214750000Y-138850000D02*
X214750000Y-134300000D01*
X214900000Y-138850000D02*
X214900000Y-134250000D01*
X215050000Y-138850000D02*
X215050000Y-134250000D01*
X215200000Y-138850000D02*
X215200000Y-134250000D01*
X215350000Y-138850000D02*
X215350000Y-134250000D01*
X215500000Y-138850000D02*
X215500000Y-134250000D01*
X215650000Y-138850000D02*
X215650000Y-134250000D01*
X215800000Y-138850000D02*
X215800000Y-134250000D01*
X215950000Y-138850000D02*
X215950000Y-134250000D01*
X216100000Y-138850000D02*
X216100000Y-134250000D01*
X216250000Y-138850000D02*
X216250000Y-134250000D01*
X216400000Y-138850000D02*
X216400000Y-134250000D01*
X216550000Y-138850000D02*
X216550000Y-134250000D01*
X216700000Y-138850000D02*
X216700000Y-134250000D01*
X216850000Y-138850000D02*
X216850000Y-134250000D01*
X217000000Y-138850000D02*
X217000000Y-134250000D01*
X217150000Y-138850000D02*
X217150000Y-134250000D01*
X217200000Y-134225000D02*
X214625000Y-134225000D01*
X217200000Y-138875000D02*
X214600000Y-138875000D01*
X217300000Y-138850000D02*
X217300000Y-134300000D01*
X217450000Y-138800000D02*
X217450000Y-134300000D01*
X217600000Y-138750000D02*
X217600000Y-134350000D01*
X217750000Y-138650000D02*
X217750000Y-134450000D01*
X217850000Y-138550000D02*
X217850000Y-134600000D01*
X217950000Y-138450000D02*
X217950000Y-134700000D01*
X218050000Y-138300000D02*
X218050000Y-134750000D01*
X218200000Y-135225000D02*
X218200000Y-137875000D01*
D11*
X219800000Y-123601000D02*
X212000000Y-123601000D01*
X220300000Y-128301000D02*
X220300000Y-126650000D01*
X125050000Y-47450000D02*
X125050000Y-45799000D01*
X124550000Y-42750000D02*
X116750000Y-42750000D01*
D10*
X122950000Y-54374000D02*
X122950000Y-57024000D01*
X122800000Y-57449000D02*
X122800000Y-53899000D01*
X122700000Y-57599000D02*
X122700000Y-53849000D01*
X122600000Y-57699000D02*
X122600000Y-53749000D01*
X122500000Y-57799000D02*
X122500000Y-53599000D01*
X122350000Y-57899000D02*
X122350000Y-53499000D01*
X122200000Y-57949000D02*
X122200000Y-53449000D01*
X122050000Y-57999000D02*
X122050000Y-53449000D01*
X121950000Y-58024000D02*
X119350000Y-58024000D01*
X121950000Y-53374000D02*
X119375000Y-53374000D01*
X121900000Y-57999000D02*
X121900000Y-53399000D01*
X121750000Y-57999000D02*
X121750000Y-53399000D01*
X121600000Y-57999000D02*
X121600000Y-53399000D01*
X121450000Y-57999000D02*
X121450000Y-53399000D01*
X121300000Y-57999000D02*
X121300000Y-53399000D01*
X121150000Y-57999000D02*
X121150000Y-53399000D01*
X121000000Y-57999000D02*
X121000000Y-53399000D01*
X120850000Y-57999000D02*
X120850000Y-53399000D01*
X120700000Y-57999000D02*
X120700000Y-53399000D01*
X120550000Y-57999000D02*
X120550000Y-53399000D01*
X120400000Y-57999000D02*
X120400000Y-53399000D01*
X120250000Y-57999000D02*
X120250000Y-53399000D01*
X120100000Y-57999000D02*
X120100000Y-53399000D01*
X119950000Y-57999000D02*
X119950000Y-53399000D01*
X119800000Y-57999000D02*
X119800000Y-53399000D01*
X119650000Y-57999000D02*
X119650000Y-53399000D01*
X119500000Y-57999000D02*
X119500000Y-53449000D01*
X119350000Y-57999000D02*
X119350000Y-53399000D01*
X119200000Y-57999000D02*
X119200000Y-53399000D01*
X119050000Y-57949000D02*
X119050000Y-53399000D01*
X118900000Y-57849000D02*
X118900000Y-53299000D01*
X118750000Y-57749000D02*
X118750000Y-53249000D01*
X118650000Y-57599000D02*
X118650000Y-53199000D01*
X118550000Y-57349000D02*
X118550000Y-53149000D01*
X118450000Y-57199000D02*
X118450000Y-53049000D01*
X118350000Y-56999000D02*
X118350000Y-52849000D01*
X118250000Y-56849000D02*
X118250000Y-52699000D01*
X118150000Y-56649000D02*
X118150000Y-52199000D01*
X118000000Y-56499000D02*
X118000000Y-52049000D01*
X117850000Y-56349000D02*
X117850000Y-51949000D01*
X117700000Y-56249000D02*
X117700000Y-51849000D01*
X117550000Y-56149000D02*
X117550000Y-51699000D01*
X117400000Y-56049000D02*
X117400000Y-51599000D01*
X117250000Y-55999000D02*
X117250000Y-51449000D01*
X117100000Y-55899000D02*
X117100000Y-51349000D01*
X116950000Y-55849000D02*
X116950000Y-51249000D01*
X116925000Y-51174000D02*
X118200000Y-52199000D01*
X116925000Y-51174000D02*
X114375000Y-51174000D01*
X116800000Y-55849000D02*
X116800000Y-51199000D01*
D11*
X116750000Y-47450000D02*
X125050000Y-47450000D01*
D10*
X116650000Y-55849000D02*
X116650000Y-51199000D01*
X116500000Y-55799000D02*
X116500000Y-51249000D01*
X116350000Y-55824000D02*
X114375000Y-55824000D01*
X116350000Y-55799000D02*
X116350000Y-51199000D01*
X116200000Y-55799000D02*
X116200000Y-51199000D01*
X116050000Y-55799000D02*
X116050000Y-51199000D01*
X115900000Y-55799000D02*
X115900000Y-51199000D01*
X115750000Y-55799000D02*
X115750000Y-51199000D01*
X115600000Y-55799000D02*
X115600000Y-51199000D01*
X115450000Y-55799000D02*
X115450000Y-51199000D01*
X115300000Y-55799000D02*
X115300000Y-51199000D01*
X115150000Y-55799000D02*
X115150000Y-51199000D01*
X115000000Y-55799000D02*
X115000000Y-51199000D01*
X114850000Y-55799000D02*
X114850000Y-51199000D01*
X114700000Y-55799000D02*
X114700000Y-51199000D01*
X114550000Y-55799000D02*
X114550000Y-51199000D01*
X114400000Y-55799000D02*
X114400000Y-51199000D01*
X114250000Y-55649000D02*
X114250000Y-51299000D01*
X114100000Y-55549000D02*
X114100000Y-51449000D01*
X113950000Y-55399000D02*
X113950000Y-51599000D01*
X113800000Y-55249000D02*
X113800000Y-51749000D01*
X113650000Y-55049000D02*
X113650000Y-51899000D01*
X113500000Y-54949000D02*
X113500000Y-52049000D01*
X113350000Y-54799000D02*
X114375000Y-55824000D01*
X113350000Y-52199000D02*
X114375000Y-51174000D01*
X113350000Y-52199000D02*
X113350000Y-54799000D01*
X121950000Y-58024000D02*
G75*
G03*
X122950000Y-57024000I1J999999D01*
G01*
X122950000Y-54374000D02*
G75*
G03*
X121950000Y-53374000I-999999J1D01*
G01*
X118200000Y-52199000D02*
G75*
G03*
X119375000Y-53374000I1175000J0D01*
G01*
X118487798Y-57320905D02*
G75*
G03*
X119349005Y-58022790I900002J225005D01*
G01*
X118487801Y-57320904D02*
G75*
G03*
X116350000Y-55824000I-2137801J-778096D01*
G01*
D12*
X125050000Y-47450000D02*
X124042000Y-47450000D01*
X125050000Y-46434000D01*
X125050000Y-47450000D01*
G36*
X125050000Y-47450000D02*
G01*
X124042000Y-47450000D01*
X125050000Y-46434000D01*
X125050000Y-47450000D01*
G37*
D11*
X144100000Y-45101000D02*
X144100000Y-43450000D01*
X143600000Y-40401000D02*
X135800000Y-40401000D01*
D10*
X142000000Y-52025000D02*
X142000000Y-54675000D01*
X141850000Y-55100000D02*
X141850000Y-51550000D01*
X141750000Y-55250000D02*
X141750000Y-51500000D01*
X141650000Y-55350000D02*
X141650000Y-51400000D01*
X141550000Y-55450000D02*
X141550000Y-51250000D01*
X141400000Y-55550000D02*
X141400000Y-51150000D01*
X141250000Y-55600000D02*
X141250000Y-51100000D01*
X141100000Y-55650000D02*
X141100000Y-51100000D01*
X141000000Y-55675000D02*
X138400000Y-55675000D01*
X141000000Y-51025000D02*
X138425000Y-51025000D01*
X140950000Y-55650000D02*
X140950000Y-51050000D01*
X140800000Y-55650000D02*
X140800000Y-51050000D01*
X140650000Y-55650000D02*
X140650000Y-51050000D01*
X140500000Y-55650000D02*
X140500000Y-51050000D01*
X140350000Y-55650000D02*
X140350000Y-51050000D01*
X140200000Y-55650000D02*
X140200000Y-51050000D01*
X140050000Y-55650000D02*
X140050000Y-51050000D01*
X139900000Y-55650000D02*
X139900000Y-51050000D01*
X139750000Y-55650000D02*
X139750000Y-51050000D01*
X139600000Y-55650000D02*
X139600000Y-51050000D01*
X139450000Y-55650000D02*
X139450000Y-51050000D01*
X139300000Y-55650000D02*
X139300000Y-51050000D01*
X139150000Y-55650000D02*
X139150000Y-51050000D01*
X139000000Y-55650000D02*
X139000000Y-51050000D01*
X138850000Y-55650000D02*
X138850000Y-51050000D01*
X138700000Y-55650000D02*
X138700000Y-51050000D01*
X138550000Y-55650000D02*
X138550000Y-51100000D01*
X138400000Y-55650000D02*
X138400000Y-51050000D01*
X138250000Y-55650000D02*
X138250000Y-51050000D01*
X138100000Y-55600000D02*
X138100000Y-51050000D01*
X137950000Y-55500000D02*
X137950000Y-50950000D01*
X137800000Y-55400000D02*
X137800000Y-50900000D01*
X137700000Y-55250000D02*
X137700000Y-50850000D01*
X137600000Y-55000000D02*
X137600000Y-50800000D01*
X137500000Y-54850000D02*
X137500000Y-50700000D01*
X137400000Y-54650000D02*
X137400000Y-50500000D01*
X137300000Y-54500000D02*
X137300000Y-50350000D01*
X137200000Y-54300000D02*
X137200000Y-49850000D01*
X137050000Y-54150000D02*
X137050000Y-49700000D01*
X136900000Y-54000000D02*
X136900000Y-49600000D01*
X136750000Y-53900000D02*
X136750000Y-49500000D01*
X136600000Y-53800000D02*
X136600000Y-49350000D01*
X136450000Y-53700000D02*
X136450000Y-49250000D01*
X136300000Y-53650000D02*
X136300000Y-49100000D01*
X136150000Y-53550000D02*
X136150000Y-49000000D01*
X136000000Y-53500000D02*
X136000000Y-48900000D01*
X135975000Y-48825000D02*
X137250000Y-49850000D01*
X135975000Y-48825000D02*
X133425000Y-48825000D01*
X135850000Y-53500000D02*
X135850000Y-48850000D01*
D11*
X135800000Y-45101000D02*
X144100000Y-45101000D01*
D10*
X135700000Y-53500000D02*
X135700000Y-48850000D01*
X135550000Y-53450000D02*
X135550000Y-48900000D01*
X135400000Y-53475000D02*
X133425000Y-53475000D01*
X135400000Y-53450000D02*
X135400000Y-48850000D01*
X135250000Y-53450000D02*
X135250000Y-48850000D01*
X135100000Y-53450000D02*
X135100000Y-48850000D01*
X134950000Y-53450000D02*
X134950000Y-48850000D01*
X134800000Y-53450000D02*
X134800000Y-48850000D01*
X134650000Y-53450000D02*
X134650000Y-48850000D01*
X134500000Y-53450000D02*
X134500000Y-48850000D01*
X134350000Y-53450000D02*
X134350000Y-48850000D01*
X134200000Y-53450000D02*
X134200000Y-48850000D01*
X134050000Y-53450000D02*
X134050000Y-48850000D01*
X133900000Y-53450000D02*
X133900000Y-48850000D01*
X133750000Y-53450000D02*
X133750000Y-48850000D01*
X133600000Y-53450000D02*
X133600000Y-48850000D01*
X133450000Y-53450000D02*
X133450000Y-48850000D01*
X133300000Y-53300000D02*
X133300000Y-48950000D01*
X133150000Y-53200000D02*
X133150000Y-49100000D01*
X133000000Y-53050000D02*
X133000000Y-49250000D01*
X132850000Y-52900000D02*
X132850000Y-49400000D01*
X132700000Y-52700000D02*
X132700000Y-49550000D01*
X132550000Y-52600000D02*
X132550000Y-49700000D01*
X132400000Y-52450000D02*
X133425000Y-53475000D01*
X132400000Y-49850000D02*
X133425000Y-48825000D01*
X132400000Y-49850000D02*
X132400000Y-52450000D01*
X141000000Y-55675000D02*
G75*
G03*
X142000000Y-54675000I1J999999D01*
G01*
X142000000Y-52025000D02*
G75*
G03*
X141000000Y-51025000I-999999J1D01*
G01*
X137250000Y-49850000D02*
G75*
G03*
X138425000Y-51025000I1175000J0D01*
G01*
X137537798Y-54971905D02*
G75*
G03*
X138399005Y-55673790I900002J225005D01*
G01*
X137537801Y-54971904D02*
G75*
G03*
X135400000Y-53475000I-2137801J-778096D01*
G01*
D12*
X144100000Y-45101000D02*
X143092000Y-45101000D01*
X144100000Y-44085000D01*
X144100000Y-45101000D01*
G36*
X144100000Y-45101000D02*
G01*
X143092000Y-45101000D01*
X144100000Y-44085000D01*
X144100000Y-45101000D01*
G37*
D11*
X144100000Y-102251000D02*
X144100000Y-100600000D01*
X143600000Y-97551000D02*
X135800000Y-97551000D01*
D10*
X142000000Y-109175000D02*
X142000000Y-111825000D01*
X141850000Y-112250000D02*
X141850000Y-108700000D01*
X141750000Y-112400000D02*
X141750000Y-108650000D01*
X141650000Y-112500000D02*
X141650000Y-108550000D01*
X141550000Y-112600000D02*
X141550000Y-108400000D01*
X141400000Y-112700000D02*
X141400000Y-108300000D01*
X141250000Y-112750000D02*
X141250000Y-108250000D01*
X141100000Y-112800000D02*
X141100000Y-108250000D01*
X141000000Y-112825000D02*
X138400000Y-112825000D01*
X141000000Y-108175000D02*
X138425000Y-108175000D01*
X140950000Y-112800000D02*
X140950000Y-108200000D01*
X140800000Y-112800000D02*
X140800000Y-108200000D01*
X140650000Y-112800000D02*
X140650000Y-108200000D01*
X140500000Y-112800000D02*
X140500000Y-108200000D01*
X140350000Y-112800000D02*
X140350000Y-108200000D01*
X140200000Y-112800000D02*
X140200000Y-108200000D01*
X140050000Y-112800000D02*
X140050000Y-108200000D01*
X139900000Y-112800000D02*
X139900000Y-108200000D01*
X139750000Y-112800000D02*
X139750000Y-108200000D01*
X139600000Y-112800000D02*
X139600000Y-108200000D01*
X139450000Y-112800000D02*
X139450000Y-108200000D01*
X139300000Y-112800000D02*
X139300000Y-108200000D01*
X139150000Y-112800000D02*
X139150000Y-108200000D01*
X139000000Y-112800000D02*
X139000000Y-108200000D01*
X138850000Y-112800000D02*
X138850000Y-108200000D01*
X138700000Y-112800000D02*
X138700000Y-108200000D01*
X138550000Y-112800000D02*
X138550000Y-108250000D01*
X138400000Y-112800000D02*
X138400000Y-108200000D01*
X138250000Y-112800000D02*
X138250000Y-108200000D01*
X138100000Y-112750000D02*
X138100000Y-108200000D01*
X137950000Y-112650000D02*
X137950000Y-108100000D01*
X137800000Y-112550000D02*
X137800000Y-108050000D01*
X137700000Y-112400000D02*
X137700000Y-108000000D01*
X137600000Y-112150000D02*
X137600000Y-107950000D01*
X137500000Y-112000000D02*
X137500000Y-107850000D01*
X137400000Y-111800000D02*
X137400000Y-107650000D01*
X137300000Y-111650000D02*
X137300000Y-107500000D01*
X137200000Y-111450000D02*
X137200000Y-107000000D01*
X137050000Y-111300000D02*
X137050000Y-106850000D01*
X136900000Y-111150000D02*
X136900000Y-106750000D01*
X136750000Y-111050000D02*
X136750000Y-106650000D01*
X136600000Y-110950000D02*
X136600000Y-106500000D01*
X136450000Y-110850000D02*
X136450000Y-106400000D01*
X136300000Y-110800000D02*
X136300000Y-106250000D01*
X136150000Y-110700000D02*
X136150000Y-106150000D01*
X136000000Y-110650000D02*
X136000000Y-106050000D01*
X135975000Y-105975000D02*
X137250000Y-107000000D01*
X135975000Y-105975000D02*
X133425000Y-105975000D01*
X135850000Y-110650000D02*
X135850000Y-106000000D01*
D11*
X135800000Y-102251000D02*
X144100000Y-102251000D01*
D10*
X135700000Y-110650000D02*
X135700000Y-106000000D01*
X135550000Y-110600000D02*
X135550000Y-106050000D01*
X135400000Y-110625000D02*
X133425000Y-110625000D01*
X135400000Y-110600000D02*
X135400000Y-106000000D01*
X135250000Y-110600000D02*
X135250000Y-106000000D01*
X135100000Y-110600000D02*
X135100000Y-106000000D01*
X134950000Y-110600000D02*
X134950000Y-106000000D01*
X134800000Y-110600000D02*
X134800000Y-106000000D01*
X134650000Y-110600000D02*
X134650000Y-106000000D01*
X134500000Y-110600000D02*
X134500000Y-106000000D01*
X134350000Y-110600000D02*
X134350000Y-106000000D01*
X134200000Y-110600000D02*
X134200000Y-106000000D01*
X134050000Y-110600000D02*
X134050000Y-106000000D01*
X133900000Y-110600000D02*
X133900000Y-106000000D01*
X133750000Y-110600000D02*
X133750000Y-106000000D01*
X133600000Y-110600000D02*
X133600000Y-106000000D01*
X133450000Y-110600000D02*
X133450000Y-106000000D01*
X133300000Y-110450000D02*
X133300000Y-106100000D01*
X133150000Y-110350000D02*
X133150000Y-106250000D01*
X133000000Y-110200000D02*
X133000000Y-106400000D01*
X132850000Y-110050000D02*
X132850000Y-106550000D01*
X132700000Y-109850000D02*
X132700000Y-106700000D01*
X132550000Y-109750000D02*
X132550000Y-106850000D01*
X132400000Y-109600000D02*
X133425000Y-110625000D01*
X132400000Y-107000000D02*
X133425000Y-105975000D01*
X132400000Y-107000000D02*
X132400000Y-109600000D01*
X141000000Y-112825000D02*
G75*
G03*
X142000000Y-111825000I1J999999D01*
G01*
X142000000Y-109175000D02*
G75*
G03*
X141000000Y-108175000I-999999J1D01*
G01*
X137250000Y-107000000D02*
G75*
G03*
X138425000Y-108175000I1175000J0D01*
G01*
X137537798Y-112121905D02*
G75*
G03*
X138399005Y-112823790I900002J225005D01*
G01*
X137537801Y-112121904D02*
G75*
G03*
X135400000Y-110625000I-2137801J-778096D01*
G01*
D12*
X144100000Y-102251000D02*
X143092000Y-102251000D01*
X144100000Y-101235000D01*
X144100000Y-102251000D01*
G36*
X144100000Y-102251000D02*
G01*
X143092000Y-102251000D01*
X144100000Y-101235000D01*
X144100000Y-102251000D01*
G37*
D11*
X182200000Y-102251000D02*
X182200000Y-100600000D01*
X181700000Y-97551000D02*
X173900000Y-97551000D01*
D10*
X180100000Y-109175000D02*
X180100000Y-111825000D01*
X179950000Y-112250000D02*
X179950000Y-108700000D01*
X179850000Y-112400000D02*
X179850000Y-108650000D01*
X179750000Y-112500000D02*
X179750000Y-108550000D01*
X179650000Y-112600000D02*
X179650000Y-108400000D01*
X179500000Y-112700000D02*
X179500000Y-108300000D01*
X179350000Y-112750000D02*
X179350000Y-108250000D01*
X179200000Y-112800000D02*
X179200000Y-108250000D01*
X179100000Y-112825000D02*
X176500000Y-112825000D01*
X179100000Y-108175000D02*
X176525000Y-108175000D01*
X179050000Y-112800000D02*
X179050000Y-108200000D01*
X178900000Y-112800000D02*
X178900000Y-108200000D01*
X178750000Y-112800000D02*
X178750000Y-108200000D01*
X178600000Y-112800000D02*
X178600000Y-108200000D01*
X178450000Y-112800000D02*
X178450000Y-108200000D01*
X178300000Y-112800000D02*
X178300000Y-108200000D01*
X178150000Y-112800000D02*
X178150000Y-108200000D01*
X178000000Y-112800000D02*
X178000000Y-108200000D01*
X177850000Y-112800000D02*
X177850000Y-108200000D01*
X177700000Y-112800000D02*
X177700000Y-108200000D01*
X177550000Y-112800000D02*
X177550000Y-108200000D01*
X177400000Y-112800000D02*
X177400000Y-108200000D01*
X177250000Y-112800000D02*
X177250000Y-108200000D01*
X177100000Y-112800000D02*
X177100000Y-108200000D01*
X176950000Y-112800000D02*
X176950000Y-108200000D01*
X176800000Y-112800000D02*
X176800000Y-108200000D01*
X176650000Y-112800000D02*
X176650000Y-108250000D01*
X176500000Y-112800000D02*
X176500000Y-108200000D01*
X176350000Y-112800000D02*
X176350000Y-108200000D01*
X176200000Y-112750000D02*
X176200000Y-108200000D01*
X176050000Y-112650000D02*
X176050000Y-108100000D01*
X175900000Y-112550000D02*
X175900000Y-108050000D01*
X175800000Y-112400000D02*
X175800000Y-108000000D01*
X175700000Y-112150000D02*
X175700000Y-107950000D01*
X175600000Y-112000000D02*
X175600000Y-107850000D01*
X175500000Y-111800000D02*
X175500000Y-107650000D01*
X175400000Y-111650000D02*
X175400000Y-107500000D01*
X175300000Y-111450000D02*
X175300000Y-107000000D01*
X175150000Y-111300000D02*
X175150000Y-106850000D01*
X175000000Y-111150000D02*
X175000000Y-106750000D01*
X174850000Y-111050000D02*
X174850000Y-106650000D01*
X174700000Y-110950000D02*
X174700000Y-106500000D01*
X174550000Y-110850000D02*
X174550000Y-106400000D01*
X174400000Y-110800000D02*
X174400000Y-106250000D01*
X174250000Y-110700000D02*
X174250000Y-106150000D01*
X174100000Y-110650000D02*
X174100000Y-106050000D01*
X174075000Y-105975000D02*
X175350000Y-107000000D01*
X174075000Y-105975000D02*
X171525000Y-105975000D01*
X173950000Y-110650000D02*
X173950000Y-106000000D01*
D11*
X173900000Y-102251000D02*
X182200000Y-102251000D01*
D10*
X173800000Y-110650000D02*
X173800000Y-106000000D01*
X173650000Y-110600000D02*
X173650000Y-106050000D01*
X173500000Y-110625000D02*
X171525000Y-110625000D01*
X173500000Y-110600000D02*
X173500000Y-106000000D01*
X173350000Y-110600000D02*
X173350000Y-106000000D01*
X173200000Y-110600000D02*
X173200000Y-106000000D01*
X173050000Y-110600000D02*
X173050000Y-106000000D01*
X172900000Y-110600000D02*
X172900000Y-106000000D01*
X172750000Y-110600000D02*
X172750000Y-106000000D01*
X172600000Y-110600000D02*
X172600000Y-106000000D01*
X172450000Y-110600000D02*
X172450000Y-106000000D01*
X172300000Y-110600000D02*
X172300000Y-106000000D01*
X172150000Y-110600000D02*
X172150000Y-106000000D01*
X172000000Y-110600000D02*
X172000000Y-106000000D01*
X171850000Y-110600000D02*
X171850000Y-106000000D01*
X171700000Y-110600000D02*
X171700000Y-106000000D01*
X171550000Y-110600000D02*
X171550000Y-106000000D01*
X171400000Y-110450000D02*
X171400000Y-106100000D01*
X171250000Y-110350000D02*
X171250000Y-106250000D01*
X171100000Y-110200000D02*
X171100000Y-106400000D01*
X170950000Y-110050000D02*
X170950000Y-106550000D01*
X170800000Y-109850000D02*
X170800000Y-106700000D01*
X170650000Y-109750000D02*
X170650000Y-106850000D01*
X170500000Y-109600000D02*
X171525000Y-110625000D01*
X170500000Y-107000000D02*
X171525000Y-105975000D01*
X170500000Y-107000000D02*
X170500000Y-109600000D01*
X179100000Y-112825000D02*
G75*
G03*
X180100000Y-111825000I1J999999D01*
G01*
X180100000Y-109175000D02*
G75*
G03*
X179100000Y-108175000I-999999J1D01*
G01*
X175350000Y-107000000D02*
G75*
G03*
X176525000Y-108175000I1175000J0D01*
G01*
X175637798Y-112121905D02*
G75*
G03*
X176499005Y-112823790I900002J225005D01*
G01*
X175637801Y-112121904D02*
G75*
G03*
X173500000Y-110625000I-2137801J-778096D01*
G01*
D12*
X182200000Y-102251000D02*
X181192000Y-102251000D01*
X182200000Y-101235000D01*
X182200000Y-102251000D01*
G36*
X182200000Y-102251000D02*
G01*
X181192000Y-102251000D01*
X182200000Y-101235000D01*
X182200000Y-102251000D01*
G37*
D11*
X220300000Y-109251000D02*
X220300000Y-107600000D01*
X219800000Y-104551000D02*
X212000000Y-104551000D01*
D10*
X218200000Y-116175000D02*
X218200000Y-118825000D01*
X218050000Y-119250000D02*
X218050000Y-115700000D01*
X217950000Y-119400000D02*
X217950000Y-115650000D01*
X217850000Y-119500000D02*
X217850000Y-115550000D01*
X217750000Y-119600000D02*
X217750000Y-115400000D01*
X217600000Y-119700000D02*
X217600000Y-115300000D01*
X217450000Y-119750000D02*
X217450000Y-115250000D01*
X217300000Y-119800000D02*
X217300000Y-115250000D01*
X217200000Y-119825000D02*
X214600000Y-119825000D01*
X217200000Y-115175000D02*
X214625000Y-115175000D01*
X217150000Y-119800000D02*
X217150000Y-115200000D01*
X217000000Y-119800000D02*
X217000000Y-115200000D01*
X216850000Y-119800000D02*
X216850000Y-115200000D01*
X216700000Y-119800000D02*
X216700000Y-115200000D01*
X216550000Y-119800000D02*
X216550000Y-115200000D01*
X216400000Y-119800000D02*
X216400000Y-115200000D01*
X216250000Y-119800000D02*
X216250000Y-115200000D01*
X216100000Y-119800000D02*
X216100000Y-115200000D01*
X215950000Y-119800000D02*
X215950000Y-115200000D01*
X215800000Y-119800000D02*
X215800000Y-115200000D01*
X215650000Y-119800000D02*
X215650000Y-115200000D01*
X215500000Y-119800000D02*
X215500000Y-115200000D01*
X215350000Y-119800000D02*
X215350000Y-115200000D01*
X215200000Y-119800000D02*
X215200000Y-115200000D01*
X215050000Y-119800000D02*
X215050000Y-115200000D01*
X214900000Y-119800000D02*
X214900000Y-115200000D01*
X214750000Y-119800000D02*
X214750000Y-115250000D01*
X214600000Y-119800000D02*
X214600000Y-115200000D01*
X214450000Y-119800000D02*
X214450000Y-115200000D01*
X214300000Y-119750000D02*
X214300000Y-115200000D01*
X214150000Y-119650000D02*
X214150000Y-115100000D01*
X214000000Y-119550000D02*
X214000000Y-115050000D01*
X213900000Y-119400000D02*
X213900000Y-115000000D01*
X213800000Y-119150000D02*
X213800000Y-114950000D01*
X213700000Y-119000000D02*
X213700000Y-114850000D01*
X213600000Y-118800000D02*
X213600000Y-114650000D01*
X213500000Y-118650000D02*
X213500000Y-114500000D01*
X213400000Y-118450000D02*
X213400000Y-114000000D01*
X213250000Y-118300000D02*
X213250000Y-113850000D01*
X213100000Y-118150000D02*
X213100000Y-113750000D01*
X212950000Y-118050000D02*
X212950000Y-113650000D01*
X212800000Y-117950000D02*
X212800000Y-113500000D01*
X212650000Y-117850000D02*
X212650000Y-113400000D01*
X212500000Y-117800000D02*
X212500000Y-113250000D01*
X212350000Y-117700000D02*
X212350000Y-113150000D01*
X212200000Y-117650000D02*
X212200000Y-113050000D01*
X212175000Y-112975000D02*
X213450000Y-114000000D01*
X212175000Y-112975000D02*
X209625000Y-112975000D01*
X212050000Y-117650000D02*
X212050000Y-113000000D01*
D11*
X212000000Y-109251000D02*
X220300000Y-109251000D01*
D10*
X211900000Y-117650000D02*
X211900000Y-113000000D01*
X211750000Y-117600000D02*
X211750000Y-113050000D01*
X211600000Y-117625000D02*
X209625000Y-117625000D01*
X211600000Y-117600000D02*
X211600000Y-113000000D01*
X211450000Y-117600000D02*
X211450000Y-113000000D01*
X211300000Y-117600000D02*
X211300000Y-113000000D01*
X211150000Y-117600000D02*
X211150000Y-113000000D01*
X211000000Y-117600000D02*
X211000000Y-113000000D01*
X210850000Y-117600000D02*
X210850000Y-113000000D01*
X210700000Y-117600000D02*
X210700000Y-113000000D01*
X210550000Y-117600000D02*
X210550000Y-113000000D01*
X210400000Y-117600000D02*
X210400000Y-113000000D01*
X210250000Y-117600000D02*
X210250000Y-113000000D01*
X210100000Y-117600000D02*
X210100000Y-113000000D01*
X209950000Y-117600000D02*
X209950000Y-113000000D01*
X209800000Y-117600000D02*
X209800000Y-113000000D01*
X209650000Y-117600000D02*
X209650000Y-113000000D01*
X209500000Y-117450000D02*
X209500000Y-113100000D01*
X209350000Y-117350000D02*
X209350000Y-113250000D01*
X209200000Y-117200000D02*
X209200000Y-113400000D01*
X209050000Y-117050000D02*
X209050000Y-113550000D01*
X208900000Y-116850000D02*
X208900000Y-113700000D01*
X208750000Y-116750000D02*
X208750000Y-113850000D01*
X208600000Y-116600000D02*
X209625000Y-117625000D01*
X208600000Y-114000000D02*
X209625000Y-112975000D01*
X208600000Y-114000000D02*
X208600000Y-116600000D01*
X217200000Y-119825000D02*
G75*
G03*
X218200000Y-118825000I1J999999D01*
G01*
X218200000Y-116175000D02*
G75*
G03*
X217200000Y-115175000I-999999J1D01*
G01*
X213450000Y-114000000D02*
G75*
G03*
X214625000Y-115175000I1175000J0D01*
G01*
X213737798Y-119121905D02*
G75*
G03*
X214599005Y-119823790I900002J225005D01*
G01*
X213737801Y-119121904D02*
G75*
G03*
X211600000Y-117625000I-2137801J-778096D01*
G01*
D12*
X220300000Y-109251000D02*
X219292000Y-109251000D01*
X220300000Y-108235000D01*
X220300000Y-109251000D01*
G36*
X220300000Y-109251000D02*
G01*
X219292000Y-109251000D01*
X220300000Y-108235000D01*
X220300000Y-109251000D01*
G37*
D11*
X182200000Y-45101000D02*
X182200000Y-43450000D01*
X181700000Y-40401000D02*
X173900000Y-40401000D01*
D10*
X180100000Y-52025000D02*
X180100000Y-54675000D01*
X179950000Y-55100000D02*
X179950000Y-51550000D01*
X179850000Y-55250000D02*
X179850000Y-51500000D01*
X179750000Y-55350000D02*
X179750000Y-51400000D01*
X179650000Y-55450000D02*
X179650000Y-51250000D01*
X179500000Y-55550000D02*
X179500000Y-51150000D01*
X179350000Y-55600000D02*
X179350000Y-51100000D01*
X179200000Y-55650000D02*
X179200000Y-51100000D01*
X179100000Y-55675000D02*
X176500000Y-55675000D01*
X179100000Y-51025000D02*
X176525000Y-51025000D01*
X179050000Y-55650000D02*
X179050000Y-51050000D01*
X178900000Y-55650000D02*
X178900000Y-51050000D01*
X178750000Y-55650000D02*
X178750000Y-51050000D01*
X178600000Y-55650000D02*
X178600000Y-51050000D01*
X178450000Y-55650000D02*
X178450000Y-51050000D01*
X178300000Y-55650000D02*
X178300000Y-51050000D01*
X178150000Y-55650000D02*
X178150000Y-51050000D01*
X178000000Y-55650000D02*
X178000000Y-51050000D01*
X177850000Y-55650000D02*
X177850000Y-51050000D01*
X177700000Y-55650000D02*
X177700000Y-51050000D01*
X177550000Y-55650000D02*
X177550000Y-51050000D01*
X177400000Y-55650000D02*
X177400000Y-51050000D01*
X177250000Y-55650000D02*
X177250000Y-51050000D01*
X177100000Y-55650000D02*
X177100000Y-51050000D01*
X176950000Y-55650000D02*
X176950000Y-51050000D01*
X176800000Y-55650000D02*
X176800000Y-51050000D01*
X176650000Y-55650000D02*
X176650000Y-51100000D01*
X176500000Y-55650000D02*
X176500000Y-51050000D01*
X176350000Y-55650000D02*
X176350000Y-51050000D01*
X176200000Y-55600000D02*
X176200000Y-51050000D01*
X176050000Y-55500000D02*
X176050000Y-50950000D01*
X175900000Y-55400000D02*
X175900000Y-50900000D01*
X175800000Y-55250000D02*
X175800000Y-50850000D01*
X175700000Y-55000000D02*
X175700000Y-50800000D01*
X175600000Y-54850000D02*
X175600000Y-50700000D01*
X175500000Y-54650000D02*
X175500000Y-50500000D01*
X175400000Y-54500000D02*
X175400000Y-50350000D01*
X175300000Y-54300000D02*
X175300000Y-49850000D01*
X175150000Y-54150000D02*
X175150000Y-49700000D01*
X175000000Y-54000000D02*
X175000000Y-49600000D01*
X174850000Y-53900000D02*
X174850000Y-49500000D01*
X174700000Y-53800000D02*
X174700000Y-49350000D01*
X174550000Y-53700000D02*
X174550000Y-49250000D01*
X174400000Y-53650000D02*
X174400000Y-49100000D01*
X174250000Y-53550000D02*
X174250000Y-49000000D01*
X174100000Y-53500000D02*
X174100000Y-48900000D01*
X174075000Y-48825000D02*
X175350000Y-49850000D01*
X174075000Y-48825000D02*
X171525000Y-48825000D01*
X173950000Y-53500000D02*
X173950000Y-48850000D01*
D11*
X173900000Y-45101000D02*
X182200000Y-45101000D01*
D10*
X173800000Y-53500000D02*
X173800000Y-48850000D01*
X173650000Y-53450000D02*
X173650000Y-48900000D01*
X173500000Y-53475000D02*
X171525000Y-53475000D01*
X173500000Y-53450000D02*
X173500000Y-48850000D01*
X173350000Y-53450000D02*
X173350000Y-48850000D01*
X173200000Y-53450000D02*
X173200000Y-48850000D01*
X173050000Y-53450000D02*
X173050000Y-48850000D01*
X172900000Y-53450000D02*
X172900000Y-48850000D01*
X172750000Y-53450000D02*
X172750000Y-48850000D01*
X172600000Y-53450000D02*
X172600000Y-48850000D01*
X172450000Y-53450000D02*
X172450000Y-48850000D01*
X172300000Y-53450000D02*
X172300000Y-48850000D01*
X172150000Y-53450000D02*
X172150000Y-48850000D01*
X172000000Y-53450000D02*
X172000000Y-48850000D01*
X171850000Y-53450000D02*
X171850000Y-48850000D01*
X171700000Y-53450000D02*
X171700000Y-48850000D01*
X171550000Y-53450000D02*
X171550000Y-48850000D01*
X171400000Y-53300000D02*
X171400000Y-48950000D01*
X171250000Y-53200000D02*
X171250000Y-49100000D01*
X171100000Y-53050000D02*
X171100000Y-49250000D01*
X170950000Y-52900000D02*
X170950000Y-49400000D01*
X170800000Y-52700000D02*
X170800000Y-49550000D01*
X170650000Y-52600000D02*
X170650000Y-49700000D01*
X170500000Y-52450000D02*
X171525000Y-53475000D01*
X170500000Y-49850000D02*
X171525000Y-48825000D01*
X170500000Y-49850000D02*
X170500000Y-52450000D01*
X179100000Y-55675000D02*
G75*
G03*
X180100000Y-54675000I1J999999D01*
G01*
X180100000Y-52025000D02*
G75*
G03*
X179100000Y-51025000I-999999J1D01*
G01*
X175350000Y-49850000D02*
G75*
G03*
X176525000Y-51025000I1175000J0D01*
G01*
X175637798Y-54971905D02*
G75*
G03*
X176499005Y-55673790I900002J225005D01*
G01*
X175637801Y-54971904D02*
G75*
G03*
X173500000Y-53475000I-2137801J-778096D01*
G01*
D12*
X182200000Y-45101000D02*
X181192000Y-45101000D01*
X182200000Y-44085000D01*
X182200000Y-45101000D01*
G36*
X182200000Y-45101000D02*
G01*
X181192000Y-45101000D01*
X182200000Y-44085000D01*
X182200000Y-45101000D01*
G37*
D11*
X163150000Y-118851000D02*
X163150000Y-117200000D01*
X162650000Y-114151000D02*
X154850000Y-114151000D01*
D10*
X161050000Y-125775000D02*
X161050000Y-128425000D01*
X160900000Y-128850000D02*
X160900000Y-125300000D01*
X160800000Y-129000000D02*
X160800000Y-125250000D01*
X160700000Y-129100000D02*
X160700000Y-125150000D01*
X160600000Y-129200000D02*
X160600000Y-125000000D01*
X160450000Y-129300000D02*
X160450000Y-124900000D01*
X160300000Y-129350000D02*
X160300000Y-124850000D01*
X160150000Y-129400000D02*
X160150000Y-124850000D01*
X160050000Y-129425000D02*
X157450000Y-129425000D01*
X160050000Y-124775000D02*
X157475000Y-124775000D01*
X160000000Y-129400000D02*
X160000000Y-124800000D01*
X159850000Y-129400000D02*
X159850000Y-124800000D01*
X159700000Y-129400000D02*
X159700000Y-124800000D01*
X159550000Y-129400000D02*
X159550000Y-124800000D01*
X159400000Y-129400000D02*
X159400000Y-124800000D01*
X159250000Y-129400000D02*
X159250000Y-124800000D01*
X159100000Y-129400000D02*
X159100000Y-124800000D01*
X158950000Y-129400000D02*
X158950000Y-124800000D01*
X158800000Y-129400000D02*
X158800000Y-124800000D01*
X158650000Y-129400000D02*
X158650000Y-124800000D01*
X158500000Y-129400000D02*
X158500000Y-124800000D01*
X158350000Y-129400000D02*
X158350000Y-124800000D01*
X158200000Y-129400000D02*
X158200000Y-124800000D01*
X158050000Y-129400000D02*
X158050000Y-124800000D01*
X157900000Y-129400000D02*
X157900000Y-124800000D01*
X157750000Y-129400000D02*
X157750000Y-124800000D01*
X157600000Y-129400000D02*
X157600000Y-124850000D01*
X157450000Y-129400000D02*
X157450000Y-124800000D01*
X157300000Y-129400000D02*
X157300000Y-124800000D01*
X157150000Y-129350000D02*
X157150000Y-124800000D01*
X157000000Y-129250000D02*
X157000000Y-124700000D01*
X156850000Y-129150000D02*
X156850000Y-124650000D01*
X156750000Y-129000000D02*
X156750000Y-124600000D01*
X156650000Y-128750000D02*
X156650000Y-124550000D01*
X156550000Y-128600000D02*
X156550000Y-124450000D01*
X156450000Y-128400000D02*
X156450000Y-124250000D01*
X156350000Y-128250000D02*
X156350000Y-124100000D01*
X156250000Y-128050000D02*
X156250000Y-123600000D01*
X156100000Y-127900000D02*
X156100000Y-123450000D01*
X155950000Y-127750000D02*
X155950000Y-123350000D01*
X155800000Y-127650000D02*
X155800000Y-123250000D01*
X155650000Y-127550000D02*
X155650000Y-123100000D01*
X155500000Y-127450000D02*
X155500000Y-123000000D01*
X155350000Y-127400000D02*
X155350000Y-122850000D01*
X155200000Y-127300000D02*
X155200000Y-122750000D01*
X155050000Y-127250000D02*
X155050000Y-122650000D01*
X155025000Y-122575000D02*
X156300000Y-123600000D01*
X155025000Y-122575000D02*
X152475000Y-122575000D01*
X154900000Y-127250000D02*
X154900000Y-122600000D01*
D11*
X154850000Y-118851000D02*
X163150000Y-118851000D01*
D10*
X154750000Y-127250000D02*
X154750000Y-122600000D01*
X154600000Y-127200000D02*
X154600000Y-122650000D01*
X154450000Y-127225000D02*
X152475000Y-127225000D01*
X154450000Y-127200000D02*
X154450000Y-122600000D01*
X154300000Y-127200000D02*
X154300000Y-122600000D01*
X154150000Y-127200000D02*
X154150000Y-122600000D01*
X154000000Y-127200000D02*
X154000000Y-122600000D01*
X153850000Y-127200000D02*
X153850000Y-122600000D01*
X153700000Y-127200000D02*
X153700000Y-122600000D01*
X153550000Y-127200000D02*
X153550000Y-122600000D01*
X153400000Y-127200000D02*
X153400000Y-122600000D01*
X153250000Y-127200000D02*
X153250000Y-122600000D01*
X153100000Y-127200000D02*
X153100000Y-122600000D01*
X152950000Y-127200000D02*
X152950000Y-122600000D01*
X152800000Y-127200000D02*
X152800000Y-122600000D01*
X152650000Y-127200000D02*
X152650000Y-122600000D01*
X152500000Y-127200000D02*
X152500000Y-122600000D01*
X152350000Y-127050000D02*
X152350000Y-122700000D01*
X152200000Y-126950000D02*
X152200000Y-122850000D01*
X152050000Y-126800000D02*
X152050000Y-123000000D01*
X151900000Y-126650000D02*
X151900000Y-123150000D01*
X151750000Y-126450000D02*
X151750000Y-123300000D01*
X151600000Y-126350000D02*
X151600000Y-123450000D01*
X151450000Y-126200000D02*
X152475000Y-127225000D01*
X151450000Y-123600000D02*
X152475000Y-122575000D01*
X151450000Y-123600000D02*
X151450000Y-126200000D01*
X160050000Y-129425000D02*
G75*
G03*
X161050000Y-128425000I1J999999D01*
G01*
X161050000Y-125775000D02*
G75*
G03*
X160050000Y-124775000I-999999J1D01*
G01*
X156300000Y-123600000D02*
G75*
G03*
X157475000Y-124775000I1175000J0D01*
G01*
X156587798Y-128721905D02*
G75*
G03*
X157449005Y-129423790I900002J225005D01*
G01*
X156587801Y-128721904D02*
G75*
G03*
X154450000Y-127225000I-2137801J-778096D01*
G01*
D12*
X163150000Y-118851000D02*
X162142000Y-118851000D01*
X163150000Y-117835000D01*
X163150000Y-118851000D01*
G36*
X163150000Y-118851000D02*
G01*
X162142000Y-118851000D01*
X163150000Y-117835000D01*
X163150000Y-118851000D01*
G37*
D11*
X125050000Y-104601000D02*
X125050000Y-102950000D01*
X124550000Y-99901000D02*
X116750000Y-99901000D01*
D10*
X122950000Y-111525000D02*
X122950000Y-114175000D01*
X122800000Y-114600000D02*
X122800000Y-111050000D01*
X122700000Y-114750000D02*
X122700000Y-111000000D01*
X122600000Y-114850000D02*
X122600000Y-110900000D01*
X122500000Y-114950000D02*
X122500000Y-110750000D01*
X122350000Y-115050000D02*
X122350000Y-110650000D01*
X122200000Y-115100000D02*
X122200000Y-110600000D01*
X122050000Y-115150000D02*
X122050000Y-110600000D01*
X121950000Y-115175000D02*
X119350000Y-115175000D01*
X121950000Y-110525000D02*
X119375000Y-110525000D01*
X121900000Y-115150000D02*
X121900000Y-110550000D01*
X121750000Y-115150000D02*
X121750000Y-110550000D01*
X121600000Y-115150000D02*
X121600000Y-110550000D01*
X121450000Y-115150000D02*
X121450000Y-110550000D01*
X121300000Y-115150000D02*
X121300000Y-110550000D01*
X121150000Y-115150000D02*
X121150000Y-110550000D01*
X121000000Y-115150000D02*
X121000000Y-110550000D01*
X120850000Y-115150000D02*
X120850000Y-110550000D01*
X120700000Y-115150000D02*
X120700000Y-110550000D01*
X120550000Y-115150000D02*
X120550000Y-110550000D01*
X120400000Y-115150000D02*
X120400000Y-110550000D01*
X120250000Y-115150000D02*
X120250000Y-110550000D01*
X120100000Y-115150000D02*
X120100000Y-110550000D01*
X119950000Y-115150000D02*
X119950000Y-110550000D01*
X119800000Y-115150000D02*
X119800000Y-110550000D01*
X119650000Y-115150000D02*
X119650000Y-110550000D01*
X119500000Y-115150000D02*
X119500000Y-110600000D01*
X119350000Y-115150000D02*
X119350000Y-110550000D01*
X119200000Y-115150000D02*
X119200000Y-110550000D01*
X119050000Y-115100000D02*
X119050000Y-110550000D01*
X118900000Y-115000000D02*
X118900000Y-110450000D01*
X118750000Y-114900000D02*
X118750000Y-110400000D01*
X118650000Y-114750000D02*
X118650000Y-110350000D01*
X118550000Y-114500000D02*
X118550000Y-110300000D01*
X118450000Y-114350000D02*
X118450000Y-110200000D01*
X118350000Y-114150000D02*
X118350000Y-110000000D01*
X118250000Y-114000000D02*
X118250000Y-109850000D01*
X118150000Y-113800000D02*
X118150000Y-109350000D01*
X118000000Y-113650000D02*
X118000000Y-109200000D01*
X117850000Y-113500000D02*
X117850000Y-109100000D01*
X117700000Y-113400000D02*
X117700000Y-109000000D01*
X117550000Y-113300000D02*
X117550000Y-108850000D01*
X117400000Y-113200000D02*
X117400000Y-108750000D01*
X117250000Y-113150000D02*
X117250000Y-108600000D01*
X117100000Y-113050000D02*
X117100000Y-108500000D01*
X116950000Y-113000000D02*
X116950000Y-108400000D01*
X116925000Y-108325000D02*
X118200000Y-109350000D01*
X116925000Y-108325000D02*
X114375000Y-108325000D01*
X116800000Y-113000000D02*
X116800000Y-108350000D01*
D11*
X116750000Y-104601000D02*
X125050000Y-104601000D01*
D10*
X116650000Y-113000000D02*
X116650000Y-108350000D01*
X116500000Y-112950000D02*
X116500000Y-108400000D01*
X116350000Y-112975000D02*
X114375000Y-112975000D01*
X116350000Y-112950000D02*
X116350000Y-108350000D01*
X116200000Y-112950000D02*
X116200000Y-108350000D01*
X116050000Y-112950000D02*
X116050000Y-108350000D01*
X115900000Y-112950000D02*
X115900000Y-108350000D01*
X115750000Y-112950000D02*
X115750000Y-108350000D01*
X115600000Y-112950000D02*
X115600000Y-108350000D01*
X115450000Y-112950000D02*
X115450000Y-108350000D01*
X115300000Y-112950000D02*
X115300000Y-108350000D01*
X115150000Y-112950000D02*
X115150000Y-108350000D01*
X115000000Y-112950000D02*
X115000000Y-108350000D01*
X114850000Y-112950000D02*
X114850000Y-108350000D01*
X114700000Y-112950000D02*
X114700000Y-108350000D01*
X114550000Y-112950000D02*
X114550000Y-108350000D01*
X114400000Y-112950000D02*
X114400000Y-108350000D01*
X114250000Y-112800000D02*
X114250000Y-108450000D01*
X114100000Y-112700000D02*
X114100000Y-108600000D01*
X113950000Y-112550000D02*
X113950000Y-108750000D01*
X113800000Y-112400000D02*
X113800000Y-108900000D01*
X113650000Y-112200000D02*
X113650000Y-109050000D01*
X113500000Y-112100000D02*
X113500000Y-109200000D01*
X113350000Y-111950000D02*
X114375000Y-112975000D01*
X113350000Y-109350000D02*
X114375000Y-108325000D01*
X113350000Y-109350000D02*
X113350000Y-111950000D01*
X121950000Y-115175000D02*
G75*
G03*
X122950000Y-114175000I1J999999D01*
G01*
X122950000Y-111525000D02*
G75*
G03*
X121950000Y-110525000I-999999J1D01*
G01*
X118200000Y-109350000D02*
G75*
G03*
X119375000Y-110525000I1175000J0D01*
G01*
X118487798Y-114471905D02*
G75*
G03*
X119349005Y-115173790I900002J225005D01*
G01*
X118487801Y-114471904D02*
G75*
G03*
X116350000Y-112975000I-2137801J-778096D01*
G01*
D12*
X125050000Y-104601000D02*
X124042000Y-104601000D01*
X125050000Y-103585000D01*
X125050000Y-104601000D01*
G36*
X125050000Y-104601000D02*
G01*
X124042000Y-104601000D01*
X125050000Y-103585000D01*
X125050000Y-104601000D01*
G37*
D11*
X182200000Y-83201000D02*
X182200000Y-81550000D01*
X181700000Y-78501000D02*
X173900000Y-78501000D01*
D10*
X180100000Y-90125000D02*
X180100000Y-92775000D01*
X179950000Y-93200000D02*
X179950000Y-89650000D01*
X179850000Y-93350000D02*
X179850000Y-89600000D01*
X179750000Y-93450000D02*
X179750000Y-89500000D01*
X179650000Y-93550000D02*
X179650000Y-89350000D01*
X179500000Y-93650000D02*
X179500000Y-89250000D01*
X179350000Y-93700000D02*
X179350000Y-89200000D01*
X179200000Y-93750000D02*
X179200000Y-89200000D01*
X179100000Y-93775000D02*
X176500000Y-93775000D01*
X179100000Y-89125000D02*
X176525000Y-89125000D01*
X179050000Y-93750000D02*
X179050000Y-89150000D01*
X178900000Y-93750000D02*
X178900000Y-89150000D01*
X178750000Y-93750000D02*
X178750000Y-89150000D01*
X178600000Y-93750000D02*
X178600000Y-89150000D01*
X178450000Y-93750000D02*
X178450000Y-89150000D01*
X178300000Y-93750000D02*
X178300000Y-89150000D01*
X178150000Y-93750000D02*
X178150000Y-89150000D01*
X178000000Y-93750000D02*
X178000000Y-89150000D01*
X177850000Y-93750000D02*
X177850000Y-89150000D01*
X177700000Y-93750000D02*
X177700000Y-89150000D01*
X177550000Y-93750000D02*
X177550000Y-89150000D01*
X177400000Y-93750000D02*
X177400000Y-89150000D01*
X177250000Y-93750000D02*
X177250000Y-89150000D01*
X177100000Y-93750000D02*
X177100000Y-89150000D01*
X176950000Y-93750000D02*
X176950000Y-89150000D01*
X176800000Y-93750000D02*
X176800000Y-89150000D01*
X176650000Y-93750000D02*
X176650000Y-89200000D01*
X176500000Y-93750000D02*
X176500000Y-89150000D01*
X176350000Y-93750000D02*
X176350000Y-89150000D01*
X176200000Y-93700000D02*
X176200000Y-89150000D01*
X176050000Y-93600000D02*
X176050000Y-89050000D01*
X175900000Y-93500000D02*
X175900000Y-89000000D01*
X175800000Y-93350000D02*
X175800000Y-88950000D01*
X175700000Y-93100000D02*
X175700000Y-88900000D01*
X175600000Y-92950000D02*
X175600000Y-88800000D01*
X175500000Y-92750000D02*
X175500000Y-88600000D01*
X175400000Y-92600000D02*
X175400000Y-88450000D01*
X175300000Y-92400000D02*
X175300000Y-87950000D01*
X175150000Y-92250000D02*
X175150000Y-87800000D01*
X175000000Y-92100000D02*
X175000000Y-87700000D01*
X174850000Y-92000000D02*
X174850000Y-87600000D01*
X174700000Y-91900000D02*
X174700000Y-87450000D01*
X174550000Y-91800000D02*
X174550000Y-87350000D01*
X174400000Y-91750000D02*
X174400000Y-87200000D01*
X174250000Y-91650000D02*
X174250000Y-87100000D01*
X174100000Y-91600000D02*
X174100000Y-87000000D01*
X174075000Y-86925000D02*
X175350000Y-87950000D01*
X174075000Y-86925000D02*
X171525000Y-86925000D01*
X173950000Y-91600000D02*
X173950000Y-86950000D01*
D11*
X173900000Y-83201000D02*
X182200000Y-83201000D01*
D10*
X173800000Y-91600000D02*
X173800000Y-86950000D01*
X173650000Y-91550000D02*
X173650000Y-87000000D01*
X173500000Y-91575000D02*
X171525000Y-91575000D01*
X173500000Y-91550000D02*
X173500000Y-86950000D01*
X173350000Y-91550000D02*
X173350000Y-86950000D01*
X173200000Y-91550000D02*
X173200000Y-86950000D01*
X173050000Y-91550000D02*
X173050000Y-86950000D01*
X172900000Y-91550000D02*
X172900000Y-86950000D01*
X172750000Y-91550000D02*
X172750000Y-86950000D01*
X172600000Y-91550000D02*
X172600000Y-86950000D01*
X172450000Y-91550000D02*
X172450000Y-86950000D01*
X172300000Y-91550000D02*
X172300000Y-86950000D01*
X172150000Y-91550000D02*
X172150000Y-86950000D01*
X172000000Y-91550000D02*
X172000000Y-86950000D01*
X171850000Y-91550000D02*
X171850000Y-86950000D01*
X171700000Y-91550000D02*
X171700000Y-86950000D01*
X171550000Y-91550000D02*
X171550000Y-86950000D01*
X171400000Y-91400000D02*
X171400000Y-87050000D01*
X171250000Y-91300000D02*
X171250000Y-87200000D01*
X171100000Y-91150000D02*
X171100000Y-87350000D01*
X170950000Y-91000000D02*
X170950000Y-87500000D01*
X170800000Y-90800000D02*
X170800000Y-87650000D01*
X170650000Y-90700000D02*
X170650000Y-87800000D01*
X170500000Y-90550000D02*
X171525000Y-91575000D01*
X170500000Y-87950000D02*
X171525000Y-86925000D01*
X170500000Y-87950000D02*
X170500000Y-90550000D01*
X179100000Y-93775000D02*
G75*
G03*
X180100000Y-92775000I1J999999D01*
G01*
X180100000Y-90125000D02*
G75*
G03*
X179100000Y-89125000I-999999J1D01*
G01*
X175350000Y-87950000D02*
G75*
G03*
X176525000Y-89125000I1175000J0D01*
G01*
X175637798Y-93071905D02*
G75*
G03*
X176499005Y-93773790I900002J225005D01*
G01*
X175637801Y-93071904D02*
G75*
G03*
X173500000Y-91575000I-2137801J-778096D01*
G01*
D12*
X182200000Y-83201000D02*
X181192000Y-83201000D01*
X182200000Y-82185000D01*
X182200000Y-83201000D01*
G36*
X182200000Y-83201000D02*
G01*
X181192000Y-83201000D01*
X182200000Y-82185000D01*
X182200000Y-83201000D01*
G37*
D11*
X144100000Y-64150000D02*
X144100000Y-62499000D01*
X143600000Y-59450000D02*
X135800000Y-59450000D01*
D10*
X142000000Y-71074000D02*
X142000000Y-73724000D01*
X141850000Y-74149000D02*
X141850000Y-70599000D01*
X141750000Y-74299000D02*
X141750000Y-70549000D01*
X141650000Y-74399000D02*
X141650000Y-70449000D01*
X141550000Y-74499000D02*
X141550000Y-70299000D01*
X141400000Y-74599000D02*
X141400000Y-70199000D01*
X141250000Y-74649000D02*
X141250000Y-70149000D01*
X141100000Y-74699000D02*
X141100000Y-70149000D01*
X141000000Y-74724000D02*
X138400000Y-74724000D01*
X141000000Y-70074000D02*
X138425000Y-70074000D01*
X140950000Y-74699000D02*
X140950000Y-70099000D01*
X140800000Y-74699000D02*
X140800000Y-70099000D01*
X140650000Y-74699000D02*
X140650000Y-70099000D01*
X140500000Y-74699000D02*
X140500000Y-70099000D01*
X140350000Y-74699000D02*
X140350000Y-70099000D01*
X140200000Y-74699000D02*
X140200000Y-70099000D01*
X140050000Y-74699000D02*
X140050000Y-70099000D01*
X139900000Y-74699000D02*
X139900000Y-70099000D01*
X139750000Y-74699000D02*
X139750000Y-70099000D01*
X139600000Y-74699000D02*
X139600000Y-70099000D01*
X139450000Y-74699000D02*
X139450000Y-70099000D01*
X139300000Y-74699000D02*
X139300000Y-70099000D01*
X139150000Y-74699000D02*
X139150000Y-70099000D01*
X139000000Y-74699000D02*
X139000000Y-70099000D01*
X138850000Y-74699000D02*
X138850000Y-70099000D01*
X138700000Y-74699000D02*
X138700000Y-70099000D01*
X138550000Y-74699000D02*
X138550000Y-70149000D01*
X138400000Y-74699000D02*
X138400000Y-70099000D01*
X138250000Y-74699000D02*
X138250000Y-70099000D01*
X138100000Y-74649000D02*
X138100000Y-70099000D01*
X137950000Y-74549000D02*
X137950000Y-69999000D01*
X137800000Y-74449000D02*
X137800000Y-69949000D01*
X137700000Y-74299000D02*
X137700000Y-69899000D01*
X137600000Y-74049000D02*
X137600000Y-69849000D01*
X137500000Y-73899000D02*
X137500000Y-69749000D01*
X137400000Y-73699000D02*
X137400000Y-69549000D01*
X137300000Y-73549000D02*
X137300000Y-69399000D01*
X137200000Y-73349000D02*
X137200000Y-68899000D01*
X137050000Y-73199000D02*
X137050000Y-68749000D01*
X136900000Y-73049000D02*
X136900000Y-68649000D01*
X136750000Y-72949000D02*
X136750000Y-68549000D01*
X136600000Y-72849000D02*
X136600000Y-68399000D01*
X136450000Y-72749000D02*
X136450000Y-68299000D01*
X136300000Y-72699000D02*
X136300000Y-68149000D01*
X136150000Y-72599000D02*
X136150000Y-68049000D01*
X136000000Y-72549000D02*
X136000000Y-67949000D01*
X135975000Y-67874000D02*
X137250000Y-68899000D01*
X135975000Y-67874000D02*
X133425000Y-67874000D01*
X135850000Y-72549000D02*
X135850000Y-67899000D01*
D11*
X135800000Y-64150000D02*
X144100000Y-64150000D01*
D10*
X135700000Y-72549000D02*
X135700000Y-67899000D01*
X135550000Y-72499000D02*
X135550000Y-67949000D01*
X135400000Y-72524000D02*
X133425000Y-72524000D01*
X135400000Y-72499000D02*
X135400000Y-67899000D01*
X135250000Y-72499000D02*
X135250000Y-67899000D01*
X135100000Y-72499000D02*
X135100000Y-67899000D01*
X134950000Y-72499000D02*
X134950000Y-67899000D01*
X134800000Y-72499000D02*
X134800000Y-67899000D01*
X134650000Y-72499000D02*
X134650000Y-67899000D01*
X134500000Y-72499000D02*
X134500000Y-67899000D01*
X134350000Y-72499000D02*
X134350000Y-67899000D01*
X134200000Y-72499000D02*
X134200000Y-67899000D01*
X134050000Y-72499000D02*
X134050000Y-67899000D01*
X133900000Y-72499000D02*
X133900000Y-67899000D01*
X133750000Y-72499000D02*
X133750000Y-67899000D01*
X133600000Y-72499000D02*
X133600000Y-67899000D01*
X133450000Y-72499000D02*
X133450000Y-67899000D01*
X133300000Y-72349000D02*
X133300000Y-67999000D01*
X133150000Y-72249000D02*
X133150000Y-68149000D01*
X133000000Y-72099000D02*
X133000000Y-68299000D01*
X132850000Y-71949000D02*
X132850000Y-68449000D01*
X132700000Y-71749000D02*
X132700000Y-68599000D01*
X132550000Y-71649000D02*
X132550000Y-68749000D01*
X132400000Y-71499000D02*
X133425000Y-72524000D01*
X132400000Y-68899000D02*
X133425000Y-67874000D01*
X132400000Y-68899000D02*
X132400000Y-71499000D01*
X141000000Y-74724000D02*
G75*
G03*
X142000000Y-73724000I1J999999D01*
G01*
X142000000Y-71074000D02*
G75*
G03*
X141000000Y-70074000I-999999J1D01*
G01*
X137250000Y-68899000D02*
G75*
G03*
X138425000Y-70074000I1175000J0D01*
G01*
X137537798Y-74020905D02*
G75*
G03*
X138399005Y-74722790I900002J225005D01*
G01*
X137537801Y-74020904D02*
G75*
G03*
X135400000Y-72524000I-2137801J-778096D01*
G01*
D12*
X144100000Y-64150000D02*
X143092000Y-64150000D01*
X144100000Y-63134000D01*
X144100000Y-64150000D01*
G36*
X144100000Y-64150000D02*
G01*
X143092000Y-64150000D01*
X144100000Y-63134000D01*
X144100000Y-64150000D01*
G37*
D11*
X125050000Y-66501000D02*
X125050000Y-64850000D01*
X124550000Y-61801000D02*
X116750000Y-61801000D01*
D10*
X122950000Y-73425000D02*
X122950000Y-76075000D01*
X122800000Y-76500000D02*
X122800000Y-72950000D01*
X122700000Y-76650000D02*
X122700000Y-72900000D01*
X122600000Y-76750000D02*
X122600000Y-72800000D01*
X122500000Y-76850000D02*
X122500000Y-72650000D01*
X122350000Y-76950000D02*
X122350000Y-72550000D01*
X122200000Y-77000000D02*
X122200000Y-72500000D01*
X122050000Y-77050000D02*
X122050000Y-72500000D01*
X121950000Y-77075000D02*
X119350000Y-77075000D01*
X121950000Y-72425000D02*
X119375000Y-72425000D01*
X121900000Y-77050000D02*
X121900000Y-72450000D01*
X121750000Y-77050000D02*
X121750000Y-72450000D01*
X121600000Y-77050000D02*
X121600000Y-72450000D01*
X121450000Y-77050000D02*
X121450000Y-72450000D01*
X121300000Y-77050000D02*
X121300000Y-72450000D01*
X121150000Y-77050000D02*
X121150000Y-72450000D01*
X121000000Y-77050000D02*
X121000000Y-72450000D01*
X120850000Y-77050000D02*
X120850000Y-72450000D01*
X120700000Y-77050000D02*
X120700000Y-72450000D01*
X120550000Y-77050000D02*
X120550000Y-72450000D01*
X120400000Y-77050000D02*
X120400000Y-72450000D01*
X120250000Y-77050000D02*
X120250000Y-72450000D01*
X120100000Y-77050000D02*
X120100000Y-72450000D01*
X119950000Y-77050000D02*
X119950000Y-72450000D01*
X119800000Y-77050000D02*
X119800000Y-72450000D01*
X119650000Y-77050000D02*
X119650000Y-72450000D01*
X119500000Y-77050000D02*
X119500000Y-72500000D01*
X119350000Y-77050000D02*
X119350000Y-72450000D01*
X119200000Y-77050000D02*
X119200000Y-72450000D01*
X119050000Y-77000000D02*
X119050000Y-72450000D01*
X118900000Y-76900000D02*
X118900000Y-72350000D01*
X118750000Y-76800000D02*
X118750000Y-72300000D01*
X118650000Y-76650000D02*
X118650000Y-72250000D01*
X118550000Y-76400000D02*
X118550000Y-72200000D01*
X118450000Y-76250000D02*
X118450000Y-72100000D01*
X118350000Y-76050000D02*
X118350000Y-71900000D01*
X118250000Y-75900000D02*
X118250000Y-71750000D01*
X118150000Y-75700000D02*
X118150000Y-71250000D01*
X118000000Y-75550000D02*
X118000000Y-71100000D01*
X117850000Y-75400000D02*
X117850000Y-71000000D01*
X117700000Y-75300000D02*
X117700000Y-70900000D01*
X117550000Y-75200000D02*
X117550000Y-70750000D01*
X117400000Y-75100000D02*
X117400000Y-70650000D01*
X117250000Y-75050000D02*
X117250000Y-70500000D01*
X117100000Y-74950000D02*
X117100000Y-70400000D01*
X116950000Y-74900000D02*
X116950000Y-70300000D01*
X116925000Y-70225000D02*
X118200000Y-71250000D01*
X116925000Y-70225000D02*
X114375000Y-70225000D01*
X116800000Y-74900000D02*
X116800000Y-70250000D01*
D11*
X116750000Y-66501000D02*
X125050000Y-66501000D01*
D10*
X116650000Y-74900000D02*
X116650000Y-70250000D01*
X116500000Y-74850000D02*
X116500000Y-70300000D01*
X116350000Y-74875000D02*
X114375000Y-74875000D01*
X116350000Y-74850000D02*
X116350000Y-70250000D01*
X116200000Y-74850000D02*
X116200000Y-70250000D01*
X116050000Y-74850000D02*
X116050000Y-70250000D01*
X115900000Y-74850000D02*
X115900000Y-70250000D01*
X115750000Y-74850000D02*
X115750000Y-70250000D01*
X115600000Y-74850000D02*
X115600000Y-70250000D01*
X115450000Y-74850000D02*
X115450000Y-70250000D01*
X115300000Y-74850000D02*
X115300000Y-70250000D01*
X115150000Y-74850000D02*
X115150000Y-70250000D01*
X115000000Y-74850000D02*
X115000000Y-70250000D01*
X114850000Y-74850000D02*
X114850000Y-70250000D01*
X114700000Y-74850000D02*
X114700000Y-70250000D01*
X114550000Y-74850000D02*
X114550000Y-70250000D01*
X114400000Y-74850000D02*
X114400000Y-70250000D01*
X114250000Y-74700000D02*
X114250000Y-70350000D01*
X114100000Y-74600000D02*
X114100000Y-70500000D01*
X113950000Y-74450000D02*
X113950000Y-70650000D01*
X113800000Y-74300000D02*
X113800000Y-70800000D01*
X113650000Y-74100000D02*
X113650000Y-70950000D01*
X113500000Y-74000000D02*
X113500000Y-71100000D01*
X113350000Y-73850000D02*
X114375000Y-74875000D01*
X113350000Y-71250000D02*
X114375000Y-70225000D01*
X113350000Y-71250000D02*
X113350000Y-73850000D01*
X121950000Y-77075000D02*
G75*
G03*
X122950000Y-76075000I1J999999D01*
G01*
X122950000Y-73425000D02*
G75*
G03*
X121950000Y-72425000I-999999J1D01*
G01*
X118200000Y-71250000D02*
G75*
G03*
X119375000Y-72425000I1175000J0D01*
G01*
X118487798Y-76371905D02*
G75*
G03*
X119349005Y-77073790I900002J225005D01*
G01*
X118487801Y-76371904D02*
G75*
G03*
X116350000Y-74875000I-2137801J-778096D01*
G01*
D12*
X125050000Y-66501000D02*
X124042000Y-66501000D01*
X125050000Y-65485000D01*
X125050000Y-66501000D01*
G36*
X125050000Y-66501000D02*
G01*
X124042000Y-66501000D01*
X125050000Y-65485000D01*
X125050000Y-66501000D01*
G37*
D11*
X182200000Y-121301000D02*
X182200000Y-119650000D01*
X181700000Y-116601000D02*
X173900000Y-116601000D01*
D10*
X180100000Y-128225000D02*
X180100000Y-130875000D01*
X179950000Y-131300000D02*
X179950000Y-127750000D01*
X179850000Y-131450000D02*
X179850000Y-127700000D01*
X179750000Y-131550000D02*
X179750000Y-127600000D01*
X179650000Y-131650000D02*
X179650000Y-127450000D01*
X179500000Y-131750000D02*
X179500000Y-127350000D01*
X179350000Y-131800000D02*
X179350000Y-127300000D01*
X179200000Y-131850000D02*
X179200000Y-127300000D01*
X179100000Y-131875000D02*
X176500000Y-131875000D01*
X179100000Y-127225000D02*
X176525000Y-127225000D01*
X179050000Y-131850000D02*
X179050000Y-127250000D01*
X178900000Y-131850000D02*
X178900000Y-127250000D01*
X178750000Y-131850000D02*
X178750000Y-127250000D01*
X178600000Y-131850000D02*
X178600000Y-127250000D01*
X178450000Y-131850000D02*
X178450000Y-127250000D01*
X178300000Y-131850000D02*
X178300000Y-127250000D01*
X178150000Y-131850000D02*
X178150000Y-127250000D01*
X178000000Y-131850000D02*
X178000000Y-127250000D01*
X177850000Y-131850000D02*
X177850000Y-127250000D01*
X177700000Y-131850000D02*
X177700000Y-127250000D01*
X177550000Y-131850000D02*
X177550000Y-127250000D01*
X177400000Y-131850000D02*
X177400000Y-127250000D01*
X177250000Y-131850000D02*
X177250000Y-127250000D01*
X177100000Y-131850000D02*
X177100000Y-127250000D01*
X176950000Y-131850000D02*
X176950000Y-127250000D01*
X176800000Y-131850000D02*
X176800000Y-127250000D01*
X176650000Y-131850000D02*
X176650000Y-127300000D01*
X176500000Y-131850000D02*
X176500000Y-127250000D01*
X176350000Y-131850000D02*
X176350000Y-127250000D01*
X176200000Y-131800000D02*
X176200000Y-127250000D01*
X176050000Y-131700000D02*
X176050000Y-127150000D01*
X175900000Y-131600000D02*
X175900000Y-127100000D01*
X175800000Y-131450000D02*
X175800000Y-127050000D01*
X175700000Y-131200000D02*
X175700000Y-127000000D01*
X175600000Y-131050000D02*
X175600000Y-126900000D01*
X175500000Y-130850000D02*
X175500000Y-126700000D01*
X175400000Y-130700000D02*
X175400000Y-126550000D01*
X175300000Y-130500000D02*
X175300000Y-126050000D01*
X175150000Y-130350000D02*
X175150000Y-125900000D01*
X175000000Y-130200000D02*
X175000000Y-125800000D01*
X174850000Y-130100000D02*
X174850000Y-125700000D01*
X174700000Y-130000000D02*
X174700000Y-125550000D01*
X174550000Y-129900000D02*
X174550000Y-125450000D01*
X174400000Y-129850000D02*
X174400000Y-125300000D01*
X174250000Y-129750000D02*
X174250000Y-125200000D01*
X174100000Y-129700000D02*
X174100000Y-125100000D01*
X174075000Y-125025000D02*
X175350000Y-126050000D01*
X174075000Y-125025000D02*
X171525000Y-125025000D01*
X173950000Y-129700000D02*
X173950000Y-125050000D01*
D11*
X173900000Y-121301000D02*
X182200000Y-121301000D01*
D10*
X173800000Y-129700000D02*
X173800000Y-125050000D01*
X173650000Y-129650000D02*
X173650000Y-125100000D01*
X173500000Y-129675000D02*
X171525000Y-129675000D01*
X173500000Y-129650000D02*
X173500000Y-125050000D01*
X173350000Y-129650000D02*
X173350000Y-125050000D01*
X173200000Y-129650000D02*
X173200000Y-125050000D01*
X173050000Y-129650000D02*
X173050000Y-125050000D01*
X172900000Y-129650000D02*
X172900000Y-125050000D01*
X172750000Y-129650000D02*
X172750000Y-125050000D01*
X172600000Y-129650000D02*
X172600000Y-125050000D01*
X172450000Y-129650000D02*
X172450000Y-125050000D01*
X172300000Y-129650000D02*
X172300000Y-125050000D01*
X172150000Y-129650000D02*
X172150000Y-125050000D01*
X172000000Y-129650000D02*
X172000000Y-125050000D01*
X171850000Y-129650000D02*
X171850000Y-125050000D01*
X171700000Y-129650000D02*
X171700000Y-125050000D01*
X171550000Y-129650000D02*
X171550000Y-125050000D01*
X171400000Y-129500000D02*
X171400000Y-125150000D01*
X171250000Y-129400000D02*
X171250000Y-125300000D01*
X171100000Y-129250000D02*
X171100000Y-125450000D01*
X170950000Y-129100000D02*
X170950000Y-125600000D01*
X170800000Y-128900000D02*
X170800000Y-125750000D01*
X170650000Y-128800000D02*
X170650000Y-125900000D01*
X170500000Y-128650000D02*
X171525000Y-129675000D01*
X170500000Y-126050000D02*
X171525000Y-125025000D01*
X170500000Y-126050000D02*
X170500000Y-128650000D01*
X179100000Y-131875000D02*
G75*
G03*
X180100000Y-130875000I1J999999D01*
G01*
X180100000Y-128225000D02*
G75*
G03*
X179100000Y-127225000I-999999J1D01*
G01*
X175350000Y-126050000D02*
G75*
G03*
X176525000Y-127225000I1175000J0D01*
G01*
X175637798Y-131171905D02*
G75*
G03*
X176499005Y-131873790I900002J225005D01*
G01*
X175637801Y-131171904D02*
G75*
G03*
X173500000Y-129675000I-2137801J-778096D01*
G01*
D12*
X182200000Y-121301000D02*
X181192000Y-121301000D01*
X182200000Y-120285000D01*
X182200000Y-121301000D01*
G36*
X182200000Y-121301000D02*
G01*
X181192000Y-121301000D01*
X182200000Y-120285000D01*
X182200000Y-121301000D01*
G37*
D11*
X201250000Y-128301000D02*
X201250000Y-126650000D01*
X200750000Y-123601000D02*
X192950000Y-123601000D01*
D10*
X199150000Y-135225000D02*
X199150000Y-137875000D01*
X199000000Y-138300000D02*
X199000000Y-134750000D01*
X198900000Y-138450000D02*
X198900000Y-134700000D01*
X198800000Y-138550000D02*
X198800000Y-134600000D01*
X198700000Y-138650000D02*
X198700000Y-134450000D01*
X198550000Y-138750000D02*
X198550000Y-134350000D01*
X198400000Y-138800000D02*
X198400000Y-134300000D01*
X198250000Y-138850000D02*
X198250000Y-134300000D01*
X198150000Y-138875000D02*
X195550000Y-138875000D01*
X198150000Y-134225000D02*
X195575000Y-134225000D01*
X198100000Y-138850000D02*
X198100000Y-134250000D01*
X197950000Y-138850000D02*
X197950000Y-134250000D01*
X197800000Y-138850000D02*
X197800000Y-134250000D01*
X197650000Y-138850000D02*
X197650000Y-134250000D01*
X197500000Y-138850000D02*
X197500000Y-134250000D01*
X197350000Y-138850000D02*
X197350000Y-134250000D01*
X197200000Y-138850000D02*
X197200000Y-134250000D01*
X197050000Y-138850000D02*
X197050000Y-134250000D01*
X196900000Y-138850000D02*
X196900000Y-134250000D01*
X196750000Y-138850000D02*
X196750000Y-134250000D01*
X196600000Y-138850000D02*
X196600000Y-134250000D01*
X196450000Y-138850000D02*
X196450000Y-134250000D01*
X196300000Y-138850000D02*
X196300000Y-134250000D01*
X196150000Y-138850000D02*
X196150000Y-134250000D01*
X196000000Y-138850000D02*
X196000000Y-134250000D01*
X195850000Y-138850000D02*
X195850000Y-134250000D01*
X195700000Y-138850000D02*
X195700000Y-134300000D01*
X195550000Y-138850000D02*
X195550000Y-134250000D01*
X195400000Y-138850000D02*
X195400000Y-134250000D01*
X195250000Y-138800000D02*
X195250000Y-134250000D01*
X195100000Y-138700000D02*
X195100000Y-134150000D01*
X194950000Y-138600000D02*
X194950000Y-134100000D01*
X194850000Y-138450000D02*
X194850000Y-134050000D01*
X194750000Y-138200000D02*
X194750000Y-134000000D01*
X194650000Y-138050000D02*
X194650000Y-133900000D01*
X194550000Y-137850000D02*
X194550000Y-133700000D01*
X194450000Y-137700000D02*
X194450000Y-133550000D01*
X194350000Y-137500000D02*
X194350000Y-133050000D01*
X194200000Y-137350000D02*
X194200000Y-132900000D01*
X194050000Y-137200000D02*
X194050000Y-132800000D01*
X193900000Y-137100000D02*
X193900000Y-132700000D01*
X193750000Y-137000000D02*
X193750000Y-132550000D01*
X193600000Y-136900000D02*
X193600000Y-132450000D01*
X193450000Y-136850000D02*
X193450000Y-132300000D01*
X193300000Y-136750000D02*
X193300000Y-132200000D01*
X193150000Y-136700000D02*
X193150000Y-132100000D01*
X193125000Y-132025000D02*
X194400000Y-133050000D01*
X193125000Y-132025000D02*
X190575000Y-132025000D01*
X193000000Y-136700000D02*
X193000000Y-132050000D01*
D11*
X192950000Y-128301000D02*
X201250000Y-128301000D01*
D10*
X192850000Y-136700000D02*
X192850000Y-132050000D01*
X192700000Y-136650000D02*
X192700000Y-132100000D01*
X192550000Y-136675000D02*
X190575000Y-136675000D01*
X192550000Y-136650000D02*
X192550000Y-132050000D01*
X192400000Y-136650000D02*
X192400000Y-132050000D01*
X192250000Y-136650000D02*
X192250000Y-132050000D01*
X192100000Y-136650000D02*
X192100000Y-132050000D01*
X191950000Y-136650000D02*
X191950000Y-132050000D01*
X191800000Y-136650000D02*
X191800000Y-132050000D01*
X191650000Y-136650000D02*
X191650000Y-132050000D01*
X191500000Y-136650000D02*
X191500000Y-132050000D01*
X191350000Y-136650000D02*
X191350000Y-132050000D01*
X191200000Y-136650000D02*
X191200000Y-132050000D01*
X191050000Y-136650000D02*
X191050000Y-132050000D01*
X190900000Y-136650000D02*
X190900000Y-132050000D01*
X190750000Y-136650000D02*
X190750000Y-132050000D01*
X190600000Y-136650000D02*
X190600000Y-132050000D01*
X190450000Y-136500000D02*
X190450000Y-132150000D01*
X190300000Y-136400000D02*
X190300000Y-132300000D01*
X190150000Y-136250000D02*
X190150000Y-132450000D01*
X190000000Y-136100000D02*
X190000000Y-132600000D01*
X189850000Y-135900000D02*
X189850000Y-132750000D01*
X189700000Y-135800000D02*
X189700000Y-132900000D01*
X189550000Y-135650000D02*
X190575000Y-136675000D01*
X189550000Y-133050000D02*
X190575000Y-132025000D01*
X189550000Y-133050000D02*
X189550000Y-135650000D01*
X198150000Y-138875000D02*
G75*
G03*
X199150000Y-137875000I1J999999D01*
G01*
X199150000Y-135225000D02*
G75*
G03*
X198150000Y-134225000I-999999J1D01*
G01*
X194400000Y-133050000D02*
G75*
G03*
X195575000Y-134225000I1175000J0D01*
G01*
X194687798Y-138171905D02*
G75*
G03*
X195549005Y-138873790I900002J225005D01*
G01*
X194687801Y-138171904D02*
G75*
G03*
X192550000Y-136675000I-2137801J-778096D01*
G01*
D12*
X201250000Y-128301000D02*
X200242000Y-128301000D01*
X201250000Y-127285000D01*
X201250000Y-128301000D01*
G36*
X201250000Y-128301000D02*
G01*
X200242000Y-128301000D01*
X201250000Y-127285000D01*
X201250000Y-128301000D01*
G37*
D11*
X163150000Y-80751000D02*
X163150000Y-79100000D01*
X162650000Y-76051000D02*
X154850000Y-76051000D01*
D10*
X161050000Y-87675000D02*
X161050000Y-90325000D01*
X160900000Y-90750000D02*
X160900000Y-87200000D01*
X160800000Y-90900000D02*
X160800000Y-87150000D01*
X160700000Y-91000000D02*
X160700000Y-87050000D01*
X160600000Y-91100000D02*
X160600000Y-86900000D01*
X160450000Y-91200000D02*
X160450000Y-86800000D01*
X160300000Y-91250000D02*
X160300000Y-86750000D01*
X160150000Y-91300000D02*
X160150000Y-86750000D01*
X160050000Y-91325000D02*
X157450000Y-91325000D01*
X160050000Y-86675000D02*
X157475000Y-86675000D01*
X160000000Y-91300000D02*
X160000000Y-86700000D01*
X159850000Y-91300000D02*
X159850000Y-86700000D01*
X159700000Y-91300000D02*
X159700000Y-86700000D01*
X159550000Y-91300000D02*
X159550000Y-86700000D01*
X159400000Y-91300000D02*
X159400000Y-86700000D01*
X159250000Y-91300000D02*
X159250000Y-86700000D01*
X159100000Y-91300000D02*
X159100000Y-86700000D01*
X158950000Y-91300000D02*
X158950000Y-86700000D01*
X158800000Y-91300000D02*
X158800000Y-86700000D01*
X158650000Y-91300000D02*
X158650000Y-86700000D01*
X158500000Y-91300000D02*
X158500000Y-86700000D01*
X158350000Y-91300000D02*
X158350000Y-86700000D01*
X158200000Y-91300000D02*
X158200000Y-86700000D01*
X158050000Y-91300000D02*
X158050000Y-86700000D01*
X157900000Y-91300000D02*
X157900000Y-86700000D01*
X157750000Y-91300000D02*
X157750000Y-86700000D01*
X157600000Y-91300000D02*
X157600000Y-86750000D01*
X157450000Y-91300000D02*
X157450000Y-86700000D01*
X157300000Y-91300000D02*
X157300000Y-86700000D01*
X157150000Y-91250000D02*
X157150000Y-86700000D01*
X157000000Y-91150000D02*
X157000000Y-86600000D01*
X156850000Y-91050000D02*
X156850000Y-86550000D01*
X156750000Y-90900000D02*
X156750000Y-86500000D01*
X156650000Y-90650000D02*
X156650000Y-86450000D01*
X156550000Y-90500000D02*
X156550000Y-86350000D01*
X156450000Y-90300000D02*
X156450000Y-86150000D01*
X156350000Y-90150000D02*
X156350000Y-86000000D01*
X156250000Y-89950000D02*
X156250000Y-85500000D01*
X156100000Y-89800000D02*
X156100000Y-85350000D01*
X155950000Y-89650000D02*
X155950000Y-85250000D01*
X155800000Y-89550000D02*
X155800000Y-85150000D01*
X155650000Y-89450000D02*
X155650000Y-85000000D01*
X155500000Y-89350000D02*
X155500000Y-84900000D01*
X155350000Y-89300000D02*
X155350000Y-84750000D01*
X155200000Y-89200000D02*
X155200000Y-84650000D01*
X155050000Y-89150000D02*
X155050000Y-84550000D01*
X155025000Y-84475000D02*
X156300000Y-85500000D01*
X155025000Y-84475000D02*
X152475000Y-84475000D01*
X154900000Y-89150000D02*
X154900000Y-84500000D01*
D11*
X154850000Y-80751000D02*
X163150000Y-80751000D01*
D10*
X154750000Y-89150000D02*
X154750000Y-84500000D01*
X154600000Y-89100000D02*
X154600000Y-84550000D01*
X154450000Y-89125000D02*
X152475000Y-89125000D01*
X154450000Y-89100000D02*
X154450000Y-84500000D01*
X154300000Y-89100000D02*
X154300000Y-84500000D01*
X154150000Y-89100000D02*
X154150000Y-84500000D01*
X154000000Y-89100000D02*
X154000000Y-84500000D01*
X153850000Y-89100000D02*
X153850000Y-84500000D01*
X153700000Y-89100000D02*
X153700000Y-84500000D01*
X153550000Y-89100000D02*
X153550000Y-84500000D01*
X153400000Y-89100000D02*
X153400000Y-84500000D01*
X153250000Y-89100000D02*
X153250000Y-84500000D01*
X153100000Y-89100000D02*
X153100000Y-84500000D01*
X152950000Y-89100000D02*
X152950000Y-84500000D01*
X152800000Y-89100000D02*
X152800000Y-84500000D01*
X152650000Y-89100000D02*
X152650000Y-84500000D01*
X152500000Y-89100000D02*
X152500000Y-84500000D01*
X152350000Y-88950000D02*
X152350000Y-84600000D01*
X152200000Y-88850000D02*
X152200000Y-84750000D01*
X152050000Y-88700000D02*
X152050000Y-84900000D01*
X151900000Y-88550000D02*
X151900000Y-85050000D01*
X151750000Y-88350000D02*
X151750000Y-85200000D01*
X151600000Y-88250000D02*
X151600000Y-85350000D01*
X151450000Y-88100000D02*
X152475000Y-89125000D01*
X151450000Y-85500000D02*
X152475000Y-84475000D01*
X151450000Y-85500000D02*
X151450000Y-88100000D01*
X160050000Y-91325000D02*
G75*
G03*
X161050000Y-90325000I1J999999D01*
G01*
X161050000Y-87675000D02*
G75*
G03*
X160050000Y-86675000I-999999J1D01*
G01*
X156300000Y-85500000D02*
G75*
G03*
X157475000Y-86675000I1175000J0D01*
G01*
X156587798Y-90621905D02*
G75*
G03*
X157449005Y-91323790I900002J225005D01*
G01*
X156587801Y-90621904D02*
G75*
G03*
X154450000Y-89125000I-2137801J-778096D01*
G01*
D12*
X163150000Y-80751000D02*
X162142000Y-80751000D01*
X163150000Y-79735000D01*
X163150000Y-80751000D01*
G36*
X163150000Y-80751000D02*
G01*
X162142000Y-80751000D01*
X163150000Y-79735000D01*
X163150000Y-80751000D01*
G37*
D11*
X182200000Y-64151000D02*
X182200000Y-62500000D01*
X181700000Y-59451000D02*
X173900000Y-59451000D01*
D10*
X180100000Y-71075000D02*
X180100000Y-73725000D01*
X179950000Y-74150000D02*
X179950000Y-70600000D01*
X179850000Y-74300000D02*
X179850000Y-70550000D01*
X179750000Y-74400000D02*
X179750000Y-70450000D01*
X179650000Y-74500000D02*
X179650000Y-70300000D01*
X179500000Y-74600000D02*
X179500000Y-70200000D01*
X179350000Y-74650000D02*
X179350000Y-70150000D01*
X179200000Y-74700000D02*
X179200000Y-70150000D01*
X179100000Y-74725000D02*
X176500000Y-74725000D01*
X179100000Y-70075000D02*
X176525000Y-70075000D01*
X179050000Y-74700000D02*
X179050000Y-70100000D01*
X178900000Y-74700000D02*
X178900000Y-70100000D01*
X178750000Y-74700000D02*
X178750000Y-70100000D01*
X178600000Y-74700000D02*
X178600000Y-70100000D01*
X178450000Y-74700000D02*
X178450000Y-70100000D01*
X178300000Y-74700000D02*
X178300000Y-70100000D01*
X178150000Y-74700000D02*
X178150000Y-70100000D01*
X178000000Y-74700000D02*
X178000000Y-70100000D01*
X177850000Y-74700000D02*
X177850000Y-70100000D01*
X177700000Y-74700000D02*
X177700000Y-70100000D01*
X177550000Y-74700000D02*
X177550000Y-70100000D01*
X177400000Y-74700000D02*
X177400000Y-70100000D01*
X177250000Y-74700000D02*
X177250000Y-70100000D01*
X177100000Y-74700000D02*
X177100000Y-70100000D01*
X176950000Y-74700000D02*
X176950000Y-70100000D01*
X176800000Y-74700000D02*
X176800000Y-70100000D01*
X176650000Y-74700000D02*
X176650000Y-70150000D01*
X176500000Y-74700000D02*
X176500000Y-70100000D01*
X176350000Y-74700000D02*
X176350000Y-70100000D01*
X176200000Y-74650000D02*
X176200000Y-70100000D01*
X176050000Y-74550000D02*
X176050000Y-70000000D01*
X175900000Y-74450000D02*
X175900000Y-69950000D01*
X175800000Y-74300000D02*
X175800000Y-69900000D01*
X175700000Y-74050000D02*
X175700000Y-69850000D01*
X175600000Y-73900000D02*
X175600000Y-69750000D01*
X175500000Y-73700000D02*
X175500000Y-69550000D01*
X175400000Y-73550000D02*
X175400000Y-69400000D01*
X175300000Y-73350000D02*
X175300000Y-68900000D01*
X175150000Y-73200000D02*
X175150000Y-68750000D01*
X175000000Y-73050000D02*
X175000000Y-68650000D01*
X174850000Y-72950000D02*
X174850000Y-68550000D01*
X174700000Y-72850000D02*
X174700000Y-68400000D01*
X174550000Y-72750000D02*
X174550000Y-68300000D01*
X174400000Y-72700000D02*
X174400000Y-68150000D01*
X174250000Y-72600000D02*
X174250000Y-68050000D01*
X174100000Y-72550000D02*
X174100000Y-67950000D01*
X174075000Y-67875000D02*
X175350000Y-68900000D01*
X174075000Y-67875000D02*
X171525000Y-67875000D01*
X173950000Y-72550000D02*
X173950000Y-67900000D01*
D11*
X173900000Y-64151000D02*
X182200000Y-64151000D01*
D10*
X173800000Y-72550000D02*
X173800000Y-67900000D01*
X173650000Y-72500000D02*
X173650000Y-67950000D01*
X173500000Y-72525000D02*
X171525000Y-72525000D01*
X173500000Y-72500000D02*
X173500000Y-67900000D01*
X173350000Y-72500000D02*
X173350000Y-67900000D01*
X173200000Y-72500000D02*
X173200000Y-67900000D01*
X173050000Y-72500000D02*
X173050000Y-67900000D01*
X172900000Y-72500000D02*
X172900000Y-67900000D01*
X172750000Y-72500000D02*
X172750000Y-67900000D01*
X172600000Y-72500000D02*
X172600000Y-67900000D01*
X172450000Y-72500000D02*
X172450000Y-67900000D01*
X172300000Y-72500000D02*
X172300000Y-67900000D01*
X172150000Y-72500000D02*
X172150000Y-67900000D01*
X172000000Y-72500000D02*
X172000000Y-67900000D01*
X171850000Y-72500000D02*
X171850000Y-67900000D01*
X171700000Y-72500000D02*
X171700000Y-67900000D01*
X171550000Y-72500000D02*
X171550000Y-67900000D01*
X171400000Y-72350000D02*
X171400000Y-68000000D01*
X171250000Y-72250000D02*
X171250000Y-68150000D01*
X171100000Y-72100000D02*
X171100000Y-68300000D01*
X170950000Y-71950000D02*
X170950000Y-68450000D01*
X170800000Y-71750000D02*
X170800000Y-68600000D01*
X170650000Y-71650000D02*
X170650000Y-68750000D01*
X170500000Y-71500000D02*
X171525000Y-72525000D01*
X170500000Y-68900000D02*
X171525000Y-67875000D01*
X170500000Y-68900000D02*
X170500000Y-71500000D01*
X179100000Y-74725000D02*
G75*
G03*
X180100000Y-73725000I1J999999D01*
G01*
X180100000Y-71075000D02*
G75*
G03*
X179100000Y-70075000I-999999J1D01*
G01*
X175350000Y-68900000D02*
G75*
G03*
X176525000Y-70075000I1175000J0D01*
G01*
X175637798Y-74021905D02*
G75*
G03*
X176499005Y-74723790I900002J225005D01*
G01*
X175637801Y-74021904D02*
G75*
G03*
X173500000Y-72525000I-2137801J-778096D01*
G01*
D12*
X182200000Y-64151000D02*
X181192000Y-64151000D01*
X182200000Y-63135000D01*
X182200000Y-64151000D01*
G36*
X182200000Y-64151000D02*
G01*
X181192000Y-64151000D01*
X182200000Y-63135000D01*
X182200000Y-64151000D01*
G37*
D11*
X100482184Y-129901243D02*
X99917509Y-128349811D01*
X98404843Y-125655698D02*
X91075241Y-128323455D01*
D10*
X100876977Y-137125917D02*
X101783331Y-139616103D01*
X101787735Y-140066775D02*
X100573564Y-136730866D01*
X101745069Y-140241931D02*
X100462493Y-136718084D01*
X101685302Y-140370102D02*
X100334322Y-136658317D01*
X101625534Y-140498274D02*
X100189050Y-136551565D01*
X101518783Y-140643546D02*
X100013894Y-136508898D01*
X101394930Y-140741834D02*
X99855839Y-136513217D01*
X101271077Y-140840121D02*
X99714885Y-136564520D01*
X101185658Y-140897816D02*
X98742457Y-141787068D01*
X99595264Y-136528245D02*
X97175556Y-137408947D01*
X101130123Y-140891424D02*
X99556830Y-136568838D01*
X100989169Y-140942727D02*
X99415876Y-136620141D01*
X100848215Y-140994030D02*
X99274923Y-136671444D01*
X100707261Y-141045333D02*
X99133969Y-136722747D01*
X100566307Y-141096636D02*
X98993015Y-136774050D01*
X100425353Y-141147939D02*
X98852061Y-136825353D01*
X100284400Y-141199242D02*
X98711107Y-136876656D01*
X100143446Y-141250545D02*
X98570153Y-136927959D01*
X100002492Y-141301848D02*
X98429199Y-136979262D01*
X99861538Y-141353152D02*
X98288245Y-137030565D01*
X99720584Y-141404455D02*
X98147291Y-137081868D01*
X99579630Y-141455758D02*
X98006337Y-137133171D01*
X99438676Y-141507061D02*
X97865384Y-137184475D01*
X99297722Y-141558364D02*
X97724430Y-137235778D01*
X99156768Y-141609667D02*
X97583476Y-137287081D01*
X99015815Y-141660970D02*
X97442522Y-137338384D01*
X98874861Y-141712273D02*
X97318669Y-137436671D01*
X98733907Y-141763576D02*
X97160614Y-137440990D01*
X98592953Y-141814879D02*
X97019660Y-137492293D01*
X98434898Y-141819197D02*
X96878706Y-137543596D01*
X98259742Y-141776531D02*
X96703550Y-137500929D01*
X98084586Y-141733865D02*
X96545496Y-137505248D01*
X97939314Y-141627113D02*
X96434425Y-137492465D01*
X97759840Y-141426392D02*
X96323355Y-137479683D01*
X97614567Y-141319640D02*
X96195184Y-137419915D01*
X97452194Y-141165903D02*
X96032810Y-137266179D01*
X97306922Y-141059151D02*
X95887538Y-137159427D01*
X97144548Y-140905415D02*
X95622559Y-136723783D01*
X96952292Y-140815764D02*
X95430302Y-136634132D01*
X96760035Y-140726113D02*
X95255146Y-136591466D01*
X96584879Y-140683447D02*
X95079990Y-136548799D01*
X96409723Y-140640781D02*
X94887733Y-136459148D01*
X96234567Y-140598114D02*
X94712577Y-136416482D01*
X96076512Y-140602433D02*
X94520320Y-136326831D01*
X95901356Y-140559766D02*
X94345164Y-136284165D01*
X95743301Y-140564085D02*
X94170009Y-136241499D01*
X94120865Y-136179572D02*
X95669543Y-136706682D01*
X94120865Y-136179572D02*
X91724649Y-137051724D01*
X95602347Y-140615388D02*
X94011954Y-136245817D01*
D11*
X92682735Y-132740011D02*
X100482184Y-129901243D01*
D10*
X95461393Y-140666691D02*
X93871000Y-136297120D01*
X95303338Y-140671009D02*
X93747147Y-136395408D01*
X95170935Y-140745805D02*
X93315042Y-141421294D01*
X95162385Y-140722312D02*
X93589092Y-136399726D01*
X95021431Y-140773615D02*
X93448138Y-136451029D01*
X94880477Y-140824918D02*
X93307184Y-136502332D01*
X94739523Y-140876221D02*
X93166230Y-136553635D01*
X94598569Y-140927524D02*
X93025276Y-136604938D01*
X94457615Y-140978827D02*
X92884322Y-136656241D01*
X94316661Y-141030130D02*
X92743369Y-136707544D01*
X94175707Y-141081433D02*
X92602415Y-136758847D01*
X94034753Y-141132737D02*
X92461461Y-136810150D01*
X93893800Y-141184040D02*
X92320507Y-136861453D01*
X93752846Y-141235343D02*
X92179553Y-136912757D01*
X93611892Y-141286646D02*
X92038599Y-136964060D01*
X93470938Y-141337949D02*
X91897645Y-137015363D01*
X93329984Y-141389252D02*
X91756691Y-137066666D01*
X93137727Y-141299601D02*
X91649939Y-137211938D01*
X92962571Y-141256935D02*
X91560289Y-137404195D01*
X92770314Y-141167284D02*
X91470638Y-137596452D01*
X92578057Y-141077633D02*
X91380987Y-137788709D01*
X92368699Y-140940997D02*
X91291336Y-137980966D01*
X92193543Y-140898331D02*
X91201685Y-138173222D01*
X92001287Y-140808680D02*
X93315042Y-141421294D01*
X91112034Y-138365479D02*
X91724649Y-137051724D01*
X91112034Y-138365479D02*
X92001287Y-140808680D01*
X101185658Y-140897816D02*
G75*
G03*
X101783330Y-139616103I-342019J939692D01*
G01*
X100876976Y-137125917D02*
G75*
G03*
X99595264Y-136528246I-939691J-342019D01*
G01*
X95669543Y-136706682D02*
G75*
G03*
X97175556Y-137408947I1104139J401874D01*
G01*
X97691779Y-141421265D02*
G75*
G03*
X98741109Y-141786272I768770J519254D01*
G01*
X97691781Y-141421264D02*
G75*
G03*
X95170935Y-140745805I-1742750J-1462341D01*
G01*
D12*
X100482184Y-129901243D02*
X99534974Y-130246000D01*
X100134692Y-128946516D01*
X100482184Y-129901243D01*
G36*
X100482184Y-129901243D02*
G01*
X99534974Y-130246000D01*
X100134692Y-128946516D01*
X100482184Y-129901243D01*
G37*
D11*
X201250000Y-71151000D02*
X201250000Y-69500000D01*
X200750000Y-66451000D02*
X192950000Y-66451000D01*
D10*
X199150000Y-78075000D02*
X199150000Y-80725000D01*
X199000000Y-81150000D02*
X199000000Y-77600000D01*
X198900000Y-81300000D02*
X198900000Y-77550000D01*
X198800000Y-81400000D02*
X198800000Y-77450000D01*
X198700000Y-81500000D02*
X198700000Y-77300000D01*
X198550000Y-81600000D02*
X198550000Y-77200000D01*
X198400000Y-81650000D02*
X198400000Y-77150000D01*
X198250000Y-81700000D02*
X198250000Y-77150000D01*
X198150000Y-81725000D02*
X195550000Y-81725000D01*
X198150000Y-77075000D02*
X195575000Y-77075000D01*
X198100000Y-81700000D02*
X198100000Y-77100000D01*
X197950000Y-81700000D02*
X197950000Y-77100000D01*
X197800000Y-81700000D02*
X197800000Y-77100000D01*
X197650000Y-81700000D02*
X197650000Y-77100000D01*
X197500000Y-81700000D02*
X197500000Y-77100000D01*
X197350000Y-81700000D02*
X197350000Y-77100000D01*
X197200000Y-81700000D02*
X197200000Y-77100000D01*
X197050000Y-81700000D02*
X197050000Y-77100000D01*
X196900000Y-81700000D02*
X196900000Y-77100000D01*
X196750000Y-81700000D02*
X196750000Y-77100000D01*
X196600000Y-81700000D02*
X196600000Y-77100000D01*
X196450000Y-81700000D02*
X196450000Y-77100000D01*
X196300000Y-81700000D02*
X196300000Y-77100000D01*
X196150000Y-81700000D02*
X196150000Y-77100000D01*
X196000000Y-81700000D02*
X196000000Y-77100000D01*
X195850000Y-81700000D02*
X195850000Y-77100000D01*
X195700000Y-81700000D02*
X195700000Y-77150000D01*
X195550000Y-81700000D02*
X195550000Y-77100000D01*
X195400000Y-81700000D02*
X195400000Y-77100000D01*
X195250000Y-81650000D02*
X195250000Y-77100000D01*
X195100000Y-81550000D02*
X195100000Y-77000000D01*
X194950000Y-81450000D02*
X194950000Y-76950000D01*
X194850000Y-81300000D02*
X194850000Y-76900000D01*
X194750000Y-81050000D02*
X194750000Y-76850000D01*
X194650000Y-80900000D02*
X194650000Y-76750000D01*
X194550000Y-80700000D02*
X194550000Y-76550000D01*
X194450000Y-80550000D02*
X194450000Y-76400000D01*
X194350000Y-80350000D02*
X194350000Y-75900000D01*
X194200000Y-80200000D02*
X194200000Y-75750000D01*
X194050000Y-80050000D02*
X194050000Y-75650000D01*
X193900000Y-79950000D02*
X193900000Y-75550000D01*
X193750000Y-79850000D02*
X193750000Y-75400000D01*
X193600000Y-79750000D02*
X193600000Y-75300000D01*
X193450000Y-79700000D02*
X193450000Y-75150000D01*
X193300000Y-79600000D02*
X193300000Y-75050000D01*
X193150000Y-79550000D02*
X193150000Y-74950000D01*
X193125000Y-74875000D02*
X194400000Y-75900000D01*
X193125000Y-74875000D02*
X190575000Y-74875000D01*
X193000000Y-79550000D02*
X193000000Y-74900000D01*
D11*
X192950000Y-71151000D02*
X201250000Y-71151000D01*
D10*
X192850000Y-79550000D02*
X192850000Y-74900000D01*
X192700000Y-79500000D02*
X192700000Y-74950000D01*
X192550000Y-79525000D02*
X190575000Y-79525000D01*
X192550000Y-79500000D02*
X192550000Y-74900000D01*
X192400000Y-79500000D02*
X192400000Y-74900000D01*
X192250000Y-79500000D02*
X192250000Y-74900000D01*
X192100000Y-79500000D02*
X192100000Y-74900000D01*
X191950000Y-79500000D02*
X191950000Y-74900000D01*
X191800000Y-79500000D02*
X191800000Y-74900000D01*
X191650000Y-79500000D02*
X191650000Y-74900000D01*
X191500000Y-79500000D02*
X191500000Y-74900000D01*
X191350000Y-79500000D02*
X191350000Y-74900000D01*
X191200000Y-79500000D02*
X191200000Y-74900000D01*
X191050000Y-79500000D02*
X191050000Y-74900000D01*
X190900000Y-79500000D02*
X190900000Y-74900000D01*
X190750000Y-79500000D02*
X190750000Y-74900000D01*
X190600000Y-79500000D02*
X190600000Y-74900000D01*
X190450000Y-79350000D02*
X190450000Y-75000000D01*
X190300000Y-79250000D02*
X190300000Y-75150000D01*
X190150000Y-79100000D02*
X190150000Y-75300000D01*
X190000000Y-78950000D02*
X190000000Y-75450000D01*
X189850000Y-78750000D02*
X189850000Y-75600000D01*
X189700000Y-78650000D02*
X189700000Y-75750000D01*
X189550000Y-78500000D02*
X190575000Y-79525000D01*
X189550000Y-75900000D02*
X190575000Y-74875000D01*
X189550000Y-75900000D02*
X189550000Y-78500000D01*
X198150000Y-81725000D02*
G75*
G03*
X199150000Y-80725000I1J999999D01*
G01*
X199150000Y-78075000D02*
G75*
G03*
X198150000Y-77075000I-999999J1D01*
G01*
X194400000Y-75900000D02*
G75*
G03*
X195575000Y-77075000I1175000J0D01*
G01*
X194687798Y-81021905D02*
G75*
G03*
X195549005Y-81723790I900002J225005D01*
G01*
X194687801Y-81021904D02*
G75*
G03*
X192550000Y-79525000I-2137801J-778096D01*
G01*
D12*
X201250000Y-71151000D02*
X200242000Y-71151000D01*
X201250000Y-70135000D01*
X201250000Y-71151000D01*
G36*
X201250000Y-71151000D02*
G01*
X200242000Y-71151000D01*
X201250000Y-70135000D01*
X201250000Y-71151000D01*
G37*
D11*
X163150000Y-61701000D02*
X163150000Y-60050000D01*
X162650000Y-57001000D02*
X154850000Y-57001000D01*
D10*
X161050000Y-68625000D02*
X161050000Y-71275000D01*
X160900000Y-71700000D02*
X160900000Y-68150000D01*
X160800000Y-71850000D02*
X160800000Y-68100000D01*
X160700000Y-71950000D02*
X160700000Y-68000000D01*
X160600000Y-72050000D02*
X160600000Y-67850000D01*
X160450000Y-72150000D02*
X160450000Y-67750000D01*
X160300000Y-72200000D02*
X160300000Y-67700000D01*
X160150000Y-72250000D02*
X160150000Y-67700000D01*
X160050000Y-72275000D02*
X157450000Y-72275000D01*
X160050000Y-67625000D02*
X157475000Y-67625000D01*
X160000000Y-72250000D02*
X160000000Y-67650000D01*
X159850000Y-72250000D02*
X159850000Y-67650000D01*
X159700000Y-72250000D02*
X159700000Y-67650000D01*
X159550000Y-72250000D02*
X159550000Y-67650000D01*
X159400000Y-72250000D02*
X159400000Y-67650000D01*
X159250000Y-72250000D02*
X159250000Y-67650000D01*
X159100000Y-72250000D02*
X159100000Y-67650000D01*
X158950000Y-72250000D02*
X158950000Y-67650000D01*
X158800000Y-72250000D02*
X158800000Y-67650000D01*
X158650000Y-72250000D02*
X158650000Y-67650000D01*
X158500000Y-72250000D02*
X158500000Y-67650000D01*
X158350000Y-72250000D02*
X158350000Y-67650000D01*
X158200000Y-72250000D02*
X158200000Y-67650000D01*
X158050000Y-72250000D02*
X158050000Y-67650000D01*
X157900000Y-72250000D02*
X157900000Y-67650000D01*
X157750000Y-72250000D02*
X157750000Y-67650000D01*
X157600000Y-72250000D02*
X157600000Y-67700000D01*
X157450000Y-72250000D02*
X157450000Y-67650000D01*
X157300000Y-72250000D02*
X157300000Y-67650000D01*
X157150000Y-72200000D02*
X157150000Y-67650000D01*
X157000000Y-72100000D02*
X157000000Y-67550000D01*
X156850000Y-72000000D02*
X156850000Y-67500000D01*
X156750000Y-71850000D02*
X156750000Y-67450000D01*
X156650000Y-71600000D02*
X156650000Y-67400000D01*
X156550000Y-71450000D02*
X156550000Y-67300000D01*
X156450000Y-71250000D02*
X156450000Y-67100000D01*
X156350000Y-71100000D02*
X156350000Y-66950000D01*
X156250000Y-70900000D02*
X156250000Y-66450000D01*
X156100000Y-70750000D02*
X156100000Y-66300000D01*
X155950000Y-70600000D02*
X155950000Y-66200000D01*
X155800000Y-70500000D02*
X155800000Y-66100000D01*
X155650000Y-70400000D02*
X155650000Y-65950000D01*
X155500000Y-70300000D02*
X155500000Y-65850000D01*
X155350000Y-70250000D02*
X155350000Y-65700000D01*
X155200000Y-70150000D02*
X155200000Y-65600000D01*
X155050000Y-70100000D02*
X155050000Y-65500000D01*
X155025000Y-65425000D02*
X156300000Y-66450000D01*
X155025000Y-65425000D02*
X152475000Y-65425000D01*
X154900000Y-70100000D02*
X154900000Y-65450000D01*
D11*
X154850000Y-61701000D02*
X163150000Y-61701000D01*
D10*
X154750000Y-70100000D02*
X154750000Y-65450000D01*
X154600000Y-70050000D02*
X154600000Y-65500000D01*
X154450000Y-70075000D02*
X152475000Y-70075000D01*
X154450000Y-70050000D02*
X154450000Y-65450000D01*
X154300000Y-70050000D02*
X154300000Y-65450000D01*
X154150000Y-70050000D02*
X154150000Y-65450000D01*
X154000000Y-70050000D02*
X154000000Y-65450000D01*
X153850000Y-70050000D02*
X153850000Y-65450000D01*
X153700000Y-70050000D02*
X153700000Y-65450000D01*
X153550000Y-70050000D02*
X153550000Y-65450000D01*
X153400000Y-70050000D02*
X153400000Y-65450000D01*
X153250000Y-70050000D02*
X153250000Y-65450000D01*
X153100000Y-70050000D02*
X153100000Y-65450000D01*
X152950000Y-70050000D02*
X152950000Y-65450000D01*
X152800000Y-70050000D02*
X152800000Y-65450000D01*
X152650000Y-70050000D02*
X152650000Y-65450000D01*
X152500000Y-70050000D02*
X152500000Y-65450000D01*
X152350000Y-69900000D02*
X152350000Y-65550000D01*
X152200000Y-69800000D02*
X152200000Y-65700000D01*
X152050000Y-69650000D02*
X152050000Y-65850000D01*
X151900000Y-69500000D02*
X151900000Y-66000000D01*
X151750000Y-69300000D02*
X151750000Y-66150000D01*
X151600000Y-69200000D02*
X151600000Y-66300000D01*
X151450000Y-69050000D02*
X152475000Y-70075000D01*
X151450000Y-66450000D02*
X152475000Y-65425000D01*
X151450000Y-66450000D02*
X151450000Y-69050000D01*
X160050000Y-72275000D02*
G75*
G03*
X161050000Y-71275000I1J999999D01*
G01*
X161050000Y-68625000D02*
G75*
G03*
X160050000Y-67625000I-999999J1D01*
G01*
X156300000Y-66450000D02*
G75*
G03*
X157475000Y-67625000I1175000J0D01*
G01*
X156587798Y-71571905D02*
G75*
G03*
X157449005Y-72273790I900002J225005D01*
G01*
X156587801Y-71571904D02*
G75*
G03*
X154450000Y-70075000I-2137801J-778096D01*
G01*
D12*
X163150000Y-61701000D02*
X162142000Y-61701000D01*
X163150000Y-60685000D01*
X163150000Y-61701000D01*
G36*
X163150000Y-61701000D02*
G01*
X162142000Y-61701000D01*
X163150000Y-60685000D01*
X163150000Y-61701000D01*
G37*
D11*
X125050000Y-85551000D02*
X125050000Y-83900000D01*
X124550000Y-80851000D02*
X116750000Y-80851000D01*
D10*
X122950000Y-92475000D02*
X122950000Y-95125000D01*
X122800000Y-95550000D02*
X122800000Y-92000000D01*
X122700000Y-95700000D02*
X122700000Y-91950000D01*
X122600000Y-95800000D02*
X122600000Y-91850000D01*
X122500000Y-95900000D02*
X122500000Y-91700000D01*
X122350000Y-96000000D02*
X122350000Y-91600000D01*
X122200000Y-96050000D02*
X122200000Y-91550000D01*
X122050000Y-96100000D02*
X122050000Y-91550000D01*
X121950000Y-96125000D02*
X119350000Y-96125000D01*
X121950000Y-91475000D02*
X119375000Y-91475000D01*
X121900000Y-96100000D02*
X121900000Y-91500000D01*
X121750000Y-96100000D02*
X121750000Y-91500000D01*
X121600000Y-96100000D02*
X121600000Y-91500000D01*
X121450000Y-96100000D02*
X121450000Y-91500000D01*
X121300000Y-96100000D02*
X121300000Y-91500000D01*
X121150000Y-96100000D02*
X121150000Y-91500000D01*
X121000000Y-96100000D02*
X121000000Y-91500000D01*
X120850000Y-96100000D02*
X120850000Y-91500000D01*
X120700000Y-96100000D02*
X120700000Y-91500000D01*
X120550000Y-96100000D02*
X120550000Y-91500000D01*
X120400000Y-96100000D02*
X120400000Y-91500000D01*
X120250000Y-96100000D02*
X120250000Y-91500000D01*
X120100000Y-96100000D02*
X120100000Y-91500000D01*
X119950000Y-96100000D02*
X119950000Y-91500000D01*
X119800000Y-96100000D02*
X119800000Y-91500000D01*
X119650000Y-96100000D02*
X119650000Y-91500000D01*
X119500000Y-96100000D02*
X119500000Y-91550000D01*
X119350000Y-96100000D02*
X119350000Y-91500000D01*
X119200000Y-96100000D02*
X119200000Y-91500000D01*
X119050000Y-96050000D02*
X119050000Y-91500000D01*
X118900000Y-95950000D02*
X118900000Y-91400000D01*
X118750000Y-95850000D02*
X118750000Y-91350000D01*
X118650000Y-95700000D02*
X118650000Y-91300000D01*
X118550000Y-95450000D02*
X118550000Y-91250000D01*
X118450000Y-95300000D02*
X118450000Y-91150000D01*
X118350000Y-95100000D02*
X118350000Y-90950000D01*
X118250000Y-94950000D02*
X118250000Y-90800000D01*
X118150000Y-94750000D02*
X118150000Y-90300000D01*
X118000000Y-94600000D02*
X118000000Y-90150000D01*
X117850000Y-94450000D02*
X117850000Y-90050000D01*
X117700000Y-94350000D02*
X117700000Y-89950000D01*
X117550000Y-94250000D02*
X117550000Y-89800000D01*
X117400000Y-94150000D02*
X117400000Y-89700000D01*
X117250000Y-94100000D02*
X117250000Y-89550000D01*
X117100000Y-94000000D02*
X117100000Y-89450000D01*
X116950000Y-93950000D02*
X116950000Y-89350000D01*
X116925000Y-89275000D02*
X118200000Y-90300000D01*
X116925000Y-89275000D02*
X114375000Y-89275000D01*
X116800000Y-93950000D02*
X116800000Y-89300000D01*
D11*
X116750000Y-85551000D02*
X125050000Y-85551000D01*
D10*
X116650000Y-93950000D02*
X116650000Y-89300000D01*
X116500000Y-93900000D02*
X116500000Y-89350000D01*
X116350000Y-93925000D02*
X114375000Y-93925000D01*
X116350000Y-93900000D02*
X116350000Y-89300000D01*
X116200000Y-93900000D02*
X116200000Y-89300000D01*
X116050000Y-93900000D02*
X116050000Y-89300000D01*
X115900000Y-93900000D02*
X115900000Y-89300000D01*
X115750000Y-93900000D02*
X115750000Y-89300000D01*
X115600000Y-93900000D02*
X115600000Y-89300000D01*
X115450000Y-93900000D02*
X115450000Y-89300000D01*
X115300000Y-93900000D02*
X115300000Y-89300000D01*
X115150000Y-93900000D02*
X115150000Y-89300000D01*
X115000000Y-93900000D02*
X115000000Y-89300000D01*
X114850000Y-93900000D02*
X114850000Y-89300000D01*
X114700000Y-93900000D02*
X114700000Y-89300000D01*
X114550000Y-93900000D02*
X114550000Y-89300000D01*
X114400000Y-93900000D02*
X114400000Y-89300000D01*
X114250000Y-93750000D02*
X114250000Y-89400000D01*
X114100000Y-93650000D02*
X114100000Y-89550000D01*
X113950000Y-93500000D02*
X113950000Y-89700000D01*
X113800000Y-93350000D02*
X113800000Y-89850000D01*
X113650000Y-93150000D02*
X113650000Y-90000000D01*
X113500000Y-93050000D02*
X113500000Y-90150000D01*
X113350000Y-92900000D02*
X114375000Y-93925000D01*
X113350000Y-90300000D02*
X114375000Y-89275000D01*
X113350000Y-90300000D02*
X113350000Y-92900000D01*
X121950000Y-96125000D02*
G75*
G03*
X122950000Y-95125000I1J999999D01*
G01*
X122950000Y-92475000D02*
G75*
G03*
X121950000Y-91475000I-999999J1D01*
G01*
X118200000Y-90300000D02*
G75*
G03*
X119375000Y-91475000I1175000J0D01*
G01*
X118487798Y-95421905D02*
G75*
G03*
X119349005Y-96123790I900002J225005D01*
G01*
X118487801Y-95421904D02*
G75*
G03*
X116350000Y-93925000I-2137801J-778096D01*
G01*
D12*
X125050000Y-85551000D02*
X124042000Y-85551000D01*
X125050000Y-84535000D01*
X125050000Y-85551000D01*
G36*
X125050000Y-85551000D02*
G01*
X124042000Y-85551000D01*
X125050000Y-84535000D01*
X125050000Y-85551000D01*
G37*
D11*
X201250000Y-90201000D02*
X201250000Y-88550000D01*
X200750000Y-85501000D02*
X192950000Y-85501000D01*
D10*
X199150000Y-97125000D02*
X199150000Y-99775000D01*
X199000000Y-100200000D02*
X199000000Y-96650000D01*
X198900000Y-100350000D02*
X198900000Y-96600000D01*
X198800000Y-100450000D02*
X198800000Y-96500000D01*
X198700000Y-100550000D02*
X198700000Y-96350000D01*
X198550000Y-100650000D02*
X198550000Y-96250000D01*
X198400000Y-100700000D02*
X198400000Y-96200000D01*
X198250000Y-100750000D02*
X198250000Y-96200000D01*
X198150000Y-100775000D02*
X195550000Y-100775000D01*
X198150000Y-96125000D02*
X195575000Y-96125000D01*
X198100000Y-100750000D02*
X198100000Y-96150000D01*
X197950000Y-100750000D02*
X197950000Y-96150000D01*
X197800000Y-100750000D02*
X197800000Y-96150000D01*
X197650000Y-100750000D02*
X197650000Y-96150000D01*
X197500000Y-100750000D02*
X197500000Y-96150000D01*
X197350000Y-100750000D02*
X197350000Y-96150000D01*
X197200000Y-100750000D02*
X197200000Y-96150000D01*
X197050000Y-100750000D02*
X197050000Y-96150000D01*
X196900000Y-100750000D02*
X196900000Y-96150000D01*
X196750000Y-100750000D02*
X196750000Y-96150000D01*
X196600000Y-100750000D02*
X196600000Y-96150000D01*
X196450000Y-100750000D02*
X196450000Y-96150000D01*
X196300000Y-100750000D02*
X196300000Y-96150000D01*
X196150000Y-100750000D02*
X196150000Y-96150000D01*
X196000000Y-100750000D02*
X196000000Y-96150000D01*
X195850000Y-100750000D02*
X195850000Y-96150000D01*
X195700000Y-100750000D02*
X195700000Y-96200000D01*
X195550000Y-100750000D02*
X195550000Y-96150000D01*
X195400000Y-100750000D02*
X195400000Y-96150000D01*
X195250000Y-100700000D02*
X195250000Y-96150000D01*
X195100000Y-100600000D02*
X195100000Y-96050000D01*
X194950000Y-100500000D02*
X194950000Y-96000000D01*
X194850000Y-100350000D02*
X194850000Y-95950000D01*
X194750000Y-100100000D02*
X194750000Y-95900000D01*
X194650000Y-99950000D02*
X194650000Y-95800000D01*
X194550000Y-99750000D02*
X194550000Y-95600000D01*
X194450000Y-99600000D02*
X194450000Y-95450000D01*
X194350000Y-99400000D02*
X194350000Y-94950000D01*
X194200000Y-99250000D02*
X194200000Y-94800000D01*
X194050000Y-99100000D02*
X194050000Y-94700000D01*
X193900000Y-99000000D02*
X193900000Y-94600000D01*
X193750000Y-98900000D02*
X193750000Y-94450000D01*
X193600000Y-98800000D02*
X193600000Y-94350000D01*
X193450000Y-98750000D02*
X193450000Y-94200000D01*
X193300000Y-98650000D02*
X193300000Y-94100000D01*
X193150000Y-98600000D02*
X193150000Y-94000000D01*
X193125000Y-93925000D02*
X194400000Y-94950000D01*
X193125000Y-93925000D02*
X190575000Y-93925000D01*
X193000000Y-98600000D02*
X193000000Y-93950000D01*
D11*
X192950000Y-90201000D02*
X201250000Y-90201000D01*
D10*
X192850000Y-98600000D02*
X192850000Y-93950000D01*
X192700000Y-98550000D02*
X192700000Y-94000000D01*
X192550000Y-98575000D02*
X190575000Y-98575000D01*
X192550000Y-98550000D02*
X192550000Y-93950000D01*
X192400000Y-98550000D02*
X192400000Y-93950000D01*
X192250000Y-98550000D02*
X192250000Y-93950000D01*
X192100000Y-98550000D02*
X192100000Y-93950000D01*
X191950000Y-98550000D02*
X191950000Y-93950000D01*
X191800000Y-98550000D02*
X191800000Y-93950000D01*
X191650000Y-98550000D02*
X191650000Y-93950000D01*
X191500000Y-98550000D02*
X191500000Y-93950000D01*
X191350000Y-98550000D02*
X191350000Y-93950000D01*
X191200000Y-98550000D02*
X191200000Y-93950000D01*
X191050000Y-98550000D02*
X191050000Y-93950000D01*
X190900000Y-98550000D02*
X190900000Y-93950000D01*
X190750000Y-98550000D02*
X190750000Y-93950000D01*
X190600000Y-98550000D02*
X190600000Y-93950000D01*
X190450000Y-98400000D02*
X190450000Y-94050000D01*
X190300000Y-98300000D02*
X190300000Y-94200000D01*
X190150000Y-98150000D02*
X190150000Y-94350000D01*
X190000000Y-98000000D02*
X190000000Y-94500000D01*
X189850000Y-97800000D02*
X189850000Y-94650000D01*
X189700000Y-97700000D02*
X189700000Y-94800000D01*
X189550000Y-97550000D02*
X190575000Y-98575000D01*
X189550000Y-94950000D02*
X190575000Y-93925000D01*
X189550000Y-94950000D02*
X189550000Y-97550000D01*
X198150000Y-100775000D02*
G75*
G03*
X199150000Y-99775000I1J999999D01*
G01*
X199150000Y-97125000D02*
G75*
G03*
X198150000Y-96125000I-999999J1D01*
G01*
X194400000Y-94950000D02*
G75*
G03*
X195575000Y-96125000I1175000J0D01*
G01*
X194687798Y-100071905D02*
G75*
G03*
X195549005Y-100773790I900002J225005D01*
G01*
X194687801Y-100071904D02*
G75*
G03*
X192550000Y-98575000I-2137801J-778096D01*
G01*
D12*
X201250000Y-90201000D02*
X200242000Y-90201000D01*
X201250000Y-89185000D01*
X201250000Y-90201000D01*
G36*
X201250000Y-90201000D02*
G01*
X200242000Y-90201000D01*
X201250000Y-89185000D01*
X201250000Y-90201000D01*
G37*
D11*
X220300000Y-71151000D02*
X220300000Y-69500000D01*
X219800000Y-66451000D02*
X212000000Y-66451000D01*
D10*
X218200000Y-78075000D02*
X218200000Y-80725000D01*
X218050000Y-81150000D02*
X218050000Y-77600000D01*
X217950000Y-81300000D02*
X217950000Y-77550000D01*
X217850000Y-81400000D02*
X217850000Y-77450000D01*
X217750000Y-81500000D02*
X217750000Y-77300000D01*
X217600000Y-81600000D02*
X217600000Y-77200000D01*
X217450000Y-81650000D02*
X217450000Y-77150000D01*
X217300000Y-81700000D02*
X217300000Y-77150000D01*
X217200000Y-81725000D02*
X214600000Y-81725000D01*
X217200000Y-77075000D02*
X214625000Y-77075000D01*
X217150000Y-81700000D02*
X217150000Y-77100000D01*
X217000000Y-81700000D02*
X217000000Y-77100000D01*
X216850000Y-81700000D02*
X216850000Y-77100000D01*
X216700000Y-81700000D02*
X216700000Y-77100000D01*
X216550000Y-81700000D02*
X216550000Y-77100000D01*
X216400000Y-81700000D02*
X216400000Y-77100000D01*
X216250000Y-81700000D02*
X216250000Y-77100000D01*
X216100000Y-81700000D02*
X216100000Y-77100000D01*
X215950000Y-81700000D02*
X215950000Y-77100000D01*
X215800000Y-81700000D02*
X215800000Y-77100000D01*
X215650000Y-81700000D02*
X215650000Y-77100000D01*
X215500000Y-81700000D02*
X215500000Y-77100000D01*
X215350000Y-81700000D02*
X215350000Y-77100000D01*
X215200000Y-81700000D02*
X215200000Y-77100000D01*
X215050000Y-81700000D02*
X215050000Y-77100000D01*
X214900000Y-81700000D02*
X214900000Y-77100000D01*
X214750000Y-81700000D02*
X214750000Y-77150000D01*
X214600000Y-81700000D02*
X214600000Y-77100000D01*
X214450000Y-81700000D02*
X214450000Y-77100000D01*
X214300000Y-81650000D02*
X214300000Y-77100000D01*
X214150000Y-81550000D02*
X214150000Y-77000000D01*
X214000000Y-81450000D02*
X214000000Y-76950000D01*
X213900000Y-81300000D02*
X213900000Y-76900000D01*
X213800000Y-81050000D02*
X213800000Y-76850000D01*
X213700000Y-80900000D02*
X213700000Y-76750000D01*
X213600000Y-80700000D02*
X213600000Y-76550000D01*
X213500000Y-80550000D02*
X213500000Y-76400000D01*
X213400000Y-80350000D02*
X213400000Y-75900000D01*
X213250000Y-80200000D02*
X213250000Y-75750000D01*
X213100000Y-80050000D02*
X213100000Y-75650000D01*
X212950000Y-79950000D02*
X212950000Y-75550000D01*
X212800000Y-79850000D02*
X212800000Y-75400000D01*
X212650000Y-79750000D02*
X212650000Y-75300000D01*
X212500000Y-79700000D02*
X212500000Y-75150000D01*
X212350000Y-79600000D02*
X212350000Y-75050000D01*
X212200000Y-79550000D02*
X212200000Y-74950000D01*
X212175000Y-74875000D02*
X213450000Y-75900000D01*
X212175000Y-74875000D02*
X209625000Y-74875000D01*
X212050000Y-79550000D02*
X212050000Y-74900000D01*
D11*
X212000000Y-71151000D02*
X220300000Y-71151000D01*
D10*
X211900000Y-79550000D02*
X211900000Y-74900000D01*
X211750000Y-79500000D02*
X211750000Y-74950000D01*
X211600000Y-79525000D02*
X209625000Y-79525000D01*
X211600000Y-79500000D02*
X211600000Y-74900000D01*
X211450000Y-79500000D02*
X211450000Y-74900000D01*
X211300000Y-79500000D02*
X211300000Y-74900000D01*
X211150000Y-79500000D02*
X211150000Y-74900000D01*
X211000000Y-79500000D02*
X211000000Y-74900000D01*
X210850000Y-79500000D02*
X210850000Y-74900000D01*
X210700000Y-79500000D02*
X210700000Y-74900000D01*
X210550000Y-79500000D02*
X210550000Y-74900000D01*
X210400000Y-79500000D02*
X210400000Y-74900000D01*
X210250000Y-79500000D02*
X210250000Y-74900000D01*
X210100000Y-79500000D02*
X210100000Y-74900000D01*
X209950000Y-79500000D02*
X209950000Y-74900000D01*
X209800000Y-79500000D02*
X209800000Y-74900000D01*
X209650000Y-79500000D02*
X209650000Y-74900000D01*
X209500000Y-79350000D02*
X209500000Y-75000000D01*
X209350000Y-79250000D02*
X209350000Y-75150000D01*
X209200000Y-79100000D02*
X209200000Y-75300000D01*
X209050000Y-78950000D02*
X209050000Y-75450000D01*
X208900000Y-78750000D02*
X208900000Y-75600000D01*
X208750000Y-78650000D02*
X208750000Y-75750000D01*
X208600000Y-78500000D02*
X209625000Y-79525000D01*
X208600000Y-75900000D02*
X209625000Y-74875000D01*
X208600000Y-75900000D02*
X208600000Y-78500000D01*
X217200000Y-81725000D02*
G75*
G03*
X218200000Y-80725000I1J999999D01*
G01*
X218200000Y-78075000D02*
G75*
G03*
X217200000Y-77075000I-999999J1D01*
G01*
X213450000Y-75900000D02*
G75*
G03*
X214625000Y-77075000I1175000J0D01*
G01*
X213737798Y-81021905D02*
G75*
G03*
X214599005Y-81723790I900002J225005D01*
G01*
X213737801Y-81021904D02*
G75*
G03*
X211600000Y-79525000I-2137801J-778096D01*
G01*
D12*
X220300000Y-71151000D02*
X219292000Y-71151000D01*
X220300000Y-70135000D01*
X220300000Y-71151000D01*
G36*
X220300000Y-71151000D02*
G01*
X219292000Y-71151000D01*
X220300000Y-70135000D01*
X220300000Y-71151000D01*
G37*
D11*
X163150000Y-99801000D02*
X163150000Y-98150000D01*
X162650000Y-95101000D02*
X154850000Y-95101000D01*
D10*
X161050000Y-106725000D02*
X161050000Y-109375000D01*
X160900000Y-109800000D02*
X160900000Y-106250000D01*
X160800000Y-109950000D02*
X160800000Y-106200000D01*
X160700000Y-110050000D02*
X160700000Y-106100000D01*
X160600000Y-110150000D02*
X160600000Y-105950000D01*
X160450000Y-110250000D02*
X160450000Y-105850000D01*
X160300000Y-110300000D02*
X160300000Y-105800000D01*
X160150000Y-110350000D02*
X160150000Y-105800000D01*
X160050000Y-110375000D02*
X157450000Y-110375000D01*
X160050000Y-105725000D02*
X157475000Y-105725000D01*
X160000000Y-110350000D02*
X160000000Y-105750000D01*
X159850000Y-110350000D02*
X159850000Y-105750000D01*
X159700000Y-110350000D02*
X159700000Y-105750000D01*
X159550000Y-110350000D02*
X159550000Y-105750000D01*
X159400000Y-110350000D02*
X159400000Y-105750000D01*
X159250000Y-110350000D02*
X159250000Y-105750000D01*
X159100000Y-110350000D02*
X159100000Y-105750000D01*
X158950000Y-110350000D02*
X158950000Y-105750000D01*
X158800000Y-110350000D02*
X158800000Y-105750000D01*
X158650000Y-110350000D02*
X158650000Y-105750000D01*
X158500000Y-110350000D02*
X158500000Y-105750000D01*
X158350000Y-110350000D02*
X158350000Y-105750000D01*
X158200000Y-110350000D02*
X158200000Y-105750000D01*
X158050000Y-110350000D02*
X158050000Y-105750000D01*
X157900000Y-110350000D02*
X157900000Y-105750000D01*
X157750000Y-110350000D02*
X157750000Y-105750000D01*
X157600000Y-110350000D02*
X157600000Y-105800000D01*
X157450000Y-110350000D02*
X157450000Y-105750000D01*
X157300000Y-110350000D02*
X157300000Y-105750000D01*
X157150000Y-110300000D02*
X157150000Y-105750000D01*
X157000000Y-110200000D02*
X157000000Y-105650000D01*
X156850000Y-110100000D02*
X156850000Y-105600000D01*
X156750000Y-109950000D02*
X156750000Y-105550000D01*
X156650000Y-109700000D02*
X156650000Y-105500000D01*
X156550000Y-109550000D02*
X156550000Y-105400000D01*
X156450000Y-109350000D02*
X156450000Y-105200000D01*
X156350000Y-109200000D02*
X156350000Y-105050000D01*
X156250000Y-109000000D02*
X156250000Y-104550000D01*
X156100000Y-108850000D02*
X156100000Y-104400000D01*
X155950000Y-108700000D02*
X155950000Y-104300000D01*
X155800000Y-108600000D02*
X155800000Y-104200000D01*
X155650000Y-108500000D02*
X155650000Y-104050000D01*
X155500000Y-108400000D02*
X155500000Y-103950000D01*
X155350000Y-108350000D02*
X155350000Y-103800000D01*
X155200000Y-108250000D02*
X155200000Y-103700000D01*
X155050000Y-108200000D02*
X155050000Y-103600000D01*
X155025000Y-103525000D02*
X156300000Y-104550000D01*
X155025000Y-103525000D02*
X152475000Y-103525000D01*
X154900000Y-108200000D02*
X154900000Y-103550000D01*
D11*
X154850000Y-99801000D02*
X163150000Y-99801000D01*
D10*
X154750000Y-108200000D02*
X154750000Y-103550000D01*
X154600000Y-108150000D02*
X154600000Y-103600000D01*
X154450000Y-108175000D02*
X152475000Y-108175000D01*
X154450000Y-108150000D02*
X154450000Y-103550000D01*
X154300000Y-108150000D02*
X154300000Y-103550000D01*
X154150000Y-108150000D02*
X154150000Y-103550000D01*
X154000000Y-108150000D02*
X154000000Y-103550000D01*
X153850000Y-108150000D02*
X153850000Y-103550000D01*
X153700000Y-108150000D02*
X153700000Y-103550000D01*
X153550000Y-108150000D02*
X153550000Y-103550000D01*
X153400000Y-108150000D02*
X153400000Y-103550000D01*
X153250000Y-108150000D02*
X153250000Y-103550000D01*
X153100000Y-108150000D02*
X153100000Y-103550000D01*
X152950000Y-108150000D02*
X152950000Y-103550000D01*
X152800000Y-108150000D02*
X152800000Y-103550000D01*
X152650000Y-108150000D02*
X152650000Y-103550000D01*
X152500000Y-108150000D02*
X152500000Y-103550000D01*
X152350000Y-108000000D02*
X152350000Y-103650000D01*
X152200000Y-107900000D02*
X152200000Y-103800000D01*
X152050000Y-107750000D02*
X152050000Y-103950000D01*
X151900000Y-107600000D02*
X151900000Y-104100000D01*
X151750000Y-107400000D02*
X151750000Y-104250000D01*
X151600000Y-107300000D02*
X151600000Y-104400000D01*
X151450000Y-107150000D02*
X152475000Y-108175000D01*
X151450000Y-104550000D02*
X152475000Y-103525000D01*
X151450000Y-104550000D02*
X151450000Y-107150000D01*
X160050000Y-110375000D02*
G75*
G03*
X161050000Y-109375000I1J999999D01*
G01*
X161050000Y-106725000D02*
G75*
G03*
X160050000Y-105725000I-999999J1D01*
G01*
X156300000Y-104550000D02*
G75*
G03*
X157475000Y-105725000I1175000J0D01*
G01*
X156587798Y-109671905D02*
G75*
G03*
X157449005Y-110373790I900002J225005D01*
G01*
X156587801Y-109671904D02*
G75*
G03*
X154450000Y-108175000I-2137801J-778096D01*
G01*
D12*
X163150000Y-99801000D02*
X162142000Y-99801000D01*
X163150000Y-98785000D01*
X163150000Y-99801000D01*
G36*
X163150000Y-99801000D02*
G01*
X162142000Y-99801000D01*
X163150000Y-98785000D01*
X163150000Y-99801000D01*
G37*
D11*
X121793269Y-124948484D02*
X121506575Y-123322566D01*
X120484718Y-120406711D02*
X112803218Y-121761167D01*
D10*
X120927512Y-132131954D02*
X121387680Y-134741694D01*
X121313759Y-135186285D02*
X120697308Y-131690217D01*
X121241326Y-135351371D02*
X120590145Y-131658342D01*
X121160210Y-135467216D02*
X120474299Y-131577226D01*
X121079094Y-135583062D02*
X120349771Y-131446869D01*
X120948737Y-135707590D02*
X120184685Y-131374436D01*
X120809699Y-135782878D02*
X120028282Y-131351243D01*
X120670660Y-135858165D02*
X119880561Y-131377290D01*
X120576520Y-135900150D02*
X118016020Y-136351635D01*
X119769056Y-131320794D02*
X117233176Y-131767938D01*
X120522939Y-135884212D02*
X119724157Y-131354097D01*
X120375218Y-135910260D02*
X119576436Y-131380144D01*
X120227496Y-135936307D02*
X119428715Y-131406191D01*
X120079775Y-135962354D02*
X119280994Y-131432238D01*
X119932054Y-135988401D02*
X119133272Y-131458286D01*
X119784333Y-136014448D02*
X118985551Y-131484333D01*
X119636612Y-136040496D02*
X118837830Y-131510380D01*
X119488891Y-136066543D02*
X118690109Y-131536427D01*
X119341169Y-136092590D02*
X118542388Y-131562475D01*
X119193448Y-136118637D02*
X118394667Y-131588522D01*
X119045727Y-136144685D02*
X118246946Y-131614569D01*
X118898006Y-136170732D02*
X118099224Y-131640616D01*
X118750285Y-136196779D02*
X117951503Y-131666663D01*
X118602564Y-136222826D02*
X117803782Y-131692711D01*
X118454842Y-136248874D02*
X117656061Y-131718758D01*
X118307121Y-136274921D02*
X117508340Y-131744805D01*
X118159400Y-136300968D02*
X117369301Y-131820093D01*
X118011679Y-136327015D02*
X117212897Y-131796900D01*
X117863958Y-136353062D02*
X117065176Y-131822947D01*
X117707554Y-136329869D02*
X116917455Y-131848994D01*
X117542468Y-136257436D02*
X116752369Y-131776560D01*
X117377382Y-136185002D02*
X116595965Y-131753367D01*
X117252854Y-136054646D02*
X116488802Y-131721492D01*
X117110961Y-135825809D02*
X116381639Y-131689616D01*
X116986433Y-135695452D02*
X116265794Y-131608500D01*
X116853223Y-135515856D02*
X116132583Y-131428903D01*
X116728695Y-135385499D02*
X116008055Y-131298547D01*
X116595485Y-135205903D02*
X115822750Y-130823508D01*
X116421716Y-135084229D02*
X115648982Y-130701834D01*
X116247948Y-134962555D02*
X115483896Y-130629401D01*
X116082862Y-134890121D02*
X115318810Y-130556967D01*
X115917776Y-134817688D02*
X115145042Y-130435293D01*
X115752690Y-134745254D02*
X114979956Y-130362860D01*
X115596286Y-134722061D02*
X114806187Y-130241186D01*
X115431200Y-134649627D02*
X114641101Y-130168752D01*
X115274797Y-134626434D02*
X114476015Y-130096318D01*
X114438371Y-130026799D02*
X115871991Y-130814826D01*
X114438371Y-130026799D02*
X111927112Y-130469602D01*
X115127076Y-134652481D02*
X114319612Y-130073125D01*
D11*
X113619364Y-126389763D02*
X121793269Y-124948484D01*
D10*
X114979354Y-134678529D02*
X114171890Y-130099173D01*
X114822951Y-134655335D02*
X114032852Y-130174460D01*
X114679571Y-134706003D02*
X112734576Y-135048958D01*
X114675230Y-134681383D02*
X113876448Y-130151267D01*
X114527509Y-134707430D02*
X113728727Y-130177314D01*
X114379787Y-134733477D02*
X113581006Y-130203361D01*
X114232066Y-134759524D02*
X113433285Y-130229409D01*
X114084345Y-134785572D02*
X113285563Y-130255456D01*
X113936624Y-134811619D02*
X113137842Y-130281503D01*
X113788903Y-134837666D02*
X112990121Y-130307550D01*
X113641182Y-134863713D02*
X112842400Y-130333598D01*
X113493460Y-134889760D02*
X112694679Y-130359645D01*
X113345739Y-134915808D02*
X112546958Y-130385692D01*
X113198018Y-134941855D02*
X112399236Y-130411739D01*
X113050297Y-134967902D02*
X112251515Y-130437787D01*
X112902576Y-134993949D02*
X112103794Y-130463834D01*
X112754855Y-135019997D02*
X111956073Y-130489881D01*
X112581086Y-134898323D02*
X111825717Y-130614409D01*
X112416000Y-134825889D02*
X111704043Y-130788177D01*
X112242232Y-134704215D02*
X111582369Y-130961946D01*
X112068463Y-134582541D02*
X111460695Y-131135714D01*
X111886013Y-134411627D02*
X111339021Y-131309483D01*
X111720927Y-134339193D02*
X111217347Y-131483251D01*
X111547158Y-134217519D02*
X112734576Y-135048958D01*
X111095673Y-131657019D02*
X111927112Y-130469602D01*
X111095673Y-131657019D02*
X111547158Y-134217519D01*
X120576520Y-135900150D02*
G75*
G03*
X121387680Y-134741694I-173647J984807D01*
G01*
X120927512Y-132131954D02*
G75*
G03*
X119769056Y-131320794I-984807J-173647D01*
G01*
X115871992Y-130814826D02*
G75*
G03*
X117233176Y-131767937I1157148J204037D01*
G01*
X117044825Y-135808942D02*
G75*
G03*
X118014830Y-136350618I847258J377871D01*
G01*
X117044828Y-135808940D02*
G75*
G03*
X114679571Y-134706003I-1970207J-1137501D01*
G01*
D12*
X121793269Y-124948484D02*
X120800582Y-125123521D01*
X121616842Y-123947919D01*
X121793269Y-124948484D01*
G36*
X121793269Y-124948484D02*
G01*
X120800582Y-125123521D01*
X121616842Y-123947919D01*
X121793269Y-124948484D01*
G37*
D11*
X201250000Y-52101000D02*
X201250000Y-50450000D01*
X200750000Y-47401000D02*
X192950000Y-47401000D01*
D10*
X199150000Y-59025000D02*
X199150000Y-61675000D01*
X199000000Y-62100000D02*
X199000000Y-58550000D01*
X198900000Y-62250000D02*
X198900000Y-58500000D01*
X198800000Y-62350000D02*
X198800000Y-58400000D01*
X198700000Y-62450000D02*
X198700000Y-58250000D01*
X198550000Y-62550000D02*
X198550000Y-58150000D01*
X198400000Y-62600000D02*
X198400000Y-58100000D01*
X198250000Y-62650000D02*
X198250000Y-58100000D01*
X198150000Y-62675000D02*
X195550000Y-62675000D01*
X198150000Y-58025000D02*
X195575000Y-58025000D01*
X198100000Y-62650000D02*
X198100000Y-58050000D01*
X197950000Y-62650000D02*
X197950000Y-58050000D01*
X197800000Y-62650000D02*
X197800000Y-58050000D01*
X197650000Y-62650000D02*
X197650000Y-58050000D01*
X197500000Y-62650000D02*
X197500000Y-58050000D01*
X197350000Y-62650000D02*
X197350000Y-58050000D01*
X197200000Y-62650000D02*
X197200000Y-58050000D01*
X197050000Y-62650000D02*
X197050000Y-58050000D01*
X196900000Y-62650000D02*
X196900000Y-58050000D01*
X196750000Y-62650000D02*
X196750000Y-58050000D01*
X196600000Y-62650000D02*
X196600000Y-58050000D01*
X196450000Y-62650000D02*
X196450000Y-58050000D01*
X196300000Y-62650000D02*
X196300000Y-58050000D01*
X196150000Y-62650000D02*
X196150000Y-58050000D01*
X196000000Y-62650000D02*
X196000000Y-58050000D01*
X195850000Y-62650000D02*
X195850000Y-58050000D01*
X195700000Y-62650000D02*
X195700000Y-58100000D01*
X195550000Y-62650000D02*
X195550000Y-58050000D01*
X195400000Y-62650000D02*
X195400000Y-58050000D01*
X195250000Y-62600000D02*
X195250000Y-58050000D01*
X195100000Y-62500000D02*
X195100000Y-57950000D01*
X194950000Y-62400000D02*
X194950000Y-57900000D01*
X194850000Y-62250000D02*
X194850000Y-57850000D01*
X194750000Y-62000000D02*
X194750000Y-57800000D01*
X194650000Y-61850000D02*
X194650000Y-57700000D01*
X194550000Y-61650000D02*
X194550000Y-57500000D01*
X194450000Y-61500000D02*
X194450000Y-57350000D01*
X194350000Y-61300000D02*
X194350000Y-56850000D01*
X194200000Y-61150000D02*
X194200000Y-56700000D01*
X194050000Y-61000000D02*
X194050000Y-56600000D01*
X193900000Y-60900000D02*
X193900000Y-56500000D01*
X193750000Y-60800000D02*
X193750000Y-56350000D01*
X193600000Y-60700000D02*
X193600000Y-56250000D01*
X193450000Y-60650000D02*
X193450000Y-56100000D01*
X193300000Y-60550000D02*
X193300000Y-56000000D01*
X193150000Y-60500000D02*
X193150000Y-55900000D01*
X193125000Y-55825000D02*
X194400000Y-56850000D01*
X193125000Y-55825000D02*
X190575000Y-55825000D01*
X193000000Y-60500000D02*
X193000000Y-55850000D01*
D11*
X192950000Y-52101000D02*
X201250000Y-52101000D01*
D10*
X192850000Y-60500000D02*
X192850000Y-55850000D01*
X192700000Y-60450000D02*
X192700000Y-55900000D01*
X192550000Y-60475000D02*
X190575000Y-60475000D01*
X192550000Y-60450000D02*
X192550000Y-55850000D01*
X192400000Y-60450000D02*
X192400000Y-55850000D01*
X192250000Y-60450000D02*
X192250000Y-55850000D01*
X192100000Y-60450000D02*
X192100000Y-55850000D01*
X191950000Y-60450000D02*
X191950000Y-55850000D01*
X191800000Y-60450000D02*
X191800000Y-55850000D01*
X191650000Y-60450000D02*
X191650000Y-55850000D01*
X191500000Y-60450000D02*
X191500000Y-55850000D01*
X191350000Y-60450000D02*
X191350000Y-55850000D01*
X191200000Y-60450000D02*
X191200000Y-55850000D01*
X191050000Y-60450000D02*
X191050000Y-55850000D01*
X190900000Y-60450000D02*
X190900000Y-55850000D01*
X190750000Y-60450000D02*
X190750000Y-55850000D01*
X190600000Y-60450000D02*
X190600000Y-55850000D01*
X190450000Y-60300000D02*
X190450000Y-55950000D01*
X190300000Y-60200000D02*
X190300000Y-56100000D01*
X190150000Y-60050000D02*
X190150000Y-56250000D01*
X190000000Y-59900000D02*
X190000000Y-56400000D01*
X189850000Y-59700000D02*
X189850000Y-56550000D01*
X189700000Y-59600000D02*
X189700000Y-56700000D01*
X189550000Y-59450000D02*
X190575000Y-60475000D01*
X189550000Y-56850000D02*
X190575000Y-55825000D01*
X189550000Y-56850000D02*
X189550000Y-59450000D01*
X198150000Y-62675000D02*
G75*
G03*
X199150000Y-61675000I1J999999D01*
G01*
X199150000Y-59025000D02*
G75*
G03*
X198150000Y-58025000I-999999J1D01*
G01*
X194400000Y-56850000D02*
G75*
G03*
X195575000Y-58025000I1175000J0D01*
G01*
X194687798Y-61971905D02*
G75*
G03*
X195549005Y-62673790I900002J225005D01*
G01*
X194687801Y-61971904D02*
G75*
G03*
X192550000Y-60475000I-2137801J-778096D01*
G01*
D12*
X201250000Y-52101000D02*
X200242000Y-52101000D01*
X201250000Y-51085000D01*
X201250000Y-52101000D01*
G36*
X201250000Y-52101000D02*
G01*
X200242000Y-52101000D01*
X201250000Y-51085000D01*
X201250000Y-52101000D01*
G37*
D11*
X144100000Y-121301000D02*
X144100000Y-119650000D01*
X143600000Y-116601000D02*
X135800000Y-116601000D01*
D10*
X142000000Y-128225000D02*
X142000000Y-130875000D01*
X141850000Y-131300000D02*
X141850000Y-127750000D01*
X141750000Y-131450000D02*
X141750000Y-127700000D01*
X141650000Y-131550000D02*
X141650000Y-127600000D01*
X141550000Y-131650000D02*
X141550000Y-127450000D01*
X141400000Y-131750000D02*
X141400000Y-127350000D01*
X141250000Y-131800000D02*
X141250000Y-127300000D01*
X141100000Y-131850000D02*
X141100000Y-127300000D01*
X141000000Y-131875000D02*
X138400000Y-131875000D01*
X141000000Y-127225000D02*
X138425000Y-127225000D01*
X140950000Y-131850000D02*
X140950000Y-127250000D01*
X140800000Y-131850000D02*
X140800000Y-127250000D01*
X140650000Y-131850000D02*
X140650000Y-127250000D01*
X140500000Y-131850000D02*
X140500000Y-127250000D01*
X140350000Y-131850000D02*
X140350000Y-127250000D01*
X140200000Y-131850000D02*
X140200000Y-127250000D01*
X140050000Y-131850000D02*
X140050000Y-127250000D01*
X139900000Y-131850000D02*
X139900000Y-127250000D01*
X139750000Y-131850000D02*
X139750000Y-127250000D01*
X139600000Y-131850000D02*
X139600000Y-127250000D01*
X139450000Y-131850000D02*
X139450000Y-127250000D01*
X139300000Y-131850000D02*
X139300000Y-127250000D01*
X139150000Y-131850000D02*
X139150000Y-127250000D01*
X139000000Y-131850000D02*
X139000000Y-127250000D01*
X138850000Y-131850000D02*
X138850000Y-127250000D01*
X138700000Y-131850000D02*
X138700000Y-127250000D01*
X138550000Y-131850000D02*
X138550000Y-127300000D01*
X138400000Y-131850000D02*
X138400000Y-127250000D01*
X138250000Y-131850000D02*
X138250000Y-127250000D01*
X138100000Y-131800000D02*
X138100000Y-127250000D01*
X137950000Y-131700000D02*
X137950000Y-127150000D01*
X137800000Y-131600000D02*
X137800000Y-127100000D01*
X137700000Y-131450000D02*
X137700000Y-127050000D01*
X137600000Y-131200000D02*
X137600000Y-127000000D01*
X137500000Y-131050000D02*
X137500000Y-126900000D01*
X137400000Y-130850000D02*
X137400000Y-126700000D01*
X137300000Y-130700000D02*
X137300000Y-126550000D01*
X137200000Y-130500000D02*
X137200000Y-126050000D01*
X137050000Y-130350000D02*
X137050000Y-125900000D01*
X136900000Y-130200000D02*
X136900000Y-125800000D01*
X136750000Y-130100000D02*
X136750000Y-125700000D01*
X136600000Y-130000000D02*
X136600000Y-125550000D01*
X136450000Y-129900000D02*
X136450000Y-125450000D01*
X136300000Y-129850000D02*
X136300000Y-125300000D01*
X136150000Y-129750000D02*
X136150000Y-125200000D01*
X136000000Y-129700000D02*
X136000000Y-125100000D01*
X135975000Y-125025000D02*
X137250000Y-126050000D01*
X135975000Y-125025000D02*
X133425000Y-125025000D01*
X135850000Y-129700000D02*
X135850000Y-125050000D01*
D11*
X135800000Y-121301000D02*
X144100000Y-121301000D01*
D10*
X135700000Y-129700000D02*
X135700000Y-125050000D01*
X135550000Y-129650000D02*
X135550000Y-125100000D01*
X135400000Y-129675000D02*
X133425000Y-129675000D01*
X135400000Y-129650000D02*
X135400000Y-125050000D01*
X135250000Y-129650000D02*
X135250000Y-125050000D01*
X135100000Y-129650000D02*
X135100000Y-125050000D01*
X134950000Y-129650000D02*
X134950000Y-125050000D01*
X134800000Y-129650000D02*
X134800000Y-125050000D01*
X134650000Y-129650000D02*
X134650000Y-125050000D01*
X134500000Y-129650000D02*
X134500000Y-125050000D01*
X134350000Y-129650000D02*
X134350000Y-125050000D01*
X134200000Y-129650000D02*
X134200000Y-125050000D01*
X134050000Y-129650000D02*
X134050000Y-125050000D01*
X133900000Y-129650000D02*
X133900000Y-125050000D01*
X133750000Y-129650000D02*
X133750000Y-125050000D01*
X133600000Y-129650000D02*
X133600000Y-125050000D01*
X133450000Y-129650000D02*
X133450000Y-125050000D01*
X133300000Y-129500000D02*
X133300000Y-125150000D01*
X133150000Y-129400000D02*
X133150000Y-125300000D01*
X133000000Y-129250000D02*
X133000000Y-125450000D01*
X132850000Y-129100000D02*
X132850000Y-125600000D01*
X132700000Y-128900000D02*
X132700000Y-125750000D01*
X132550000Y-128800000D02*
X132550000Y-125900000D01*
X132400000Y-128650000D02*
X133425000Y-129675000D01*
X132400000Y-126050000D02*
X133425000Y-125025000D01*
X132400000Y-126050000D02*
X132400000Y-128650000D01*
X141000000Y-131875000D02*
G75*
G03*
X142000000Y-130875000I1J999999D01*
G01*
X142000000Y-128225000D02*
G75*
G03*
X141000000Y-127225000I-999999J1D01*
G01*
X137250000Y-126050000D02*
G75*
G03*
X138425000Y-127225000I1175000J0D01*
G01*
X137537798Y-131171905D02*
G75*
G03*
X138399005Y-131873790I900002J225005D01*
G01*
X137537801Y-131171904D02*
G75*
G03*
X135400000Y-129675000I-2137801J-778096D01*
G01*
D12*
X144100000Y-121301000D02*
X143092000Y-121301000D01*
X144100000Y-120285000D01*
X144100000Y-121301000D01*
G36*
X144100000Y-121301000D02*
G01*
X143092000Y-121301000D01*
X144100000Y-120285000D01*
X144100000Y-121301000D01*
G37*
D10*
X100811000Y-70443000D02*
X102589000Y-70443000D01*
X102589000Y-70443000D02*
X102589000Y-68157000D01*
X100811000Y-68157000D02*
X100811000Y-70443000D01*
X102589000Y-68157000D02*
X100811000Y-68157000D01*
X98311000Y-70443000D02*
X100089000Y-70443000D01*
X100089000Y-70443000D02*
X100089000Y-68157000D01*
X98311000Y-68157000D02*
X98311000Y-70443000D01*
X100089000Y-68157000D02*
X98311000Y-68157000D01*
X95811000Y-70443000D02*
X97589000Y-70443000D01*
X97589000Y-70443000D02*
X97589000Y-68157000D01*
X95811000Y-68157000D02*
X95811000Y-70443000D01*
X97589000Y-68157000D02*
X95811000Y-68157000D01*
X103411000Y-70443000D02*
X105189000Y-70443000D01*
X105189000Y-70443000D02*
X105189000Y-68157000D01*
X103411000Y-68157000D02*
X103411000Y-70443000D01*
X105189000Y-68157000D02*
X103411000Y-68157000D01*
D13*
X108718815Y-42425745D03*
X108718815Y-44965745D03*
X108718815Y-47505745D03*
X108718815Y-50045745D03*
X108718815Y-52585745D03*
X108718815Y-55125745D03*
X108718815Y-57665745D03*
X108718815Y-60205745D03*
X108718815Y-62745745D03*
X108718815Y-65285745D03*
X108718815Y-67825745D03*
X108718815Y-70365745D03*
X93478815Y-70365745D03*
X93478815Y-67825745D03*
X93478815Y-65285745D03*
X93478815Y-62745745D03*
X93478815Y-60205745D03*
X93478815Y-57665745D03*
X93478815Y-55125745D03*
X93478815Y-52585745D03*
X93478815Y-50045745D03*
X93478815Y-47505745D03*
X93478815Y-44965745D03*
X93478815Y-42425745D03*
%LPC*%
D14*
X164250000Y-45000000D03*
D15*
X163970000Y-40800000D03*
D16*
X163750000Y-48700000D03*
X158750000Y-50900000D03*
D17*
X158750000Y-45000000D03*
D16*
X153750000Y-48700000D03*
D15*
X153530000Y-40800000D03*
D14*
X153250000Y-45000000D03*
D18*
X156000000Y-39601000D03*
X156000000Y-41001000D03*
X161500000Y-41001000D03*
X161500000Y-39601000D03*
D19*
X161550000Y-50900000D03*
X150950000Y-48700000D03*
D20*
X95499272Y-80311965D03*
X100579272Y-80311965D03*
X95499272Y-78061965D03*
X100579272Y-78061965D03*
D21*
X89500000Y-87400000D03*
X96500000Y-87400000D03*
X89500000Y-85650000D03*
X96500000Y-85650000D03*
D22*
X98300000Y-89500000D03*
X98300000Y-83550000D03*
X94300000Y-89500000D03*
X94300000Y-83550000D03*
X91300000Y-89500000D03*
X91300000Y-83550000D03*
X99800000Y-87750000D03*
X99800000Y-85300000D03*
D20*
X102700000Y-80300000D03*
X102700000Y-78100000D03*
D23*
X103600000Y-118100000D03*
D24*
X92180000Y-41230000D03*
X108718815Y-42425745D03*
X92180000Y-43770000D03*
X108718815Y-44965745D03*
X92180000Y-46310000D03*
X108718815Y-47505745D03*
X92180000Y-48850000D03*
X108718815Y-50045745D03*
X92180000Y-51390000D03*
X108718815Y-52585745D03*
X92180000Y-53930000D03*
X108718815Y-55125745D03*
X92180000Y-56470000D03*
X108718815Y-57665745D03*
X92180000Y-59010000D03*
X108718815Y-60205745D03*
X92180000Y-61550000D03*
X108718815Y-62745745D03*
X92180000Y-64090000D03*
X108718815Y-65285745D03*
X92180000Y-66630000D03*
X108718815Y-67825745D03*
X92180000Y-69170000D03*
X108718815Y-70365745D03*
X93478815Y-70365745D03*
X107420000Y-69170000D03*
X93478815Y-67825745D03*
X107420000Y-66630000D03*
X93478815Y-65285745D03*
X107420000Y-64090000D03*
X93478815Y-62745745D03*
X107420000Y-61550000D03*
X93478815Y-60205745D03*
X107420000Y-59010000D03*
X93478815Y-57665745D03*
X107420000Y-56470000D03*
X93478815Y-55125745D03*
X107420000Y-53930000D03*
X93478815Y-52585745D03*
X107420000Y-51390000D03*
X93478815Y-50045745D03*
X107420000Y-48850000D03*
X93478815Y-47505745D03*
X107420000Y-46310000D03*
X93478815Y-44965745D03*
X107420000Y-43770000D03*
X93478815Y-42425745D03*
X107420000Y-41230000D03*
D25*
X90000000Y-74250000D03*
X90000000Y-80750000D03*
D26*
X91500000Y-93500000D03*
D20*
X96700000Y-74600000D03*
X99240000Y-74600000D03*
X101780000Y-74600000D03*
X104320000Y-74600000D03*
D26*
X107000000Y-93500000D03*
D25*
X106915822Y-102812306D03*
X106915822Y-107812306D03*
D27*
X99915822Y-110912306D03*
X99915822Y-99712306D03*
D25*
X92415822Y-105312306D03*
X92415822Y-107812306D03*
X92415822Y-102812306D03*
D23*
X206325000Y-64025000D03*
X206375000Y-102175000D03*
X130325000Y-58225000D03*
X130325000Y-96525000D03*
D14*
X221400000Y-92550000D03*
D15*
X221120000Y-88350000D03*
D16*
X220900000Y-96250000D03*
X215900000Y-98450000D03*
D17*
X215900000Y-92550000D03*
D16*
X210900000Y-96250000D03*
D15*
X210680000Y-88350000D03*
D14*
X210400000Y-92550000D03*
D18*
X213150000Y-87151000D03*
X213150000Y-88551000D03*
X218650000Y-88551000D03*
X218650000Y-87151000D03*
D19*
X218700000Y-98450000D03*
X208100000Y-96250000D03*
D14*
X221400000Y-54450000D03*
D15*
X221120000Y-50250000D03*
D16*
X220900000Y-58150000D03*
X215900000Y-60350000D03*
D17*
X215900000Y-54450000D03*
D16*
X210900000Y-58150000D03*
D15*
X210680000Y-50250000D03*
D14*
X210400000Y-54450000D03*
D18*
X213150000Y-49051000D03*
X213150000Y-50451000D03*
X218650000Y-50451000D03*
X218650000Y-49051000D03*
D19*
X218700000Y-60350000D03*
X208100000Y-58150000D03*
D14*
X145200000Y-85550000D03*
D15*
X144920000Y-81350000D03*
D16*
X144700000Y-89250000D03*
X139700000Y-91450000D03*
D17*
X139700000Y-85550000D03*
D16*
X134700000Y-89250000D03*
D15*
X134480000Y-81350000D03*
D14*
X134200000Y-85550000D03*
D18*
X136950000Y-80151000D03*
X136950000Y-81551000D03*
X142450000Y-81551000D03*
X142450000Y-80151000D03*
D19*
X142500000Y-91450000D03*
X131900000Y-89250000D03*
D14*
X202350000Y-111600000D03*
D15*
X202070000Y-107400000D03*
D16*
X201850000Y-115300000D03*
X196850000Y-117500000D03*
D17*
X196850000Y-111600000D03*
D16*
X191850000Y-115300000D03*
D15*
X191630000Y-107400000D03*
D14*
X191350000Y-111600000D03*
D18*
X194100000Y-106201000D03*
X194100000Y-107601000D03*
X199600000Y-107601000D03*
X199600000Y-106201000D03*
D19*
X199650000Y-117500000D03*
X189050000Y-115300000D03*
D14*
X82588269Y-139990450D03*
D15*
X80245782Y-136493143D03*
D16*
X84005256Y-143444744D03*
X80775129Y-147850000D03*
D17*
X77825129Y-142740450D03*
D16*
X75345002Y-148444744D03*
D15*
X71204476Y-141713143D03*
D14*
X73061989Y-145490450D03*
D28*
X72744059Y-139439779D03*
X73444059Y-140652214D03*
X78207199Y-137902214D03*
X77507199Y-136689779D03*
D29*
X83200000Y-146450000D03*
X72920131Y-149844744D03*
D19*
X208100000Y-134350000D03*
X218700000Y-136550000D03*
D18*
X218650000Y-125251000D03*
X218650000Y-126651000D03*
X213150000Y-126651000D03*
X213150000Y-125251000D03*
D14*
X210400000Y-130650000D03*
D15*
X210680000Y-126450000D03*
D16*
X210900000Y-134350000D03*
D17*
X215900000Y-130650000D03*
D16*
X215900000Y-136550000D03*
X220900000Y-134350000D03*
D15*
X221120000Y-126450000D03*
D14*
X221400000Y-130650000D03*
X126150000Y-49799000D03*
D15*
X125870000Y-45599000D03*
D16*
X125650000Y-53499000D03*
X120650000Y-55699000D03*
D17*
X120650000Y-49799000D03*
D16*
X115650000Y-53499000D03*
D15*
X115430000Y-45599000D03*
D14*
X115150000Y-49799000D03*
D18*
X117900000Y-44400000D03*
X117900000Y-45800000D03*
X123400000Y-45800000D03*
X123400000Y-44400000D03*
D19*
X123450000Y-55699000D03*
X112850000Y-53499000D03*
D14*
X145200000Y-47450000D03*
D15*
X144920000Y-43250000D03*
D16*
X144700000Y-51150000D03*
X139700000Y-53350000D03*
D17*
X139700000Y-47450000D03*
D16*
X134700000Y-51150000D03*
D15*
X134480000Y-43250000D03*
D14*
X134200000Y-47450000D03*
D18*
X136950000Y-42051000D03*
X136950000Y-43451000D03*
X142450000Y-43451000D03*
X142450000Y-42051000D03*
D19*
X142500000Y-53350000D03*
X131900000Y-51150000D03*
D14*
X145200000Y-104600000D03*
D15*
X144920000Y-100400000D03*
D16*
X144700000Y-108300000D03*
X139700000Y-110500000D03*
D17*
X139700000Y-104600000D03*
D16*
X134700000Y-108300000D03*
D15*
X134480000Y-100400000D03*
D14*
X134200000Y-104600000D03*
D18*
X136950000Y-99201000D03*
X136950000Y-100601000D03*
X142450000Y-100601000D03*
X142450000Y-99201000D03*
D19*
X142500000Y-110500000D03*
X131900000Y-108300000D03*
D14*
X183300000Y-104600000D03*
D15*
X183020000Y-100400000D03*
D16*
X182800000Y-108300000D03*
X177800000Y-110500000D03*
D17*
X177800000Y-104600000D03*
D16*
X172800000Y-108300000D03*
D15*
X172580000Y-100400000D03*
D14*
X172300000Y-104600000D03*
D18*
X175050000Y-99201000D03*
X175050000Y-100601000D03*
X180550000Y-100601000D03*
X180550000Y-99201000D03*
D19*
X180600000Y-110500000D03*
X170000000Y-108300000D03*
D14*
X221400000Y-111600000D03*
D15*
X221120000Y-107400000D03*
D16*
X220900000Y-115300000D03*
X215900000Y-117500000D03*
D17*
X215900000Y-111600000D03*
D16*
X210900000Y-115300000D03*
D15*
X210680000Y-107400000D03*
D14*
X210400000Y-111600000D03*
D18*
X213150000Y-106201000D03*
X213150000Y-107601000D03*
X218650000Y-107601000D03*
X218650000Y-106201000D03*
D19*
X218700000Y-117500000D03*
X208100000Y-115300000D03*
D14*
X183300000Y-47450000D03*
D15*
X183020000Y-43250000D03*
D16*
X182800000Y-51150000D03*
X177800000Y-53350000D03*
D17*
X177800000Y-47450000D03*
D16*
X172800000Y-51150000D03*
D15*
X172580000Y-43250000D03*
D14*
X172300000Y-47450000D03*
D18*
X175050000Y-42051000D03*
X175050000Y-43451000D03*
X180550000Y-43451000D03*
X180550000Y-42051000D03*
D19*
X180600000Y-53350000D03*
X170000000Y-51150000D03*
D14*
X164250000Y-121200000D03*
D15*
X163970000Y-117000000D03*
D16*
X163750000Y-124900000D03*
X158750000Y-127100000D03*
D17*
X158750000Y-121200000D03*
D16*
X153750000Y-124900000D03*
D15*
X153530000Y-117000000D03*
D14*
X153250000Y-121200000D03*
D18*
X156000000Y-115801000D03*
X156000000Y-117201000D03*
X161500000Y-117201000D03*
X161500000Y-115801000D03*
D19*
X161550000Y-127100000D03*
X150950000Y-124900000D03*
D14*
X126150000Y-106950000D03*
D15*
X125870000Y-102750000D03*
D16*
X125650000Y-110650000D03*
X120650000Y-112850000D03*
D17*
X120650000Y-106950000D03*
D16*
X115650000Y-110650000D03*
D15*
X115430000Y-102750000D03*
D14*
X115150000Y-106950000D03*
D18*
X117900000Y-101551000D03*
X117900000Y-102951000D03*
X123400000Y-102951000D03*
X123400000Y-101551000D03*
D19*
X123450000Y-112850000D03*
X112850000Y-110650000D03*
D14*
X183300000Y-85550000D03*
D15*
X183020000Y-81350000D03*
D16*
X182800000Y-89250000D03*
X177800000Y-91450000D03*
D17*
X177800000Y-85550000D03*
D16*
X172800000Y-89250000D03*
D15*
X172580000Y-81350000D03*
D14*
X172300000Y-85550000D03*
D18*
X175050000Y-80151000D03*
X175050000Y-81551000D03*
X180550000Y-81551000D03*
X180550000Y-80151000D03*
D19*
X180600000Y-91450000D03*
X170000000Y-89250000D03*
D14*
X145200000Y-66499000D03*
D15*
X144920000Y-62299000D03*
D16*
X144700000Y-70199000D03*
X139700000Y-72399000D03*
D17*
X139700000Y-66499000D03*
D16*
X134700000Y-70199000D03*
D15*
X134480000Y-62299000D03*
D14*
X134200000Y-66499000D03*
D18*
X136950000Y-61100000D03*
X136950000Y-62500000D03*
X142450000Y-62500000D03*
X142450000Y-61100000D03*
D19*
X142500000Y-72399000D03*
X131900000Y-70199000D03*
D14*
X126150000Y-68850000D03*
D15*
X125870000Y-64650000D03*
D16*
X125650000Y-72550000D03*
X120650000Y-74750000D03*
D17*
X120650000Y-68850000D03*
D16*
X115650000Y-72550000D03*
D15*
X115430000Y-64650000D03*
D14*
X115150000Y-68850000D03*
D18*
X117900000Y-63451000D03*
X117900000Y-64851000D03*
X123400000Y-64851000D03*
X123400000Y-63451000D03*
D19*
X123450000Y-74750000D03*
X112850000Y-72550000D03*
D14*
X183300000Y-123650000D03*
D15*
X183020000Y-119450000D03*
D16*
X182800000Y-127350000D03*
X177800000Y-129550000D03*
D17*
X177800000Y-123650000D03*
D16*
X172800000Y-127350000D03*
D15*
X172580000Y-119450000D03*
D14*
X172300000Y-123650000D03*
D18*
X175050000Y-118251000D03*
X175050000Y-119651000D03*
X180550000Y-119651000D03*
X180550000Y-118251000D03*
D19*
X180600000Y-129550000D03*
X170000000Y-127350000D03*
D14*
X202350000Y-130650000D03*
D15*
X202070000Y-126450000D03*
D16*
X201850000Y-134350000D03*
X196850000Y-136550000D03*
D17*
X196850000Y-130650000D03*
D16*
X191850000Y-134350000D03*
D15*
X191630000Y-126450000D03*
D14*
X191350000Y-130650000D03*
D18*
X194100000Y-125251000D03*
X194100000Y-126651000D03*
X199600000Y-126651000D03*
X199600000Y-125251000D03*
D19*
X199650000Y-136550000D03*
X189050000Y-134350000D03*
D14*
X164250000Y-83100000D03*
D15*
X163970000Y-78900000D03*
D16*
X163750000Y-86800000D03*
X158750000Y-89000000D03*
D17*
X158750000Y-83100000D03*
D16*
X153750000Y-86800000D03*
D15*
X153530000Y-78900000D03*
D14*
X153250000Y-83100000D03*
D18*
X156000000Y-77701000D03*
X156000000Y-79101000D03*
X161500000Y-79101000D03*
X161500000Y-77701000D03*
D19*
X161550000Y-89000000D03*
X150950000Y-86800000D03*
D14*
X183300000Y-66500000D03*
D15*
X183020000Y-62300000D03*
D16*
X182800000Y-70200000D03*
X177800000Y-72400000D03*
D17*
X177800000Y-66500000D03*
D16*
X172800000Y-70200000D03*
D15*
X172580000Y-62300000D03*
D14*
X172300000Y-66500000D03*
D18*
X175050000Y-61101000D03*
X175050000Y-62501000D03*
X180550000Y-62501000D03*
X180550000Y-61101000D03*
D19*
X180600000Y-72400000D03*
X170000000Y-70200000D03*
D14*
X102319251Y-131732359D03*
D15*
X100619653Y-127881416D03*
D16*
X103114880Y-135380232D03*
X99168861Y-139157656D03*
D17*
X97150942Y-133613470D03*
D16*
X93717953Y-138800433D03*
D15*
X90809262Y-131452106D03*
D14*
X91982633Y-135494581D03*
D30*
X92720221Y-129480625D03*
X93199049Y-130796195D03*
X98367358Y-128915084D03*
X97888530Y-127599514D03*
D31*
X101800000Y-138200000D03*
X91086814Y-139758090D03*
D14*
X202350000Y-73500000D03*
D15*
X202070000Y-69300000D03*
D16*
X201850000Y-77200000D03*
X196850000Y-79400000D03*
D17*
X196850000Y-73500000D03*
D16*
X191850000Y-77200000D03*
D15*
X191630000Y-69300000D03*
D14*
X191350000Y-73500000D03*
D18*
X194100000Y-68101000D03*
X194100000Y-69501000D03*
X199600000Y-69501000D03*
X199600000Y-68101000D03*
D19*
X199650000Y-79400000D03*
X189050000Y-77200000D03*
D14*
X164250000Y-64050000D03*
D15*
X163970000Y-59850000D03*
D16*
X163750000Y-67750000D03*
X158750000Y-69950000D03*
D17*
X158750000Y-64050000D03*
D16*
X153750000Y-67750000D03*
D15*
X153530000Y-59850000D03*
D14*
X153250000Y-64050000D03*
D18*
X156000000Y-58651000D03*
X156000000Y-60051000D03*
X161500000Y-60051000D03*
X161500000Y-58651000D03*
D19*
X161550000Y-69950000D03*
X150950000Y-67750000D03*
D14*
X126150000Y-87900000D03*
D15*
X125870000Y-83700000D03*
D16*
X125650000Y-91600000D03*
X120650000Y-93800000D03*
D17*
X120650000Y-87900000D03*
D16*
X115650000Y-91600000D03*
D15*
X115430000Y-83700000D03*
D14*
X115150000Y-87900000D03*
D18*
X117900000Y-82501000D03*
X117900000Y-83901000D03*
X123400000Y-83901000D03*
X123400000Y-82501000D03*
D19*
X123450000Y-93800000D03*
X112850000Y-91600000D03*
D14*
X202350000Y-92550000D03*
D15*
X202070000Y-88350000D03*
D16*
X201850000Y-96250000D03*
X196850000Y-98450000D03*
D17*
X196850000Y-92550000D03*
D16*
X191850000Y-96250000D03*
D15*
X191630000Y-88350000D03*
D14*
X191350000Y-92550000D03*
D18*
X194100000Y-87151000D03*
X194100000Y-88551000D03*
X199600000Y-88551000D03*
X199600000Y-87151000D03*
D19*
X199650000Y-98450000D03*
X189050000Y-96250000D03*
D14*
X221400000Y-73500000D03*
D15*
X221120000Y-69300000D03*
D16*
X220900000Y-77200000D03*
X215900000Y-79400000D03*
D17*
X215900000Y-73500000D03*
D16*
X210900000Y-77200000D03*
D15*
X210680000Y-69300000D03*
D14*
X210400000Y-73500000D03*
D18*
X213150000Y-68101000D03*
X213150000Y-69501000D03*
X218650000Y-69501000D03*
X218650000Y-68101000D03*
D19*
X218700000Y-79400000D03*
X208100000Y-77200000D03*
D14*
X164250000Y-102150000D03*
D15*
X163970000Y-97950000D03*
D16*
X163750000Y-105850000D03*
X158750000Y-108050000D03*
D17*
X158750000Y-102150000D03*
D16*
X153750000Y-105850000D03*
D15*
X153530000Y-97950000D03*
D14*
X153250000Y-102150000D03*
D18*
X156000000Y-96751000D03*
X156000000Y-98151000D03*
X161500000Y-98151000D03*
X161500000Y-96751000D03*
D19*
X161550000Y-108050000D03*
X150950000Y-105850000D03*
D14*
X123284457Y-127070784D03*
D15*
X122279388Y-122983213D03*
D16*
X123434551Y-130801397D03*
X118892538Y-133836215D03*
D17*
X117868014Y-128025849D03*
D16*
X113586473Y-132537879D03*
D15*
X111997995Y-124796100D03*
D14*
X112451571Y-128980914D03*
D32*
X114222266Y-123186404D03*
X114465374Y-124565135D03*
X119881816Y-123610070D03*
X119638709Y-122231339D03*
D33*
X121650000Y-133350000D03*
X110829012Y-133024093D03*
D14*
X202350000Y-54450000D03*
D15*
X202070000Y-50250000D03*
D16*
X201850000Y-58150000D03*
X196850000Y-60350000D03*
D17*
X196850000Y-54450000D03*
D16*
X191850000Y-58150000D03*
D15*
X191630000Y-50250000D03*
D14*
X191350000Y-54450000D03*
D18*
X194100000Y-49051000D03*
X194100000Y-50451000D03*
X199600000Y-50451000D03*
X199600000Y-49051000D03*
D19*
X199650000Y-60350000D03*
X189050000Y-58150000D03*
D14*
X145200000Y-123650000D03*
D15*
X144920000Y-119450000D03*
D16*
X144700000Y-127350000D03*
X139700000Y-129550000D03*
D17*
X139700000Y-123650000D03*
D16*
X134700000Y-127350000D03*
D15*
X134480000Y-119450000D03*
D14*
X134200000Y-123650000D03*
D18*
X136950000Y-118251000D03*
X136950000Y-119651000D03*
X142450000Y-119651000D03*
X142450000Y-118251000D03*
D19*
X142500000Y-129550000D03*
X131900000Y-127350000D03*
D34*
X101700000Y-69800380D03*
X101700000Y-68799620D03*
X99200000Y-69800380D03*
X99200000Y-68799620D03*
X96700000Y-69800380D03*
X96700000Y-68799620D03*
X104300000Y-69800380D03*
X104300000Y-68799620D03*
%LPD*%
M02*
