G04 #@! TF.GenerationSoftware,KiCad,Pcbnew,7.0.9*
G04 #@! TF.CreationDate,2024-01-08T22:41:58+03:00*
G04 #@! TF.ProjectId,SofleKeyboard,536f666c-654b-4657-9962-6f6172642e6b,rev?*
G04 #@! TF.SameCoordinates,Original*
G04 #@! TF.FileFunction,Profile,NP*
%FSLAX46Y46*%
G04 Gerber Fmt 4.6, Leading zero omitted, Abs format (unit mm)*
G04 Created by KiCad (PCBNEW 7.0.9) date 2024-01-08 22:41:58*
%MOMM*%
%LPD*%
G01*
G04 APERTURE LIST*
G04 #@! TA.AperFunction,Profile*
%ADD10C,0.100000*%
G04 #@! TD*
G04 #@! TA.AperFunction,Profile*
%ADD11C,0.150000*%
G04 #@! TD*
G04 #@! TA.AperFunction,Profile*
%ADD12C,0.120000*%
G04 #@! TD*
G04 APERTURE END LIST*
D10*
X72546087Y-154287871D02*
X63991258Y-138938726D01*
X65241258Y-134010454D02*
X87421320Y-116071320D01*
X149000000Y-35000000D02*
X91289180Y-37263923D01*
D11*
X223303228Y-142655895D02*
X209276614Y-142655895D01*
D10*
X88300000Y-113950000D02*
X88263923Y-40289180D01*
X225500000Y-45350000D02*
X225470181Y-119500000D01*
D11*
X181800002Y-138377943D02*
G75*
G03*
X209276614Y-142655895I28421698J92170143D01*
G01*
X72546114Y-154287857D02*
G75*
G03*
X76717681Y-155469972I2649986J1399957D01*
G01*
X225499987Y-45350000D02*
G75*
G03*
X223800000Y-43050001I-2405887J0D01*
G01*
X87421320Y-116071320D02*
G75*
G03*
X88300000Y-113950000I-2121320J2121320D01*
G01*
X181800002Y-138377940D02*
G75*
G03*
X138849288Y-135307795I-28692402J-99429960D01*
G01*
X138849289Y-135307802D02*
G75*
G03*
X76717681Y-155469972I20446611J-168821398D01*
G01*
X225470181Y-119500000D02*
X225450000Y-140600000D01*
X223303224Y-142655953D02*
G75*
G03*
X225449999Y-140600000I146076J1996253D01*
G01*
X223800000Y-43050000D02*
X203150884Y-39470909D01*
X65241260Y-134010457D02*
G75*
G03*
X63991258Y-138938726I2166520J-3172173D01*
G01*
X91289180Y-37263923D02*
G75*
G03*
X88263923Y-40289180I20J-3025277D01*
G01*
X203150885Y-39470901D02*
G75*
G03*
X149000000Y-35000000I-50447685J-280845699D01*
G01*
D12*
X217700000Y-89401000D02*
X217700000Y-86301000D01*
X217700000Y-86301000D02*
X214100000Y-86301000D01*
X214100000Y-89401000D02*
X217700000Y-89401000D01*
X214100000Y-86301000D02*
X214100000Y-89401000D01*
X217700000Y-51301000D02*
X217700000Y-48201000D01*
X217700000Y-48201000D02*
X214100000Y-48201000D01*
X214100000Y-51301000D02*
X217700000Y-51301000D01*
X214100000Y-48201000D02*
X214100000Y-51301000D01*
X160550000Y-41851000D02*
X160550000Y-38751000D01*
X160550000Y-38751000D02*
X156950000Y-38751000D01*
X156950000Y-41851000D02*
X160550000Y-41851000D01*
X156950000Y-38751000D02*
X156950000Y-41851000D01*
X141500000Y-82401000D02*
X141500000Y-79301000D01*
X141500000Y-79301000D02*
X137900000Y-79301000D01*
X137900000Y-82401000D02*
X141500000Y-82401000D01*
X137900000Y-79301000D02*
X137900000Y-82401000D01*
X198650000Y-108451000D02*
X198650000Y-105351000D01*
X198650000Y-105351000D02*
X195050000Y-105351000D01*
X195050000Y-108451000D02*
X198650000Y-108451000D01*
X195050000Y-105351000D02*
X195050000Y-108451000D01*
X77809475Y-139113336D02*
X76259475Y-136428657D01*
X76259475Y-136428657D02*
X73141783Y-138228657D01*
X74691783Y-140913336D02*
X77809475Y-139113336D01*
X73141783Y-138228657D02*
X74691783Y-140913336D01*
X217700000Y-127501000D02*
X217700000Y-124401000D01*
X217700000Y-124401000D02*
X214100000Y-124401000D01*
X214100000Y-127501000D02*
X217700000Y-127501000D01*
X214100000Y-124401000D02*
X214100000Y-127501000D01*
X122450000Y-46650000D02*
X122450000Y-43550000D01*
X122450000Y-43550000D02*
X118850000Y-43550000D01*
X118850000Y-46650000D02*
X122450000Y-46650000D01*
X118850000Y-43550000D02*
X118850000Y-46650000D01*
X141500000Y-44301000D02*
X141500000Y-41201000D01*
X141500000Y-41201000D02*
X137900000Y-41201000D01*
X137900000Y-44301000D02*
X141500000Y-44301000D01*
X137900000Y-41201000D02*
X137900000Y-44301000D01*
X141500000Y-101451000D02*
X141500000Y-98351000D01*
X141500000Y-98351000D02*
X137900000Y-98351000D01*
X137900000Y-101451000D02*
X141500000Y-101451000D01*
X137900000Y-98351000D02*
X137900000Y-101451000D01*
X179600000Y-101451000D02*
X179600000Y-98351000D01*
X179600000Y-98351000D02*
X176000000Y-98351000D01*
X176000000Y-101451000D02*
X179600000Y-101451000D01*
X176000000Y-98351000D02*
X176000000Y-101451000D01*
X217700000Y-108451000D02*
X217700000Y-105351000D01*
X217700000Y-105351000D02*
X214100000Y-105351000D01*
X214100000Y-108451000D02*
X217700000Y-108451000D01*
X214100000Y-105351000D02*
X214100000Y-108451000D01*
X179600000Y-44301000D02*
X179600000Y-41201000D01*
X179600000Y-41201000D02*
X176000000Y-41201000D01*
X176000000Y-44301000D02*
X179600000Y-44301000D01*
X176000000Y-41201000D02*
X176000000Y-44301000D01*
X160550000Y-118051000D02*
X160550000Y-114951000D01*
X160550000Y-114951000D02*
X156950000Y-114951000D01*
X156950000Y-118051000D02*
X160550000Y-118051000D01*
X156950000Y-114951000D02*
X156950000Y-118051000D01*
X122450000Y-103801000D02*
X122450000Y-100701000D01*
X122450000Y-100701000D02*
X118850000Y-100701000D01*
X118850000Y-103801000D02*
X122450000Y-103801000D01*
X118850000Y-100701000D02*
X118850000Y-103801000D01*
X179600000Y-82401000D02*
X179600000Y-79301000D01*
X179600000Y-79301000D02*
X176000000Y-79301000D01*
X176000000Y-82401000D02*
X179600000Y-82401000D01*
X176000000Y-79301000D02*
X176000000Y-82401000D01*
X141500000Y-63350000D02*
X141500000Y-60250000D01*
X141500000Y-60250000D02*
X137900000Y-60250000D01*
X137900000Y-63350000D02*
X141500000Y-63350000D01*
X137900000Y-60250000D02*
X137900000Y-63350000D01*
X122450000Y-65701000D02*
X122450000Y-62601000D01*
X122450000Y-62601000D02*
X118850000Y-62601000D01*
X118850000Y-65701000D02*
X122450000Y-65701000D01*
X118850000Y-62601000D02*
X118850000Y-65701000D01*
X179600000Y-120501000D02*
X179600000Y-117401000D01*
X179600000Y-117401000D02*
X176000000Y-117401000D01*
X176000000Y-120501000D02*
X179600000Y-120501000D01*
X176000000Y-117401000D02*
X176000000Y-120501000D01*
X198650000Y-127501000D02*
X198650000Y-124401000D01*
X198650000Y-124401000D02*
X195050000Y-124401000D01*
X195050000Y-127501000D02*
X198650000Y-127501000D01*
X195050000Y-124401000D02*
X195050000Y-127501000D01*
X160550000Y-79951000D02*
X160550000Y-76851000D01*
X160550000Y-76851000D02*
X156950000Y-76851000D01*
X156950000Y-79951000D02*
X160550000Y-79951000D01*
X156950000Y-76851000D02*
X156950000Y-79951000D01*
X179600000Y-63351000D02*
X179600000Y-60251000D01*
X179600000Y-60251000D02*
X176000000Y-60251000D01*
X176000000Y-63351000D02*
X179600000Y-63351000D01*
X176000000Y-60251000D02*
X176000000Y-63351000D01*
X97765367Y-130038742D02*
X96705105Y-127125695D01*
X96705105Y-127125695D02*
X93322211Y-128356967D01*
X94382474Y-131270014D02*
X97765367Y-130038742D01*
X93322211Y-128356967D02*
X94382474Y-131270014D01*
X198650000Y-70351000D02*
X198650000Y-67251000D01*
X198650000Y-67251000D02*
X195050000Y-67251000D01*
X195050000Y-70351000D02*
X198650000Y-70351000D01*
X195050000Y-67251000D02*
X195050000Y-70351000D01*
X160550000Y-60901000D02*
X160550000Y-57801000D01*
X160550000Y-57801000D02*
X156950000Y-57801000D01*
X156950000Y-60901000D02*
X160550000Y-60901000D01*
X156950000Y-57801000D02*
X156950000Y-60901000D01*
X122450000Y-84751000D02*
X122450000Y-81651000D01*
X122450000Y-81651000D02*
X118850000Y-81651000D01*
X118850000Y-84751000D02*
X122450000Y-84751000D01*
X118850000Y-81651000D02*
X118850000Y-84751000D01*
X198650000Y-89401000D02*
X198650000Y-86301000D01*
X198650000Y-86301000D02*
X195050000Y-86301000D01*
X195050000Y-89401000D02*
X198650000Y-89401000D01*
X195050000Y-86301000D02*
X195050000Y-89401000D01*
X217700000Y-70351000D02*
X217700000Y-67251000D01*
X217700000Y-67251000D02*
X214100000Y-67251000D01*
X214100000Y-70351000D02*
X217700000Y-70351000D01*
X214100000Y-67251000D02*
X214100000Y-70351000D01*
X160550000Y-99001000D02*
X160550000Y-95901000D01*
X160550000Y-95901000D02*
X156950000Y-95901000D01*
X156950000Y-99001000D02*
X160550000Y-99001000D01*
X156950000Y-95901000D02*
X156950000Y-99001000D01*
X119093850Y-124612123D02*
X118555540Y-121559219D01*
X118555540Y-121559219D02*
X115010233Y-122184352D01*
X115548542Y-125237256D02*
X119093850Y-124612123D01*
X115010233Y-122184352D02*
X115548542Y-125237256D01*
X198650000Y-51301000D02*
X198650000Y-48201000D01*
X198650000Y-48201000D02*
X195050000Y-48201000D01*
X195050000Y-51301000D02*
X198650000Y-51301000D01*
X195050000Y-48201000D02*
X195050000Y-51301000D01*
X141500000Y-120501000D02*
X141500000Y-117401000D01*
X141500000Y-117401000D02*
X137900000Y-117401000D01*
X137900000Y-120501000D02*
X141500000Y-120501000D01*
X137900000Y-117401000D02*
X137900000Y-120501000D01*
M02*
