M48
; DRILL file {KiCad 7.0.9} date Sun Jan  7 00:41:05 2024
; FORMAT={-:-/ absolute / inch / decimal}
; #@! TF.CreationDate,2024-01-07T00:41:05+03:00
; #@! TF.GenerationSoftware,Kicad,Pcbnew,7.0.9
; #@! TF.FileFunction,Plated,1,2,PTH
FMAT,2
INCH
; #@! TA.AperFunction,Plated,PTH,ViaDrill
T1C0.0118
; #@! TA.AperFunction,Plated,PTH,ComponentDrill
T2C0.0315
; #@! TA.AperFunction,Plated,PTH,ComponentDrill
T3C0.0320
; #@! TA.AperFunction,Plated,PTH,ComponentDrill
T4C0.0394
; #@! TA.AperFunction,Plated,PTH,ComponentDrill
T5C0.0512
; #@! TA.AperFunction,Plated,PTH,ComponentDrill
T6C0.0591
; #@! TA.AperFunction,Plated,PTH,ComponentDrill
T7C0.0866
; #@! TA.AperFunction,Plated,PTH,ComponentDrill
T8C0.1614
%
G90
G05
T1
X2.8061Y-5.5266
X2.8189Y-5.4173
X2.9705Y-5.9665
X3.1299Y-5.4035
X3.1775Y-5.6673
X3.1927Y-5.3315
X3.1975Y-5.1896
X3.2621Y-5.0317
X3.3055Y-5.3096
X3.3551Y-5.4502
X3.4168Y-5.7239
X3.457Y-5.7857
X3.4623Y-4.7537
X3.5553Y-5.5867
X3.5866Y-5.1299
X3.6496Y-5.0492
X3.7323Y-2.7795
X3.733Y-1.7406
X3.7743Y-2.0225
X3.7743Y-2.6693
X3.8071Y-2.6693
X3.8072Y-1.7706
X3.8073Y-1.9203
X3.8557Y-2.0703
X3.9252Y-5.063
X3.9528Y-1.9703
X3.9528Y-5.376
X3.9528Y-2.7087
X3.9783Y-2.1232
X3.9955Y-4.9874
X3.9995Y-2.1703
X4.0204Y-2.2717
X4.0247Y-4.868
X4.0374Y-5.0257
X4.041Y-2.3717
X4.0483Y-2.7075
X4.0591Y-2.6732
X4.0617Y-2.4717
X4.0709Y-5.1048
X4.0824Y-2.531
X4.103Y-2.5738
X4.1113Y-3.8692
X4.1237Y-2.6468
X4.1456Y-5.4654
X4.1485Y-2.0232
X4.1533Y-2.6446
X4.1535Y-2.2244
X4.1535Y-2.5692
X4.1536Y-2.5066
X4.1537Y-2.4193
X4.1538Y-2.3229
X4.1556Y-2.1232
X4.1614Y-1.7323
X4.1614Y-1.6378
X4.1826Y-5.3637
X4.184Y-4.8105
X4.2308Y-5.3676
X4.2637Y-5.2627
X4.2763Y-2.9374
X4.2824Y-3.8174
X4.3112Y-5.4591
X4.3256Y-4.9585
X4.3504Y-3.8169
X4.3544Y-1.8957
X4.3771Y-5.1349
X4.3799Y-2.444
X4.38Y-3.5342
X4.38Y-4.5689
X4.3803Y-3.9318
X4.3816Y-3.2008
X4.3921Y-1.7951
X4.3955Y-5.0102
X4.4056Y-2.9597
X4.4075Y-3.4823
X4.4114Y-4.4409
X4.4154Y-4.8622
X4.4272Y-4.5394
X4.431Y-3.9807
X4.431Y-3.8958
X4.4402Y-3.6029
X4.4429Y-2.1063
X4.4429Y-3.0236
X4.4543Y-5.3848
X4.4705Y-2.9665
X4.4705Y-3.3701
X4.4814Y-2.4431
X4.4876Y-3.9303
X4.497Y-3.0738
X4.4971Y-2.2486
X4.498Y-4.8071
X4.5022Y-3.7653
X4.5249Y-3.1988
X4.5557Y-4.0006
X4.5846Y-1.7067
X4.5851Y-3.2425
X4.5858Y-2.4866
X4.6417Y-3.2009
X4.6417Y-3.9587
X4.6427Y-2.4445
X4.6457Y-1.6614
X4.7303Y-4.9134
X4.7323Y-5.1516
X4.7601Y-1.6332
X4.7717Y-4.8543
X4.8229Y-3.8848
X4.86Y-1.9044
X4.8602Y-2.0217
X4.8602Y-2.7717
X4.8602Y-3.5217
X4.8602Y-4.2736
X4.8654Y-2.4149
X4.8749Y-3.1416
X4.9134Y-2.5531
X4.9134Y-4.0531
X4.9154Y-1.8031
X4.9154Y-3.3012
X4.9582Y-3.9995
X4.9646Y-1.7461
X4.9685Y-2.4961
X4.9685Y-3.2461
X4.9915Y-5.2636
X4.9944Y-1.8625
X5.0124Y-4.0854
X5.0275Y-5.1121
X5.0485Y-1.6143
X5.0669Y-3.4426
X5.0733Y-4.1908
X5.0744Y-2.697
X5.0757Y-2.0199
X5.085Y-5.1591
X5.0971Y-1.6146
X5.1175Y-4.8177
X5.1254Y-2.5297
X5.1259Y-3.2737
X5.1261Y-1.7819
X5.1451Y-1.5331
X5.1497Y-5.2609
X5.174Y-2.6954
X5.1749Y-1.9492
X5.1791Y-3.4423
X5.1793Y-4.1915
X5.1929Y-2.937
X5.1929Y-4.4429
X5.1929Y-5.0846
X5.2134Y-1.6585
X5.2343Y-3.689
X5.2461Y-2.1949
X5.25Y-1.5331
X5.2599Y-1.6692
X5.3012Y-3.1535
X5.3012Y-3.9035
X5.3071Y-4.6575
X5.3154Y-5.1334
X5.3189Y-1.6654
X5.3209Y-2.4232
X5.3336Y-5.2221
X5.3917Y-1.6181
X5.3917Y-2.3642
X5.3917Y-3.1161
X5.3917Y-3.8642
X5.3917Y-4.6142
X5.6073Y-1.8173
X5.6073Y-1.5967
X5.6083Y-4.1181
X5.6083Y-4.6102
X5.6102Y-2.0098
X5.6102Y-2.7657
X5.6102Y-3.5157
X5.6102Y-4.2657
X5.6102Y-4.9941
X5.6109Y-3.3127
X5.6122Y-2.622
X5.6654Y-1.7106
X5.6654Y-2.4606
X5.6654Y-3.2106
X5.6697Y-4.6909
X5.6791Y-4.7539
X5.7104Y-3.9092
X5.7126Y-2.4016
X5.7126Y-3.1516
X5.7489Y-1.5098
X5.7717Y-4.9292
X5.7818Y-5.1384
X5.7953Y-2.6181
X5.7998Y-1.825
X5.8004Y-1.7059
X5.8118Y-1.5475
X5.815Y-4.1181
X5.8682Y-4.7334
X5.8753Y-4.8241
X5.8757Y-5.0167
X5.8801Y-3.9335
X5.9123Y-5.0187
X5.9126Y-4.8248
X5.9429Y-2.0886
X5.9429Y-2.8425
X5.9429Y-3.5925
X5.9429Y-4.3386
X5.9467Y-5.1833
X5.9806Y-1.5476
X6.0399Y-5.014
X6.0551Y-4.561
X6.0807Y-1.5433
X6.0807Y-3.0157
X6.0827Y-2.2697
X6.0866Y-3.7697
X6.0867Y-5.1388
X6.1398Y-2.2244
X6.1398Y-2.9803
X6.1417Y-1.5039
X6.1417Y-3.7264
X6.1417Y-4.5138
X6.3602Y-1.8327
X6.3602Y-2.5807
X6.3602Y-3.3327
X6.3602Y-4.0846
X6.3602Y-4.8327
X6.3882Y-5.2165
X6.4154Y-1.6614
X6.4154Y-3.1122
X6.4154Y-3.8642
X6.4154Y-4.6122
X6.4173Y-2.3642
X6.4493Y-5.0852
X6.4626Y-2.3071
X6.4626Y-3.0571
X6.4685Y-3.8031
X6.4724Y-4.5571
X6.5111Y-1.6507
X6.5158Y-2.5817
X6.5197Y-3.3328
X6.6222Y-1.6888
X6.6229Y-4.6794
X6.6252Y-2.4326
X6.6255Y-3.181
X6.6261Y-3.9314
X6.6547Y-1.5361
X6.6557Y-1.4878
X6.6751Y-4.8492
X6.6753Y-2.6097
X6.6774Y-3.3512
X6.6775Y-1.8812
X6.6789Y-4.0963
X6.6929Y-2.1831
X6.6929Y-2.9409
X6.6929Y-3.6909
X6.6929Y-4.439
X6.6938Y-5.0785
X6.7332Y-5.1367
X6.7975Y-1.6495
X6.8031Y-2.4055
X6.8031Y-3.9055
X6.8051Y-3.1535
X6.8051Y-4.6575
X6.8389Y-1.5842
X6.839Y-1.6534
X6.8917Y-1.6142
X6.8917Y-2.3602
X6.8917Y-3.1083
X6.8917Y-3.8563
X6.8917Y-4.6083
X7.1012Y-5.2637
X7.1073Y-1.8233
X7.108Y-2.5641
X7.1102Y-2.0059
X7.1102Y-2.7697
X7.1102Y-3.5197
X7.1102Y-4.2657
X7.1102Y-5.0118
X7.1103Y-3.3222
X7.1114Y-4.0666
X7.1116Y-4.8181
X7.163Y-5.2182
X7.1652Y-3.9606
X7.1654Y-1.7107
X7.1654Y-3.2106
X7.1654Y-4.752
X7.1693Y-2.4606
X7.2106Y-2.4114
X7.2126Y-3.1535
X7.2126Y-3.9016
X7.2381Y-4.6162
X7.2793Y-5.2636
X7.2794Y-4.4211
X7.2868Y-2.6549
X7.3123Y-1.7875
X7.3893Y-1.7167
X7.3894Y-5.3983
X7.3905Y-4.4178
X7.4258Y-1.7167
X7.4429Y-2.4764
X7.4429Y-3.9587
X7.4429Y-4.7185
X7.4429Y-5.372
X7.4429Y-3.214
X7.5513Y-1.6532
X7.5571Y-4.9331
X7.5807Y-2.6358
X7.5846Y-1.878
X7.5846Y-3.3858
X7.5846Y-4.1378
X7.6398Y-2.5965
X7.6398Y-3.3465
X7.6398Y-4.1043
X7.6417Y-4.8819
X7.6496Y-1.8524
X7.8602Y-2.2894
X7.8602Y-2.9547
X7.8602Y-3.7047
X7.8602Y-4.4567
X7.8602Y-5.2087
X7.9095Y-5.5308
X7.9154Y-4.2342
X7.9173Y-2.7343
X7.9173Y-3.4843
X7.9173Y-4.9843
X7.9232Y-2.0276
X7.962Y-4.9325
X8.0169Y-2.187
X8.0287Y-3.6887
X8.0864Y-5.3931
X8.123Y-4.3011
X8.1245Y-3.5534
X8.1249Y-2.8091
X8.1252Y-5.0534
X8.1257Y-2.0568
X8.127Y-1.7049
X8.1717Y-4.4675
X8.1733Y-2.9702
X8.1776Y-3.7187
X8.1794Y-2.2206
X8.1929Y-3.2165
X8.1929Y-4.7185
X8.1929Y-5.378
X8.2101Y-5.2054
X8.2345Y-1.8495
X8.2697Y-3.9646
X8.2913Y-2.4764
X8.2992Y-3.4291
X8.2995Y-1.8012
X8.3012Y-1.9232
X8.3012Y-2.6791
X8.3031Y-4.1811
X8.305Y-5.458
X8.3051Y-4.9331
X8.3917Y-1.8937
X8.3917Y-2.628
X8.3917Y-3.378
X8.3917Y-4.1339
X8.3917Y-4.8799
X8.575Y-2.5221
X8.6063Y-4.2874
X8.6077Y-5.0649
X8.6083Y-2.7854
X8.6083Y-3.5394
X8.6091Y-2.0424
X8.6102Y-2.2559
X8.6102Y-3.0433
X8.6102Y-3.7933
X8.6102Y-4.5433
X8.6102Y-5.2697
X8.6594Y-4.2362
X8.663Y-4.9844
X8.6673Y-1.9843
X8.6673Y-2.7362
X8.6673Y-3.4843
X8.6934Y-2.454
X8.6954Y-4.1879
X8.6961Y-4.9173
X8.7008Y-3.4364
X8.7416Y-2.553
X8.7451Y-3.8982
X8.7451Y-4.0746
X8.7451Y-4.2137
X8.7468Y-3.1449
X8.7469Y-3.3171
X8.7497Y-2.3788
X8.7502Y-4.9668
X8.7509Y-4.8352
X8.7515Y-4.6591
X8.8154Y-3.4529
T3
X3.6291Y-1.6232
X3.6291Y-1.7232
X3.6291Y-1.8232
X3.6291Y-1.9232
X3.6291Y-2.0232
X3.6291Y-2.1232
X3.6291Y-2.2232
X3.6291Y-2.3232
X3.6291Y-2.4232
X3.6291Y-2.5232
X3.6291Y-2.6232
X3.6291Y-2.7232
X3.6803Y-1.6703
X3.6803Y-1.7703
X3.6803Y-1.8703
X3.6803Y-1.9703
X3.6803Y-2.0703
X3.6803Y-2.1703
X3.6803Y-2.2703
X3.6803Y-2.3703
X3.6803Y-2.4703
X3.6803Y-2.5703
X3.6803Y-2.6703
X3.6803Y-2.7703
X3.7598Y-3.0733
X3.7598Y-3.1619
X3.8071Y-2.937
X3.9071Y-2.937
X3.9598Y-3.0733
X3.9598Y-3.1619
X4.0071Y-2.937
X4.0433Y-3.0748
X4.0433Y-3.1614
X4.1071Y-2.937
X4.2291Y-1.6232
X4.2291Y-1.7232
X4.2291Y-1.8232
X4.2291Y-1.9232
X4.2291Y-2.0232
X4.2291Y-2.1232
X4.2291Y-2.2232
X4.2291Y-2.3232
X4.2291Y-2.4232
X4.2291Y-2.5232
X4.2291Y-2.6232
X4.2291Y-2.7232
X4.2803Y-1.6703
X4.2803Y-1.7703
X4.2803Y-1.8703
X4.2803Y-1.9703
X4.2803Y-2.0703
X4.2803Y-2.1703
X4.2803Y-2.2703
X4.2803Y-2.3703
X4.2803Y-2.4703
X4.2803Y-2.5703
X4.2803Y-2.6703
X4.2803Y-2.7703
T4
X3.6384Y-4.0477
X3.6384Y-4.1462
X3.6384Y-4.2446
X4.2093Y-4.0477
X4.2093Y-4.2446
T5
X3.5433Y-2.9232
X3.5433Y-3.1791
T7
X3.6024Y-3.6811
X4.2126Y-3.6811
T8
X4.0787Y-4.6496
X5.1309Y-2.2923
X5.1309Y-3.8002
X8.1185Y-2.5122
X8.125Y-4.0226
T2
G00X3.6287Y-3.2882
M15
G01X3.6484Y-3.2882
M16
G05
G00X3.6287Y-3.5362
M15
G01X3.6484Y-3.5362
M16
G05
G00X3.7547Y-3.2882
M15
G01X3.7744Y-3.2882
M16
G05
G00X3.7547Y-3.5362
M15
G01X3.7744Y-3.5362
M16
G05
G00X3.8807Y-3.2882
M15
G01X3.9004Y-3.2882
M16
G05
G00X3.8807Y-3.5362
M15
G01X3.9004Y-3.5362
M16
G05
G00X4.0067Y-3.2882
M15
G01X4.0264Y-3.2882
M16
G05
G00X4.0067Y-3.5362
M15
G01X4.0264Y-3.5362
M16
G05
T6
G00X3.9081Y-3.9257
M15
G01X3.9593Y-3.9257
M16
G05
G00X3.9081Y-4.3666
M15
G01X3.9593Y-4.3666
M16
G05
T0
M30
