M48
; DRILL file {KiCad 7.0.9} date Mon Jan  8 22:41:57 2024
; FORMAT={-:-/ absolute / inch / decimal}
; #@! TF.CreationDate,2024-01-08T22:41:57+03:00
; #@! TF.GenerationSoftware,Kicad,Pcbnew,7.0.9
; #@! TF.FileFunction,NonPlated,1,2,NPTH
FMAT,2
INCH
; #@! TA.AperFunction,NonPlated,NPTH,ComponentDrill
T1C0.0394
; #@! TA.AperFunction,NonPlated,NPTH,ComponentDrill
T2C0.0630
; #@! TA.AperFunction,NonPlated,NPTH,ComponentDrill
T3C0.0709
; #@! TA.AperFunction,NonPlated,NPTH,ComponentDrill
T4C0.1181
; #@! TA.AperFunction,NonPlated,NPTH,ComponentDrill
T5C0.1339
%
G90
G05
T1
X2.8033Y-5.5793
X3.1593Y-5.3737
X3.5752Y-5.1753
X3.9614Y-5.0347
X4.4094Y-4.9132
X4.5445Y-1.7952
X4.5445Y-2.5453
X4.5445Y-3.2953
X4.5445Y-4.0453
X4.8141Y-4.8419
X4.9555Y-1.7952
X4.9555Y-2.5453
X4.9555Y-3.2953
X4.9555Y-4.0453
X5.2945Y-1.7028
X5.2945Y-2.4527
X5.2945Y-3.2028
X5.2945Y-3.9528
X5.2945Y-4.7028
X5.7055Y-1.7028
X5.7055Y-2.4527
X5.7055Y-3.2028
X5.7055Y-3.9528
X5.7055Y-4.7028
X6.0445Y-1.6063
X6.0445Y-2.3563
X6.0445Y-3.1063
X6.0445Y-3.8563
X6.0445Y-4.6063
X6.4555Y-1.6063
X6.4555Y-2.3563
X6.4555Y-3.1063
X6.4555Y-3.8563
X6.4555Y-4.6063
X6.7945Y-1.7028
X6.7945Y-2.4528
X6.7945Y-3.2028
X6.7945Y-3.9528
X6.7945Y-4.7028
X7.2055Y-1.7028
X7.2055Y-2.4528
X7.2055Y-3.2028
X7.2055Y-3.9528
X7.2055Y-4.7028
X7.5445Y-1.9783
X7.5445Y-2.7283
X7.5445Y-3.4783
X7.5445Y-4.2283
X7.5445Y-4.9783
X7.9555Y-1.9783
X7.9555Y-2.7283
X7.9555Y-3.4783
X7.9555Y-4.2283
X7.9555Y-4.9783
X8.2945Y-1.9783
X8.2945Y-2.7283
X8.2945Y-3.4783
X8.2945Y-4.2283
X8.2945Y-4.9783
X8.7055Y-1.9783
X8.7055Y-2.7283
X8.7055Y-3.4783
X8.7055Y-4.2283
X8.7055Y-4.9783
T2
X3.6543Y-3.4122
X4.0165Y-3.4122
T3
X2.8765Y-5.728
X3.2515Y-5.5114
X3.6214Y-5.3344
X4.0283Y-5.1863
X4.4272Y-5.078
X4.5335Y-1.9606
X4.5335Y-2.7106
X4.5335Y-3.4606
X4.5335Y-4.2106
X4.8537Y-5.0028
X4.9665Y-1.9606
X4.9665Y-2.7106
X4.9665Y-3.4606
X4.9665Y-4.2106
X5.2835Y-1.8681
X5.2835Y-2.6181
X5.2835Y-3.3681
X5.2835Y-4.1181
X5.2835Y-4.8681
X5.7165Y-1.8681
X5.7165Y-2.6181
X5.7165Y-3.3681
X5.7165Y-4.1181
X5.7165Y-4.8681
X6.0335Y-1.7717
X6.0335Y-2.5217
X6.0335Y-3.2717
X6.0335Y-4.0217
X6.0335Y-4.7717
X6.4665Y-1.7717
X6.4665Y-2.5217
X6.4665Y-3.2717
X6.4665Y-4.0217
X6.4665Y-4.7717
X6.7835Y-1.8681
X6.7835Y-2.6181
X6.7835Y-3.3681
X6.7835Y-4.1181
X6.7835Y-4.8681
X7.2165Y-1.8681
X7.2165Y-2.6181
X7.2165Y-3.3681
X7.2165Y-4.1181
X7.2165Y-4.8681
X7.5335Y-2.1437
X7.5335Y-2.8937
X7.5335Y-3.6437
X7.5335Y-4.3937
X7.5335Y-5.1437
X7.9665Y-2.1437
X7.9665Y-2.8937
X7.9665Y-3.6437
X7.9665Y-4.3937
X7.9665Y-5.1437
X8.2835Y-2.1437
X8.2835Y-2.8937
X8.2835Y-3.6437
X8.2835Y-4.3937
X8.2835Y-5.1437
X8.7165Y-2.1437
X8.7165Y-2.8937
X8.7165Y-3.6437
X8.7165Y-4.3937
X8.7165Y-5.1437
T4
X2.9663Y-5.8443
X3.1801Y-5.8209
X3.3073Y-5.6474
X3.6897Y-5.4646
X3.9043Y-5.4786
X4.0596Y-5.3299
X4.4719Y-5.218
X4.5531Y-2.1063
X4.5531Y-2.8563
X4.5531Y-3.6063
X4.5531Y-4.3563
X4.6808Y-5.2691
X4.75Y-2.1929
X4.75Y-2.9429
X4.75Y-3.6929
X4.75Y-4.4429
X4.8596Y-5.1497
X4.9469Y-2.1063
X4.9469Y-2.8563
X4.9469Y-3.6063
X4.9469Y-4.3563
X5.3031Y-2.0138
X5.3031Y-2.7637
X5.3031Y-3.5138
X5.3031Y-4.2638
X5.3031Y-5.0138
X5.5Y-2.1004
X5.5Y-2.8504
X5.5Y-3.6004
X5.5Y-4.3504
X5.5Y-5.1004
X5.6969Y-2.0138
X5.6969Y-2.7637
X5.6969Y-3.5138
X5.6969Y-4.2638
X5.6969Y-5.0138
X6.0531Y-1.9173
X6.0531Y-2.6673
X6.0531Y-3.4173
X6.0531Y-4.1673
X6.0531Y-4.9173
X6.25Y-2.0039
X6.25Y-2.7539
X6.25Y-3.5039
X6.25Y-4.2539
X6.25Y-5.0039
X6.4469Y-1.9173
X6.4469Y-2.6673
X6.4469Y-3.4173
X6.4469Y-4.1673
X6.4469Y-4.9173
X6.8031Y-2.0138
X6.8031Y-2.7638
X6.8031Y-3.5138
X6.8031Y-4.2638
X6.8031Y-5.0138
X7.0Y-2.1004
X7.0Y-2.8504
X7.0Y-3.6004
X7.0Y-4.3504
X7.0Y-5.1004
X7.1969Y-2.0138
X7.1969Y-2.7638
X7.1969Y-3.5138
X7.1969Y-4.2638
X7.1969Y-5.0138
X7.5531Y-2.2894
X7.5531Y-3.0394
X7.5531Y-3.7894
X7.5531Y-4.5394
X7.5531Y-5.2894
X7.75Y-2.376
X7.75Y-3.126
X7.75Y-3.876
X7.75Y-4.626
X7.75Y-5.376
X7.9469Y-2.2894
X7.9469Y-3.0394
X7.9469Y-3.7894
X7.9469Y-4.5394
X7.9469Y-5.2894
X8.3031Y-2.2894
X8.3031Y-3.0394
X8.3031Y-3.7894
X8.3031Y-4.5394
X8.3031Y-5.2894
X8.5Y-2.376
X8.5Y-3.126
X8.5Y-3.876
X8.5Y-4.626
X8.5Y-5.376
X8.6969Y-2.2894
X8.6969Y-3.0394
X8.6969Y-3.7894
X8.6969Y-4.5394
X8.6969Y-5.2894
T5
X3.064Y-5.6197
X3.8248Y-5.2604
X4.6405Y-5.0404
X4.75Y-1.9606
X4.75Y-2.7106
X4.75Y-3.4606
X4.75Y-4.2106
X5.5Y-1.8681
X5.5Y-2.6181
X5.5Y-3.3681
X5.5Y-4.1181
X5.5Y-4.8681
X6.25Y-1.7717
X6.25Y-2.5217
X6.25Y-3.2717
X6.25Y-4.0217
X6.25Y-4.7717
X7.0Y-1.8681
X7.0Y-2.6181
X7.0Y-3.3681
X7.0Y-4.1181
X7.0Y-4.8681
X7.75Y-2.1437
X7.75Y-2.8937
X7.75Y-3.6437
X7.75Y-4.3937
X7.75Y-5.1437
X8.5Y-2.1437
X8.5Y-2.8937
X8.5Y-3.6437
X8.5Y-4.3937
X8.5Y-5.1437
T0
M30
