%TF.GenerationSoftware,KiCad,Pcbnew,7.0.9*%
%TF.CreationDate,2023-12-28T12:41:07+03:00*%
%TF.ProjectId,SofleKeyboard,536f666c-654b-4657-9962-6f6172642e6b,rev?*%
%TF.SameCoordinates,Original*%
%TF.FileFunction,Drillmap*%
%TF.FilePolarity,Positive*%
%FSLAX45Y45*%
G04 Gerber Fmt 4.5, Leading zero omitted, Abs format (unit mm)*
G04 Created by KiCad (PCBNEW 7.0.9) date 2023-12-28 12:41:07*
%MOMM*%
%LPD*%
G01*
G04 APERTURE LIST*
%ADD10C,0.150000*%
%ADD11C,0.100000*%
%ADD12C,0.200000*%
%ADD13C,0.120000*%
%ADD14C,0.180000*%
%ADD15C,0.300000*%
%ADD16C,0.340000*%
G04 APERTURE END LIST*
D10*
X22380000Y-4305000D02*
X20315088Y-3947091D01*
X20315088Y-3947091D02*
G75*
G03*
X14900000Y-3500000I-5044773J-28084574D01*
G01*
X22330323Y-14265589D02*
X20927661Y-14265589D01*
X18180000Y-13837795D02*
G75*
G03*
X20927661Y-14265589I2842168J9217017D01*
G01*
X18180000Y-13837795D02*
G75*
G03*
X13884929Y-13530780I-2869242J-9942996D01*
G01*
X13884929Y-13530780D02*
G75*
G03*
X7671768Y-15546997I2044663J-16882140D01*
G01*
X7254609Y-15428787D02*
G75*
G03*
X7671768Y-15546997I265000J140000D01*
G01*
X6524126Y-13401045D02*
G75*
G03*
X6399126Y-13893873I216652J-317217D01*
G01*
X8742132Y-11607132D02*
G75*
G03*
X8830000Y-11395000I-212132J212132D01*
G01*
X9128918Y-3726392D02*
G75*
G03*
X8826392Y-4028918I0J-302526D01*
G01*
X22550000Y-4535000D02*
G75*
G03*
X22380000Y-4305000I-240588J0D01*
G01*
X22330323Y-14265589D02*
G75*
G03*
X22545000Y-14060000I14610J199622D01*
G01*
D11*
X7254609Y-15428787D02*
X6399126Y-13893873D01*
X6524126Y-13401045D02*
X8742132Y-11607132D01*
X14900000Y-3500000D02*
X9128918Y-3726392D01*
D10*
X22547018Y-11950000D02*
X22545000Y-14060000D01*
D11*
X8830000Y-11395000D02*
X8826392Y-4028918D01*
X22550000Y-4535000D02*
X22547018Y-11950000D01*
D12*
D11*
X7070448Y-14121314D02*
X7170448Y-14221314D01*
X7170448Y-14121314D02*
X7070448Y-14221314D01*
X7974578Y-13599314D02*
X8074578Y-13699314D01*
X8074578Y-13599314D02*
X7974578Y-13699314D01*
X9030926Y-13095211D02*
X9130926Y-13195211D01*
X9130926Y-13095211D02*
X9030926Y-13195211D01*
X10011965Y-12738142D02*
X10111965Y-12838142D01*
X10111965Y-12738142D02*
X10011965Y-12838142D01*
X11149800Y-12429610D02*
X11249799Y-12529610D01*
X11249799Y-12429610D02*
X11149800Y-12529610D01*
X11493000Y-4509900D02*
X11593000Y-4609900D01*
X11593000Y-4509900D02*
X11493000Y-4609900D01*
X11493000Y-6415000D02*
X11593000Y-6515000D01*
X11593000Y-6415000D02*
X11493000Y-6515000D01*
X11493000Y-8320000D02*
X11593000Y-8420000D01*
X11593000Y-8320000D02*
X11493000Y-8420000D01*
X11493000Y-10225000D02*
X11593000Y-10325000D01*
X11593000Y-10225000D02*
X11493000Y-10325000D01*
X12177939Y-12248321D02*
X12277939Y-12348321D01*
X12277939Y-12248321D02*
X12177939Y-12348321D01*
X12537000Y-4509900D02*
X12637000Y-4609900D01*
X12637000Y-4509900D02*
X12537000Y-4609900D01*
X12537000Y-6415000D02*
X12637000Y-6515000D01*
X12637000Y-6415000D02*
X12537000Y-6515000D01*
X12537000Y-8320000D02*
X12637000Y-8420000D01*
X12637000Y-8320000D02*
X12537000Y-8420000D01*
X12537000Y-10225000D02*
X12637000Y-10325000D01*
X12637000Y-10225000D02*
X12537000Y-10325000D01*
X13398000Y-4275000D02*
X13498000Y-4375000D01*
X13498000Y-4275000D02*
X13398000Y-4375000D01*
X13398000Y-6179900D02*
X13498000Y-6279900D01*
X13498000Y-6179900D02*
X13398000Y-6279900D01*
X13398000Y-8085000D02*
X13498000Y-8185000D01*
X13498000Y-8085000D02*
X13398000Y-8185000D01*
X13398000Y-9990000D02*
X13498000Y-10090000D01*
X13498000Y-9990000D02*
X13398000Y-10090000D01*
X13398000Y-11895000D02*
X13498000Y-11995000D01*
X13498000Y-11895000D02*
X13398000Y-11995000D01*
X14442000Y-4275000D02*
X14542000Y-4375000D01*
X14542000Y-4275000D02*
X14442000Y-4375000D01*
X14442000Y-6179900D02*
X14542000Y-6279900D01*
X14542000Y-6179900D02*
X14442000Y-6279900D01*
X14442000Y-8085000D02*
X14542000Y-8185000D01*
X14542000Y-8085000D02*
X14442000Y-8185000D01*
X14442000Y-9990000D02*
X14542000Y-10090000D01*
X14542000Y-9990000D02*
X14442000Y-10090000D01*
X14442000Y-11895000D02*
X14542000Y-11995000D01*
X14542000Y-11895000D02*
X14442000Y-11995000D01*
X15303000Y-4030000D02*
X15403000Y-4130000D01*
X15403000Y-4030000D02*
X15303000Y-4130000D01*
X15303000Y-5935000D02*
X15403000Y-6035000D01*
X15403000Y-5935000D02*
X15303000Y-6035000D01*
X15303000Y-7840000D02*
X15403000Y-7940000D01*
X15403000Y-7840000D02*
X15303000Y-7940000D01*
X15303000Y-9745000D02*
X15403000Y-9845000D01*
X15403000Y-9745000D02*
X15303000Y-9845000D01*
X15303000Y-11650000D02*
X15403000Y-11750000D01*
X15403000Y-11650000D02*
X15303000Y-11750000D01*
X16347000Y-4030000D02*
X16447000Y-4130000D01*
X16447000Y-4030000D02*
X16347000Y-4130000D01*
X16347000Y-5935000D02*
X16447000Y-6035000D01*
X16447000Y-5935000D02*
X16347000Y-6035000D01*
X16347000Y-7840000D02*
X16447000Y-7940000D01*
X16447000Y-7840000D02*
X16347000Y-7940000D01*
X16347000Y-9745000D02*
X16447000Y-9845000D01*
X16447000Y-9745000D02*
X16347000Y-9845000D01*
X16347000Y-11650000D02*
X16447000Y-11750000D01*
X16447000Y-11650000D02*
X16347000Y-11750000D01*
X17208000Y-4275000D02*
X17308000Y-4375000D01*
X17308000Y-4275000D02*
X17208000Y-4375000D01*
X17208000Y-6180000D02*
X17308000Y-6280000D01*
X17308000Y-6180000D02*
X17208000Y-6280000D01*
X17208000Y-8085000D02*
X17308000Y-8185000D01*
X17308000Y-8085000D02*
X17208000Y-8185000D01*
X17208000Y-9990000D02*
X17308000Y-10090000D01*
X17308000Y-9990000D02*
X17208000Y-10090000D01*
X17208000Y-11895000D02*
X17308000Y-11995000D01*
X17308000Y-11895000D02*
X17208000Y-11995000D01*
X18252000Y-4275000D02*
X18352000Y-4375000D01*
X18352000Y-4275000D02*
X18252000Y-4375000D01*
X18252000Y-6180000D02*
X18352000Y-6280000D01*
X18352000Y-6180000D02*
X18252000Y-6280000D01*
X18252000Y-8085000D02*
X18352000Y-8185000D01*
X18352000Y-8085000D02*
X18252000Y-8185000D01*
X18252000Y-9990000D02*
X18352000Y-10090000D01*
X18352000Y-9990000D02*
X18252000Y-10090000D01*
X18252000Y-11895000D02*
X18352000Y-11995000D01*
X18352000Y-11895000D02*
X18252000Y-11995000D01*
X19113000Y-4975000D02*
X19213000Y-5075000D01*
X19213000Y-4975000D02*
X19113000Y-5075000D01*
X19113000Y-6880000D02*
X19213000Y-6980000D01*
X19213000Y-6880000D02*
X19113000Y-6980000D01*
X19113000Y-8785000D02*
X19213000Y-8885000D01*
X19213000Y-8785000D02*
X19113000Y-8885000D01*
X19113000Y-10690000D02*
X19213000Y-10790000D01*
X19213000Y-10690000D02*
X19113000Y-10790000D01*
X19113000Y-12595000D02*
X19213000Y-12695000D01*
X19213000Y-12595000D02*
X19113000Y-12695000D01*
X20157000Y-4975000D02*
X20257000Y-5075000D01*
X20257000Y-4975000D02*
X20157000Y-5075000D01*
X20157000Y-6880000D02*
X20257000Y-6980000D01*
X20257000Y-6880000D02*
X20157000Y-6980000D01*
X20157000Y-8785000D02*
X20257000Y-8885000D01*
X20257000Y-8785000D02*
X20157000Y-8885000D01*
X20157000Y-10690000D02*
X20257000Y-10790000D01*
X20257000Y-10690000D02*
X20157000Y-10790000D01*
X20157000Y-12595000D02*
X20257000Y-12695000D01*
X20257000Y-12595000D02*
X20157000Y-12695000D01*
X21018000Y-4975000D02*
X21118000Y-5075000D01*
X21118000Y-4975000D02*
X21018000Y-5075000D01*
X21018000Y-6880000D02*
X21118000Y-6980000D01*
X21118000Y-6880000D02*
X21018000Y-6980000D01*
X21018000Y-8785000D02*
X21118000Y-8885000D01*
X21118000Y-8785000D02*
X21018000Y-8885000D01*
X21018000Y-10690000D02*
X21118000Y-10790000D01*
X21118000Y-10690000D02*
X21018000Y-10790000D01*
X21018000Y-12595000D02*
X21118000Y-12695000D01*
X21118000Y-12595000D02*
X21018000Y-12695000D01*
X22062000Y-4975000D02*
X22162000Y-5075000D01*
X22162000Y-4975000D02*
X22062000Y-5075000D01*
X22062000Y-6880000D02*
X22162000Y-6980000D01*
X22162000Y-6880000D02*
X22062000Y-6980000D01*
X22062000Y-8785000D02*
X22162000Y-8885000D01*
X22162000Y-8785000D02*
X22062000Y-8885000D01*
X22062000Y-10690000D02*
X22162000Y-10790000D01*
X22162000Y-10690000D02*
X22062000Y-10790000D01*
X22062000Y-12595000D02*
X22162000Y-12695000D01*
X22162000Y-12595000D02*
X22062000Y-12695000D01*
D13*
X9010000Y-8565000D02*
G75*
G03*
X9010000Y-8565000I-60000J0D01*
G01*
X9010000Y-8740000D02*
G75*
G03*
X9010000Y-8740000I-60000J0D01*
G01*
X9710000Y-8565000D02*
G75*
G03*
X9710000Y-8565000I-60000J0D01*
G01*
X9710000Y-8740000D02*
G75*
G03*
X9710000Y-8740000I-60000J0D01*
G01*
D14*
X7306199Y-14459045D02*
X7306199Y-14639045D01*
X7216199Y-14549045D02*
X7396199Y-14549045D01*
X8258827Y-13909045D02*
X8258827Y-14089045D01*
X8168827Y-13999045D02*
X8348827Y-13999045D01*
X9198263Y-13459458D02*
X9198263Y-13639458D01*
X9108263Y-13549458D02*
X9288263Y-13549458D01*
X10231925Y-13083236D02*
X10231925Y-13263236D01*
X10141925Y-13173236D02*
X10321925Y-13173236D01*
X11245157Y-12808091D02*
X11245157Y-12988091D01*
X11155157Y-12898091D02*
X11335157Y-12898091D01*
X11515000Y-4889900D02*
X11515000Y-5069900D01*
X11425000Y-4979900D02*
X11605000Y-4979900D01*
X11515000Y-6795000D02*
X11515000Y-6975000D01*
X11425000Y-6885000D02*
X11605000Y-6885000D01*
X11515000Y-8700000D02*
X11515000Y-8880000D01*
X11425000Y-8790000D02*
X11605000Y-8790000D01*
X11515000Y-10605000D02*
X11515000Y-10785000D01*
X11425000Y-10695000D02*
X11605000Y-10695000D01*
X12328446Y-12617078D02*
X12328446Y-12797078D01*
X12238446Y-12707078D02*
X12418446Y-12707078D01*
X12615000Y-4889900D02*
X12615000Y-5069900D01*
X12525000Y-4979900D02*
X12705000Y-4979900D01*
X12615000Y-6795000D02*
X12615000Y-6975000D01*
X12525000Y-6885000D02*
X12705000Y-6885000D01*
X12615000Y-8700000D02*
X12615000Y-8880000D01*
X12525000Y-8790000D02*
X12705000Y-8790000D01*
X12615000Y-10605000D02*
X12615000Y-10785000D01*
X12525000Y-10695000D02*
X12705000Y-10695000D01*
X13420000Y-4655000D02*
X13420000Y-4835000D01*
X13330000Y-4745000D02*
X13510000Y-4745000D01*
X13420000Y-6559900D02*
X13420000Y-6739900D01*
X13330000Y-6649900D02*
X13510000Y-6649900D01*
X13420000Y-8465000D02*
X13420000Y-8645000D01*
X13330000Y-8555000D02*
X13510000Y-8555000D01*
X13420000Y-10370000D02*
X13420000Y-10550000D01*
X13330000Y-10460000D02*
X13510000Y-10460000D01*
X13420000Y-12275000D02*
X13420000Y-12455000D01*
X13330000Y-12365000D02*
X13510000Y-12365000D01*
X14520000Y-4655000D02*
X14520000Y-4835000D01*
X14430000Y-4745000D02*
X14610000Y-4745000D01*
X14520000Y-6559900D02*
X14520000Y-6739900D01*
X14430000Y-6649900D02*
X14610000Y-6649900D01*
X14520000Y-8465000D02*
X14520000Y-8645000D01*
X14430000Y-8555000D02*
X14610000Y-8555000D01*
X14520000Y-10370000D02*
X14520000Y-10550000D01*
X14430000Y-10460000D02*
X14610000Y-10460000D01*
X14520000Y-12275000D02*
X14520000Y-12455000D01*
X14430000Y-12365000D02*
X14610000Y-12365000D01*
X15325000Y-4410000D02*
X15325000Y-4590000D01*
X15235000Y-4500000D02*
X15415000Y-4500000D01*
X15325000Y-6315000D02*
X15325000Y-6495000D01*
X15235000Y-6405000D02*
X15415000Y-6405000D01*
X15325000Y-8220000D02*
X15325000Y-8400000D01*
X15235000Y-8310000D02*
X15415000Y-8310000D01*
X15325000Y-10125000D02*
X15325000Y-10305000D01*
X15235000Y-10215000D02*
X15415000Y-10215000D01*
X15325000Y-12030000D02*
X15325000Y-12210000D01*
X15235000Y-12120000D02*
X15415000Y-12120000D01*
X16425000Y-4410000D02*
X16425000Y-4590000D01*
X16335000Y-4500000D02*
X16515000Y-4500000D01*
X16425000Y-6315000D02*
X16425000Y-6495000D01*
X16335000Y-6405000D02*
X16515000Y-6405000D01*
X16425000Y-8220000D02*
X16425000Y-8400000D01*
X16335000Y-8310000D02*
X16515000Y-8310000D01*
X16425000Y-10125000D02*
X16425000Y-10305000D01*
X16335000Y-10215000D02*
X16515000Y-10215000D01*
X16425000Y-12030000D02*
X16425000Y-12210000D01*
X16335000Y-12120000D02*
X16515000Y-12120000D01*
X17230000Y-4655000D02*
X17230000Y-4835000D01*
X17140000Y-4745000D02*
X17320000Y-4745000D01*
X17230000Y-6560000D02*
X17230000Y-6740000D01*
X17140000Y-6650000D02*
X17320000Y-6650000D01*
X17230000Y-8465000D02*
X17230000Y-8645000D01*
X17140000Y-8555000D02*
X17320000Y-8555000D01*
X17230000Y-10370000D02*
X17230000Y-10550000D01*
X17140000Y-10460000D02*
X17320000Y-10460000D01*
X17230000Y-12275000D02*
X17230000Y-12455000D01*
X17140000Y-12365000D02*
X17320000Y-12365000D01*
X18330000Y-4655000D02*
X18330000Y-4835000D01*
X18240000Y-4745000D02*
X18420000Y-4745000D01*
X18330000Y-6560000D02*
X18330000Y-6740000D01*
X18240000Y-6650000D02*
X18420000Y-6650000D01*
X18330000Y-8465000D02*
X18330000Y-8645000D01*
X18240000Y-8555000D02*
X18420000Y-8555000D01*
X18330000Y-10370000D02*
X18330000Y-10550000D01*
X18240000Y-10460000D02*
X18420000Y-10460000D01*
X18330000Y-12275000D02*
X18330000Y-12455000D01*
X18240000Y-12365000D02*
X18420000Y-12365000D01*
X19135000Y-5355000D02*
X19135000Y-5535000D01*
X19045000Y-5445000D02*
X19225000Y-5445000D01*
X19135000Y-7260000D02*
X19135000Y-7440000D01*
X19045000Y-7350000D02*
X19225000Y-7350000D01*
X19135000Y-9165000D02*
X19135000Y-9345000D01*
X19045000Y-9255000D02*
X19225000Y-9255000D01*
X19135000Y-11070000D02*
X19135000Y-11250000D01*
X19045000Y-11160000D02*
X19225000Y-11160000D01*
X19135000Y-12975000D02*
X19135000Y-13155000D01*
X19045000Y-13065000D02*
X19225000Y-13065000D01*
X20235000Y-5355000D02*
X20235000Y-5535000D01*
X20145000Y-5445000D02*
X20325000Y-5445000D01*
X20235000Y-7260000D02*
X20235000Y-7440000D01*
X20145000Y-7350000D02*
X20325000Y-7350000D01*
X20235000Y-9165000D02*
X20235000Y-9345000D01*
X20145000Y-9255000D02*
X20325000Y-9255000D01*
X20235000Y-11070000D02*
X20235000Y-11250000D01*
X20145000Y-11160000D02*
X20325000Y-11160000D01*
X20235000Y-12975000D02*
X20235000Y-13155000D01*
X20145000Y-13065000D02*
X20325000Y-13065000D01*
X21040000Y-5355000D02*
X21040000Y-5535000D01*
X20950000Y-5445000D02*
X21130000Y-5445000D01*
X21040000Y-7260000D02*
X21040000Y-7440000D01*
X20950000Y-7350000D02*
X21130000Y-7350000D01*
X21040000Y-9165000D02*
X21040000Y-9345000D01*
X20950000Y-9255000D02*
X21130000Y-9255000D01*
X21040000Y-11070000D02*
X21040000Y-11250000D01*
X20950000Y-11160000D02*
X21130000Y-11160000D01*
X21040000Y-12975000D02*
X21040000Y-13155000D01*
X20950000Y-13065000D02*
X21130000Y-13065000D01*
X22140000Y-5355000D02*
X22140000Y-5535000D01*
X22050000Y-5445000D02*
X22230000Y-5445000D01*
X22140000Y-7260000D02*
X22140000Y-7440000D01*
X22050000Y-7350000D02*
X22230000Y-7350000D01*
X22140000Y-9165000D02*
X22140000Y-9345000D01*
X22050000Y-9255000D02*
X22230000Y-9255000D01*
X22140000Y-11070000D02*
X22140000Y-11250000D01*
X22050000Y-11160000D02*
X22230000Y-11160000D01*
X22140000Y-12975000D02*
X22140000Y-13155000D01*
X22050000Y-13065000D02*
X22230000Y-13065000D01*
D15*
X7640567Y-14950541D02*
X7640567Y-14738407D01*
X7428433Y-14738407D01*
X7428433Y-14950541D01*
X7640567Y-14950541D01*
X8183580Y-14891067D02*
X8183580Y-14678933D01*
X7971446Y-14678933D01*
X7971446Y-14891067D01*
X8183580Y-14891067D01*
X8506593Y-14450541D02*
X8506593Y-14238407D01*
X8294459Y-14238407D01*
X8294459Y-14450541D01*
X8506593Y-14450541D01*
X9477862Y-13986110D02*
X9477862Y-13773976D01*
X9265728Y-13773976D01*
X9265728Y-13986110D01*
X9477862Y-13986110D01*
X10022953Y-14021833D02*
X10022953Y-13809699D01*
X9810819Y-13809699D01*
X9810819Y-14021833D01*
X10022953Y-14021833D01*
X10417555Y-13644090D02*
X10417555Y-13431956D01*
X10205421Y-13431956D01*
X10205421Y-13644090D01*
X10417555Y-13644090D01*
X11464714Y-13359855D02*
X11464714Y-13147721D01*
X11252580Y-13147721D01*
X11252580Y-13359855D01*
X11464714Y-13359855D01*
X11671067Y-5455967D02*
X11671067Y-5243833D01*
X11458933Y-5243833D01*
X11458933Y-5455967D01*
X11671067Y-5455967D01*
X11671067Y-7361067D02*
X11671067Y-7148933D01*
X11458933Y-7148933D01*
X11458933Y-7361067D01*
X11671067Y-7361067D01*
X11671067Y-9266067D02*
X11671067Y-9053933D01*
X11458933Y-9053933D01*
X11458933Y-9266067D01*
X11671067Y-9266067D01*
X11671067Y-11171067D02*
X11671067Y-10958933D01*
X11458933Y-10958933D01*
X11458933Y-11171067D01*
X11671067Y-11171067D01*
X11995321Y-13489688D02*
X11995321Y-13277554D01*
X11783187Y-13277554D01*
X11783187Y-13489688D01*
X11995321Y-13489688D01*
X12171067Y-5675967D02*
X12171067Y-5463833D01*
X11958933Y-5463833D01*
X11958933Y-5675967D01*
X12171067Y-5675967D01*
X12171067Y-7581067D02*
X12171067Y-7368933D01*
X11958933Y-7368933D01*
X11958933Y-7581067D01*
X12171067Y-7581067D01*
X12171067Y-9486067D02*
X12171067Y-9273933D01*
X11958933Y-9273933D01*
X11958933Y-9486067D01*
X12171067Y-9486067D01*
X12171067Y-11391067D02*
X12171067Y-11178933D01*
X11958933Y-11178933D01*
X11958933Y-11391067D01*
X12171067Y-11391067D01*
X12449522Y-13186207D02*
X12449522Y-12974073D01*
X12237388Y-12974073D01*
X12237388Y-13186207D01*
X12449522Y-13186207D01*
X12671067Y-5455967D02*
X12671067Y-5243833D01*
X12458933Y-5243833D01*
X12458933Y-5455967D01*
X12671067Y-5455967D01*
X12671067Y-7361067D02*
X12671067Y-7148933D01*
X12458933Y-7148933D01*
X12458933Y-7361067D01*
X12671067Y-7361067D01*
X12671067Y-9266067D02*
X12671067Y-9053933D01*
X12458933Y-9053933D01*
X12458933Y-9266067D01*
X12671067Y-9266067D01*
X12671067Y-11171067D02*
X12671067Y-10958933D01*
X12458933Y-10958933D01*
X12458933Y-11171067D01*
X12671067Y-11171067D01*
X13576067Y-5221067D02*
X13576067Y-5008933D01*
X13363933Y-5008933D01*
X13363933Y-5221067D01*
X13576067Y-5221067D01*
X13576067Y-7125967D02*
X13576067Y-6913833D01*
X13363933Y-6913833D01*
X13363933Y-7125967D01*
X13576067Y-7125967D01*
X13576067Y-9031067D02*
X13576067Y-8818933D01*
X13363933Y-8818933D01*
X13363933Y-9031067D01*
X13576067Y-9031067D01*
X13576067Y-10936067D02*
X13576067Y-10723933D01*
X13363933Y-10723933D01*
X13363933Y-10936067D01*
X13576067Y-10936067D01*
X13576067Y-12841067D02*
X13576067Y-12628933D01*
X13363933Y-12628933D01*
X13363933Y-12841067D01*
X13576067Y-12841067D01*
X14076067Y-5441067D02*
X14076067Y-5228933D01*
X13863933Y-5228933D01*
X13863933Y-5441067D01*
X14076067Y-5441067D01*
X14076067Y-7345967D02*
X14076067Y-7133833D01*
X13863933Y-7133833D01*
X13863933Y-7345967D01*
X14076067Y-7345967D01*
X14076067Y-9251067D02*
X14076067Y-9038933D01*
X13863933Y-9038933D01*
X13863933Y-9251067D01*
X14076067Y-9251067D01*
X14076067Y-11156067D02*
X14076067Y-10943933D01*
X13863933Y-10943933D01*
X13863933Y-11156067D01*
X14076067Y-11156067D01*
X14076067Y-13061067D02*
X14076067Y-12848933D01*
X13863933Y-12848933D01*
X13863933Y-13061067D01*
X14076067Y-13061067D01*
X14576067Y-5221067D02*
X14576067Y-5008933D01*
X14363933Y-5008933D01*
X14363933Y-5221067D01*
X14576067Y-5221067D01*
X14576067Y-7125967D02*
X14576067Y-6913833D01*
X14363933Y-6913833D01*
X14363933Y-7125967D01*
X14576067Y-7125967D01*
X14576067Y-9031067D02*
X14576067Y-8818933D01*
X14363933Y-8818933D01*
X14363933Y-9031067D01*
X14576067Y-9031067D01*
X14576067Y-10936067D02*
X14576067Y-10723933D01*
X14363933Y-10723933D01*
X14363933Y-10936067D01*
X14576067Y-10936067D01*
X14576067Y-12841067D02*
X14576067Y-12628933D01*
X14363933Y-12628933D01*
X14363933Y-12841067D01*
X14576067Y-12841067D01*
X15481067Y-4976067D02*
X15481067Y-4763933D01*
X15268933Y-4763933D01*
X15268933Y-4976067D01*
X15481067Y-4976067D01*
X15481067Y-6881067D02*
X15481067Y-6668933D01*
X15268933Y-6668933D01*
X15268933Y-6881067D01*
X15481067Y-6881067D01*
X15481067Y-8786067D02*
X15481067Y-8573933D01*
X15268933Y-8573933D01*
X15268933Y-8786067D01*
X15481067Y-8786067D01*
X15481067Y-10691067D02*
X15481067Y-10478933D01*
X15268933Y-10478933D01*
X15268933Y-10691067D01*
X15481067Y-10691067D01*
X15481067Y-12596067D02*
X15481067Y-12383933D01*
X15268933Y-12383933D01*
X15268933Y-12596067D01*
X15481067Y-12596067D01*
X15981067Y-5196067D02*
X15981067Y-4983933D01*
X15768933Y-4983933D01*
X15768933Y-5196067D01*
X15981067Y-5196067D01*
X15981067Y-7101067D02*
X15981067Y-6888933D01*
X15768933Y-6888933D01*
X15768933Y-7101067D01*
X15981067Y-7101067D01*
X15981067Y-9006067D02*
X15981067Y-8793933D01*
X15768933Y-8793933D01*
X15768933Y-9006067D01*
X15981067Y-9006067D01*
X15981067Y-10911067D02*
X15981067Y-10698933D01*
X15768933Y-10698933D01*
X15768933Y-10911067D01*
X15981067Y-10911067D01*
X15981067Y-12816067D02*
X15981067Y-12603933D01*
X15768933Y-12603933D01*
X15768933Y-12816067D01*
X15981067Y-12816067D01*
X16481067Y-4976067D02*
X16481067Y-4763933D01*
X16268933Y-4763933D01*
X16268933Y-4976067D01*
X16481067Y-4976067D01*
X16481067Y-6881067D02*
X16481067Y-6668933D01*
X16268933Y-6668933D01*
X16268933Y-6881067D01*
X16481067Y-6881067D01*
X16481067Y-8786067D02*
X16481067Y-8573933D01*
X16268933Y-8573933D01*
X16268933Y-8786067D01*
X16481067Y-8786067D01*
X16481067Y-10691067D02*
X16481067Y-10478933D01*
X16268933Y-10478933D01*
X16268933Y-10691067D01*
X16481067Y-10691067D01*
X16481067Y-12596067D02*
X16481067Y-12383933D01*
X16268933Y-12383933D01*
X16268933Y-12596067D01*
X16481067Y-12596067D01*
X17386067Y-5221067D02*
X17386067Y-5008933D01*
X17173933Y-5008933D01*
X17173933Y-5221067D01*
X17386067Y-5221067D01*
X17386067Y-7126067D02*
X17386067Y-6913933D01*
X17173933Y-6913933D01*
X17173933Y-7126067D01*
X17386067Y-7126067D01*
X17386067Y-9031067D02*
X17386067Y-8818933D01*
X17173933Y-8818933D01*
X17173933Y-9031067D01*
X17386067Y-9031067D01*
X17386067Y-10936067D02*
X17386067Y-10723933D01*
X17173933Y-10723933D01*
X17173933Y-10936067D01*
X17386067Y-10936067D01*
X17386067Y-12841067D02*
X17386067Y-12628933D01*
X17173933Y-12628933D01*
X17173933Y-12841067D01*
X17386067Y-12841067D01*
X17886067Y-5441067D02*
X17886067Y-5228933D01*
X17673933Y-5228933D01*
X17673933Y-5441067D01*
X17886067Y-5441067D01*
X17886067Y-7346067D02*
X17886067Y-7133933D01*
X17673933Y-7133933D01*
X17673933Y-7346067D01*
X17886067Y-7346067D01*
X17886067Y-9251067D02*
X17886067Y-9038933D01*
X17673933Y-9038933D01*
X17673933Y-9251067D01*
X17886067Y-9251067D01*
X17886067Y-11156067D02*
X17886067Y-10943933D01*
X17673933Y-10943933D01*
X17673933Y-11156067D01*
X17886067Y-11156067D01*
X17886067Y-13061067D02*
X17886067Y-12848933D01*
X17673933Y-12848933D01*
X17673933Y-13061067D01*
X17886067Y-13061067D01*
X18386067Y-5221067D02*
X18386067Y-5008933D01*
X18173933Y-5008933D01*
X18173933Y-5221067D01*
X18386067Y-5221067D01*
X18386067Y-7126067D02*
X18386067Y-6913933D01*
X18173933Y-6913933D01*
X18173933Y-7126067D01*
X18386067Y-7126067D01*
X18386067Y-9031067D02*
X18386067Y-8818933D01*
X18173933Y-8818933D01*
X18173933Y-9031067D01*
X18386067Y-9031067D01*
X18386067Y-10936067D02*
X18386067Y-10723933D01*
X18173933Y-10723933D01*
X18173933Y-10936067D01*
X18386067Y-10936067D01*
X18386067Y-12841067D02*
X18386067Y-12628933D01*
X18173933Y-12628933D01*
X18173933Y-12841067D01*
X18386067Y-12841067D01*
X19291067Y-5921067D02*
X19291067Y-5708933D01*
X19078933Y-5708933D01*
X19078933Y-5921067D01*
X19291067Y-5921067D01*
X19291067Y-7826067D02*
X19291067Y-7613933D01*
X19078933Y-7613933D01*
X19078933Y-7826067D01*
X19291067Y-7826067D01*
X19291067Y-9731067D02*
X19291067Y-9518933D01*
X19078933Y-9518933D01*
X19078933Y-9731067D01*
X19291067Y-9731067D01*
X19291067Y-11636067D02*
X19291067Y-11423933D01*
X19078933Y-11423933D01*
X19078933Y-11636067D01*
X19291067Y-11636067D01*
X19291067Y-13541067D02*
X19291067Y-13328933D01*
X19078933Y-13328933D01*
X19078933Y-13541067D01*
X19291067Y-13541067D01*
X19791067Y-6141067D02*
X19791067Y-5928933D01*
X19578933Y-5928933D01*
X19578933Y-6141067D01*
X19791067Y-6141067D01*
X19791067Y-8046067D02*
X19791067Y-7833933D01*
X19578933Y-7833933D01*
X19578933Y-8046067D01*
X19791067Y-8046067D01*
X19791067Y-9951067D02*
X19791067Y-9738933D01*
X19578933Y-9738933D01*
X19578933Y-9951067D01*
X19791067Y-9951067D01*
X19791067Y-11856067D02*
X19791067Y-11643933D01*
X19578933Y-11643933D01*
X19578933Y-11856067D01*
X19791067Y-11856067D01*
X19791067Y-13761067D02*
X19791067Y-13548933D01*
X19578933Y-13548933D01*
X19578933Y-13761067D01*
X19791067Y-13761067D01*
X20291067Y-5921067D02*
X20291067Y-5708933D01*
X20078933Y-5708933D01*
X20078933Y-5921067D01*
X20291067Y-5921067D01*
X20291067Y-7826067D02*
X20291067Y-7613933D01*
X20078933Y-7613933D01*
X20078933Y-7826067D01*
X20291067Y-7826067D01*
X20291067Y-9731067D02*
X20291067Y-9518933D01*
X20078933Y-9518933D01*
X20078933Y-9731067D01*
X20291067Y-9731067D01*
X20291067Y-11636067D02*
X20291067Y-11423933D01*
X20078933Y-11423933D01*
X20078933Y-11636067D01*
X20291067Y-11636067D01*
X20291067Y-13541067D02*
X20291067Y-13328933D01*
X20078933Y-13328933D01*
X20078933Y-13541067D01*
X20291067Y-13541067D01*
X21196067Y-5921067D02*
X21196067Y-5708933D01*
X20983933Y-5708933D01*
X20983933Y-5921067D01*
X21196067Y-5921067D01*
X21196067Y-7826067D02*
X21196067Y-7613933D01*
X20983933Y-7613933D01*
X20983933Y-7826067D01*
X21196067Y-7826067D01*
X21196067Y-9731067D02*
X21196067Y-9518933D01*
X20983933Y-9518933D01*
X20983933Y-9731067D01*
X21196067Y-9731067D01*
X21196067Y-11636067D02*
X21196067Y-11423933D01*
X20983933Y-11423933D01*
X20983933Y-11636067D01*
X21196067Y-11636067D01*
X21196067Y-13541067D02*
X21196067Y-13328933D01*
X20983933Y-13328933D01*
X20983933Y-13541067D01*
X21196067Y-13541067D01*
X21696067Y-6141067D02*
X21696067Y-5928933D01*
X21483933Y-5928933D01*
X21483933Y-6141067D01*
X21696067Y-6141067D01*
X21696067Y-8046067D02*
X21696067Y-7833933D01*
X21483933Y-7833933D01*
X21483933Y-8046067D01*
X21696067Y-8046067D01*
X21696067Y-9951067D02*
X21696067Y-9738933D01*
X21483933Y-9738933D01*
X21483933Y-9951067D01*
X21696067Y-9951067D01*
X21696067Y-11856067D02*
X21696067Y-11643933D01*
X21483933Y-11643933D01*
X21483933Y-11856067D01*
X21696067Y-11856067D01*
X21696067Y-13761067D02*
X21696067Y-13548933D01*
X21483933Y-13548933D01*
X21483933Y-13761067D01*
X21696067Y-13761067D01*
X22196067Y-5921067D02*
X22196067Y-5708933D01*
X21983933Y-5708933D01*
X21983933Y-5921067D01*
X22196067Y-5921067D01*
X22196067Y-7826067D02*
X22196067Y-7613933D01*
X21983933Y-7613933D01*
X21983933Y-7826067D01*
X22196067Y-7826067D01*
X22196067Y-9731067D02*
X22196067Y-9518933D01*
X21983933Y-9518933D01*
X21983933Y-9731067D01*
X22196067Y-9731067D01*
X22196067Y-11636067D02*
X22196067Y-11423933D01*
X21983933Y-11423933D01*
X21983933Y-11636067D01*
X22196067Y-11636067D01*
X22196067Y-13541067D02*
X22196067Y-13328933D01*
X21983933Y-13328933D01*
X21983933Y-13541067D01*
X22196067Y-13541067D01*
D16*
X7782513Y-14444045D02*
X7952513Y-14274045D01*
X7782513Y-14104045D01*
X7612513Y-14274045D01*
X7782513Y-14444045D01*
X9715094Y-13531347D02*
X9885094Y-13361347D01*
X9715094Y-13191347D01*
X9545094Y-13361347D01*
X9715094Y-13531347D01*
X11786801Y-12972585D02*
X11956801Y-12802585D01*
X11786801Y-12632585D01*
X11616801Y-12802585D01*
X11786801Y-12972585D01*
X12065000Y-5149900D02*
X12235000Y-4979900D01*
X12065000Y-4809900D01*
X11895000Y-4979900D01*
X12065000Y-5149900D01*
X12065000Y-7055000D02*
X12235000Y-6885000D01*
X12065000Y-6715000D01*
X11895000Y-6885000D01*
X12065000Y-7055000D01*
X12065000Y-8960000D02*
X12235000Y-8790000D01*
X12065000Y-8620000D01*
X11895000Y-8790000D01*
X12065000Y-8960000D01*
X12065000Y-10865000D02*
X12235000Y-10695000D01*
X12065000Y-10525000D01*
X11895000Y-10695000D01*
X12065000Y-10865000D01*
X13970000Y-4915000D02*
X14140000Y-4745000D01*
X13970000Y-4575000D01*
X13800000Y-4745000D01*
X13970000Y-4915000D01*
X13970000Y-6819900D02*
X14140000Y-6649900D01*
X13970000Y-6479900D01*
X13800000Y-6649900D01*
X13970000Y-6819900D01*
X13970000Y-8725000D02*
X14140000Y-8555000D01*
X13970000Y-8385000D01*
X13800000Y-8555000D01*
X13970000Y-8725000D01*
X13970000Y-10630000D02*
X14140000Y-10460000D01*
X13970000Y-10290000D01*
X13800000Y-10460000D01*
X13970000Y-10630000D01*
X13970000Y-12535000D02*
X14140000Y-12365000D01*
X13970000Y-12195000D01*
X13800000Y-12365000D01*
X13970000Y-12535000D01*
X15875000Y-4670000D02*
X16045000Y-4500000D01*
X15875000Y-4330000D01*
X15705000Y-4500000D01*
X15875000Y-4670000D01*
X15875000Y-6575000D02*
X16045000Y-6405000D01*
X15875000Y-6235000D01*
X15705000Y-6405000D01*
X15875000Y-6575000D01*
X15875000Y-8480000D02*
X16045000Y-8310000D01*
X15875000Y-8140000D01*
X15705000Y-8310000D01*
X15875000Y-8480000D01*
X15875000Y-10385000D02*
X16045000Y-10215000D01*
X15875000Y-10045000D01*
X15705000Y-10215000D01*
X15875000Y-10385000D01*
X15875000Y-12290000D02*
X16045000Y-12120000D01*
X15875000Y-11950000D01*
X15705000Y-12120000D01*
X15875000Y-12290000D01*
X17780000Y-4915000D02*
X17950000Y-4745000D01*
X17780000Y-4575000D01*
X17610000Y-4745000D01*
X17780000Y-4915000D01*
X17780000Y-6820000D02*
X17950000Y-6650000D01*
X17780000Y-6480000D01*
X17610000Y-6650000D01*
X17780000Y-6820000D01*
X17780000Y-8725000D02*
X17950000Y-8555000D01*
X17780000Y-8385000D01*
X17610000Y-8555000D01*
X17780000Y-8725000D01*
X17780000Y-10630000D02*
X17950000Y-10460000D01*
X17780000Y-10290000D01*
X17610000Y-10460000D01*
X17780000Y-10630000D01*
X17780000Y-12535000D02*
X17950000Y-12365000D01*
X17780000Y-12195000D01*
X17610000Y-12365000D01*
X17780000Y-12535000D01*
X19685000Y-5615000D02*
X19855000Y-5445000D01*
X19685000Y-5275000D01*
X19515000Y-5445000D01*
X19685000Y-5615000D01*
X19685000Y-7520000D02*
X19855000Y-7350000D01*
X19685000Y-7180000D01*
X19515000Y-7350000D01*
X19685000Y-7520000D01*
X19685000Y-9425000D02*
X19855000Y-9255000D01*
X19685000Y-9085000D01*
X19515000Y-9255000D01*
X19685000Y-9425000D01*
X19685000Y-11330000D02*
X19855000Y-11160000D01*
X19685000Y-10990000D01*
X19515000Y-11160000D01*
X19685000Y-11330000D01*
X19685000Y-13235000D02*
X19855000Y-13065000D01*
X19685000Y-12895000D01*
X19515000Y-13065000D01*
X19685000Y-13235000D01*
X21590000Y-5615000D02*
X21760000Y-5445000D01*
X21590000Y-5275000D01*
X21420000Y-5445000D01*
X21590000Y-5615000D01*
X21590000Y-7520000D02*
X21760000Y-7350000D01*
X21590000Y-7180000D01*
X21420000Y-7350000D01*
X21590000Y-7520000D01*
X21590000Y-9425000D02*
X21760000Y-9255000D01*
X21590000Y-9085000D01*
X21420000Y-9255000D01*
X21590000Y-9425000D01*
X21590000Y-11330000D02*
X21760000Y-11160000D01*
X21590000Y-10990000D01*
X21420000Y-11160000D01*
X21590000Y-11330000D01*
X21590000Y-13235000D02*
X21760000Y-13065000D01*
X21590000Y-12895000D01*
X21420000Y-13065000D01*
X21590000Y-13235000D01*
D12*
X6609913Y-15907479D02*
X6609913Y-15707479D01*
X6609913Y-15707479D02*
X6657532Y-15707479D01*
X6657532Y-15707479D02*
X6686103Y-15717003D01*
X6686103Y-15717003D02*
X6705151Y-15736050D01*
X6705151Y-15736050D02*
X6714675Y-15755098D01*
X6714675Y-15755098D02*
X6724199Y-15793193D01*
X6724199Y-15793193D02*
X6724199Y-15821765D01*
X6724199Y-15821765D02*
X6714675Y-15859860D01*
X6714675Y-15859860D02*
X6705151Y-15878907D01*
X6705151Y-15878907D02*
X6686103Y-15897955D01*
X6686103Y-15897955D02*
X6657532Y-15907479D01*
X6657532Y-15907479D02*
X6609913Y-15907479D01*
X6809913Y-15907479D02*
X6809913Y-15774146D01*
X6809913Y-15812241D02*
X6819437Y-15793193D01*
X6819437Y-15793193D02*
X6828960Y-15783669D01*
X6828960Y-15783669D02*
X6848008Y-15774146D01*
X6848008Y-15774146D02*
X6867056Y-15774146D01*
X6933722Y-15907479D02*
X6933722Y-15774146D01*
X6933722Y-15707479D02*
X6924199Y-15717003D01*
X6924199Y-15717003D02*
X6933722Y-15726527D01*
X6933722Y-15726527D02*
X6943246Y-15717003D01*
X6943246Y-15717003D02*
X6933722Y-15707479D01*
X6933722Y-15707479D02*
X6933722Y-15726527D01*
X7057532Y-15907479D02*
X7038484Y-15897955D01*
X7038484Y-15897955D02*
X7028960Y-15878907D01*
X7028960Y-15878907D02*
X7028960Y-15707479D01*
X7162294Y-15907479D02*
X7143246Y-15897955D01*
X7143246Y-15897955D02*
X7133722Y-15878907D01*
X7133722Y-15878907D02*
X7133722Y-15707479D01*
X7390865Y-15907479D02*
X7390865Y-15707479D01*
X7390865Y-15707479D02*
X7457532Y-15850336D01*
X7457532Y-15850336D02*
X7524199Y-15707479D01*
X7524199Y-15707479D02*
X7524199Y-15907479D01*
X7705151Y-15907479D02*
X7705151Y-15802717D01*
X7705151Y-15802717D02*
X7695627Y-15783669D01*
X7695627Y-15783669D02*
X7676580Y-15774146D01*
X7676580Y-15774146D02*
X7638484Y-15774146D01*
X7638484Y-15774146D02*
X7619437Y-15783669D01*
X7705151Y-15897955D02*
X7686103Y-15907479D01*
X7686103Y-15907479D02*
X7638484Y-15907479D01*
X7638484Y-15907479D02*
X7619437Y-15897955D01*
X7619437Y-15897955D02*
X7609913Y-15878907D01*
X7609913Y-15878907D02*
X7609913Y-15859860D01*
X7609913Y-15859860D02*
X7619437Y-15840812D01*
X7619437Y-15840812D02*
X7638484Y-15831288D01*
X7638484Y-15831288D02*
X7686103Y-15831288D01*
X7686103Y-15831288D02*
X7705151Y-15821765D01*
X7800389Y-15774146D02*
X7800389Y-15974146D01*
X7800389Y-15783669D02*
X7819437Y-15774146D01*
X7819437Y-15774146D02*
X7857532Y-15774146D01*
X7857532Y-15774146D02*
X7876580Y-15783669D01*
X7876580Y-15783669D02*
X7886103Y-15793193D01*
X7886103Y-15793193D02*
X7895627Y-15812241D01*
X7895627Y-15812241D02*
X7895627Y-15869384D01*
X7895627Y-15869384D02*
X7886103Y-15888431D01*
X7886103Y-15888431D02*
X7876580Y-15897955D01*
X7876580Y-15897955D02*
X7857532Y-15907479D01*
X7857532Y-15907479D02*
X7819437Y-15907479D01*
X7819437Y-15907479D02*
X7800389Y-15897955D01*
X7981341Y-15888431D02*
X7990865Y-15897955D01*
X7990865Y-15897955D02*
X7981341Y-15907479D01*
X7981341Y-15907479D02*
X7971818Y-15897955D01*
X7971818Y-15897955D02*
X7981341Y-15888431D01*
X7981341Y-15888431D02*
X7981341Y-15907479D01*
X7981341Y-15783669D02*
X7990865Y-15793193D01*
X7990865Y-15793193D02*
X7981341Y-15802717D01*
X7981341Y-15802717D02*
X7971818Y-15793193D01*
X7971818Y-15793193D02*
X7981341Y-15783669D01*
X7981341Y-15783669D02*
X7981341Y-15802717D01*
D11*
X6249136Y-16185995D02*
X6349136Y-16285995D01*
X6349136Y-16185995D02*
X6249136Y-16285995D01*
D12*
X6714675Y-16327479D02*
X6600389Y-16327479D01*
X6657532Y-16327479D02*
X6657532Y-16127479D01*
X6657532Y-16127479D02*
X6638484Y-16156050D01*
X6638484Y-16156050D02*
X6619437Y-16175098D01*
X6619437Y-16175098D02*
X6600389Y-16184622D01*
X6800389Y-16308431D02*
X6809913Y-16317955D01*
X6809913Y-16317955D02*
X6800389Y-16327479D01*
X6800389Y-16327479D02*
X6790865Y-16317955D01*
X6790865Y-16317955D02*
X6800389Y-16308431D01*
X6800389Y-16308431D02*
X6800389Y-16327479D01*
X6933722Y-16127479D02*
X6952770Y-16127479D01*
X6952770Y-16127479D02*
X6971818Y-16137003D01*
X6971818Y-16137003D02*
X6981341Y-16146527D01*
X6981341Y-16146527D02*
X6990865Y-16165574D01*
X6990865Y-16165574D02*
X7000389Y-16203669D01*
X7000389Y-16203669D02*
X7000389Y-16251288D01*
X7000389Y-16251288D02*
X6990865Y-16289384D01*
X6990865Y-16289384D02*
X6981341Y-16308431D01*
X6981341Y-16308431D02*
X6971818Y-16317955D01*
X6971818Y-16317955D02*
X6952770Y-16327479D01*
X6952770Y-16327479D02*
X6933722Y-16327479D01*
X6933722Y-16327479D02*
X6914675Y-16317955D01*
X6914675Y-16317955D02*
X6905151Y-16308431D01*
X6905151Y-16308431D02*
X6895627Y-16289384D01*
X6895627Y-16289384D02*
X6886103Y-16251288D01*
X6886103Y-16251288D02*
X6886103Y-16203669D01*
X6886103Y-16203669D02*
X6895627Y-16165574D01*
X6895627Y-16165574D02*
X6905151Y-16146527D01*
X6905151Y-16146527D02*
X6914675Y-16137003D01*
X6914675Y-16137003D02*
X6933722Y-16127479D01*
X7124199Y-16127479D02*
X7143246Y-16127479D01*
X7143246Y-16127479D02*
X7162294Y-16137003D01*
X7162294Y-16137003D02*
X7171818Y-16146527D01*
X7171818Y-16146527D02*
X7181341Y-16165574D01*
X7181341Y-16165574D02*
X7190865Y-16203669D01*
X7190865Y-16203669D02*
X7190865Y-16251288D01*
X7190865Y-16251288D02*
X7181341Y-16289384D01*
X7181341Y-16289384D02*
X7171818Y-16308431D01*
X7171818Y-16308431D02*
X7162294Y-16317955D01*
X7162294Y-16317955D02*
X7143246Y-16327479D01*
X7143246Y-16327479D02*
X7124199Y-16327479D01*
X7124199Y-16327479D02*
X7105151Y-16317955D01*
X7105151Y-16317955D02*
X7095627Y-16308431D01*
X7095627Y-16308431D02*
X7086103Y-16289384D01*
X7086103Y-16289384D02*
X7076580Y-16251288D01*
X7076580Y-16251288D02*
X7076580Y-16203669D01*
X7076580Y-16203669D02*
X7086103Y-16165574D01*
X7086103Y-16165574D02*
X7095627Y-16146527D01*
X7095627Y-16146527D02*
X7105151Y-16137003D01*
X7105151Y-16137003D02*
X7124199Y-16127479D01*
X7314675Y-16127479D02*
X7333722Y-16127479D01*
X7333722Y-16127479D02*
X7352770Y-16137003D01*
X7352770Y-16137003D02*
X7362294Y-16146527D01*
X7362294Y-16146527D02*
X7371818Y-16165574D01*
X7371818Y-16165574D02*
X7381341Y-16203669D01*
X7381341Y-16203669D02*
X7381341Y-16251288D01*
X7381341Y-16251288D02*
X7371818Y-16289384D01*
X7371818Y-16289384D02*
X7362294Y-16308431D01*
X7362294Y-16308431D02*
X7352770Y-16317955D01*
X7352770Y-16317955D02*
X7333722Y-16327479D01*
X7333722Y-16327479D02*
X7314675Y-16327479D01*
X7314675Y-16327479D02*
X7295627Y-16317955D01*
X7295627Y-16317955D02*
X7286103Y-16308431D01*
X7286103Y-16308431D02*
X7276580Y-16289384D01*
X7276580Y-16289384D02*
X7267056Y-16251288D01*
X7267056Y-16251288D02*
X7267056Y-16203669D01*
X7267056Y-16203669D02*
X7276580Y-16165574D01*
X7276580Y-16165574D02*
X7286103Y-16146527D01*
X7286103Y-16146527D02*
X7295627Y-16137003D01*
X7295627Y-16137003D02*
X7314675Y-16127479D01*
X7467056Y-16327479D02*
X7467056Y-16194146D01*
X7467056Y-16213193D02*
X7476580Y-16203669D01*
X7476580Y-16203669D02*
X7495627Y-16194146D01*
X7495627Y-16194146D02*
X7524199Y-16194146D01*
X7524199Y-16194146D02*
X7543246Y-16203669D01*
X7543246Y-16203669D02*
X7552770Y-16222717D01*
X7552770Y-16222717D02*
X7552770Y-16327479D01*
X7552770Y-16222717D02*
X7562294Y-16203669D01*
X7562294Y-16203669D02*
X7581341Y-16194146D01*
X7581341Y-16194146D02*
X7609913Y-16194146D01*
X7609913Y-16194146D02*
X7628961Y-16203669D01*
X7628961Y-16203669D02*
X7638484Y-16222717D01*
X7638484Y-16222717D02*
X7638484Y-16327479D01*
X7733722Y-16327479D02*
X7733722Y-16194146D01*
X7733722Y-16213193D02*
X7743246Y-16203669D01*
X7743246Y-16203669D02*
X7762294Y-16194146D01*
X7762294Y-16194146D02*
X7790865Y-16194146D01*
X7790865Y-16194146D02*
X7809913Y-16203669D01*
X7809913Y-16203669D02*
X7819437Y-16222717D01*
X7819437Y-16222717D02*
X7819437Y-16327479D01*
X7819437Y-16222717D02*
X7828961Y-16203669D01*
X7828961Y-16203669D02*
X7848008Y-16194146D01*
X7848008Y-16194146D02*
X7876580Y-16194146D01*
X7876580Y-16194146D02*
X7895627Y-16203669D01*
X7895627Y-16203669D02*
X7905151Y-16222717D01*
X7905151Y-16222717D02*
X7905151Y-16327479D01*
X8295627Y-16117955D02*
X8124199Y-16375098D01*
X8552770Y-16127479D02*
X8571818Y-16127479D01*
X8571818Y-16127479D02*
X8590866Y-16137003D01*
X8590866Y-16137003D02*
X8600389Y-16146527D01*
X8600389Y-16146527D02*
X8609913Y-16165574D01*
X8609913Y-16165574D02*
X8619437Y-16203669D01*
X8619437Y-16203669D02*
X8619437Y-16251288D01*
X8619437Y-16251288D02*
X8609913Y-16289384D01*
X8609913Y-16289384D02*
X8600389Y-16308431D01*
X8600389Y-16308431D02*
X8590866Y-16317955D01*
X8590866Y-16317955D02*
X8571818Y-16327479D01*
X8571818Y-16327479D02*
X8552770Y-16327479D01*
X8552770Y-16327479D02*
X8533723Y-16317955D01*
X8533723Y-16317955D02*
X8524199Y-16308431D01*
X8524199Y-16308431D02*
X8514675Y-16289384D01*
X8514675Y-16289384D02*
X8505151Y-16251288D01*
X8505151Y-16251288D02*
X8505151Y-16203669D01*
X8505151Y-16203669D02*
X8514675Y-16165574D01*
X8514675Y-16165574D02*
X8524199Y-16146527D01*
X8524199Y-16146527D02*
X8533723Y-16137003D01*
X8533723Y-16137003D02*
X8552770Y-16127479D01*
X8705151Y-16308431D02*
X8714675Y-16317955D01*
X8714675Y-16317955D02*
X8705151Y-16327479D01*
X8705151Y-16327479D02*
X8695627Y-16317955D01*
X8695627Y-16317955D02*
X8705151Y-16308431D01*
X8705151Y-16308431D02*
X8705151Y-16327479D01*
X8838485Y-16127479D02*
X8857532Y-16127479D01*
X8857532Y-16127479D02*
X8876580Y-16137003D01*
X8876580Y-16137003D02*
X8886104Y-16146527D01*
X8886104Y-16146527D02*
X8895627Y-16165574D01*
X8895627Y-16165574D02*
X8905151Y-16203669D01*
X8905151Y-16203669D02*
X8905151Y-16251288D01*
X8905151Y-16251288D02*
X8895627Y-16289384D01*
X8895627Y-16289384D02*
X8886104Y-16308431D01*
X8886104Y-16308431D02*
X8876580Y-16317955D01*
X8876580Y-16317955D02*
X8857532Y-16327479D01*
X8857532Y-16327479D02*
X8838485Y-16327479D01*
X8838485Y-16327479D02*
X8819437Y-16317955D01*
X8819437Y-16317955D02*
X8809913Y-16308431D01*
X8809913Y-16308431D02*
X8800389Y-16289384D01*
X8800389Y-16289384D02*
X8790866Y-16251288D01*
X8790866Y-16251288D02*
X8790866Y-16203669D01*
X8790866Y-16203669D02*
X8800389Y-16165574D01*
X8800389Y-16165574D02*
X8809913Y-16146527D01*
X8809913Y-16146527D02*
X8819437Y-16137003D01*
X8819437Y-16137003D02*
X8838485Y-16127479D01*
X8971818Y-16127479D02*
X9095627Y-16127479D01*
X9095627Y-16127479D02*
X9028961Y-16203669D01*
X9028961Y-16203669D02*
X9057532Y-16203669D01*
X9057532Y-16203669D02*
X9076580Y-16213193D01*
X9076580Y-16213193D02*
X9086104Y-16222717D01*
X9086104Y-16222717D02*
X9095627Y-16241765D01*
X9095627Y-16241765D02*
X9095627Y-16289384D01*
X9095627Y-16289384D02*
X9086104Y-16308431D01*
X9086104Y-16308431D02*
X9076580Y-16317955D01*
X9076580Y-16317955D02*
X9057532Y-16327479D01*
X9057532Y-16327479D02*
X9000389Y-16327479D01*
X9000389Y-16327479D02*
X8981342Y-16317955D01*
X8981342Y-16317955D02*
X8971818Y-16308431D01*
X9190866Y-16327479D02*
X9228961Y-16327479D01*
X9228961Y-16327479D02*
X9248008Y-16317955D01*
X9248008Y-16317955D02*
X9257532Y-16308431D01*
X9257532Y-16308431D02*
X9276580Y-16279860D01*
X9276580Y-16279860D02*
X9286104Y-16241765D01*
X9286104Y-16241765D02*
X9286104Y-16165574D01*
X9286104Y-16165574D02*
X9276580Y-16146527D01*
X9276580Y-16146527D02*
X9267056Y-16137003D01*
X9267056Y-16137003D02*
X9248008Y-16127479D01*
X9248008Y-16127479D02*
X9209913Y-16127479D01*
X9209913Y-16127479D02*
X9190866Y-16137003D01*
X9190866Y-16137003D02*
X9181342Y-16146527D01*
X9181342Y-16146527D02*
X9171818Y-16165574D01*
X9171818Y-16165574D02*
X9171818Y-16213193D01*
X9171818Y-16213193D02*
X9181342Y-16232241D01*
X9181342Y-16232241D02*
X9190866Y-16241765D01*
X9190866Y-16241765D02*
X9209913Y-16251288D01*
X9209913Y-16251288D02*
X9248008Y-16251288D01*
X9248008Y-16251288D02*
X9267056Y-16241765D01*
X9267056Y-16241765D02*
X9276580Y-16232241D01*
X9276580Y-16232241D02*
X9286104Y-16213193D01*
X9457532Y-16194146D02*
X9457532Y-16327479D01*
X9409913Y-16117955D02*
X9362294Y-16260812D01*
X9362294Y-16260812D02*
X9486104Y-16260812D01*
X9552770Y-16127479D02*
X9552770Y-16165574D01*
X9628961Y-16127479D02*
X9628961Y-16165574D01*
X9924199Y-16403669D02*
X9914675Y-16394146D01*
X9914675Y-16394146D02*
X9895628Y-16365574D01*
X9895628Y-16365574D02*
X9886104Y-16346527D01*
X9886104Y-16346527D02*
X9876580Y-16317955D01*
X9876580Y-16317955D02*
X9867056Y-16270336D01*
X9867056Y-16270336D02*
X9867056Y-16232241D01*
X9867056Y-16232241D02*
X9876580Y-16184622D01*
X9876580Y-16184622D02*
X9886104Y-16156050D01*
X9886104Y-16156050D02*
X9895628Y-16137003D01*
X9895628Y-16137003D02*
X9914675Y-16108431D01*
X9914675Y-16108431D02*
X9924199Y-16098907D01*
X10086104Y-16127479D02*
X10048008Y-16127479D01*
X10048008Y-16127479D02*
X10028961Y-16137003D01*
X10028961Y-16137003D02*
X10019437Y-16146527D01*
X10019437Y-16146527D02*
X10000389Y-16175098D01*
X10000389Y-16175098D02*
X9990866Y-16213193D01*
X9990866Y-16213193D02*
X9990866Y-16289384D01*
X9990866Y-16289384D02*
X10000389Y-16308431D01*
X10000389Y-16308431D02*
X10009913Y-16317955D01*
X10009913Y-16317955D02*
X10028961Y-16327479D01*
X10028961Y-16327479D02*
X10067056Y-16327479D01*
X10067056Y-16327479D02*
X10086104Y-16317955D01*
X10086104Y-16317955D02*
X10095628Y-16308431D01*
X10095628Y-16308431D02*
X10105151Y-16289384D01*
X10105151Y-16289384D02*
X10105151Y-16241765D01*
X10105151Y-16241765D02*
X10095628Y-16222717D01*
X10095628Y-16222717D02*
X10086104Y-16213193D01*
X10086104Y-16213193D02*
X10067056Y-16203669D01*
X10067056Y-16203669D02*
X10028961Y-16203669D01*
X10028961Y-16203669D02*
X10009913Y-16213193D01*
X10009913Y-16213193D02*
X10000389Y-16222717D01*
X10000389Y-16222717D02*
X9990866Y-16241765D01*
X10276580Y-16194146D02*
X10276580Y-16327479D01*
X10228961Y-16117955D02*
X10181342Y-16260812D01*
X10181342Y-16260812D02*
X10305151Y-16260812D01*
X10533723Y-16327479D02*
X10533723Y-16127479D01*
X10619437Y-16327479D02*
X10619437Y-16222717D01*
X10619437Y-16222717D02*
X10609913Y-16203669D01*
X10609913Y-16203669D02*
X10590866Y-16194146D01*
X10590866Y-16194146D02*
X10562294Y-16194146D01*
X10562294Y-16194146D02*
X10543247Y-16203669D01*
X10543247Y-16203669D02*
X10533723Y-16213193D01*
X10743247Y-16327479D02*
X10724199Y-16317955D01*
X10724199Y-16317955D02*
X10714675Y-16308431D01*
X10714675Y-16308431D02*
X10705151Y-16289384D01*
X10705151Y-16289384D02*
X10705151Y-16232241D01*
X10705151Y-16232241D02*
X10714675Y-16213193D01*
X10714675Y-16213193D02*
X10724199Y-16203669D01*
X10724199Y-16203669D02*
X10743247Y-16194146D01*
X10743247Y-16194146D02*
X10771818Y-16194146D01*
X10771818Y-16194146D02*
X10790866Y-16203669D01*
X10790866Y-16203669D02*
X10800390Y-16213193D01*
X10800390Y-16213193D02*
X10809913Y-16232241D01*
X10809913Y-16232241D02*
X10809913Y-16289384D01*
X10809913Y-16289384D02*
X10800390Y-16308431D01*
X10800390Y-16308431D02*
X10790866Y-16317955D01*
X10790866Y-16317955D02*
X10771818Y-16327479D01*
X10771818Y-16327479D02*
X10743247Y-16327479D01*
X10924199Y-16327479D02*
X10905151Y-16317955D01*
X10905151Y-16317955D02*
X10895628Y-16298907D01*
X10895628Y-16298907D02*
X10895628Y-16127479D01*
X11076580Y-16317955D02*
X11057532Y-16327479D01*
X11057532Y-16327479D02*
X11019437Y-16327479D01*
X11019437Y-16327479D02*
X11000390Y-16317955D01*
X11000390Y-16317955D02*
X10990866Y-16298907D01*
X10990866Y-16298907D02*
X10990866Y-16222717D01*
X10990866Y-16222717D02*
X11000390Y-16203669D01*
X11000390Y-16203669D02*
X11019437Y-16194146D01*
X11019437Y-16194146D02*
X11057532Y-16194146D01*
X11057532Y-16194146D02*
X11076580Y-16203669D01*
X11076580Y-16203669D02*
X11086104Y-16222717D01*
X11086104Y-16222717D02*
X11086104Y-16241765D01*
X11086104Y-16241765D02*
X10990866Y-16260812D01*
X11162294Y-16317955D02*
X11181342Y-16327479D01*
X11181342Y-16327479D02*
X11219437Y-16327479D01*
X11219437Y-16327479D02*
X11238485Y-16317955D01*
X11238485Y-16317955D02*
X11248009Y-16298907D01*
X11248009Y-16298907D02*
X11248009Y-16289384D01*
X11248009Y-16289384D02*
X11238485Y-16270336D01*
X11238485Y-16270336D02*
X11219437Y-16260812D01*
X11219437Y-16260812D02*
X11190866Y-16260812D01*
X11190866Y-16260812D02*
X11171818Y-16251288D01*
X11171818Y-16251288D02*
X11162294Y-16232241D01*
X11162294Y-16232241D02*
X11162294Y-16222717D01*
X11162294Y-16222717D02*
X11171818Y-16203669D01*
X11171818Y-16203669D02*
X11190866Y-16194146D01*
X11190866Y-16194146D02*
X11219437Y-16194146D01*
X11219437Y-16194146D02*
X11238485Y-16203669D01*
X11314675Y-16403669D02*
X11324199Y-16394146D01*
X11324199Y-16394146D02*
X11343247Y-16365574D01*
X11343247Y-16365574D02*
X11352770Y-16346527D01*
X11352770Y-16346527D02*
X11362294Y-16317955D01*
X11362294Y-16317955D02*
X11371818Y-16270336D01*
X11371818Y-16270336D02*
X11371818Y-16232241D01*
X11371818Y-16232241D02*
X11362294Y-16184622D01*
X11362294Y-16184622D02*
X11352770Y-16156050D01*
X11352770Y-16156050D02*
X11343247Y-16137003D01*
X11343247Y-16137003D02*
X11324199Y-16108431D01*
X11324199Y-16108431D02*
X11314675Y-16098907D01*
X11676580Y-16403669D02*
X11667056Y-16394146D01*
X11667056Y-16394146D02*
X11648009Y-16365574D01*
X11648009Y-16365574D02*
X11638485Y-16346527D01*
X11638485Y-16346527D02*
X11628961Y-16317955D01*
X11628961Y-16317955D02*
X11619437Y-16270336D01*
X11619437Y-16270336D02*
X11619437Y-16232241D01*
X11619437Y-16232241D02*
X11628961Y-16184622D01*
X11628961Y-16184622D02*
X11638485Y-16156050D01*
X11638485Y-16156050D02*
X11648009Y-16137003D01*
X11648009Y-16137003D02*
X11667056Y-16108431D01*
X11667056Y-16108431D02*
X11676580Y-16098907D01*
X11752770Y-16194146D02*
X11752770Y-16327479D01*
X11752770Y-16213193D02*
X11762294Y-16203669D01*
X11762294Y-16203669D02*
X11781342Y-16194146D01*
X11781342Y-16194146D02*
X11809913Y-16194146D01*
X11809913Y-16194146D02*
X11828961Y-16203669D01*
X11828961Y-16203669D02*
X11838485Y-16222717D01*
X11838485Y-16222717D02*
X11838485Y-16327479D01*
X11962294Y-16327479D02*
X11943247Y-16317955D01*
X11943247Y-16317955D02*
X11933723Y-16308431D01*
X11933723Y-16308431D02*
X11924199Y-16289384D01*
X11924199Y-16289384D02*
X11924199Y-16232241D01*
X11924199Y-16232241D02*
X11933723Y-16213193D01*
X11933723Y-16213193D02*
X11943247Y-16203669D01*
X11943247Y-16203669D02*
X11962294Y-16194146D01*
X11962294Y-16194146D02*
X11990866Y-16194146D01*
X11990866Y-16194146D02*
X12009913Y-16203669D01*
X12009913Y-16203669D02*
X12019437Y-16213193D01*
X12019437Y-16213193D02*
X12028961Y-16232241D01*
X12028961Y-16232241D02*
X12028961Y-16289384D01*
X12028961Y-16289384D02*
X12019437Y-16308431D01*
X12019437Y-16308431D02*
X12009913Y-16317955D01*
X12009913Y-16317955D02*
X11990866Y-16327479D01*
X11990866Y-16327479D02*
X11962294Y-16327479D01*
X12086104Y-16194146D02*
X12162294Y-16194146D01*
X12114675Y-16127479D02*
X12114675Y-16298907D01*
X12114675Y-16298907D02*
X12124199Y-16317955D01*
X12124199Y-16317955D02*
X12143247Y-16327479D01*
X12143247Y-16327479D02*
X12162294Y-16327479D01*
X12381342Y-16194146D02*
X12381342Y-16394146D01*
X12381342Y-16203669D02*
X12400390Y-16194146D01*
X12400390Y-16194146D02*
X12438485Y-16194146D01*
X12438485Y-16194146D02*
X12457532Y-16203669D01*
X12457532Y-16203669D02*
X12467056Y-16213193D01*
X12467056Y-16213193D02*
X12476580Y-16232241D01*
X12476580Y-16232241D02*
X12476580Y-16289384D01*
X12476580Y-16289384D02*
X12467056Y-16308431D01*
X12467056Y-16308431D02*
X12457532Y-16317955D01*
X12457532Y-16317955D02*
X12438485Y-16327479D01*
X12438485Y-16327479D02*
X12400390Y-16327479D01*
X12400390Y-16327479D02*
X12381342Y-16317955D01*
X12590866Y-16327479D02*
X12571818Y-16317955D01*
X12571818Y-16317955D02*
X12562294Y-16298907D01*
X12562294Y-16298907D02*
X12562294Y-16127479D01*
X12752771Y-16327479D02*
X12752771Y-16222717D01*
X12752771Y-16222717D02*
X12743247Y-16203669D01*
X12743247Y-16203669D02*
X12724199Y-16194146D01*
X12724199Y-16194146D02*
X12686104Y-16194146D01*
X12686104Y-16194146D02*
X12667056Y-16203669D01*
X12752771Y-16317955D02*
X12733723Y-16327479D01*
X12733723Y-16327479D02*
X12686104Y-16327479D01*
X12686104Y-16327479D02*
X12667056Y-16317955D01*
X12667056Y-16317955D02*
X12657532Y-16298907D01*
X12657532Y-16298907D02*
X12657532Y-16279860D01*
X12657532Y-16279860D02*
X12667056Y-16260812D01*
X12667056Y-16260812D02*
X12686104Y-16251288D01*
X12686104Y-16251288D02*
X12733723Y-16251288D01*
X12733723Y-16251288D02*
X12752771Y-16241765D01*
X12819437Y-16194146D02*
X12895628Y-16194146D01*
X12848009Y-16127479D02*
X12848009Y-16298907D01*
X12848009Y-16298907D02*
X12857532Y-16317955D01*
X12857532Y-16317955D02*
X12876580Y-16327479D01*
X12876580Y-16327479D02*
X12895628Y-16327479D01*
X13038485Y-16317955D02*
X13019437Y-16327479D01*
X13019437Y-16327479D02*
X12981342Y-16327479D01*
X12981342Y-16327479D02*
X12962294Y-16317955D01*
X12962294Y-16317955D02*
X12952771Y-16298907D01*
X12952771Y-16298907D02*
X12952771Y-16222717D01*
X12952771Y-16222717D02*
X12962294Y-16203669D01*
X12962294Y-16203669D02*
X12981342Y-16194146D01*
X12981342Y-16194146D02*
X13019437Y-16194146D01*
X13019437Y-16194146D02*
X13038485Y-16203669D01*
X13038485Y-16203669D02*
X13048009Y-16222717D01*
X13048009Y-16222717D02*
X13048009Y-16241765D01*
X13048009Y-16241765D02*
X12952771Y-16260812D01*
X13219437Y-16327479D02*
X13219437Y-16127479D01*
X13219437Y-16317955D02*
X13200390Y-16327479D01*
X13200390Y-16327479D02*
X13162294Y-16327479D01*
X13162294Y-16327479D02*
X13143247Y-16317955D01*
X13143247Y-16317955D02*
X13133723Y-16308431D01*
X13133723Y-16308431D02*
X13124199Y-16289384D01*
X13124199Y-16289384D02*
X13124199Y-16232241D01*
X13124199Y-16232241D02*
X13133723Y-16213193D01*
X13133723Y-16213193D02*
X13143247Y-16203669D01*
X13143247Y-16203669D02*
X13162294Y-16194146D01*
X13162294Y-16194146D02*
X13200390Y-16194146D01*
X13200390Y-16194146D02*
X13219437Y-16203669D01*
X13295628Y-16403669D02*
X13305152Y-16394146D01*
X13305152Y-16394146D02*
X13324199Y-16365574D01*
X13324199Y-16365574D02*
X13333723Y-16346527D01*
X13333723Y-16346527D02*
X13343247Y-16317955D01*
X13343247Y-16317955D02*
X13352771Y-16270336D01*
X13352771Y-16270336D02*
X13352771Y-16232241D01*
X13352771Y-16232241D02*
X13343247Y-16184622D01*
X13343247Y-16184622D02*
X13333723Y-16156050D01*
X13333723Y-16156050D02*
X13324199Y-16137003D01*
X13324199Y-16137003D02*
X13305152Y-16108431D01*
X13305152Y-16108431D02*
X13295628Y-16098907D01*
D13*
X6349136Y-16499995D02*
G75*
G03*
X6349136Y-16499995I-60000J0D01*
G01*
D12*
X6714675Y-16591479D02*
X6600389Y-16591479D01*
X6657532Y-16591479D02*
X6657532Y-16391479D01*
X6657532Y-16391479D02*
X6638484Y-16420050D01*
X6638484Y-16420050D02*
X6619437Y-16439098D01*
X6619437Y-16439098D02*
X6600389Y-16448622D01*
X6800389Y-16572431D02*
X6809913Y-16581955D01*
X6809913Y-16581955D02*
X6800389Y-16591479D01*
X6800389Y-16591479D02*
X6790865Y-16581955D01*
X6790865Y-16581955D02*
X6800389Y-16572431D01*
X6800389Y-16572431D02*
X6800389Y-16591479D01*
X6886103Y-16410527D02*
X6895627Y-16401003D01*
X6895627Y-16401003D02*
X6914675Y-16391479D01*
X6914675Y-16391479D02*
X6962294Y-16391479D01*
X6962294Y-16391479D02*
X6981341Y-16401003D01*
X6981341Y-16401003D02*
X6990865Y-16410527D01*
X6990865Y-16410527D02*
X7000389Y-16429574D01*
X7000389Y-16429574D02*
X7000389Y-16448622D01*
X7000389Y-16448622D02*
X6990865Y-16477193D01*
X6990865Y-16477193D02*
X6876580Y-16591479D01*
X6876580Y-16591479D02*
X7000389Y-16591479D01*
X7124199Y-16391479D02*
X7143246Y-16391479D01*
X7143246Y-16391479D02*
X7162294Y-16401003D01*
X7162294Y-16401003D02*
X7171818Y-16410527D01*
X7171818Y-16410527D02*
X7181341Y-16429574D01*
X7181341Y-16429574D02*
X7190865Y-16467669D01*
X7190865Y-16467669D02*
X7190865Y-16515288D01*
X7190865Y-16515288D02*
X7181341Y-16553384D01*
X7181341Y-16553384D02*
X7171818Y-16572431D01*
X7171818Y-16572431D02*
X7162294Y-16581955D01*
X7162294Y-16581955D02*
X7143246Y-16591479D01*
X7143246Y-16591479D02*
X7124199Y-16591479D01*
X7124199Y-16591479D02*
X7105151Y-16581955D01*
X7105151Y-16581955D02*
X7095627Y-16572431D01*
X7095627Y-16572431D02*
X7086103Y-16553384D01*
X7086103Y-16553384D02*
X7076580Y-16515288D01*
X7076580Y-16515288D02*
X7076580Y-16467669D01*
X7076580Y-16467669D02*
X7086103Y-16429574D01*
X7086103Y-16429574D02*
X7095627Y-16410527D01*
X7095627Y-16410527D02*
X7105151Y-16401003D01*
X7105151Y-16401003D02*
X7124199Y-16391479D01*
X7314675Y-16391479D02*
X7333722Y-16391479D01*
X7333722Y-16391479D02*
X7352770Y-16401003D01*
X7352770Y-16401003D02*
X7362294Y-16410527D01*
X7362294Y-16410527D02*
X7371818Y-16429574D01*
X7371818Y-16429574D02*
X7381341Y-16467669D01*
X7381341Y-16467669D02*
X7381341Y-16515288D01*
X7381341Y-16515288D02*
X7371818Y-16553384D01*
X7371818Y-16553384D02*
X7362294Y-16572431D01*
X7362294Y-16572431D02*
X7352770Y-16581955D01*
X7352770Y-16581955D02*
X7333722Y-16591479D01*
X7333722Y-16591479D02*
X7314675Y-16591479D01*
X7314675Y-16591479D02*
X7295627Y-16581955D01*
X7295627Y-16581955D02*
X7286103Y-16572431D01*
X7286103Y-16572431D02*
X7276580Y-16553384D01*
X7276580Y-16553384D02*
X7267056Y-16515288D01*
X7267056Y-16515288D02*
X7267056Y-16467669D01*
X7267056Y-16467669D02*
X7276580Y-16429574D01*
X7276580Y-16429574D02*
X7286103Y-16410527D01*
X7286103Y-16410527D02*
X7295627Y-16401003D01*
X7295627Y-16401003D02*
X7314675Y-16391479D01*
X7467056Y-16591479D02*
X7467056Y-16458146D01*
X7467056Y-16477193D02*
X7476580Y-16467669D01*
X7476580Y-16467669D02*
X7495627Y-16458146D01*
X7495627Y-16458146D02*
X7524199Y-16458146D01*
X7524199Y-16458146D02*
X7543246Y-16467669D01*
X7543246Y-16467669D02*
X7552770Y-16486717D01*
X7552770Y-16486717D02*
X7552770Y-16591479D01*
X7552770Y-16486717D02*
X7562294Y-16467669D01*
X7562294Y-16467669D02*
X7581341Y-16458146D01*
X7581341Y-16458146D02*
X7609913Y-16458146D01*
X7609913Y-16458146D02*
X7628961Y-16467669D01*
X7628961Y-16467669D02*
X7638484Y-16486717D01*
X7638484Y-16486717D02*
X7638484Y-16591479D01*
X7733722Y-16591479D02*
X7733722Y-16458146D01*
X7733722Y-16477193D02*
X7743246Y-16467669D01*
X7743246Y-16467669D02*
X7762294Y-16458146D01*
X7762294Y-16458146D02*
X7790865Y-16458146D01*
X7790865Y-16458146D02*
X7809913Y-16467669D01*
X7809913Y-16467669D02*
X7819437Y-16486717D01*
X7819437Y-16486717D02*
X7819437Y-16591479D01*
X7819437Y-16486717D02*
X7828961Y-16467669D01*
X7828961Y-16467669D02*
X7848008Y-16458146D01*
X7848008Y-16458146D02*
X7876580Y-16458146D01*
X7876580Y-16458146D02*
X7895627Y-16467669D01*
X7895627Y-16467669D02*
X7905151Y-16486717D01*
X7905151Y-16486717D02*
X7905151Y-16591479D01*
X8295627Y-16381955D02*
X8124199Y-16639098D01*
X8552770Y-16391479D02*
X8571818Y-16391479D01*
X8571818Y-16391479D02*
X8590866Y-16401003D01*
X8590866Y-16401003D02*
X8600389Y-16410527D01*
X8600389Y-16410527D02*
X8609913Y-16429574D01*
X8609913Y-16429574D02*
X8619437Y-16467669D01*
X8619437Y-16467669D02*
X8619437Y-16515288D01*
X8619437Y-16515288D02*
X8609913Y-16553384D01*
X8609913Y-16553384D02*
X8600389Y-16572431D01*
X8600389Y-16572431D02*
X8590866Y-16581955D01*
X8590866Y-16581955D02*
X8571818Y-16591479D01*
X8571818Y-16591479D02*
X8552770Y-16591479D01*
X8552770Y-16591479D02*
X8533723Y-16581955D01*
X8533723Y-16581955D02*
X8524199Y-16572431D01*
X8524199Y-16572431D02*
X8514675Y-16553384D01*
X8514675Y-16553384D02*
X8505151Y-16515288D01*
X8505151Y-16515288D02*
X8505151Y-16467669D01*
X8505151Y-16467669D02*
X8514675Y-16429574D01*
X8514675Y-16429574D02*
X8524199Y-16410527D01*
X8524199Y-16410527D02*
X8533723Y-16401003D01*
X8533723Y-16401003D02*
X8552770Y-16391479D01*
X8705151Y-16572431D02*
X8714675Y-16581955D01*
X8714675Y-16581955D02*
X8705151Y-16591479D01*
X8705151Y-16591479D02*
X8695627Y-16581955D01*
X8695627Y-16581955D02*
X8705151Y-16572431D01*
X8705151Y-16572431D02*
X8705151Y-16591479D01*
X8838485Y-16391479D02*
X8857532Y-16391479D01*
X8857532Y-16391479D02*
X8876580Y-16401003D01*
X8876580Y-16401003D02*
X8886104Y-16410527D01*
X8886104Y-16410527D02*
X8895627Y-16429574D01*
X8895627Y-16429574D02*
X8905151Y-16467669D01*
X8905151Y-16467669D02*
X8905151Y-16515288D01*
X8905151Y-16515288D02*
X8895627Y-16553384D01*
X8895627Y-16553384D02*
X8886104Y-16572431D01*
X8886104Y-16572431D02*
X8876580Y-16581955D01*
X8876580Y-16581955D02*
X8857532Y-16591479D01*
X8857532Y-16591479D02*
X8838485Y-16591479D01*
X8838485Y-16591479D02*
X8819437Y-16581955D01*
X8819437Y-16581955D02*
X8809913Y-16572431D01*
X8809913Y-16572431D02*
X8800389Y-16553384D01*
X8800389Y-16553384D02*
X8790866Y-16515288D01*
X8790866Y-16515288D02*
X8790866Y-16467669D01*
X8790866Y-16467669D02*
X8800389Y-16429574D01*
X8800389Y-16429574D02*
X8809913Y-16410527D01*
X8809913Y-16410527D02*
X8819437Y-16401003D01*
X8819437Y-16401003D02*
X8838485Y-16391479D01*
X9076580Y-16458146D02*
X9076580Y-16591479D01*
X9028961Y-16381955D02*
X8981342Y-16524812D01*
X8981342Y-16524812D02*
X9105151Y-16524812D01*
X9162294Y-16391479D02*
X9295627Y-16391479D01*
X9295627Y-16391479D02*
X9209913Y-16591479D01*
X9362294Y-16410527D02*
X9371818Y-16401003D01*
X9371818Y-16401003D02*
X9390866Y-16391479D01*
X9390866Y-16391479D02*
X9438485Y-16391479D01*
X9438485Y-16391479D02*
X9457532Y-16401003D01*
X9457532Y-16401003D02*
X9467056Y-16410527D01*
X9467056Y-16410527D02*
X9476580Y-16429574D01*
X9476580Y-16429574D02*
X9476580Y-16448622D01*
X9476580Y-16448622D02*
X9467056Y-16477193D01*
X9467056Y-16477193D02*
X9352770Y-16591479D01*
X9352770Y-16591479D02*
X9476580Y-16591479D01*
X9552770Y-16391479D02*
X9552770Y-16429574D01*
X9628961Y-16391479D02*
X9628961Y-16429574D01*
X9924199Y-16667669D02*
X9914675Y-16658146D01*
X9914675Y-16658146D02*
X9895628Y-16629574D01*
X9895628Y-16629574D02*
X9886104Y-16610527D01*
X9886104Y-16610527D02*
X9876580Y-16581955D01*
X9876580Y-16581955D02*
X9867056Y-16534336D01*
X9867056Y-16534336D02*
X9867056Y-16496241D01*
X9867056Y-16496241D02*
X9876580Y-16448622D01*
X9876580Y-16448622D02*
X9886104Y-16420050D01*
X9886104Y-16420050D02*
X9895628Y-16401003D01*
X9895628Y-16401003D02*
X9914675Y-16372431D01*
X9914675Y-16372431D02*
X9924199Y-16362907D01*
X10086104Y-16458146D02*
X10086104Y-16591479D01*
X10038485Y-16381955D02*
X9990866Y-16524812D01*
X9990866Y-16524812D02*
X10114675Y-16524812D01*
X10343247Y-16591479D02*
X10343247Y-16391479D01*
X10428961Y-16591479D02*
X10428961Y-16486717D01*
X10428961Y-16486717D02*
X10419437Y-16467669D01*
X10419437Y-16467669D02*
X10400390Y-16458146D01*
X10400390Y-16458146D02*
X10371818Y-16458146D01*
X10371818Y-16458146D02*
X10352770Y-16467669D01*
X10352770Y-16467669D02*
X10343247Y-16477193D01*
X10552770Y-16591479D02*
X10533723Y-16581955D01*
X10533723Y-16581955D02*
X10524199Y-16572431D01*
X10524199Y-16572431D02*
X10514675Y-16553384D01*
X10514675Y-16553384D02*
X10514675Y-16496241D01*
X10514675Y-16496241D02*
X10524199Y-16477193D01*
X10524199Y-16477193D02*
X10533723Y-16467669D01*
X10533723Y-16467669D02*
X10552770Y-16458146D01*
X10552770Y-16458146D02*
X10581342Y-16458146D01*
X10581342Y-16458146D02*
X10600390Y-16467669D01*
X10600390Y-16467669D02*
X10609913Y-16477193D01*
X10609913Y-16477193D02*
X10619437Y-16496241D01*
X10619437Y-16496241D02*
X10619437Y-16553384D01*
X10619437Y-16553384D02*
X10609913Y-16572431D01*
X10609913Y-16572431D02*
X10600390Y-16581955D01*
X10600390Y-16581955D02*
X10581342Y-16591479D01*
X10581342Y-16591479D02*
X10552770Y-16591479D01*
X10733723Y-16591479D02*
X10714675Y-16581955D01*
X10714675Y-16581955D02*
X10705151Y-16562907D01*
X10705151Y-16562907D02*
X10705151Y-16391479D01*
X10886104Y-16581955D02*
X10867056Y-16591479D01*
X10867056Y-16591479D02*
X10828961Y-16591479D01*
X10828961Y-16591479D02*
X10809913Y-16581955D01*
X10809913Y-16581955D02*
X10800390Y-16562907D01*
X10800390Y-16562907D02*
X10800390Y-16486717D01*
X10800390Y-16486717D02*
X10809913Y-16467669D01*
X10809913Y-16467669D02*
X10828961Y-16458146D01*
X10828961Y-16458146D02*
X10867056Y-16458146D01*
X10867056Y-16458146D02*
X10886104Y-16467669D01*
X10886104Y-16467669D02*
X10895628Y-16486717D01*
X10895628Y-16486717D02*
X10895628Y-16505765D01*
X10895628Y-16505765D02*
X10800390Y-16524812D01*
X10971818Y-16581955D02*
X10990866Y-16591479D01*
X10990866Y-16591479D02*
X11028961Y-16591479D01*
X11028961Y-16591479D02*
X11048009Y-16581955D01*
X11048009Y-16581955D02*
X11057532Y-16562907D01*
X11057532Y-16562907D02*
X11057532Y-16553384D01*
X11057532Y-16553384D02*
X11048009Y-16534336D01*
X11048009Y-16534336D02*
X11028961Y-16524812D01*
X11028961Y-16524812D02*
X11000390Y-16524812D01*
X11000390Y-16524812D02*
X10981342Y-16515288D01*
X10981342Y-16515288D02*
X10971818Y-16496241D01*
X10971818Y-16496241D02*
X10971818Y-16486717D01*
X10971818Y-16486717D02*
X10981342Y-16467669D01*
X10981342Y-16467669D02*
X11000390Y-16458146D01*
X11000390Y-16458146D02*
X11028961Y-16458146D01*
X11028961Y-16458146D02*
X11048009Y-16467669D01*
X11124199Y-16667669D02*
X11133723Y-16658146D01*
X11133723Y-16658146D02*
X11152771Y-16629574D01*
X11152771Y-16629574D02*
X11162294Y-16610527D01*
X11162294Y-16610527D02*
X11171818Y-16581955D01*
X11171818Y-16581955D02*
X11181342Y-16534336D01*
X11181342Y-16534336D02*
X11181342Y-16496241D01*
X11181342Y-16496241D02*
X11171818Y-16448622D01*
X11171818Y-16448622D02*
X11162294Y-16420050D01*
X11162294Y-16420050D02*
X11152771Y-16401003D01*
X11152771Y-16401003D02*
X11133723Y-16372431D01*
X11133723Y-16372431D02*
X11124199Y-16362907D01*
X11486104Y-16667669D02*
X11476580Y-16658146D01*
X11476580Y-16658146D02*
X11457532Y-16629574D01*
X11457532Y-16629574D02*
X11448009Y-16610527D01*
X11448009Y-16610527D02*
X11438485Y-16581955D01*
X11438485Y-16581955D02*
X11428961Y-16534336D01*
X11428961Y-16534336D02*
X11428961Y-16496241D01*
X11428961Y-16496241D02*
X11438485Y-16448622D01*
X11438485Y-16448622D02*
X11448009Y-16420050D01*
X11448009Y-16420050D02*
X11457532Y-16401003D01*
X11457532Y-16401003D02*
X11476580Y-16372431D01*
X11476580Y-16372431D02*
X11486104Y-16362907D01*
X11562294Y-16458146D02*
X11562294Y-16591479D01*
X11562294Y-16477193D02*
X11571818Y-16467669D01*
X11571818Y-16467669D02*
X11590866Y-16458146D01*
X11590866Y-16458146D02*
X11619437Y-16458146D01*
X11619437Y-16458146D02*
X11638485Y-16467669D01*
X11638485Y-16467669D02*
X11648009Y-16486717D01*
X11648009Y-16486717D02*
X11648009Y-16591479D01*
X11771818Y-16591479D02*
X11752770Y-16581955D01*
X11752770Y-16581955D02*
X11743247Y-16572431D01*
X11743247Y-16572431D02*
X11733723Y-16553384D01*
X11733723Y-16553384D02*
X11733723Y-16496241D01*
X11733723Y-16496241D02*
X11743247Y-16477193D01*
X11743247Y-16477193D02*
X11752770Y-16467669D01*
X11752770Y-16467669D02*
X11771818Y-16458146D01*
X11771818Y-16458146D02*
X11800390Y-16458146D01*
X11800390Y-16458146D02*
X11819437Y-16467669D01*
X11819437Y-16467669D02*
X11828961Y-16477193D01*
X11828961Y-16477193D02*
X11838485Y-16496241D01*
X11838485Y-16496241D02*
X11838485Y-16553384D01*
X11838485Y-16553384D02*
X11828961Y-16572431D01*
X11828961Y-16572431D02*
X11819437Y-16581955D01*
X11819437Y-16581955D02*
X11800390Y-16591479D01*
X11800390Y-16591479D02*
X11771818Y-16591479D01*
X11895628Y-16458146D02*
X11971818Y-16458146D01*
X11924199Y-16391479D02*
X11924199Y-16562907D01*
X11924199Y-16562907D02*
X11933723Y-16581955D01*
X11933723Y-16581955D02*
X11952770Y-16591479D01*
X11952770Y-16591479D02*
X11971818Y-16591479D01*
X12190866Y-16458146D02*
X12190866Y-16658146D01*
X12190866Y-16467669D02*
X12209913Y-16458146D01*
X12209913Y-16458146D02*
X12248009Y-16458146D01*
X12248009Y-16458146D02*
X12267056Y-16467669D01*
X12267056Y-16467669D02*
X12276580Y-16477193D01*
X12276580Y-16477193D02*
X12286104Y-16496241D01*
X12286104Y-16496241D02*
X12286104Y-16553384D01*
X12286104Y-16553384D02*
X12276580Y-16572431D01*
X12276580Y-16572431D02*
X12267056Y-16581955D01*
X12267056Y-16581955D02*
X12248009Y-16591479D01*
X12248009Y-16591479D02*
X12209913Y-16591479D01*
X12209913Y-16591479D02*
X12190866Y-16581955D01*
X12400390Y-16591479D02*
X12381342Y-16581955D01*
X12381342Y-16581955D02*
X12371818Y-16562907D01*
X12371818Y-16562907D02*
X12371818Y-16391479D01*
X12562294Y-16591479D02*
X12562294Y-16486717D01*
X12562294Y-16486717D02*
X12552771Y-16467669D01*
X12552771Y-16467669D02*
X12533723Y-16458146D01*
X12533723Y-16458146D02*
X12495628Y-16458146D01*
X12495628Y-16458146D02*
X12476580Y-16467669D01*
X12562294Y-16581955D02*
X12543247Y-16591479D01*
X12543247Y-16591479D02*
X12495628Y-16591479D01*
X12495628Y-16591479D02*
X12476580Y-16581955D01*
X12476580Y-16581955D02*
X12467056Y-16562907D01*
X12467056Y-16562907D02*
X12467056Y-16543860D01*
X12467056Y-16543860D02*
X12476580Y-16524812D01*
X12476580Y-16524812D02*
X12495628Y-16515288D01*
X12495628Y-16515288D02*
X12543247Y-16515288D01*
X12543247Y-16515288D02*
X12562294Y-16505765D01*
X12628961Y-16458146D02*
X12705151Y-16458146D01*
X12657532Y-16391479D02*
X12657532Y-16562907D01*
X12657532Y-16562907D02*
X12667056Y-16581955D01*
X12667056Y-16581955D02*
X12686104Y-16591479D01*
X12686104Y-16591479D02*
X12705151Y-16591479D01*
X12848009Y-16581955D02*
X12828961Y-16591479D01*
X12828961Y-16591479D02*
X12790866Y-16591479D01*
X12790866Y-16591479D02*
X12771818Y-16581955D01*
X12771818Y-16581955D02*
X12762294Y-16562907D01*
X12762294Y-16562907D02*
X12762294Y-16486717D01*
X12762294Y-16486717D02*
X12771818Y-16467669D01*
X12771818Y-16467669D02*
X12790866Y-16458146D01*
X12790866Y-16458146D02*
X12828961Y-16458146D01*
X12828961Y-16458146D02*
X12848009Y-16467669D01*
X12848009Y-16467669D02*
X12857532Y-16486717D01*
X12857532Y-16486717D02*
X12857532Y-16505765D01*
X12857532Y-16505765D02*
X12762294Y-16524812D01*
X13028961Y-16591479D02*
X13028961Y-16391479D01*
X13028961Y-16581955D02*
X13009913Y-16591479D01*
X13009913Y-16591479D02*
X12971818Y-16591479D01*
X12971818Y-16591479D02*
X12952771Y-16581955D01*
X12952771Y-16581955D02*
X12943247Y-16572431D01*
X12943247Y-16572431D02*
X12933723Y-16553384D01*
X12933723Y-16553384D02*
X12933723Y-16496241D01*
X12933723Y-16496241D02*
X12943247Y-16477193D01*
X12943247Y-16477193D02*
X12952771Y-16467669D01*
X12952771Y-16467669D02*
X12971818Y-16458146D01*
X12971818Y-16458146D02*
X13009913Y-16458146D01*
X13009913Y-16458146D02*
X13028961Y-16467669D01*
X13105152Y-16667669D02*
X13114675Y-16658146D01*
X13114675Y-16658146D02*
X13133723Y-16629574D01*
X13133723Y-16629574D02*
X13143247Y-16610527D01*
X13143247Y-16610527D02*
X13152771Y-16581955D01*
X13152771Y-16581955D02*
X13162294Y-16534336D01*
X13162294Y-16534336D02*
X13162294Y-16496241D01*
X13162294Y-16496241D02*
X13152771Y-16448622D01*
X13152771Y-16448622D02*
X13143247Y-16420050D01*
X13143247Y-16420050D02*
X13133723Y-16401003D01*
X13133723Y-16401003D02*
X13114675Y-16372431D01*
X13114675Y-16372431D02*
X13105152Y-16362907D01*
D14*
X6259136Y-16673995D02*
X6259136Y-16853995D01*
X6169136Y-16763995D02*
X6349136Y-16763995D01*
D12*
X6714675Y-16855479D02*
X6600389Y-16855479D01*
X6657532Y-16855479D02*
X6657532Y-16655479D01*
X6657532Y-16655479D02*
X6638484Y-16684050D01*
X6638484Y-16684050D02*
X6619437Y-16703098D01*
X6619437Y-16703098D02*
X6600389Y-16712622D01*
X6800389Y-16836431D02*
X6809913Y-16845955D01*
X6809913Y-16845955D02*
X6800389Y-16855479D01*
X6800389Y-16855479D02*
X6790865Y-16845955D01*
X6790865Y-16845955D02*
X6800389Y-16836431D01*
X6800389Y-16836431D02*
X6800389Y-16855479D01*
X6924199Y-16741193D02*
X6905151Y-16731669D01*
X6905151Y-16731669D02*
X6895627Y-16722146D01*
X6895627Y-16722146D02*
X6886103Y-16703098D01*
X6886103Y-16703098D02*
X6886103Y-16693574D01*
X6886103Y-16693574D02*
X6895627Y-16674527D01*
X6895627Y-16674527D02*
X6905151Y-16665003D01*
X6905151Y-16665003D02*
X6924199Y-16655479D01*
X6924199Y-16655479D02*
X6962294Y-16655479D01*
X6962294Y-16655479D02*
X6981341Y-16665003D01*
X6981341Y-16665003D02*
X6990865Y-16674527D01*
X6990865Y-16674527D02*
X7000389Y-16693574D01*
X7000389Y-16693574D02*
X7000389Y-16703098D01*
X7000389Y-16703098D02*
X6990865Y-16722146D01*
X6990865Y-16722146D02*
X6981341Y-16731669D01*
X6981341Y-16731669D02*
X6962294Y-16741193D01*
X6962294Y-16741193D02*
X6924199Y-16741193D01*
X6924199Y-16741193D02*
X6905151Y-16750717D01*
X6905151Y-16750717D02*
X6895627Y-16760241D01*
X6895627Y-16760241D02*
X6886103Y-16779289D01*
X6886103Y-16779289D02*
X6886103Y-16817384D01*
X6886103Y-16817384D02*
X6895627Y-16836431D01*
X6895627Y-16836431D02*
X6905151Y-16845955D01*
X6905151Y-16845955D02*
X6924199Y-16855479D01*
X6924199Y-16855479D02*
X6962294Y-16855479D01*
X6962294Y-16855479D02*
X6981341Y-16845955D01*
X6981341Y-16845955D02*
X6990865Y-16836431D01*
X6990865Y-16836431D02*
X7000389Y-16817384D01*
X7000389Y-16817384D02*
X7000389Y-16779289D01*
X7000389Y-16779289D02*
X6990865Y-16760241D01*
X6990865Y-16760241D02*
X6981341Y-16750717D01*
X6981341Y-16750717D02*
X6962294Y-16741193D01*
X7124199Y-16655479D02*
X7143246Y-16655479D01*
X7143246Y-16655479D02*
X7162294Y-16665003D01*
X7162294Y-16665003D02*
X7171818Y-16674527D01*
X7171818Y-16674527D02*
X7181341Y-16693574D01*
X7181341Y-16693574D02*
X7190865Y-16731669D01*
X7190865Y-16731669D02*
X7190865Y-16779289D01*
X7190865Y-16779289D02*
X7181341Y-16817384D01*
X7181341Y-16817384D02*
X7171818Y-16836431D01*
X7171818Y-16836431D02*
X7162294Y-16845955D01*
X7162294Y-16845955D02*
X7143246Y-16855479D01*
X7143246Y-16855479D02*
X7124199Y-16855479D01*
X7124199Y-16855479D02*
X7105151Y-16845955D01*
X7105151Y-16845955D02*
X7095627Y-16836431D01*
X7095627Y-16836431D02*
X7086103Y-16817384D01*
X7086103Y-16817384D02*
X7076580Y-16779289D01*
X7076580Y-16779289D02*
X7076580Y-16731669D01*
X7076580Y-16731669D02*
X7086103Y-16693574D01*
X7086103Y-16693574D02*
X7095627Y-16674527D01*
X7095627Y-16674527D02*
X7105151Y-16665003D01*
X7105151Y-16665003D02*
X7124199Y-16655479D01*
X7314675Y-16655479D02*
X7333722Y-16655479D01*
X7333722Y-16655479D02*
X7352770Y-16665003D01*
X7352770Y-16665003D02*
X7362294Y-16674527D01*
X7362294Y-16674527D02*
X7371818Y-16693574D01*
X7371818Y-16693574D02*
X7381341Y-16731669D01*
X7381341Y-16731669D02*
X7381341Y-16779289D01*
X7381341Y-16779289D02*
X7371818Y-16817384D01*
X7371818Y-16817384D02*
X7362294Y-16836431D01*
X7362294Y-16836431D02*
X7352770Y-16845955D01*
X7352770Y-16845955D02*
X7333722Y-16855479D01*
X7333722Y-16855479D02*
X7314675Y-16855479D01*
X7314675Y-16855479D02*
X7295627Y-16845955D01*
X7295627Y-16845955D02*
X7286103Y-16836431D01*
X7286103Y-16836431D02*
X7276580Y-16817384D01*
X7276580Y-16817384D02*
X7267056Y-16779289D01*
X7267056Y-16779289D02*
X7267056Y-16731669D01*
X7267056Y-16731669D02*
X7276580Y-16693574D01*
X7276580Y-16693574D02*
X7286103Y-16674527D01*
X7286103Y-16674527D02*
X7295627Y-16665003D01*
X7295627Y-16665003D02*
X7314675Y-16655479D01*
X7467056Y-16855479D02*
X7467056Y-16722146D01*
X7467056Y-16741193D02*
X7476580Y-16731669D01*
X7476580Y-16731669D02*
X7495627Y-16722146D01*
X7495627Y-16722146D02*
X7524199Y-16722146D01*
X7524199Y-16722146D02*
X7543246Y-16731669D01*
X7543246Y-16731669D02*
X7552770Y-16750717D01*
X7552770Y-16750717D02*
X7552770Y-16855479D01*
X7552770Y-16750717D02*
X7562294Y-16731669D01*
X7562294Y-16731669D02*
X7581341Y-16722146D01*
X7581341Y-16722146D02*
X7609913Y-16722146D01*
X7609913Y-16722146D02*
X7628961Y-16731669D01*
X7628961Y-16731669D02*
X7638484Y-16750717D01*
X7638484Y-16750717D02*
X7638484Y-16855479D01*
X7733722Y-16855479D02*
X7733722Y-16722146D01*
X7733722Y-16741193D02*
X7743246Y-16731669D01*
X7743246Y-16731669D02*
X7762294Y-16722146D01*
X7762294Y-16722146D02*
X7790865Y-16722146D01*
X7790865Y-16722146D02*
X7809913Y-16731669D01*
X7809913Y-16731669D02*
X7819437Y-16750717D01*
X7819437Y-16750717D02*
X7819437Y-16855479D01*
X7819437Y-16750717D02*
X7828961Y-16731669D01*
X7828961Y-16731669D02*
X7848008Y-16722146D01*
X7848008Y-16722146D02*
X7876580Y-16722146D01*
X7876580Y-16722146D02*
X7895627Y-16731669D01*
X7895627Y-16731669D02*
X7905151Y-16750717D01*
X7905151Y-16750717D02*
X7905151Y-16855479D01*
X8295627Y-16645955D02*
X8124199Y-16903098D01*
X8552770Y-16655479D02*
X8571818Y-16655479D01*
X8571818Y-16655479D02*
X8590866Y-16665003D01*
X8590866Y-16665003D02*
X8600389Y-16674527D01*
X8600389Y-16674527D02*
X8609913Y-16693574D01*
X8609913Y-16693574D02*
X8619437Y-16731669D01*
X8619437Y-16731669D02*
X8619437Y-16779289D01*
X8619437Y-16779289D02*
X8609913Y-16817384D01*
X8609913Y-16817384D02*
X8600389Y-16836431D01*
X8600389Y-16836431D02*
X8590866Y-16845955D01*
X8590866Y-16845955D02*
X8571818Y-16855479D01*
X8571818Y-16855479D02*
X8552770Y-16855479D01*
X8552770Y-16855479D02*
X8533723Y-16845955D01*
X8533723Y-16845955D02*
X8524199Y-16836431D01*
X8524199Y-16836431D02*
X8514675Y-16817384D01*
X8514675Y-16817384D02*
X8505151Y-16779289D01*
X8505151Y-16779289D02*
X8505151Y-16731669D01*
X8505151Y-16731669D02*
X8514675Y-16693574D01*
X8514675Y-16693574D02*
X8524199Y-16674527D01*
X8524199Y-16674527D02*
X8533723Y-16665003D01*
X8533723Y-16665003D02*
X8552770Y-16655479D01*
X8705151Y-16836431D02*
X8714675Y-16845955D01*
X8714675Y-16845955D02*
X8705151Y-16855479D01*
X8705151Y-16855479D02*
X8695627Y-16845955D01*
X8695627Y-16845955D02*
X8705151Y-16836431D01*
X8705151Y-16836431D02*
X8705151Y-16855479D01*
X8838485Y-16655479D02*
X8857532Y-16655479D01*
X8857532Y-16655479D02*
X8876580Y-16665003D01*
X8876580Y-16665003D02*
X8886104Y-16674527D01*
X8886104Y-16674527D02*
X8895627Y-16693574D01*
X8895627Y-16693574D02*
X8905151Y-16731669D01*
X8905151Y-16731669D02*
X8905151Y-16779289D01*
X8905151Y-16779289D02*
X8895627Y-16817384D01*
X8895627Y-16817384D02*
X8886104Y-16836431D01*
X8886104Y-16836431D02*
X8876580Y-16845955D01*
X8876580Y-16845955D02*
X8857532Y-16855479D01*
X8857532Y-16855479D02*
X8838485Y-16855479D01*
X8838485Y-16855479D02*
X8819437Y-16845955D01*
X8819437Y-16845955D02*
X8809913Y-16836431D01*
X8809913Y-16836431D02*
X8800389Y-16817384D01*
X8800389Y-16817384D02*
X8790866Y-16779289D01*
X8790866Y-16779289D02*
X8790866Y-16731669D01*
X8790866Y-16731669D02*
X8800389Y-16693574D01*
X8800389Y-16693574D02*
X8809913Y-16674527D01*
X8809913Y-16674527D02*
X8819437Y-16665003D01*
X8819437Y-16665003D02*
X8838485Y-16655479D01*
X8971818Y-16655479D02*
X9105151Y-16655479D01*
X9105151Y-16655479D02*
X9019437Y-16855479D01*
X9219437Y-16655479D02*
X9238485Y-16655479D01*
X9238485Y-16655479D02*
X9257532Y-16665003D01*
X9257532Y-16665003D02*
X9267056Y-16674527D01*
X9267056Y-16674527D02*
X9276580Y-16693574D01*
X9276580Y-16693574D02*
X9286104Y-16731669D01*
X9286104Y-16731669D02*
X9286104Y-16779289D01*
X9286104Y-16779289D02*
X9276580Y-16817384D01*
X9276580Y-16817384D02*
X9267056Y-16836431D01*
X9267056Y-16836431D02*
X9257532Y-16845955D01*
X9257532Y-16845955D02*
X9238485Y-16855479D01*
X9238485Y-16855479D02*
X9219437Y-16855479D01*
X9219437Y-16855479D02*
X9200389Y-16845955D01*
X9200389Y-16845955D02*
X9190866Y-16836431D01*
X9190866Y-16836431D02*
X9181342Y-16817384D01*
X9181342Y-16817384D02*
X9171818Y-16779289D01*
X9171818Y-16779289D02*
X9171818Y-16731669D01*
X9171818Y-16731669D02*
X9181342Y-16693574D01*
X9181342Y-16693574D02*
X9190866Y-16674527D01*
X9190866Y-16674527D02*
X9200389Y-16665003D01*
X9200389Y-16665003D02*
X9219437Y-16655479D01*
X9381342Y-16855479D02*
X9419437Y-16855479D01*
X9419437Y-16855479D02*
X9438485Y-16845955D01*
X9438485Y-16845955D02*
X9448008Y-16836431D01*
X9448008Y-16836431D02*
X9467056Y-16807860D01*
X9467056Y-16807860D02*
X9476580Y-16769765D01*
X9476580Y-16769765D02*
X9476580Y-16693574D01*
X9476580Y-16693574D02*
X9467056Y-16674527D01*
X9467056Y-16674527D02*
X9457532Y-16665003D01*
X9457532Y-16665003D02*
X9438485Y-16655479D01*
X9438485Y-16655479D02*
X9400389Y-16655479D01*
X9400389Y-16655479D02*
X9381342Y-16665003D01*
X9381342Y-16665003D02*
X9371818Y-16674527D01*
X9371818Y-16674527D02*
X9362294Y-16693574D01*
X9362294Y-16693574D02*
X9362294Y-16741193D01*
X9362294Y-16741193D02*
X9371818Y-16760241D01*
X9371818Y-16760241D02*
X9381342Y-16769765D01*
X9381342Y-16769765D02*
X9400389Y-16779289D01*
X9400389Y-16779289D02*
X9438485Y-16779289D01*
X9438485Y-16779289D02*
X9457532Y-16769765D01*
X9457532Y-16769765D02*
X9467056Y-16760241D01*
X9467056Y-16760241D02*
X9476580Y-16741193D01*
X9552770Y-16655479D02*
X9552770Y-16693574D01*
X9628961Y-16655479D02*
X9628961Y-16693574D01*
X9924199Y-16931669D02*
X9914675Y-16922146D01*
X9914675Y-16922146D02*
X9895628Y-16893574D01*
X9895628Y-16893574D02*
X9886104Y-16874527D01*
X9886104Y-16874527D02*
X9876580Y-16845955D01*
X9876580Y-16845955D02*
X9867056Y-16798336D01*
X9867056Y-16798336D02*
X9867056Y-16760241D01*
X9867056Y-16760241D02*
X9876580Y-16712622D01*
X9876580Y-16712622D02*
X9886104Y-16684050D01*
X9886104Y-16684050D02*
X9895628Y-16665003D01*
X9895628Y-16665003D02*
X9914675Y-16636431D01*
X9914675Y-16636431D02*
X9924199Y-16626907D01*
X10086104Y-16655479D02*
X10048008Y-16655479D01*
X10048008Y-16655479D02*
X10028961Y-16665003D01*
X10028961Y-16665003D02*
X10019437Y-16674527D01*
X10019437Y-16674527D02*
X10000389Y-16703098D01*
X10000389Y-16703098D02*
X9990866Y-16741193D01*
X9990866Y-16741193D02*
X9990866Y-16817384D01*
X9990866Y-16817384D02*
X10000389Y-16836431D01*
X10000389Y-16836431D02*
X10009913Y-16845955D01*
X10009913Y-16845955D02*
X10028961Y-16855479D01*
X10028961Y-16855479D02*
X10067056Y-16855479D01*
X10067056Y-16855479D02*
X10086104Y-16845955D01*
X10086104Y-16845955D02*
X10095628Y-16836431D01*
X10095628Y-16836431D02*
X10105151Y-16817384D01*
X10105151Y-16817384D02*
X10105151Y-16769765D01*
X10105151Y-16769765D02*
X10095628Y-16750717D01*
X10095628Y-16750717D02*
X10086104Y-16741193D01*
X10086104Y-16741193D02*
X10067056Y-16731669D01*
X10067056Y-16731669D02*
X10028961Y-16731669D01*
X10028961Y-16731669D02*
X10009913Y-16741193D01*
X10009913Y-16741193D02*
X10000389Y-16750717D01*
X10000389Y-16750717D02*
X9990866Y-16769765D01*
X10276580Y-16722146D02*
X10276580Y-16855479D01*
X10228961Y-16645955D02*
X10181342Y-16788812D01*
X10181342Y-16788812D02*
X10305151Y-16788812D01*
X10533723Y-16855479D02*
X10533723Y-16655479D01*
X10619437Y-16855479D02*
X10619437Y-16750717D01*
X10619437Y-16750717D02*
X10609913Y-16731669D01*
X10609913Y-16731669D02*
X10590866Y-16722146D01*
X10590866Y-16722146D02*
X10562294Y-16722146D01*
X10562294Y-16722146D02*
X10543247Y-16731669D01*
X10543247Y-16731669D02*
X10533723Y-16741193D01*
X10743247Y-16855479D02*
X10724199Y-16845955D01*
X10724199Y-16845955D02*
X10714675Y-16836431D01*
X10714675Y-16836431D02*
X10705151Y-16817384D01*
X10705151Y-16817384D02*
X10705151Y-16760241D01*
X10705151Y-16760241D02*
X10714675Y-16741193D01*
X10714675Y-16741193D02*
X10724199Y-16731669D01*
X10724199Y-16731669D02*
X10743247Y-16722146D01*
X10743247Y-16722146D02*
X10771818Y-16722146D01*
X10771818Y-16722146D02*
X10790866Y-16731669D01*
X10790866Y-16731669D02*
X10800390Y-16741193D01*
X10800390Y-16741193D02*
X10809913Y-16760241D01*
X10809913Y-16760241D02*
X10809913Y-16817384D01*
X10809913Y-16817384D02*
X10800390Y-16836431D01*
X10800390Y-16836431D02*
X10790866Y-16845955D01*
X10790866Y-16845955D02*
X10771818Y-16855479D01*
X10771818Y-16855479D02*
X10743247Y-16855479D01*
X10924199Y-16855479D02*
X10905151Y-16845955D01*
X10905151Y-16845955D02*
X10895628Y-16826908D01*
X10895628Y-16826908D02*
X10895628Y-16655479D01*
X11076580Y-16845955D02*
X11057532Y-16855479D01*
X11057532Y-16855479D02*
X11019437Y-16855479D01*
X11019437Y-16855479D02*
X11000390Y-16845955D01*
X11000390Y-16845955D02*
X10990866Y-16826908D01*
X10990866Y-16826908D02*
X10990866Y-16750717D01*
X10990866Y-16750717D02*
X11000390Y-16731669D01*
X11000390Y-16731669D02*
X11019437Y-16722146D01*
X11019437Y-16722146D02*
X11057532Y-16722146D01*
X11057532Y-16722146D02*
X11076580Y-16731669D01*
X11076580Y-16731669D02*
X11086104Y-16750717D01*
X11086104Y-16750717D02*
X11086104Y-16769765D01*
X11086104Y-16769765D02*
X10990866Y-16788812D01*
X11162294Y-16845955D02*
X11181342Y-16855479D01*
X11181342Y-16855479D02*
X11219437Y-16855479D01*
X11219437Y-16855479D02*
X11238485Y-16845955D01*
X11238485Y-16845955D02*
X11248009Y-16826908D01*
X11248009Y-16826908D02*
X11248009Y-16817384D01*
X11248009Y-16817384D02*
X11238485Y-16798336D01*
X11238485Y-16798336D02*
X11219437Y-16788812D01*
X11219437Y-16788812D02*
X11190866Y-16788812D01*
X11190866Y-16788812D02*
X11171818Y-16779289D01*
X11171818Y-16779289D02*
X11162294Y-16760241D01*
X11162294Y-16760241D02*
X11162294Y-16750717D01*
X11162294Y-16750717D02*
X11171818Y-16731669D01*
X11171818Y-16731669D02*
X11190866Y-16722146D01*
X11190866Y-16722146D02*
X11219437Y-16722146D01*
X11219437Y-16722146D02*
X11238485Y-16731669D01*
X11314675Y-16931669D02*
X11324199Y-16922146D01*
X11324199Y-16922146D02*
X11343247Y-16893574D01*
X11343247Y-16893574D02*
X11352770Y-16874527D01*
X11352770Y-16874527D02*
X11362294Y-16845955D01*
X11362294Y-16845955D02*
X11371818Y-16798336D01*
X11371818Y-16798336D02*
X11371818Y-16760241D01*
X11371818Y-16760241D02*
X11362294Y-16712622D01*
X11362294Y-16712622D02*
X11352770Y-16684050D01*
X11352770Y-16684050D02*
X11343247Y-16665003D01*
X11343247Y-16665003D02*
X11324199Y-16636431D01*
X11324199Y-16636431D02*
X11314675Y-16626907D01*
X11676580Y-16931669D02*
X11667056Y-16922146D01*
X11667056Y-16922146D02*
X11648009Y-16893574D01*
X11648009Y-16893574D02*
X11638485Y-16874527D01*
X11638485Y-16874527D02*
X11628961Y-16845955D01*
X11628961Y-16845955D02*
X11619437Y-16798336D01*
X11619437Y-16798336D02*
X11619437Y-16760241D01*
X11619437Y-16760241D02*
X11628961Y-16712622D01*
X11628961Y-16712622D02*
X11638485Y-16684050D01*
X11638485Y-16684050D02*
X11648009Y-16665003D01*
X11648009Y-16665003D02*
X11667056Y-16636431D01*
X11667056Y-16636431D02*
X11676580Y-16626907D01*
X11752770Y-16722146D02*
X11752770Y-16855479D01*
X11752770Y-16741193D02*
X11762294Y-16731669D01*
X11762294Y-16731669D02*
X11781342Y-16722146D01*
X11781342Y-16722146D02*
X11809913Y-16722146D01*
X11809913Y-16722146D02*
X11828961Y-16731669D01*
X11828961Y-16731669D02*
X11838485Y-16750717D01*
X11838485Y-16750717D02*
X11838485Y-16855479D01*
X11962294Y-16855479D02*
X11943247Y-16845955D01*
X11943247Y-16845955D02*
X11933723Y-16836431D01*
X11933723Y-16836431D02*
X11924199Y-16817384D01*
X11924199Y-16817384D02*
X11924199Y-16760241D01*
X11924199Y-16760241D02*
X11933723Y-16741193D01*
X11933723Y-16741193D02*
X11943247Y-16731669D01*
X11943247Y-16731669D02*
X11962294Y-16722146D01*
X11962294Y-16722146D02*
X11990866Y-16722146D01*
X11990866Y-16722146D02*
X12009913Y-16731669D01*
X12009913Y-16731669D02*
X12019437Y-16741193D01*
X12019437Y-16741193D02*
X12028961Y-16760241D01*
X12028961Y-16760241D02*
X12028961Y-16817384D01*
X12028961Y-16817384D02*
X12019437Y-16836431D01*
X12019437Y-16836431D02*
X12009913Y-16845955D01*
X12009913Y-16845955D02*
X11990866Y-16855479D01*
X11990866Y-16855479D02*
X11962294Y-16855479D01*
X12086104Y-16722146D02*
X12162294Y-16722146D01*
X12114675Y-16655479D02*
X12114675Y-16826908D01*
X12114675Y-16826908D02*
X12124199Y-16845955D01*
X12124199Y-16845955D02*
X12143247Y-16855479D01*
X12143247Y-16855479D02*
X12162294Y-16855479D01*
X12381342Y-16722146D02*
X12381342Y-16922146D01*
X12381342Y-16731669D02*
X12400390Y-16722146D01*
X12400390Y-16722146D02*
X12438485Y-16722146D01*
X12438485Y-16722146D02*
X12457532Y-16731669D01*
X12457532Y-16731669D02*
X12467056Y-16741193D01*
X12467056Y-16741193D02*
X12476580Y-16760241D01*
X12476580Y-16760241D02*
X12476580Y-16817384D01*
X12476580Y-16817384D02*
X12467056Y-16836431D01*
X12467056Y-16836431D02*
X12457532Y-16845955D01*
X12457532Y-16845955D02*
X12438485Y-16855479D01*
X12438485Y-16855479D02*
X12400390Y-16855479D01*
X12400390Y-16855479D02*
X12381342Y-16845955D01*
X12590866Y-16855479D02*
X12571818Y-16845955D01*
X12571818Y-16845955D02*
X12562294Y-16826908D01*
X12562294Y-16826908D02*
X12562294Y-16655479D01*
X12752771Y-16855479D02*
X12752771Y-16750717D01*
X12752771Y-16750717D02*
X12743247Y-16731669D01*
X12743247Y-16731669D02*
X12724199Y-16722146D01*
X12724199Y-16722146D02*
X12686104Y-16722146D01*
X12686104Y-16722146D02*
X12667056Y-16731669D01*
X12752771Y-16845955D02*
X12733723Y-16855479D01*
X12733723Y-16855479D02*
X12686104Y-16855479D01*
X12686104Y-16855479D02*
X12667056Y-16845955D01*
X12667056Y-16845955D02*
X12657532Y-16826908D01*
X12657532Y-16826908D02*
X12657532Y-16807860D01*
X12657532Y-16807860D02*
X12667056Y-16788812D01*
X12667056Y-16788812D02*
X12686104Y-16779289D01*
X12686104Y-16779289D02*
X12733723Y-16779289D01*
X12733723Y-16779289D02*
X12752771Y-16769765D01*
X12819437Y-16722146D02*
X12895628Y-16722146D01*
X12848009Y-16655479D02*
X12848009Y-16826908D01*
X12848009Y-16826908D02*
X12857532Y-16845955D01*
X12857532Y-16845955D02*
X12876580Y-16855479D01*
X12876580Y-16855479D02*
X12895628Y-16855479D01*
X13038485Y-16845955D02*
X13019437Y-16855479D01*
X13019437Y-16855479D02*
X12981342Y-16855479D01*
X12981342Y-16855479D02*
X12962294Y-16845955D01*
X12962294Y-16845955D02*
X12952771Y-16826908D01*
X12952771Y-16826908D02*
X12952771Y-16750717D01*
X12952771Y-16750717D02*
X12962294Y-16731669D01*
X12962294Y-16731669D02*
X12981342Y-16722146D01*
X12981342Y-16722146D02*
X13019437Y-16722146D01*
X13019437Y-16722146D02*
X13038485Y-16731669D01*
X13038485Y-16731669D02*
X13048009Y-16750717D01*
X13048009Y-16750717D02*
X13048009Y-16769765D01*
X13048009Y-16769765D02*
X12952771Y-16788812D01*
X13219437Y-16855479D02*
X13219437Y-16655479D01*
X13219437Y-16845955D02*
X13200390Y-16855479D01*
X13200390Y-16855479D02*
X13162294Y-16855479D01*
X13162294Y-16855479D02*
X13143247Y-16845955D01*
X13143247Y-16845955D02*
X13133723Y-16836431D01*
X13133723Y-16836431D02*
X13124199Y-16817384D01*
X13124199Y-16817384D02*
X13124199Y-16760241D01*
X13124199Y-16760241D02*
X13133723Y-16741193D01*
X13133723Y-16741193D02*
X13143247Y-16731669D01*
X13143247Y-16731669D02*
X13162294Y-16722146D01*
X13162294Y-16722146D02*
X13200390Y-16722146D01*
X13200390Y-16722146D02*
X13219437Y-16731669D01*
X13295628Y-16931669D02*
X13305152Y-16922146D01*
X13305152Y-16922146D02*
X13324199Y-16893574D01*
X13324199Y-16893574D02*
X13333723Y-16874527D01*
X13333723Y-16874527D02*
X13343247Y-16845955D01*
X13343247Y-16845955D02*
X13352771Y-16798336D01*
X13352771Y-16798336D02*
X13352771Y-16760241D01*
X13352771Y-16760241D02*
X13343247Y-16712622D01*
X13343247Y-16712622D02*
X13333723Y-16684050D01*
X13333723Y-16684050D02*
X13324199Y-16665003D01*
X13324199Y-16665003D02*
X13305152Y-16636431D01*
X13305152Y-16636431D02*
X13295628Y-16626907D01*
X6319847Y-17134707D02*
X6319847Y-16993284D01*
X6178425Y-16993284D01*
X6178425Y-17134707D01*
X6319847Y-17134707D01*
X6590865Y-16955479D02*
X6714675Y-16955479D01*
X6714675Y-16955479D02*
X6648008Y-17031669D01*
X6648008Y-17031669D02*
X6676580Y-17031669D01*
X6676580Y-17031669D02*
X6695627Y-17041193D01*
X6695627Y-17041193D02*
X6705151Y-17050717D01*
X6705151Y-17050717D02*
X6714675Y-17069765D01*
X6714675Y-17069765D02*
X6714675Y-17117384D01*
X6714675Y-17117384D02*
X6705151Y-17136431D01*
X6705151Y-17136431D02*
X6695627Y-17145955D01*
X6695627Y-17145955D02*
X6676580Y-17155479D01*
X6676580Y-17155479D02*
X6619437Y-17155479D01*
X6619437Y-17155479D02*
X6600389Y-17145955D01*
X6600389Y-17145955D02*
X6590865Y-17136431D01*
X6800389Y-17136431D02*
X6809913Y-17145955D01*
X6809913Y-17145955D02*
X6800389Y-17155479D01*
X6800389Y-17155479D02*
X6790865Y-17145955D01*
X6790865Y-17145955D02*
X6800389Y-17136431D01*
X6800389Y-17136431D02*
X6800389Y-17155479D01*
X6933722Y-16955479D02*
X6952770Y-16955479D01*
X6952770Y-16955479D02*
X6971818Y-16965003D01*
X6971818Y-16965003D02*
X6981341Y-16974527D01*
X6981341Y-16974527D02*
X6990865Y-16993574D01*
X6990865Y-16993574D02*
X7000389Y-17031669D01*
X7000389Y-17031669D02*
X7000389Y-17079289D01*
X7000389Y-17079289D02*
X6990865Y-17117384D01*
X6990865Y-17117384D02*
X6981341Y-17136431D01*
X6981341Y-17136431D02*
X6971818Y-17145955D01*
X6971818Y-17145955D02*
X6952770Y-17155479D01*
X6952770Y-17155479D02*
X6933722Y-17155479D01*
X6933722Y-17155479D02*
X6914675Y-17145955D01*
X6914675Y-17145955D02*
X6905151Y-17136431D01*
X6905151Y-17136431D02*
X6895627Y-17117384D01*
X6895627Y-17117384D02*
X6886103Y-17079289D01*
X6886103Y-17079289D02*
X6886103Y-17031669D01*
X6886103Y-17031669D02*
X6895627Y-16993574D01*
X6895627Y-16993574D02*
X6905151Y-16974527D01*
X6905151Y-16974527D02*
X6914675Y-16965003D01*
X6914675Y-16965003D02*
X6933722Y-16955479D01*
X7124199Y-16955479D02*
X7143246Y-16955479D01*
X7143246Y-16955479D02*
X7162294Y-16965003D01*
X7162294Y-16965003D02*
X7171818Y-16974527D01*
X7171818Y-16974527D02*
X7181341Y-16993574D01*
X7181341Y-16993574D02*
X7190865Y-17031669D01*
X7190865Y-17031669D02*
X7190865Y-17079289D01*
X7190865Y-17079289D02*
X7181341Y-17117384D01*
X7181341Y-17117384D02*
X7171818Y-17136431D01*
X7171818Y-17136431D02*
X7162294Y-17145955D01*
X7162294Y-17145955D02*
X7143246Y-17155479D01*
X7143246Y-17155479D02*
X7124199Y-17155479D01*
X7124199Y-17155479D02*
X7105151Y-17145955D01*
X7105151Y-17145955D02*
X7095627Y-17136431D01*
X7095627Y-17136431D02*
X7086103Y-17117384D01*
X7086103Y-17117384D02*
X7076580Y-17079289D01*
X7076580Y-17079289D02*
X7076580Y-17031669D01*
X7076580Y-17031669D02*
X7086103Y-16993574D01*
X7086103Y-16993574D02*
X7095627Y-16974527D01*
X7095627Y-16974527D02*
X7105151Y-16965003D01*
X7105151Y-16965003D02*
X7124199Y-16955479D01*
X7314675Y-16955479D02*
X7333722Y-16955479D01*
X7333722Y-16955479D02*
X7352770Y-16965003D01*
X7352770Y-16965003D02*
X7362294Y-16974527D01*
X7362294Y-16974527D02*
X7371818Y-16993574D01*
X7371818Y-16993574D02*
X7381341Y-17031669D01*
X7381341Y-17031669D02*
X7381341Y-17079289D01*
X7381341Y-17079289D02*
X7371818Y-17117384D01*
X7371818Y-17117384D02*
X7362294Y-17136431D01*
X7362294Y-17136431D02*
X7352770Y-17145955D01*
X7352770Y-17145955D02*
X7333722Y-17155479D01*
X7333722Y-17155479D02*
X7314675Y-17155479D01*
X7314675Y-17155479D02*
X7295627Y-17145955D01*
X7295627Y-17145955D02*
X7286103Y-17136431D01*
X7286103Y-17136431D02*
X7276580Y-17117384D01*
X7276580Y-17117384D02*
X7267056Y-17079289D01*
X7267056Y-17079289D02*
X7267056Y-17031669D01*
X7267056Y-17031669D02*
X7276580Y-16993574D01*
X7276580Y-16993574D02*
X7286103Y-16974527D01*
X7286103Y-16974527D02*
X7295627Y-16965003D01*
X7295627Y-16965003D02*
X7314675Y-16955479D01*
X7467056Y-17155479D02*
X7467056Y-17022146D01*
X7467056Y-17041193D02*
X7476580Y-17031669D01*
X7476580Y-17031669D02*
X7495627Y-17022146D01*
X7495627Y-17022146D02*
X7524199Y-17022146D01*
X7524199Y-17022146D02*
X7543246Y-17031669D01*
X7543246Y-17031669D02*
X7552770Y-17050717D01*
X7552770Y-17050717D02*
X7552770Y-17155479D01*
X7552770Y-17050717D02*
X7562294Y-17031669D01*
X7562294Y-17031669D02*
X7581341Y-17022146D01*
X7581341Y-17022146D02*
X7609913Y-17022146D01*
X7609913Y-17022146D02*
X7628961Y-17031669D01*
X7628961Y-17031669D02*
X7638484Y-17050717D01*
X7638484Y-17050717D02*
X7638484Y-17155479D01*
X7733722Y-17155479D02*
X7733722Y-17022146D01*
X7733722Y-17041193D02*
X7743246Y-17031669D01*
X7743246Y-17031669D02*
X7762294Y-17022146D01*
X7762294Y-17022146D02*
X7790865Y-17022146D01*
X7790865Y-17022146D02*
X7809913Y-17031669D01*
X7809913Y-17031669D02*
X7819437Y-17050717D01*
X7819437Y-17050717D02*
X7819437Y-17155479D01*
X7819437Y-17050717D02*
X7828961Y-17031669D01*
X7828961Y-17031669D02*
X7848008Y-17022146D01*
X7848008Y-17022146D02*
X7876580Y-17022146D01*
X7876580Y-17022146D02*
X7895627Y-17031669D01*
X7895627Y-17031669D02*
X7905151Y-17050717D01*
X7905151Y-17050717D02*
X7905151Y-17155479D01*
X8295627Y-16945955D02*
X8124199Y-17203098D01*
X8552770Y-16955479D02*
X8571818Y-16955479D01*
X8571818Y-16955479D02*
X8590866Y-16965003D01*
X8590866Y-16965003D02*
X8600389Y-16974527D01*
X8600389Y-16974527D02*
X8609913Y-16993574D01*
X8609913Y-16993574D02*
X8619437Y-17031669D01*
X8619437Y-17031669D02*
X8619437Y-17079289D01*
X8619437Y-17079289D02*
X8609913Y-17117384D01*
X8609913Y-17117384D02*
X8600389Y-17136431D01*
X8600389Y-17136431D02*
X8590866Y-17145955D01*
X8590866Y-17145955D02*
X8571818Y-17155479D01*
X8571818Y-17155479D02*
X8552770Y-17155479D01*
X8552770Y-17155479D02*
X8533723Y-17145955D01*
X8533723Y-17145955D02*
X8524199Y-17136431D01*
X8524199Y-17136431D02*
X8514675Y-17117384D01*
X8514675Y-17117384D02*
X8505151Y-17079289D01*
X8505151Y-17079289D02*
X8505151Y-17031669D01*
X8505151Y-17031669D02*
X8514675Y-16993574D01*
X8514675Y-16993574D02*
X8524199Y-16974527D01*
X8524199Y-16974527D02*
X8533723Y-16965003D01*
X8533723Y-16965003D02*
X8552770Y-16955479D01*
X8705151Y-17136431D02*
X8714675Y-17145955D01*
X8714675Y-17145955D02*
X8705151Y-17155479D01*
X8705151Y-17155479D02*
X8695627Y-17145955D01*
X8695627Y-17145955D02*
X8705151Y-17136431D01*
X8705151Y-17136431D02*
X8705151Y-17155479D01*
X8905151Y-17155479D02*
X8790866Y-17155479D01*
X8848008Y-17155479D02*
X8848008Y-16955479D01*
X8848008Y-16955479D02*
X8828961Y-16984050D01*
X8828961Y-16984050D02*
X8809913Y-17003098D01*
X8809913Y-17003098D02*
X8790866Y-17012622D01*
X9095627Y-17155479D02*
X8981342Y-17155479D01*
X9038485Y-17155479D02*
X9038485Y-16955479D01*
X9038485Y-16955479D02*
X9019437Y-16984050D01*
X9019437Y-16984050D02*
X9000389Y-17003098D01*
X9000389Y-17003098D02*
X8981342Y-17012622D01*
X9209913Y-17041193D02*
X9190866Y-17031669D01*
X9190866Y-17031669D02*
X9181342Y-17022146D01*
X9181342Y-17022146D02*
X9171818Y-17003098D01*
X9171818Y-17003098D02*
X9171818Y-16993574D01*
X9171818Y-16993574D02*
X9181342Y-16974527D01*
X9181342Y-16974527D02*
X9190866Y-16965003D01*
X9190866Y-16965003D02*
X9209913Y-16955479D01*
X9209913Y-16955479D02*
X9248008Y-16955479D01*
X9248008Y-16955479D02*
X9267056Y-16965003D01*
X9267056Y-16965003D02*
X9276580Y-16974527D01*
X9276580Y-16974527D02*
X9286104Y-16993574D01*
X9286104Y-16993574D02*
X9286104Y-17003098D01*
X9286104Y-17003098D02*
X9276580Y-17022146D01*
X9276580Y-17022146D02*
X9267056Y-17031669D01*
X9267056Y-17031669D02*
X9248008Y-17041193D01*
X9248008Y-17041193D02*
X9209913Y-17041193D01*
X9209913Y-17041193D02*
X9190866Y-17050717D01*
X9190866Y-17050717D02*
X9181342Y-17060241D01*
X9181342Y-17060241D02*
X9171818Y-17079289D01*
X9171818Y-17079289D02*
X9171818Y-17117384D01*
X9171818Y-17117384D02*
X9181342Y-17136431D01*
X9181342Y-17136431D02*
X9190866Y-17145955D01*
X9190866Y-17145955D02*
X9209913Y-17155479D01*
X9209913Y-17155479D02*
X9248008Y-17155479D01*
X9248008Y-17155479D02*
X9267056Y-17145955D01*
X9267056Y-17145955D02*
X9276580Y-17136431D01*
X9276580Y-17136431D02*
X9286104Y-17117384D01*
X9286104Y-17117384D02*
X9286104Y-17079289D01*
X9286104Y-17079289D02*
X9276580Y-17060241D01*
X9276580Y-17060241D02*
X9267056Y-17050717D01*
X9267056Y-17050717D02*
X9248008Y-17041193D01*
X9476580Y-17155479D02*
X9362294Y-17155479D01*
X9419437Y-17155479D02*
X9419437Y-16955479D01*
X9419437Y-16955479D02*
X9400389Y-16984050D01*
X9400389Y-16984050D02*
X9381342Y-17003098D01*
X9381342Y-17003098D02*
X9362294Y-17012622D01*
X9552770Y-16955479D02*
X9552770Y-16993574D01*
X9628961Y-16955479D02*
X9628961Y-16993574D01*
X9924199Y-17231669D02*
X9914675Y-17222146D01*
X9914675Y-17222146D02*
X9895628Y-17193574D01*
X9895628Y-17193574D02*
X9886104Y-17174527D01*
X9886104Y-17174527D02*
X9876580Y-17145955D01*
X9876580Y-17145955D02*
X9867056Y-17098336D01*
X9867056Y-17098336D02*
X9867056Y-17060241D01*
X9867056Y-17060241D02*
X9876580Y-17012622D01*
X9876580Y-17012622D02*
X9886104Y-16984050D01*
X9886104Y-16984050D02*
X9895628Y-16965003D01*
X9895628Y-16965003D02*
X9914675Y-16936431D01*
X9914675Y-16936431D02*
X9924199Y-16926908D01*
X10009913Y-17155479D02*
X10048008Y-17155479D01*
X10048008Y-17155479D02*
X10067056Y-17145955D01*
X10067056Y-17145955D02*
X10076580Y-17136431D01*
X10076580Y-17136431D02*
X10095628Y-17107860D01*
X10095628Y-17107860D02*
X10105151Y-17069765D01*
X10105151Y-17069765D02*
X10105151Y-16993574D01*
X10105151Y-16993574D02*
X10095628Y-16974527D01*
X10095628Y-16974527D02*
X10086104Y-16965003D01*
X10086104Y-16965003D02*
X10067056Y-16955479D01*
X10067056Y-16955479D02*
X10028961Y-16955479D01*
X10028961Y-16955479D02*
X10009913Y-16965003D01*
X10009913Y-16965003D02*
X10000389Y-16974527D01*
X10000389Y-16974527D02*
X9990866Y-16993574D01*
X9990866Y-16993574D02*
X9990866Y-17041193D01*
X9990866Y-17041193D02*
X10000389Y-17060241D01*
X10000389Y-17060241D02*
X10009913Y-17069765D01*
X10009913Y-17069765D02*
X10028961Y-17079289D01*
X10028961Y-17079289D02*
X10067056Y-17079289D01*
X10067056Y-17079289D02*
X10086104Y-17069765D01*
X10086104Y-17069765D02*
X10095628Y-17060241D01*
X10095628Y-17060241D02*
X10105151Y-17041193D01*
X10276580Y-16955479D02*
X10238485Y-16955479D01*
X10238485Y-16955479D02*
X10219437Y-16965003D01*
X10219437Y-16965003D02*
X10209913Y-16974527D01*
X10209913Y-16974527D02*
X10190866Y-17003098D01*
X10190866Y-17003098D02*
X10181342Y-17041193D01*
X10181342Y-17041193D02*
X10181342Y-17117384D01*
X10181342Y-17117384D02*
X10190866Y-17136431D01*
X10190866Y-17136431D02*
X10200389Y-17145955D01*
X10200389Y-17145955D02*
X10219437Y-17155479D01*
X10219437Y-17155479D02*
X10257532Y-17155479D01*
X10257532Y-17155479D02*
X10276580Y-17145955D01*
X10276580Y-17145955D02*
X10286104Y-17136431D01*
X10286104Y-17136431D02*
X10295628Y-17117384D01*
X10295628Y-17117384D02*
X10295628Y-17069765D01*
X10295628Y-17069765D02*
X10286104Y-17050717D01*
X10286104Y-17050717D02*
X10276580Y-17041193D01*
X10276580Y-17041193D02*
X10257532Y-17031669D01*
X10257532Y-17031669D02*
X10219437Y-17031669D01*
X10219437Y-17031669D02*
X10200389Y-17041193D01*
X10200389Y-17041193D02*
X10190866Y-17050717D01*
X10190866Y-17050717D02*
X10181342Y-17069765D01*
X10533723Y-17155479D02*
X10533723Y-16955479D01*
X10619437Y-17155479D02*
X10619437Y-17050717D01*
X10619437Y-17050717D02*
X10609913Y-17031669D01*
X10609913Y-17031669D02*
X10590866Y-17022146D01*
X10590866Y-17022146D02*
X10562294Y-17022146D01*
X10562294Y-17022146D02*
X10543247Y-17031669D01*
X10543247Y-17031669D02*
X10533723Y-17041193D01*
X10743247Y-17155479D02*
X10724199Y-17145955D01*
X10724199Y-17145955D02*
X10714675Y-17136431D01*
X10714675Y-17136431D02*
X10705151Y-17117384D01*
X10705151Y-17117384D02*
X10705151Y-17060241D01*
X10705151Y-17060241D02*
X10714675Y-17041193D01*
X10714675Y-17041193D02*
X10724199Y-17031669D01*
X10724199Y-17031669D02*
X10743247Y-17022146D01*
X10743247Y-17022146D02*
X10771818Y-17022146D01*
X10771818Y-17022146D02*
X10790866Y-17031669D01*
X10790866Y-17031669D02*
X10800390Y-17041193D01*
X10800390Y-17041193D02*
X10809913Y-17060241D01*
X10809913Y-17060241D02*
X10809913Y-17117384D01*
X10809913Y-17117384D02*
X10800390Y-17136431D01*
X10800390Y-17136431D02*
X10790866Y-17145955D01*
X10790866Y-17145955D02*
X10771818Y-17155479D01*
X10771818Y-17155479D02*
X10743247Y-17155479D01*
X10924199Y-17155479D02*
X10905151Y-17145955D01*
X10905151Y-17145955D02*
X10895628Y-17126908D01*
X10895628Y-17126908D02*
X10895628Y-16955479D01*
X11076580Y-17145955D02*
X11057532Y-17155479D01*
X11057532Y-17155479D02*
X11019437Y-17155479D01*
X11019437Y-17155479D02*
X11000390Y-17145955D01*
X11000390Y-17145955D02*
X10990866Y-17126908D01*
X10990866Y-17126908D02*
X10990866Y-17050717D01*
X10990866Y-17050717D02*
X11000390Y-17031669D01*
X11000390Y-17031669D02*
X11019437Y-17022146D01*
X11019437Y-17022146D02*
X11057532Y-17022146D01*
X11057532Y-17022146D02*
X11076580Y-17031669D01*
X11076580Y-17031669D02*
X11086104Y-17050717D01*
X11086104Y-17050717D02*
X11086104Y-17069765D01*
X11086104Y-17069765D02*
X10990866Y-17088812D01*
X11162294Y-17145955D02*
X11181342Y-17155479D01*
X11181342Y-17155479D02*
X11219437Y-17155479D01*
X11219437Y-17155479D02*
X11238485Y-17145955D01*
X11238485Y-17145955D02*
X11248009Y-17126908D01*
X11248009Y-17126908D02*
X11248009Y-17117384D01*
X11248009Y-17117384D02*
X11238485Y-17098336D01*
X11238485Y-17098336D02*
X11219437Y-17088812D01*
X11219437Y-17088812D02*
X11190866Y-17088812D01*
X11190866Y-17088812D02*
X11171818Y-17079289D01*
X11171818Y-17079289D02*
X11162294Y-17060241D01*
X11162294Y-17060241D02*
X11162294Y-17050717D01*
X11162294Y-17050717D02*
X11171818Y-17031669D01*
X11171818Y-17031669D02*
X11190866Y-17022146D01*
X11190866Y-17022146D02*
X11219437Y-17022146D01*
X11219437Y-17022146D02*
X11238485Y-17031669D01*
X11314675Y-17231669D02*
X11324199Y-17222146D01*
X11324199Y-17222146D02*
X11343247Y-17193574D01*
X11343247Y-17193574D02*
X11352770Y-17174527D01*
X11352770Y-17174527D02*
X11362294Y-17145955D01*
X11362294Y-17145955D02*
X11371818Y-17098336D01*
X11371818Y-17098336D02*
X11371818Y-17060241D01*
X11371818Y-17060241D02*
X11362294Y-17012622D01*
X11362294Y-17012622D02*
X11352770Y-16984050D01*
X11352770Y-16984050D02*
X11343247Y-16965003D01*
X11343247Y-16965003D02*
X11324199Y-16936431D01*
X11324199Y-16936431D02*
X11314675Y-16926908D01*
X11676580Y-17231669D02*
X11667056Y-17222146D01*
X11667056Y-17222146D02*
X11648009Y-17193574D01*
X11648009Y-17193574D02*
X11638485Y-17174527D01*
X11638485Y-17174527D02*
X11628961Y-17145955D01*
X11628961Y-17145955D02*
X11619437Y-17098336D01*
X11619437Y-17098336D02*
X11619437Y-17060241D01*
X11619437Y-17060241D02*
X11628961Y-17012622D01*
X11628961Y-17012622D02*
X11638485Y-16984050D01*
X11638485Y-16984050D02*
X11648009Y-16965003D01*
X11648009Y-16965003D02*
X11667056Y-16936431D01*
X11667056Y-16936431D02*
X11676580Y-16926908D01*
X11752770Y-17022146D02*
X11752770Y-17155479D01*
X11752770Y-17041193D02*
X11762294Y-17031669D01*
X11762294Y-17031669D02*
X11781342Y-17022146D01*
X11781342Y-17022146D02*
X11809913Y-17022146D01*
X11809913Y-17022146D02*
X11828961Y-17031669D01*
X11828961Y-17031669D02*
X11838485Y-17050717D01*
X11838485Y-17050717D02*
X11838485Y-17155479D01*
X11962294Y-17155479D02*
X11943247Y-17145955D01*
X11943247Y-17145955D02*
X11933723Y-17136431D01*
X11933723Y-17136431D02*
X11924199Y-17117384D01*
X11924199Y-17117384D02*
X11924199Y-17060241D01*
X11924199Y-17060241D02*
X11933723Y-17041193D01*
X11933723Y-17041193D02*
X11943247Y-17031669D01*
X11943247Y-17031669D02*
X11962294Y-17022146D01*
X11962294Y-17022146D02*
X11990866Y-17022146D01*
X11990866Y-17022146D02*
X12009913Y-17031669D01*
X12009913Y-17031669D02*
X12019437Y-17041193D01*
X12019437Y-17041193D02*
X12028961Y-17060241D01*
X12028961Y-17060241D02*
X12028961Y-17117384D01*
X12028961Y-17117384D02*
X12019437Y-17136431D01*
X12019437Y-17136431D02*
X12009913Y-17145955D01*
X12009913Y-17145955D02*
X11990866Y-17155479D01*
X11990866Y-17155479D02*
X11962294Y-17155479D01*
X12086104Y-17022146D02*
X12162294Y-17022146D01*
X12114675Y-16955479D02*
X12114675Y-17126908D01*
X12114675Y-17126908D02*
X12124199Y-17145955D01*
X12124199Y-17145955D02*
X12143247Y-17155479D01*
X12143247Y-17155479D02*
X12162294Y-17155479D01*
X12381342Y-17022146D02*
X12381342Y-17222146D01*
X12381342Y-17031669D02*
X12400390Y-17022146D01*
X12400390Y-17022146D02*
X12438485Y-17022146D01*
X12438485Y-17022146D02*
X12457532Y-17031669D01*
X12457532Y-17031669D02*
X12467056Y-17041193D01*
X12467056Y-17041193D02*
X12476580Y-17060241D01*
X12476580Y-17060241D02*
X12476580Y-17117384D01*
X12476580Y-17117384D02*
X12467056Y-17136431D01*
X12467056Y-17136431D02*
X12457532Y-17145955D01*
X12457532Y-17145955D02*
X12438485Y-17155479D01*
X12438485Y-17155479D02*
X12400390Y-17155479D01*
X12400390Y-17155479D02*
X12381342Y-17145955D01*
X12590866Y-17155479D02*
X12571818Y-17145955D01*
X12571818Y-17145955D02*
X12562294Y-17126908D01*
X12562294Y-17126908D02*
X12562294Y-16955479D01*
X12752771Y-17155479D02*
X12752771Y-17050717D01*
X12752771Y-17050717D02*
X12743247Y-17031669D01*
X12743247Y-17031669D02*
X12724199Y-17022146D01*
X12724199Y-17022146D02*
X12686104Y-17022146D01*
X12686104Y-17022146D02*
X12667056Y-17031669D01*
X12752771Y-17145955D02*
X12733723Y-17155479D01*
X12733723Y-17155479D02*
X12686104Y-17155479D01*
X12686104Y-17155479D02*
X12667056Y-17145955D01*
X12667056Y-17145955D02*
X12657532Y-17126908D01*
X12657532Y-17126908D02*
X12657532Y-17107860D01*
X12657532Y-17107860D02*
X12667056Y-17088812D01*
X12667056Y-17088812D02*
X12686104Y-17079289D01*
X12686104Y-17079289D02*
X12733723Y-17079289D01*
X12733723Y-17079289D02*
X12752771Y-17069765D01*
X12819437Y-17022146D02*
X12895628Y-17022146D01*
X12848009Y-16955479D02*
X12848009Y-17126908D01*
X12848009Y-17126908D02*
X12857532Y-17145955D01*
X12857532Y-17145955D02*
X12876580Y-17155479D01*
X12876580Y-17155479D02*
X12895628Y-17155479D01*
X13038485Y-17145955D02*
X13019437Y-17155479D01*
X13019437Y-17155479D02*
X12981342Y-17155479D01*
X12981342Y-17155479D02*
X12962294Y-17145955D01*
X12962294Y-17145955D02*
X12952771Y-17126908D01*
X12952771Y-17126908D02*
X12952771Y-17050717D01*
X12952771Y-17050717D02*
X12962294Y-17031669D01*
X12962294Y-17031669D02*
X12981342Y-17022146D01*
X12981342Y-17022146D02*
X13019437Y-17022146D01*
X13019437Y-17022146D02*
X13038485Y-17031669D01*
X13038485Y-17031669D02*
X13048009Y-17050717D01*
X13048009Y-17050717D02*
X13048009Y-17069765D01*
X13048009Y-17069765D02*
X12952771Y-17088812D01*
X13219437Y-17155479D02*
X13219437Y-16955479D01*
X13219437Y-17145955D02*
X13200390Y-17155479D01*
X13200390Y-17155479D02*
X13162294Y-17155479D01*
X13162294Y-17155479D02*
X13143247Y-17145955D01*
X13143247Y-17145955D02*
X13133723Y-17136431D01*
X13133723Y-17136431D02*
X13124199Y-17117384D01*
X13124199Y-17117384D02*
X13124199Y-17060241D01*
X13124199Y-17060241D02*
X13133723Y-17041193D01*
X13133723Y-17041193D02*
X13143247Y-17031669D01*
X13143247Y-17031669D02*
X13162294Y-17022146D01*
X13162294Y-17022146D02*
X13200390Y-17022146D01*
X13200390Y-17022146D02*
X13219437Y-17031669D01*
X13295628Y-17231669D02*
X13305152Y-17222146D01*
X13305152Y-17222146D02*
X13324199Y-17193574D01*
X13324199Y-17193574D02*
X13333723Y-17174527D01*
X13333723Y-17174527D02*
X13343247Y-17145955D01*
X13343247Y-17145955D02*
X13352771Y-17098336D01*
X13352771Y-17098336D02*
X13352771Y-17060241D01*
X13352771Y-17060241D02*
X13343247Y-17012622D01*
X13343247Y-17012622D02*
X13333723Y-16984050D01*
X13333723Y-16984050D02*
X13324199Y-16965003D01*
X13324199Y-16965003D02*
X13305152Y-16936431D01*
X13305152Y-16936431D02*
X13295628Y-16926908D01*
X6249136Y-17483995D02*
X6349136Y-17383995D01*
X6249136Y-17283995D01*
X6149136Y-17383995D01*
X6249136Y-17483995D01*
X6590865Y-17275479D02*
X6714675Y-17275479D01*
X6714675Y-17275479D02*
X6648008Y-17351669D01*
X6648008Y-17351669D02*
X6676580Y-17351669D01*
X6676580Y-17351669D02*
X6695627Y-17361193D01*
X6695627Y-17361193D02*
X6705151Y-17370717D01*
X6705151Y-17370717D02*
X6714675Y-17389765D01*
X6714675Y-17389765D02*
X6714675Y-17437384D01*
X6714675Y-17437384D02*
X6705151Y-17456431D01*
X6705151Y-17456431D02*
X6695627Y-17465955D01*
X6695627Y-17465955D02*
X6676580Y-17475479D01*
X6676580Y-17475479D02*
X6619437Y-17475479D01*
X6619437Y-17475479D02*
X6600389Y-17465955D01*
X6600389Y-17465955D02*
X6590865Y-17456431D01*
X6800389Y-17456431D02*
X6809913Y-17465955D01*
X6809913Y-17465955D02*
X6800389Y-17475479D01*
X6800389Y-17475479D02*
X6790865Y-17465955D01*
X6790865Y-17465955D02*
X6800389Y-17456431D01*
X6800389Y-17456431D02*
X6800389Y-17475479D01*
X6981341Y-17342146D02*
X6981341Y-17475479D01*
X6933722Y-17265955D02*
X6886103Y-17408812D01*
X6886103Y-17408812D02*
X7009913Y-17408812D01*
X7124199Y-17275479D02*
X7143246Y-17275479D01*
X7143246Y-17275479D02*
X7162294Y-17285003D01*
X7162294Y-17285003D02*
X7171818Y-17294527D01*
X7171818Y-17294527D02*
X7181341Y-17313574D01*
X7181341Y-17313574D02*
X7190865Y-17351669D01*
X7190865Y-17351669D02*
X7190865Y-17399289D01*
X7190865Y-17399289D02*
X7181341Y-17437384D01*
X7181341Y-17437384D02*
X7171818Y-17456431D01*
X7171818Y-17456431D02*
X7162294Y-17465955D01*
X7162294Y-17465955D02*
X7143246Y-17475479D01*
X7143246Y-17475479D02*
X7124199Y-17475479D01*
X7124199Y-17475479D02*
X7105151Y-17465955D01*
X7105151Y-17465955D02*
X7095627Y-17456431D01*
X7095627Y-17456431D02*
X7086103Y-17437384D01*
X7086103Y-17437384D02*
X7076580Y-17399289D01*
X7076580Y-17399289D02*
X7076580Y-17351669D01*
X7076580Y-17351669D02*
X7086103Y-17313574D01*
X7086103Y-17313574D02*
X7095627Y-17294527D01*
X7095627Y-17294527D02*
X7105151Y-17285003D01*
X7105151Y-17285003D02*
X7124199Y-17275479D01*
X7314675Y-17275479D02*
X7333722Y-17275479D01*
X7333722Y-17275479D02*
X7352770Y-17285003D01*
X7352770Y-17285003D02*
X7362294Y-17294527D01*
X7362294Y-17294527D02*
X7371818Y-17313574D01*
X7371818Y-17313574D02*
X7381341Y-17351669D01*
X7381341Y-17351669D02*
X7381341Y-17399289D01*
X7381341Y-17399289D02*
X7371818Y-17437384D01*
X7371818Y-17437384D02*
X7362294Y-17456431D01*
X7362294Y-17456431D02*
X7352770Y-17465955D01*
X7352770Y-17465955D02*
X7333722Y-17475479D01*
X7333722Y-17475479D02*
X7314675Y-17475479D01*
X7314675Y-17475479D02*
X7295627Y-17465955D01*
X7295627Y-17465955D02*
X7286103Y-17456431D01*
X7286103Y-17456431D02*
X7276580Y-17437384D01*
X7276580Y-17437384D02*
X7267056Y-17399289D01*
X7267056Y-17399289D02*
X7267056Y-17351669D01*
X7267056Y-17351669D02*
X7276580Y-17313574D01*
X7276580Y-17313574D02*
X7286103Y-17294527D01*
X7286103Y-17294527D02*
X7295627Y-17285003D01*
X7295627Y-17285003D02*
X7314675Y-17275479D01*
X7467056Y-17475479D02*
X7467056Y-17342146D01*
X7467056Y-17361193D02*
X7476580Y-17351669D01*
X7476580Y-17351669D02*
X7495627Y-17342146D01*
X7495627Y-17342146D02*
X7524199Y-17342146D01*
X7524199Y-17342146D02*
X7543246Y-17351669D01*
X7543246Y-17351669D02*
X7552770Y-17370717D01*
X7552770Y-17370717D02*
X7552770Y-17475479D01*
X7552770Y-17370717D02*
X7562294Y-17351669D01*
X7562294Y-17351669D02*
X7581341Y-17342146D01*
X7581341Y-17342146D02*
X7609913Y-17342146D01*
X7609913Y-17342146D02*
X7628961Y-17351669D01*
X7628961Y-17351669D02*
X7638484Y-17370717D01*
X7638484Y-17370717D02*
X7638484Y-17475479D01*
X7733722Y-17475479D02*
X7733722Y-17342146D01*
X7733722Y-17361193D02*
X7743246Y-17351669D01*
X7743246Y-17351669D02*
X7762294Y-17342146D01*
X7762294Y-17342146D02*
X7790865Y-17342146D01*
X7790865Y-17342146D02*
X7809913Y-17351669D01*
X7809913Y-17351669D02*
X7819437Y-17370717D01*
X7819437Y-17370717D02*
X7819437Y-17475479D01*
X7819437Y-17370717D02*
X7828961Y-17351669D01*
X7828961Y-17351669D02*
X7848008Y-17342146D01*
X7848008Y-17342146D02*
X7876580Y-17342146D01*
X7876580Y-17342146D02*
X7895627Y-17351669D01*
X7895627Y-17351669D02*
X7905151Y-17370717D01*
X7905151Y-17370717D02*
X7905151Y-17475479D01*
X8295627Y-17265955D02*
X8124199Y-17523098D01*
X8552770Y-17275479D02*
X8571818Y-17275479D01*
X8571818Y-17275479D02*
X8590866Y-17285003D01*
X8590866Y-17285003D02*
X8600389Y-17294527D01*
X8600389Y-17294527D02*
X8609913Y-17313574D01*
X8609913Y-17313574D02*
X8619437Y-17351669D01*
X8619437Y-17351669D02*
X8619437Y-17399289D01*
X8619437Y-17399289D02*
X8609913Y-17437384D01*
X8609913Y-17437384D02*
X8600389Y-17456431D01*
X8600389Y-17456431D02*
X8590866Y-17465955D01*
X8590866Y-17465955D02*
X8571818Y-17475479D01*
X8571818Y-17475479D02*
X8552770Y-17475479D01*
X8552770Y-17475479D02*
X8533723Y-17465955D01*
X8533723Y-17465955D02*
X8524199Y-17456431D01*
X8524199Y-17456431D02*
X8514675Y-17437384D01*
X8514675Y-17437384D02*
X8505151Y-17399289D01*
X8505151Y-17399289D02*
X8505151Y-17351669D01*
X8505151Y-17351669D02*
X8514675Y-17313574D01*
X8514675Y-17313574D02*
X8524199Y-17294527D01*
X8524199Y-17294527D02*
X8533723Y-17285003D01*
X8533723Y-17285003D02*
X8552770Y-17275479D01*
X8705151Y-17456431D02*
X8714675Y-17465955D01*
X8714675Y-17465955D02*
X8705151Y-17475479D01*
X8705151Y-17475479D02*
X8695627Y-17465955D01*
X8695627Y-17465955D02*
X8705151Y-17456431D01*
X8705151Y-17456431D02*
X8705151Y-17475479D01*
X8905151Y-17475479D02*
X8790866Y-17475479D01*
X8848008Y-17475479D02*
X8848008Y-17275479D01*
X8848008Y-17275479D02*
X8828961Y-17304050D01*
X8828961Y-17304050D02*
X8809913Y-17323098D01*
X8809913Y-17323098D02*
X8790866Y-17332622D01*
X8971818Y-17275479D02*
X9095627Y-17275479D01*
X9095627Y-17275479D02*
X9028961Y-17351669D01*
X9028961Y-17351669D02*
X9057532Y-17351669D01*
X9057532Y-17351669D02*
X9076580Y-17361193D01*
X9076580Y-17361193D02*
X9086104Y-17370717D01*
X9086104Y-17370717D02*
X9095627Y-17389765D01*
X9095627Y-17389765D02*
X9095627Y-17437384D01*
X9095627Y-17437384D02*
X9086104Y-17456431D01*
X9086104Y-17456431D02*
X9076580Y-17465955D01*
X9076580Y-17465955D02*
X9057532Y-17475479D01*
X9057532Y-17475479D02*
X9000389Y-17475479D01*
X9000389Y-17475479D02*
X8981342Y-17465955D01*
X8981342Y-17465955D02*
X8971818Y-17456431D01*
X9162294Y-17275479D02*
X9286104Y-17275479D01*
X9286104Y-17275479D02*
X9219437Y-17351669D01*
X9219437Y-17351669D02*
X9248008Y-17351669D01*
X9248008Y-17351669D02*
X9267056Y-17361193D01*
X9267056Y-17361193D02*
X9276580Y-17370717D01*
X9276580Y-17370717D02*
X9286104Y-17389765D01*
X9286104Y-17389765D02*
X9286104Y-17437384D01*
X9286104Y-17437384D02*
X9276580Y-17456431D01*
X9276580Y-17456431D02*
X9267056Y-17465955D01*
X9267056Y-17465955D02*
X9248008Y-17475479D01*
X9248008Y-17475479D02*
X9190866Y-17475479D01*
X9190866Y-17475479D02*
X9171818Y-17465955D01*
X9171818Y-17465955D02*
X9162294Y-17456431D01*
X9381342Y-17475479D02*
X9419437Y-17475479D01*
X9419437Y-17475479D02*
X9438485Y-17465955D01*
X9438485Y-17465955D02*
X9448008Y-17456431D01*
X9448008Y-17456431D02*
X9467056Y-17427860D01*
X9467056Y-17427860D02*
X9476580Y-17389765D01*
X9476580Y-17389765D02*
X9476580Y-17313574D01*
X9476580Y-17313574D02*
X9467056Y-17294527D01*
X9467056Y-17294527D02*
X9457532Y-17285003D01*
X9457532Y-17285003D02*
X9438485Y-17275479D01*
X9438485Y-17275479D02*
X9400389Y-17275479D01*
X9400389Y-17275479D02*
X9381342Y-17285003D01*
X9381342Y-17285003D02*
X9371818Y-17294527D01*
X9371818Y-17294527D02*
X9362294Y-17313574D01*
X9362294Y-17313574D02*
X9362294Y-17361193D01*
X9362294Y-17361193D02*
X9371818Y-17380241D01*
X9371818Y-17380241D02*
X9381342Y-17389765D01*
X9381342Y-17389765D02*
X9400389Y-17399289D01*
X9400389Y-17399289D02*
X9438485Y-17399289D01*
X9438485Y-17399289D02*
X9457532Y-17389765D01*
X9457532Y-17389765D02*
X9467056Y-17380241D01*
X9467056Y-17380241D02*
X9476580Y-17361193D01*
X9552770Y-17275479D02*
X9552770Y-17313574D01*
X9628961Y-17275479D02*
X9628961Y-17313574D01*
X9924199Y-17551669D02*
X9914675Y-17542146D01*
X9914675Y-17542146D02*
X9895628Y-17513574D01*
X9895628Y-17513574D02*
X9886104Y-17494527D01*
X9886104Y-17494527D02*
X9876580Y-17465955D01*
X9876580Y-17465955D02*
X9867056Y-17418336D01*
X9867056Y-17418336D02*
X9867056Y-17380241D01*
X9867056Y-17380241D02*
X9876580Y-17332622D01*
X9876580Y-17332622D02*
X9886104Y-17304050D01*
X9886104Y-17304050D02*
X9895628Y-17285003D01*
X9895628Y-17285003D02*
X9914675Y-17256431D01*
X9914675Y-17256431D02*
X9924199Y-17246908D01*
X9981342Y-17275479D02*
X10105151Y-17275479D01*
X10105151Y-17275479D02*
X10038485Y-17351669D01*
X10038485Y-17351669D02*
X10067056Y-17351669D01*
X10067056Y-17351669D02*
X10086104Y-17361193D01*
X10086104Y-17361193D02*
X10095628Y-17370717D01*
X10095628Y-17370717D02*
X10105151Y-17389765D01*
X10105151Y-17389765D02*
X10105151Y-17437384D01*
X10105151Y-17437384D02*
X10095628Y-17456431D01*
X10095628Y-17456431D02*
X10086104Y-17465955D01*
X10086104Y-17465955D02*
X10067056Y-17475479D01*
X10067056Y-17475479D02*
X10009913Y-17475479D01*
X10009913Y-17475479D02*
X9990866Y-17465955D01*
X9990866Y-17465955D02*
X9981342Y-17456431D01*
X10181342Y-17294527D02*
X10190866Y-17285003D01*
X10190866Y-17285003D02*
X10209913Y-17275479D01*
X10209913Y-17275479D02*
X10257532Y-17275479D01*
X10257532Y-17275479D02*
X10276580Y-17285003D01*
X10276580Y-17285003D02*
X10286104Y-17294527D01*
X10286104Y-17294527D02*
X10295628Y-17313574D01*
X10295628Y-17313574D02*
X10295628Y-17332622D01*
X10295628Y-17332622D02*
X10286104Y-17361193D01*
X10286104Y-17361193D02*
X10171818Y-17475479D01*
X10171818Y-17475479D02*
X10295628Y-17475479D01*
X10533723Y-17475479D02*
X10533723Y-17275479D01*
X10619437Y-17475479D02*
X10619437Y-17370717D01*
X10619437Y-17370717D02*
X10609913Y-17351669D01*
X10609913Y-17351669D02*
X10590866Y-17342146D01*
X10590866Y-17342146D02*
X10562294Y-17342146D01*
X10562294Y-17342146D02*
X10543247Y-17351669D01*
X10543247Y-17351669D02*
X10533723Y-17361193D01*
X10743247Y-17475479D02*
X10724199Y-17465955D01*
X10724199Y-17465955D02*
X10714675Y-17456431D01*
X10714675Y-17456431D02*
X10705151Y-17437384D01*
X10705151Y-17437384D02*
X10705151Y-17380241D01*
X10705151Y-17380241D02*
X10714675Y-17361193D01*
X10714675Y-17361193D02*
X10724199Y-17351669D01*
X10724199Y-17351669D02*
X10743247Y-17342146D01*
X10743247Y-17342146D02*
X10771818Y-17342146D01*
X10771818Y-17342146D02*
X10790866Y-17351669D01*
X10790866Y-17351669D02*
X10800390Y-17361193D01*
X10800390Y-17361193D02*
X10809913Y-17380241D01*
X10809913Y-17380241D02*
X10809913Y-17437384D01*
X10809913Y-17437384D02*
X10800390Y-17456431D01*
X10800390Y-17456431D02*
X10790866Y-17465955D01*
X10790866Y-17465955D02*
X10771818Y-17475479D01*
X10771818Y-17475479D02*
X10743247Y-17475479D01*
X10924199Y-17475479D02*
X10905151Y-17465955D01*
X10905151Y-17465955D02*
X10895628Y-17446908D01*
X10895628Y-17446908D02*
X10895628Y-17275479D01*
X11076580Y-17465955D02*
X11057532Y-17475479D01*
X11057532Y-17475479D02*
X11019437Y-17475479D01*
X11019437Y-17475479D02*
X11000390Y-17465955D01*
X11000390Y-17465955D02*
X10990866Y-17446908D01*
X10990866Y-17446908D02*
X10990866Y-17370717D01*
X10990866Y-17370717D02*
X11000390Y-17351669D01*
X11000390Y-17351669D02*
X11019437Y-17342146D01*
X11019437Y-17342146D02*
X11057532Y-17342146D01*
X11057532Y-17342146D02*
X11076580Y-17351669D01*
X11076580Y-17351669D02*
X11086104Y-17370717D01*
X11086104Y-17370717D02*
X11086104Y-17389765D01*
X11086104Y-17389765D02*
X10990866Y-17408812D01*
X11162294Y-17465955D02*
X11181342Y-17475479D01*
X11181342Y-17475479D02*
X11219437Y-17475479D01*
X11219437Y-17475479D02*
X11238485Y-17465955D01*
X11238485Y-17465955D02*
X11248009Y-17446908D01*
X11248009Y-17446908D02*
X11248009Y-17437384D01*
X11248009Y-17437384D02*
X11238485Y-17418336D01*
X11238485Y-17418336D02*
X11219437Y-17408812D01*
X11219437Y-17408812D02*
X11190866Y-17408812D01*
X11190866Y-17408812D02*
X11171818Y-17399289D01*
X11171818Y-17399289D02*
X11162294Y-17380241D01*
X11162294Y-17380241D02*
X11162294Y-17370717D01*
X11162294Y-17370717D02*
X11171818Y-17351669D01*
X11171818Y-17351669D02*
X11190866Y-17342146D01*
X11190866Y-17342146D02*
X11219437Y-17342146D01*
X11219437Y-17342146D02*
X11238485Y-17351669D01*
X11314675Y-17551669D02*
X11324199Y-17542146D01*
X11324199Y-17542146D02*
X11343247Y-17513574D01*
X11343247Y-17513574D02*
X11352770Y-17494527D01*
X11352770Y-17494527D02*
X11362294Y-17465955D01*
X11362294Y-17465955D02*
X11371818Y-17418336D01*
X11371818Y-17418336D02*
X11371818Y-17380241D01*
X11371818Y-17380241D02*
X11362294Y-17332622D01*
X11362294Y-17332622D02*
X11352770Y-17304050D01*
X11352770Y-17304050D02*
X11343247Y-17285003D01*
X11343247Y-17285003D02*
X11324199Y-17256431D01*
X11324199Y-17256431D02*
X11314675Y-17246908D01*
X11676580Y-17551669D02*
X11667056Y-17542146D01*
X11667056Y-17542146D02*
X11648009Y-17513574D01*
X11648009Y-17513574D02*
X11638485Y-17494527D01*
X11638485Y-17494527D02*
X11628961Y-17465955D01*
X11628961Y-17465955D02*
X11619437Y-17418336D01*
X11619437Y-17418336D02*
X11619437Y-17380241D01*
X11619437Y-17380241D02*
X11628961Y-17332622D01*
X11628961Y-17332622D02*
X11638485Y-17304050D01*
X11638485Y-17304050D02*
X11648009Y-17285003D01*
X11648009Y-17285003D02*
X11667056Y-17256431D01*
X11667056Y-17256431D02*
X11676580Y-17246908D01*
X11752770Y-17342146D02*
X11752770Y-17475479D01*
X11752770Y-17361193D02*
X11762294Y-17351669D01*
X11762294Y-17351669D02*
X11781342Y-17342146D01*
X11781342Y-17342146D02*
X11809913Y-17342146D01*
X11809913Y-17342146D02*
X11828961Y-17351669D01*
X11828961Y-17351669D02*
X11838485Y-17370717D01*
X11838485Y-17370717D02*
X11838485Y-17475479D01*
X11962294Y-17475479D02*
X11943247Y-17465955D01*
X11943247Y-17465955D02*
X11933723Y-17456431D01*
X11933723Y-17456431D02*
X11924199Y-17437384D01*
X11924199Y-17437384D02*
X11924199Y-17380241D01*
X11924199Y-17380241D02*
X11933723Y-17361193D01*
X11933723Y-17361193D02*
X11943247Y-17351669D01*
X11943247Y-17351669D02*
X11962294Y-17342146D01*
X11962294Y-17342146D02*
X11990866Y-17342146D01*
X11990866Y-17342146D02*
X12009913Y-17351669D01*
X12009913Y-17351669D02*
X12019437Y-17361193D01*
X12019437Y-17361193D02*
X12028961Y-17380241D01*
X12028961Y-17380241D02*
X12028961Y-17437384D01*
X12028961Y-17437384D02*
X12019437Y-17456431D01*
X12019437Y-17456431D02*
X12009913Y-17465955D01*
X12009913Y-17465955D02*
X11990866Y-17475479D01*
X11990866Y-17475479D02*
X11962294Y-17475479D01*
X12086104Y-17342146D02*
X12162294Y-17342146D01*
X12114675Y-17275479D02*
X12114675Y-17446908D01*
X12114675Y-17446908D02*
X12124199Y-17465955D01*
X12124199Y-17465955D02*
X12143247Y-17475479D01*
X12143247Y-17475479D02*
X12162294Y-17475479D01*
X12381342Y-17342146D02*
X12381342Y-17542146D01*
X12381342Y-17351669D02*
X12400390Y-17342146D01*
X12400390Y-17342146D02*
X12438485Y-17342146D01*
X12438485Y-17342146D02*
X12457532Y-17351669D01*
X12457532Y-17351669D02*
X12467056Y-17361193D01*
X12467056Y-17361193D02*
X12476580Y-17380241D01*
X12476580Y-17380241D02*
X12476580Y-17437384D01*
X12476580Y-17437384D02*
X12467056Y-17456431D01*
X12467056Y-17456431D02*
X12457532Y-17465955D01*
X12457532Y-17465955D02*
X12438485Y-17475479D01*
X12438485Y-17475479D02*
X12400390Y-17475479D01*
X12400390Y-17475479D02*
X12381342Y-17465955D01*
X12590866Y-17475479D02*
X12571818Y-17465955D01*
X12571818Y-17465955D02*
X12562294Y-17446908D01*
X12562294Y-17446908D02*
X12562294Y-17275479D01*
X12752771Y-17475479D02*
X12752771Y-17370717D01*
X12752771Y-17370717D02*
X12743247Y-17351669D01*
X12743247Y-17351669D02*
X12724199Y-17342146D01*
X12724199Y-17342146D02*
X12686104Y-17342146D01*
X12686104Y-17342146D02*
X12667056Y-17351669D01*
X12752771Y-17465955D02*
X12733723Y-17475479D01*
X12733723Y-17475479D02*
X12686104Y-17475479D01*
X12686104Y-17475479D02*
X12667056Y-17465955D01*
X12667056Y-17465955D02*
X12657532Y-17446908D01*
X12657532Y-17446908D02*
X12657532Y-17427860D01*
X12657532Y-17427860D02*
X12667056Y-17408812D01*
X12667056Y-17408812D02*
X12686104Y-17399289D01*
X12686104Y-17399289D02*
X12733723Y-17399289D01*
X12733723Y-17399289D02*
X12752771Y-17389765D01*
X12819437Y-17342146D02*
X12895628Y-17342146D01*
X12848009Y-17275479D02*
X12848009Y-17446908D01*
X12848009Y-17446908D02*
X12857532Y-17465955D01*
X12857532Y-17465955D02*
X12876580Y-17475479D01*
X12876580Y-17475479D02*
X12895628Y-17475479D01*
X13038485Y-17465955D02*
X13019437Y-17475479D01*
X13019437Y-17475479D02*
X12981342Y-17475479D01*
X12981342Y-17475479D02*
X12962294Y-17465955D01*
X12962294Y-17465955D02*
X12952771Y-17446908D01*
X12952771Y-17446908D02*
X12952771Y-17370717D01*
X12952771Y-17370717D02*
X12962294Y-17351669D01*
X12962294Y-17351669D02*
X12981342Y-17342146D01*
X12981342Y-17342146D02*
X13019437Y-17342146D01*
X13019437Y-17342146D02*
X13038485Y-17351669D01*
X13038485Y-17351669D02*
X13048009Y-17370717D01*
X13048009Y-17370717D02*
X13048009Y-17389765D01*
X13048009Y-17389765D02*
X12952771Y-17408812D01*
X13219437Y-17475479D02*
X13219437Y-17275479D01*
X13219437Y-17465955D02*
X13200390Y-17475479D01*
X13200390Y-17475479D02*
X13162294Y-17475479D01*
X13162294Y-17475479D02*
X13143247Y-17465955D01*
X13143247Y-17465955D02*
X13133723Y-17456431D01*
X13133723Y-17456431D02*
X13124199Y-17437384D01*
X13124199Y-17437384D02*
X13124199Y-17380241D01*
X13124199Y-17380241D02*
X13133723Y-17361193D01*
X13133723Y-17361193D02*
X13143247Y-17351669D01*
X13143247Y-17351669D02*
X13162294Y-17342146D01*
X13162294Y-17342146D02*
X13200390Y-17342146D01*
X13200390Y-17342146D02*
X13219437Y-17351669D01*
X13295628Y-17551669D02*
X13305152Y-17542146D01*
X13305152Y-17542146D02*
X13324199Y-17513574D01*
X13324199Y-17513574D02*
X13333723Y-17494527D01*
X13333723Y-17494527D02*
X13343247Y-17465955D01*
X13343247Y-17465955D02*
X13352771Y-17418336D01*
X13352771Y-17418336D02*
X13352771Y-17380241D01*
X13352771Y-17380241D02*
X13343247Y-17332622D01*
X13343247Y-17332622D02*
X13333723Y-17304050D01*
X13333723Y-17304050D02*
X13324199Y-17285003D01*
X13324199Y-17285003D02*
X13305152Y-17256431D01*
X13305152Y-17256431D02*
X13295628Y-17246908D01*
M02*
